<?xml version="1.0"?>
<svg xmlns:rdf="http://www.w3.org/1999/02/22-rdf-syntax-ns#" xmlns="http://www.w3.org/2000/svg" xmlns:cc="http://web.resource.org/cc/" xmlns:dc="http://purl.org/dc/elements/1.1/" xmlns:sodipodi="http://inkscape.sourceforge.net/DTD/sodipodi-0.dtd" xmlns:svg="http://www.w3.org/2000/svg" id="svg1321" viewBox="0 0 350 350" sodipodi:version="0.32" version="1.0" sodipodi:docname="islam.svg" sodipodi:docbase="C:\Dokumente und Einstellungen\Administrator\Eigene Dateien\Eigene Bilder\aktuelle Bilder\svg\divers">
  <sodipodi:namedview id="base" bordercolor="#666666" borderopacity="1.0" pagecolor="#ffffff"/>
  <g id="g1314" transform="matrix(1.7033 0 0 1.6094 -.70338 -.24277)">
    <path id="path17229" d="m47.361 178.29c-0.184 2.18-3.336 2.25-5.064 2.26-3.649 0.02-7.003-0.61-8.155-2.4-1.213-1.89 2.71-4.28 6.473-4.39 2.861-0.08 6.96 1.97 6.746 4.53z" fill-rule="evenodd" sodipodi:nodetypes="cssss" stroke="#090" stroke-linecap="round" stroke-width="3" fill="#fff"/>
    <path id="path10118" sodipodi:nodetypes="csssc" fill="#090" d="m16.161 184.35c0.19-0.3 13.286 0.76 19.585-2.74 4.959-2.76 3.975-10.63 6.332-10.65 1.614-0.02 2.687 18.67-22.713 16.72-0.432-0.03-3.08-3.43-3.204-3.33z"/>
    <path id="path1338" sodipodi:nodetypes="ccscc" fill="#090" d="m143.78 62.547c11.13-8.596 39.59-27.288 44.51-31.32 0.27 5.295-0.18 6.767-0.94 7.832-4.66 6.617-38.93 27.731-44.94 30.886 0.86-3.919 1.06-5.131 1.37-7.398z"/>
    <path id="path1336" sodipodi:nodetypes="ccscccc" fill="#090" d="m176.44 55.342c0.47 0.968 9.14-8.564 9.3-8.166 1.3 10.838 5.06 27.853 8.7 33.16 3.84 5.599 18.1 9.743 6.24 33.064 3.47-19.632-9.05-24.916-9.14-26.304 8.76 88.844 3.75 102.87-5.46 117.17 4.27-56.34 0.57-90.38-9.64-148.93z"/>
    <path id="path1334" sodipodi:nodetypes="czssccsccccscszzz" fill="#090" d="m8.1872 116.67c4.3748 0.22-7.8387 30.89 8.4498 35.68 16.667 4.89 34.727-58.629 49.975-53.334 21.018 7.294-28.008 93.294 18.962 94.144 33.086 0.59 21.036-21.53 21.616-96.597-0.38-0.116 7.25-8.879 7.84-8.652 6.82 77.309 0.84 107.39 27.32 107.11 43.44-0.45 7.61-69.43 8.43-86.58-0.21 0.81 10.55-23.864 10.06-18.826 2 25.926 14.17 12.016 17.55 54.316-9.79-8.35-0.15-11.37-14.73-26.18 6.85 34.44 20.86 89.93-11.41 97.88-17.46 4.3-25.9-1.18-37.11-21.49-8.07 23.53-25.073 22.7-35.715 20.33-50.668-11.26-3.251-92.44-18.933-95.66-15.1-3.11-21.023 58.19-44.83 50.86-24.533-7.56-11.849-53.23-7.4748-53z"/>
    <path id="path1340" sodipodi:nodetypes="czccsccccscsc" fill="#090" d="m99.764 47.368c-0.264 11.224-1.969 17.902 4.646 18.52 6.63 0.618 4.2-12.013 4.61-19.097 0.07 0.144 4.06-4.079 4.39-4.078 0.33 18.188 0.39 23.723 4.98 23.665 6.5-0.081 3.66-6.519 2.72-17.487 0.16 0.093 4.13-5.869 3.93-6.039 1.5 5.141 5.69 9.889 5.58 9.609 0.2 0.176-1.83 0.805-3.49 0.775 0.1 6.844 3.63 21.285-8.51 21.092-3.86-0.061-5.28-0.985-8.01-3.907-3.07 3.808-6.37 4.606-9.53 4.464-9.907-0.443-7.31-27.017-1.316-27.517z"/>
    <path id="path10116" sodipodi:nodetypes="ccsscccscccss" fill-rule="evenodd" fill="#090" d="m59.148 47.46c-7.341 5.895-1.237 9.354 2.193 9.932 6.643-5.994 8.102-10.031 6.677-11.628-1.785-2.001-4.829-1.55-8.87 1.696zm-3.929-2.585c-8.81 9.168-3.116 16.215 1.139 17.02-4.13 3.25-10.715 7.503-27.139 16.043 2.041-0.323 5.117 1.154 7.062 0.312 10.591-4.582 21.769-11.273 26.875-15.5 1.892 0.123 4.751 0.774 7.406 2.562-0.469-4.453 2.309-5.788-3.315-6.517 6.262-6.476 8.286-19.467 1.597-19.295-5.133 0.135-10.614 2.242-13.625 5.375z"/>
    <path id="path11876" sodipodi:nodetypes="cccc" fill="#090" d="m107.2 9.7237c-0.12-0.7136 4.1-8.2433 5.31-8.9515 8.73 20.203 1.48 33.234-2.55 38.065 2.14-18.546-1.17-26.207-2.76-29.113z"/>
    <path id="path11890" sodipodi:nodetypes="cscccsscccsssssss" fill="#090" d="m140.88 154.98c-2.33-5.63-7.37-7.62-9.15-7.19-1.11 0.27-2.37 2-0.46 6-10.03-8.16-5.88-12.78 5.08-10.17 3.27-11.83 9.14-8.9 11.51-0.9-5.14-2.25-5.69-0.67-6.11 0.07-1.18 2.09-0.62 3.33 3.58 12.95 1.16 2.66 3.27 6.43-0.6 9.7-0.64-4.86-1.98-5.42-3.85-10.46zm-13.46-20.05c-0.32-2.8 0.95-3.22 2.25-3.3 1.67-0.11 2.19 1.87 2.53 1.48 0.97-1.1 0.77-1.99-2.7-6.77-3.11-4.31-4.65-8.92-4.03-11.01 2.71-9.11-0.8-1.68 4.68 6.47 2.11 3.14 8.2 9.15 3.7 14.56-1.87 2.26-6.07 1.75-6.43-1.43z"/>
    <path id="path16275" sodipodi:nodetypes="cscccsscccsssssss" fill="#090" d="m83.224 155.54c2.328-5.62 7.366-7.62 9.149-7.18 1.104 0.27 2.365 2 0.461 6 10.026-8.16 5.879-12.79-5.084-10.17-3.267-11.84-9.144-8.91-11.511-0.9 5.144-2.25 5.694-0.68 6.115 0.07 1.179 2.09 0.613 3.32-3.583 12.94-1.16 2.66-3.27 6.44 0.6 9.7 0.637-4.86 1.974-5.41 3.853-10.46zm13.454-20.05c0.32-2.79-0.948-3.22-2.246-3.3-1.674-0.1-2.188 1.88-2.53 1.49-0.972-1.1-0.768-2 2.694-6.78 3.117-4.3 4.658-8.91 4.035-11.01-2.711-9.11 0.8-1.68-4.677 6.48-2.111 3.14-8.204 9.15-3.708 14.56 1.873 2.25 6.069 1.74 6.432-1.44z"/>
  </g>
  <metadata>
    <rdf:RDF>
      <cc:Work>
        <dc:format>image/svg+xml</dc:format>
        <dc:type rdf:resource="http://purl.org/dc/dcmitype/StillImage"/>
        <cc:license rdf:resource="http://creativecommons.org/licenses/publicdomain/"/>
        <dc:publisher>
          <cc:Agent rdf:about="http://openclipart.org/">
            <dc:title>Openclipart</dc:title>
          </cc:Agent>
        </dc:publisher>
        <dc:title>Allah (green)</dc:title>
        <dc:date>2006-11-03T06:17:43</dc:date>
        <dc:description>Calligraphic name of Allah in Arabic.&#xD;\n&#xD;\nFrom http://commons.wikimedia.org/wiki/Image:Allah-green.svg</dc:description>
        <dc:source>http://openclipart.org/detail/1203/allah-(green)-by-liftarn</dc:source>
        <dc:creator>
          <cc:Agent>
            <dc:title>liftarn</dc:title>
          </cc:Agent>
        </dc:creator>
        <dc:subject>
          <rdf:Bag>
            <rdf:li>calligraphy</rdf:li>
            <rdf:li>clip art</rdf:li>
            <rdf:li>clipart</rdf:li>
            <rdf:li>externalsource</rdf:li>
            <rdf:li>image</rdf:li>
            <rdf:li>media</rdf:li>
            <rdf:li>muslim</rdf:li>
            <rdf:li>png</rdf:li>
            <rdf:li>public domain</rdf:li>
            <rdf:li>religion</rdf:li>
            <rdf:li>sign</rdf:li>
            <rdf:li>svg</rdf:li>
            <rdf:li>wikimedia commons</rdf:li>
          </rdf:Bag>
        </dc:subject>
      </cc:Work>
      <cc:License rdf:about="http://creativecommons.org/licenses/publicdomain/">
        <cc:permits rdf:resource="http://creativecommons.org/ns#Reproduction"/>
        <cc:permits rdf:resource="http://creativecommons.org/ns#Distribution"/>
        <cc:permits rdf:resource="http://creativecommons.org/ns#DerivativeWorks"/>
      </cc:License>
    </rdf:RDF>
  </metadata>
</svg>
