<?xml version="1.0" encoding="UTF-8" standalone="no"?>
<!-- Created with Inkscape (http://www.inkscape.org/) -->

<svg
   xmlns:dc="http://purl.org/dc/elements/1.1/"
   xmlns:cc="http://creativecommons.org/ns#"
   xmlns:rdf="http://www.w3.org/1999/02/22-rdf-syntax-ns#"
   xmlns:svg="http://www.w3.org/2000/svg"
   xmlns="http://www.w3.org/2000/svg"
   xmlns:sodipodi="http://sodipodi.sourceforge.net/DTD/sodipodi-0.dtd"
   xmlns:inkscape="http://www.inkscape.org/namespaces/inkscape"
   width="243.90285"
   height="81.417809"
   viewBox="0 0 64.532628 21.541796"
   version="1.1"
   id="svg8"
   sodipodi:docname="fleur3.svg"
   inkscape:version="0.92.4 (5da689c313, 2019-01-14)">
  <defs
     id="defs2" />
  <sodipodi:namedview
     id="base"
     pagecolor="#ffffff"
     bordercolor="#666666"
     borderopacity="1.0"
     inkscape:pageopacity="0.0"
     inkscape:pageshadow="2"
     inkscape:zoom="0.98994949"
     inkscape:cx="371.78133"
     inkscape:cy="-72.582414"
     inkscape:document-units="px"
     inkscape:current-layer="layer1"
     showgrid="false"
     fit-margin-top="0"
     fit-margin-left="0"
     fit-margin-right="0"
     fit-margin-bottom="0"
     units="px"
     inkscape:window-width="1280"
     inkscape:window-height="738"
     inkscape:window-x="-8"
     inkscape:window-y="-8"
     inkscape:window-maximized="1"
     borderlayer="false"
     inkscape:showpageshadow="false"
     showborder="false" />
  <metadata
     id="metadata5">
    <rdf:RDF>
      <cc:Work
         rdf:about="">
        <dc:format>image/svg+xml</dc:format>
        <dc:type
           rdf:resource="http://purl.org/dc/dcmitype/StillImage" />
        <dc:title></dc:title>
      </cc:Work>
    </rdf:RDF>
  </metadata>
  <g
     inkscape:label="Calque 1"
     inkscape:groupmode="layer"
     id="layer1"
     transform="translate(-0.07518357,-3.8035001)">
    <g
       id="g5"
       transform="matrix(0.15491888,0,0,0.0728499,0.07515916,3.8034635)">
	<path
   id="path7"
   style="fill-rule:evenodd;stroke:#000000;stroke-width:0.036;stroke-miterlimit:10"
   d="m 321.76,152.375 c 1.223,0.937 2.807,1.765 4.895,2.341 2.018,0.575 4.393,1.044 7.273,1.26 v 0 l -1.225,-1.801 v 0 c 2.988,0.828 5.184,1.297 6.732,1.549 1.475,0.216 2.303,0.216 2.34,-0.145 v 0 l 0.252,-1.548 v 0 c 1.584,0.396 3.24,0.685 4.967,0.72 1.693,0.036 3.457,-0.071 5.293,-0.323 v 0 l -0.396,-1.513 v 0 c 0.973,0.36 2.088,0.469 3.744,0.324 1.512,-0.144 3.385,-0.648 5.617,-1.368 v 0 c -1.045,-2.124 -1.908,-3.744 -2.736,-4.859 -0.865,-1.152 -1.693,-1.8 -2.34,-1.944 v 0 l 2.088,-0.9 v 0 c -0.938,-1.584 -1.873,-2.628 -2.953,-3.528 -1.08,-0.936 -2.195,-1.332 -3.348,-1.584 v 0 l 0.611,-1.188 v 0 c -2.303,-1.944 -3.959,-3.024 -5.111,-3.78 -1.152,-0.72 -1.729,-0.792 -1.729,-0.36 v 0 l 0.217,-1.296 v 0 c -0.828,-0.72 -1.836,-1.224 -2.881,-1.656 -1.115,-0.432 -2.268,-0.684 -3.6,-0.756 v 0 l 0.648,-1.404 v 0 c -1.26,-1.332 -2.195,-2.124 -3.203,-2.664 -1.01,-0.576 -1.873,-0.612 -2.594,-0.396 v 0 0 c -0.828,-1.044 -1.943,-1.8 -3.348,-2.268 -1.475,-0.54 -3.168,-0.648 -5.219,-0.612 v 0 l 0.432,-1.44 v 0 c -2.449,-1.188 -4.572,-2.052 -6.516,-2.88 -2.053,-0.864 -3.564,-1.404 -5.076,-1.908 v 0 c 0.863,-0.468 0.863,-1.08 -0.145,-1.692 -1.115,-0.684 -3.672,-1.584 -5.867,-2.16 -2.305,-0.72 -4.609,-1.26 -7.346,-1.764 v 0 l -0.684,-2.088 v 0 c -1.764,-1.62 -4.824,-3.168 -9.576,-4.788 -4.752,-1.692 -10.799,-3.312 -18.539,-5.004 v 0 c 0.9,0.36 2.627,0.612 5.328,0.36 2.627,-0.144 7.02,-0.792 10.656,-1.548 3.563,-0.972 7.092,-2.16 10.727,-3.852 v 0 c 2.449,2.628 5.797,4.896 10.441,6.948 4.643,2.016 11.303,4.572 16.92,5.184 5.471,0.54 10.512,-0.18 15.551,-2.016 v 0 l -0.611,-1.584 v 0 c 2.305,-0.18 4.32,-0.504 6.443,-1.116 2.016,-0.648 3.961,-1.584 5.832,-2.664 v 0 l -1.656,-1.944 v 0 c 1.369,0 2.846,-0.324 4.969,-1.368 1.98,-1.044 4.393,-2.521 7.092,-4.572 v 0 l -1.691,-1.044 v 0 c 1.477,-0.612 2.951,-1.332 4.859,-2.556 1.801,-1.26 3.744,-2.628 5.977,-4.5 v 0 l -1.729,-1.728 v 0 c 2.232,-0.684 4.104,-1.512 5.76,-2.484 1.656,-1.008 2.916,-2.124 4.068,-3.492 v 0 l -1.871,-1.296 v 0 c 2.158,-1.476 3.996,-2.772 5.363,-4.032 1.332,-1.332 2.34,-2.34 2.881,-3.42 v 0 l -1.297,-0.9 v 0 c 1.656,-0.9 3.096,-2.124 4.176,-3.816 1.08,-1.728 1.943,-3.852 2.447,-6.372 v 0 c -1.402,-0.684 -2.734,-0.936 -4.139,-1.152 -1.477,-0.108 -2.881,-0.18 -4.357,0.18 v 0 l 0.324,-1.764 v 0 c -1.619,-0.684 -3.096,-0.972 -4.428,-1.008 -1.367,-0.072 -2.592,0.216 -3.672,0.864 v 0 l 0.469,-1.44 v 0 c -2.268,-0.54 -4.033,-0.54 -5.293,-0.396 -1.332,0.108 -2.051,0.756 -2.303,1.548 v 0 l -2.125,-2.556 v 0 c -2.809,-0.396 -4.752,-0.54 -6.229,-0.432 -1.367,0.036 -2.268,0.324 -2.303,0.864 v 0 c -0.396,-0.792 -0.828,-1.548 -1.441,-1.872 -0.611,-0.432 -1.33,-0.612 -2.303,-0.54 -1.188,-0.036 -2.484,0.18 -4.285,0.648 v 0 l 0.145,-1.8 v 0 c -2.195,-0.792 -4.104,-1.008 -5.725,-0.504 -1.691,0.396 -3.096,1.512 -4.211,3.204 v 0 L 340.655,46.5 v 0 c -2.23,0.648 -3.924,1.62 -5.363,2.628 -1.439,1.008 -2.447,2.196 -3.168,3.564 v 0 l -0.756,-1.872 v 0 c -1.691,1.368 -2.916,2.628 -3.672,3.636 -0.793,0.972 -1.115,1.836 -0.973,2.448 v 0 l -2.051,-1.368 v 0 c -2.088,0.792 -3.854,2.016 -5.438,3.528 -1.619,1.476 -2.916,3.384 -4.031,5.58 v 0 l -1.297,-1.584 v 0 c -1.512,1.152 -2.699,2.34 -3.707,3.852 -0.973,1.476 -1.764,2.988 -2.232,4.824 v 0 l -1.908,-1.8 v 0 c -1.727,2.304 -3.42,5.112 -4.68,8.424 -1.295,3.276 -2.557,7.02 -3.383,11.376 v 0 c -2.629,1.836 -5.186,2.952 -7.525,3.744 -2.412,0.684 -4.607,0.864 -6.732,0.54 v 0 c 2.736,-1.836 5.041,-3.528 6.77,-4.932 1.764,-1.476 2.951,-2.808 3.707,-3.852 v 0 c -1.332,-0.576 -2.123,-1.008 -2.52,-1.296 -0.432,-0.36 -0.324,-0.576 0.18,-0.648 v 0 c 1.26,-0.936 2.447,-2.124 3.564,-3.42 1.08,-1.368 2.088,-2.844 3.023,-4.572 v 0 l -2.016,-1.368 v 0 c 2.053,-1.116 3.779,-2.592 5.039,-4.572 1.297,-2.016 2.125,-4.5 2.629,-7.452 v 0 0 c 1.008,-2.52 1.871,-4.788 2.592,-6.804 0.721,-2.088 1.297,-3.852 1.729,-5.436 v 0 l -1.908,0.288 v 0 c 0.863,-1.764 1.547,-3.6 2.195,-5.508 0.576,-2.016 0.973,-4.104 1.332,-6.264 v 0 h -2.051 v 0 c 1.295,-2.844 2.123,-4.824 2.482,-6.336 0.289,-1.548 0.217,-2.232 -0.359,-2.448 v 0 l -2.34,0.144 v 0 c 0.469,-1.836 0.684,-3.6 0.793,-5.292 0.035,-1.728 -0.109,-3.348 -0.434,-5.004 v 0 l -1.656,0.828 v 0 c -0.143,-2.376 -0.539,-4.212 -1.043,-5.904 -0.504,-1.728 -1.26,-2.916 -2.125,-3.96 v 0 0 C 303.07,8.988 302.531,7.584 301.703,6 300.73,4.308 299.65,2.436 298.066,0.384 v 0 c -1.188,-0.756 -2.916,-0.324 -5.58,1.152 -2.664,1.44 -6.047,4.068 -10.15,7.74 v 0 l -1.477,-0.972 v 0 c -0.828,0.072 -1.801,0.9 -2.771,2.34 -1.045,1.44 -2.16,3.492 -3.35,6.3 v 0 l -1.727,-1.728 v 0 c -2.16,1.908 -3.564,4.032 -4.645,6.084 -1.045,2.016 -1.619,4.248 -1.584,6.408 v 0 l -2.195,-0.972 v 0 c -1.225,1.944 -2.088,3.924 -2.592,6.084 -0.541,2.088 -0.828,4.248 -0.721,6.48 v 0 l -3.061,-0.324 v 0 c -0.504,2.556 -0.971,5.112 -1.008,7.524 -0.217,2.448 0,4.752 0.252,7.056 v 0 L 255.189,52.8 v 0 c -0.072,1.008 -0.107,2.304 -0.107,3.888 0,1.62 -0.037,3.384 0.035,5.58 v 0 l -2.844,-0.252 v 0 c -0.432,2.412 -0.504,5.292 0.18,8.64 0.576,3.312 1.115,7.128 3.42,11.304 2.305,4.104 5.473,8.496 10.045,13.32 v 0 c -3.816,0.648 -8.424,0.612 -13.824,0.036 -5.545,-0.648 -11.592,-1.836 -18.721,-3.708 v 0 l -0.18,4.824 v 0 c 5.977,1.404 11.16,2.196 15.695,2.664 4.5,0.36 7.957,-0.252 11.34,-0.18 3.35,-0.036 6.084,0.108 8.496,0.288 v 0 c -1.08,5.076 -1.26,9.684 -0.143,13.968 1.043,4.176 2.771,7.164 6.299,11.592 3.42,4.428 8.1,9.468 14.184,15.12 v 0 l 1.08,-1.944 v 0 c 2.412,1.908 4.465,3.42 6.012,4.536 1.477,1.044 2.594,1.764 3.205,2.016 v 0 l 0.863,-2.016 v 0 c 2.305,2.304 4.5,3.996 6.445,5.364 1.979,1.332 3.707,2.053 5.328,2.448 v 0 l 1.799,-2.16 v 0 c 1.08,1.116 2.197,2.196 3.492,3.24 1.26,1.008 2.447,1.98 3.852,2.916 v 0 c 0.186,-0.613 0.403,-1.261 0.62,-1.909 z"
   inkscape:connector-curvature="0" />

	<path
   id="path9"
   style="fill:#008000;fill-rule:evenodd;stroke:#000000;stroke-width:0.036;stroke-miterlimit:10"
   d="m 267.832,94.991 c -2.449,-2.484 -4.572,-5.184 -6.66,-8.244 -2.125,-3.024 -4.43,-6.12 -5.652,-9.972 -1.332,-3.996 -1.801,-8.424 -1.801,-13.572 v 0 l 3.168,-0.792 v 0 c -0.107,-0.576 0,-1.44 -0.072,-2.592 -0.072,-1.26 -0.107,-2.808 -0.107,-4.644 v 0 l 2.52,-1.476 v 0 c -0.395,-1.728 -0.756,-3.564 -0.684,-5.796 -0.107,-2.232 0.217,-4.716 0.576,-7.452 v 0 l 3.672,-0.18 v 0 c -0.107,-2.412 0.107,-4.536 0.504,-6.516 0.359,-2.088 1.045,-3.744 1.908,-5.4 v 0 l 3.348,0.18 v 0 c -0.324,-1.404 -0.18,-3.096 0.432,-4.932 0.613,-1.98 1.621,-3.96 3.168,-6.372 v 0 l 2.773,1.152 v 0 c 0.611,-1.656 1.402,-2.988 2.375,-4.536 1.008,-1.476 2.053,-2.988 3.42,-4.392 v 0 l 1.656,1.224 v 0 c 0.863,-0.828 2.484,-1.872 4.717,-3.528 2.303,-1.692 5.039,-3.6 8.748,-6.12 v 0 c -1.836,3.672 -3.492,7.164 -4.969,10.62 -1.512,3.348 -2.844,6.66 -3.996,9.792 v 0 c -0.9,-1.044 -1.98,-2.088 -2.951,-3.528 -1.045,-1.548 -3.098,-4.716 -3.24,-4.788 -0.217,-0.036 0.863,3.132 1.871,4.788 1.008,1.656 2.16,3.276 3.852,5.004 v 0 c -0.287,1.26 -0.684,3.168 -1.332,5.58 -0.646,2.376 -1.439,5.4 -2.375,8.928 v 0 c -2.016,-0.36 -3.744,-1.368 -5.328,-3.168 -1.656,-1.872 -3.492,-7.056 -4.141,-7.632 -0.684,-0.612 -0.035,2.952 0.289,4.032 0.252,1.044 0.756,1.836 1.512,2.376 v 0 c 0.973,1.152 1.98,2.16 3.313,3.168 1.26,0.936 2.664,1.8 4.355,2.592 v 0 c -1.08,3.276 -1.873,5.976 -2.377,8.244 -0.504,2.232 -0.863,3.996 -0.791,5.292 v 0 c -1.943,-1.908 -3.564,-3.492 -5.004,-4.896 -1.477,-1.44 -2.377,-0.972 -3.672,-3.312 -1.404,-2.448 -2.844,-5.976 -4.465,-10.98 v 0 c -0.396,0.252 -0.432,1.188 0.037,2.808 0.359,1.476 1.404,4.644 2.447,6.588 0.973,1.8 2.305,3.744 3.42,4.86 0.936,1.008 1.549,0.432 2.664,1.584 1.115,1.08 2.412,2.808 4.031,5.04 v 0 c -0.756,2.736 -1.367,5.112 -1.836,7.272 -0.539,2.124 -0.863,3.996 -1.115,5.616 v 0 c -0.9,-2.16 -1.801,-4.356 -2.844,-6.732 -1.045,-2.556 -1.98,-5.4 -3.24,-7.56 -1.404,-2.268 -3.564,-3.744 -4.68,-5.256 -1.152,-1.62 -1.764,-3.492 -1.98,-3.672 -0.252,-0.144 -0.107,0.828 0.432,2.916 v 0 c 0.973,1.512 1.908,2.736 2.809,3.96 0.791,1.116 1.477,0.936 2.484,2.916 1.008,1.836 2.34,5.58 3.455,8.316 0.936,2.592 1.836,5.112 2.557,7.56 v 0 c -0.936,2.556 -1.549,5.076 -2.125,7.416 -0.611,2.268 -0.898,4.5 -1.15,6.552 v 0 c -2.988,-3.276 -5.004,-6.372 -6.336,-9.288 -1.262,-3.06 -0.576,-5.796 -1.404,-8.352 -1.008,-2.592 -3.709,-6.12 -4.213,-6.696 -0.539,-0.612 0.504,1.62 1.045,3.096 0.395,1.404 1.295,3.24 1.727,5.22 0.361,1.872 0.072,4.068 0.793,6.048 0.611,1.98 1.691,3.672 3.24,5.472 v 0 l 4.752,6.444 v 0 c -0.107,1.692 -0.611,3.348 -1.117,4.968 -0.542,1.62 -1.477,3.204 -2.413,4.752 z"
   inkscape:connector-curvature="0" />

	<path
   id="path11"
   style="fill:#008000;fill-rule:evenodd;stroke:#000000;stroke-width:0.036;stroke-miterlimit:10"
   d="m 269.416,97.115 c 2.771,-0.036 5.256,-0.468 7.596,-1.152 2.23,-0.792 3.707,-1.656 6.227,-3.276 2.449,-1.692 5.4,-3.96 8.713,-6.804 v 0 l -1.908,-2.484 v 0 c 1.152,-0.936 2.377,-2.016 3.527,-3.24 1.189,-1.26 2.16,-2.664 3.35,-4.212 v 0 l -1.836,-1.98 v 0 c 1.691,-0.036 3.311,-1.404 4.859,-3.96 1.477,-2.664 3.061,-8.352 4.32,-11.52 1.295,-3.204 2.195,-5.724 3.096,-7.56 v 0 l -2.412,-0.324 v 0 c 1.115,-2.304 1.943,-4.284 2.627,-6.084 0.613,-1.908 1.08,-3.276 1.262,-4.644 v 0 l -1.98,-0.9 v 0 c 1.367,-3.312 2.051,-5.616 2.195,-6.912 0.107,-1.404 -0.324,-1.8 -1.439,-1.188 v 0 c -0.611,0.144 -0.936,-0.504 -0.973,-1.944 -0.072,-1.512 0.145,-3.78 0.648,-6.948 v 0 l -1.729,-0.324 v 0 c -0.576,-2.772 -1.188,-5.004 -1.691,-6.84 -0.611,-1.836 -1.045,-2.88 -1.439,-3.96 -0.361,-1.224 -0.145,-1.332 -0.9,-2.844 -0.973,-1.584 -2.268,-3.636 -4.32,-6.3 v 0 c -1.549,3.42 -3.168,6.876 -4.572,10.764 -1.439,3.816 -2.951,7.776 -4.248,12.024 v 0 c -0.035,0.108 0.504,-0.18 1.621,-0.864 1.08,-0.792 4.57,-3.564 4.932,-3.456 0.324,0.036 -1.98,2.808 -3.023,3.852 -1.262,0.936 -2.736,1.62 -3.602,2.052 -0.828,0.432 -1.188,0.576 -1.08,0.576 v 0 c -0.971,2.268 -1.656,4.284 -2.195,6.192 -0.611,1.836 -0.936,3.492 -1.115,4.968 v 0 c 1.367,0.216 3.42,-0.288 6.299,-1.368 2.844,-1.26 9.289,-5.22 10.584,-5.508 1.152,-0.216 -1.764,2.664 -3.492,3.924 -1.836,1.116 -4.211,2.088 -7.271,2.916 v 0 c -1.549,0.576 -2.771,1.044 -3.816,1.26 -1.08,0.216 -1.908,0.252 -2.484,0.108 v 0 c -1.115,3.276 -2.051,6.3 -2.664,9.072 -0.684,2.736 -1.043,5.22 -1.223,7.452 v 0 c 2.807,-0.36 5.471,-1.08 7.848,-2.016 2.34,-1.044 4.535,-2.34 6.443,-3.888 1.836,-1.728 2.953,-4.608 4.717,-5.58 1.764,-1.008 4.896,-0.396 5.508,-0.252 0.432,0.072 -0.359,0.288 -2.52,0.792 v 0 c -1.008,-0.54 -1.908,-0.396 -3.096,0.576 -1.189,1.008 -2.27,3.384 -3.672,5.04 -1.404,1.368 -2.305,2.556 -4.789,3.708 -2.699,1.116 -6.156,2.34 -10.801,3.384 v 0 c -1.043,3.348 -1.836,6.192 -2.375,8.928 -0.611,2.628 -0.973,4.968 -1.08,7.02 v 0 c 3.709,-0.432 6.48,-1.116 8.604,-2.196 1.98,-1.08 1.369,-2.556 3.852,-4.284 2.557,-1.872 6.121,-3.996 11.09,-6.516 v 0 c -2.27,1.224 -3.457,2.556 -3.709,3.852 -0.217,1.332 2.232,3.6 2.34,4.032 -0.035,0.36 -1.729,-1.296 -2.305,-1.908 -0.574,-0.72 -1.115,-1.44 -1.332,-2.304 v 0 c -1.943,0.684 -3.742,1.62 -5.256,3.096 -1.619,1.44 -1.943,3.96 -4.176,5.328 -2.303,1.224 -5.363,2.016 -9.324,2.232 v 0 c -0.936,4.572 -1.764,8.244 -2.627,11.16 -0.973,2.844 -1.729,4.248 -2.412,6.156 -0.653,1.836 -1.157,3.528 -1.372,5.076 z"
   inkscape:connector-curvature="0" />

	<path
   id="path13"
   style="fill:#008000;fill-rule:evenodd;stroke:#000000;stroke-width:0.036;stroke-miterlimit:10"
   d="m 234.424,95.459 c 1.402,0.468 3.707,0.936 7.307,1.26 3.457,0.252 9.504,0.72 13.717,0.864 4.104,0.072 9.469,0.072 11.088,0 1.512,-0.18 -0.145,-0.54 -2.053,-0.684 -2.051,-0.18 -4.859,0.072 -9.791,-0.504 -5.041,-0.72 -11.484,-1.872 -19.873,-3.6 v 0 c -0.108,0.864 -0.253,1.765 -0.395,2.664 z"
   inkscape:connector-curvature="0" />

	<path
   id="path15"
   style="fill:#008000;fill-rule:evenodd;stroke:#000000;stroke-width:0.036;stroke-miterlimit:10"
   d="m 269.738,100.355 c -0.467,4.104 -0.18,7.812 0.469,11.268 0.648,3.384 1.871,6.048 3.672,9.108 1.729,2.952 4.248,5.904 6.732,8.712 2.34,2.808 5.004,5.292 7.703,7.884 v 0 l 2.412,-0.576 v 0 c 0.361,0.144 1.369,0.792 2.629,1.8 1.26,0.972 2.988,2.448 5.184,4.284 v 0 l 1.332,-2.124 v 0 c 0.396,0.504 1.656,1.548 3.637,2.844 2.016,1.296 4.752,2.988 8.352,5.076 v 0 l 2.34,-2.447 v 0 c 1.295,1.008 2.268,1.944 3.348,2.953 0.936,0.936 1.836,1.836 2.557,2.699 v 0 l 1.764,-1.26 v 0 c 1.225,1.332 2.447,2.16 4.104,2.772 1.549,0.54 3.24,0.684 5.221,0.575 v 0 l 0.215,-1.332 v 0 c 1.656,0.505 3.133,0.937 4.572,1.297 1.404,0.252 2.809,0.611 3.672,0.54 0.756,-0.181 1.045,-0.576 0.865,-1.332 v 0 c 1.547,0.035 3.203,0.18 4.68,0.144 1.439,0 3.492,0 4.355,-0.144 0.793,-0.252 1.045,-0.648 0.611,-1.188 v 0 c 1.549,0.288 3.061,0.288 4.682,0.145 1.584,-0.252 3.24,-0.648 4.967,-1.332 v 0 c -2.447,-0.9 -5.219,-1.908 -8.855,-3.42 -3.6,-1.513 -7.74,-3.24 -12.564,-5.329 v 0 c -0.252,0.54 -0.215,1.584 -0.035,2.988 0.107,1.44 1.152,4.608 1.188,5.472 -0.035,0.684 -0.791,0.107 -1.152,-0.612 -0.504,-0.9 -0.971,-2.34 -1.26,-3.888 -0.252,-1.548 -0.432,-3.24 -0.396,-5.22 v 0 c -3.023,-1.152 -5.795,-2.376 -8.314,-3.672 -2.594,-1.332 -4.934,-2.736 -7.021,-4.212 v 0 c -0.287,1.044 -0.215,2.736 0.217,4.932 0.432,2.16 1.836,6.696 2.123,8.352 0.109,1.584 -0.576,2.196 -0.936,1.548 -0.432,-0.647 -0.756,-2.412 -1.26,-5.292 v 0 c -0.791,-2.016 -1.152,-3.708 -1.477,-5.364 -0.359,-1.656 -0.287,-3.132 -0.18,-4.428 v 0 c -2.592,-1.404 -4.68,-2.376 -6.408,-3.312 -1.764,-0.828 -3.059,-1.62 -3.887,-1.98 v 0 c -0.793,1.116 -1.26,2.484 -1.549,4.104 -0.396,1.656 -0.539,3.492 -0.145,5.508 0.396,1.836 2.449,4.86 2.664,5.76 0.145,0.828 -0.395,0.648 -1.619,-0.54 v 0 c -0.936,-1.188 -1.691,-2.376 -2.125,-3.96 -0.539,-1.584 -0.791,-3.492 -0.611,-5.292 0.217,-1.872 0.793,-3.816 1.871,-5.832 v 0 c -2.555,-1.296 -5.256,-2.88 -8.242,-4.608 -3.025,-1.764 -6.193,-3.816 -9.648,-6.012 v 0 c -0.541,1.152 -0.684,2.772 -0.289,5.256 0.324,2.376 2.27,7.272 2.521,9.144 0.252,1.872 -0.541,2.736 -1.01,1.764 -0.611,-1.116 -1.691,-6.3 -2.123,-8.352 -0.432,-2.232 -0.576,-3.492 -0.432,-4.32 v 0 l -0.252,-4.212 v 0 c -3.277,-1.908 -6.084,-3.492 -8.137,-5.04 -2.088,-1.584 -3.707,-2.844 -4.572,-4.068 v 0 c -0.756,1.764 -1.008,3.816 -0.756,6.012 0.18,2.16 0.973,4.608 2.232,7.2 v 0 c -1.08,-0.324 -1.908,-1.332 -2.484,-2.88 -0.719,-1.692 -1.08,-4.824 -1.08,-6.624 0.037,-1.872 0.324,-3.24 1.152,-4.248 v 0 c -1.332,-1.368 -2.412,-2.448 -3.24,-3.384 -0.831,-1.009 -1.622,-1.729 -1.984,-2.305 z"
   inkscape:connector-curvature="0" />

	<path
   id="path17"
   style="fill:#008000;fill-rule:evenodd;stroke:#000000;stroke-width:0.036;stroke-miterlimit:10"
   d="m 274.023,100.391 c 3.42,0.792 6.551,1.656 9.791,2.592 3.168,0.9 6.84,2.016 9.217,3.06 2.195,0.936 3.24,1.8 4.5,2.88 1.26,0.972 2.268,2.124 3.023,3.312 v 0 c 4.607,0.324 7.885,1.08 9.828,1.872 1.943,0.792 2.412,1.836 1.691,3.132 v 0 c 0.9,-0.108 2.377,0.18 4.43,1.008 1.979,0.792 4.535,1.98 7.668,3.708 v 0 l -0.145,1.8 v 0 c 1.367,0.108 2.809,0.396 4.32,0.72 1.439,0.288 3.42,0.72 4.535,1.296 0.973,0.504 1.621,1.152 1.656,1.944 v 0 c 1.439,-0.324 2.664,-0.144 3.275,0.396 0.576,0.468 0.938,1.44 0.686,2.772 v 0 c 2.23,0.18 3.924,0.72 4.932,1.62 1.008,0.792 1.404,1.98 1.188,3.42 v 0 c 0.721,-0.576 1.512,-0.792 2.375,-0.36 0.865,0.396 1.801,1.152 2.809,2.556 v 0 0 c 0.9,0.972 1.764,1.656 2.449,2.196 0.611,0.432 0.863,0.216 1.584,0.756 0.646,0.504 1.512,1.188 2.447,2.196 v 0 l -2.16,1.836 4.859,3.924 v 0 c -3.24,-0.937 -6.479,-2.088 -10.15,-3.6 -3.744,-1.548 -7.488,-3.204 -11.664,-5.256 v 0 c 2.592,-0.36 4.283,-0.504 5.219,-0.828 0.936,-0.36 0.973,-0.504 0.252,-0.828 v 0 c -1.295,0.108 -2.52,0.036 -3.672,0.18 -1.225,0.036 -2.375,0.108 -3.455,0.216 v 0 c -1.98,-0.648 -3.996,-1.44 -6.193,-2.52 -2.23,-1.188 -4.607,-2.376 -7.127,-3.996 v 0 c 0.539,0.18 1.225,0.036 2.447,-0.576 1.152,-0.612 2.557,-1.548 4.355,-2.952 v 0 c -0.539,-0.324 -1.475,-0.252 -2.807,0.216 -1.439,0.468 -3.096,1.296 -5.365,2.628 v 0 c -2.34,-1.368 -4.139,-2.304 -5.795,-3.096 -1.656,-0.828 -2.881,-1.224 -3.816,-1.476 v 0 c 0.18,-0.36 1.225,-0.792 2.844,-1.152 1.621,-0.432 3.961,-0.936 7.02,-1.368 v 0 c -1.764,-0.864 -3.563,-1.152 -5.398,-0.864 -1.873,0.252 -3.744,1.08 -5.76,2.484 v 0 c -1.152,-0.756 -3.205,-1.944 -6.301,-3.708 -3.168,-1.8 -7.236,-3.924 -12.348,-6.66 v 0 c 0.215,-0.648 0.791,-1.116 2.016,-1.404 1.188,-0.288 2.771,-0.54 4.896,-0.468 v 0 c -1.008,-0.9 -2.018,-1.332 -3.457,-1.152 -1.439,0.108 -3.023,0.72 -4.896,1.836 v 0 c -2.303,-0.937 -4.391,-2.124 -6.551,-3.564 -2.232,-1.62 -4.752,-3.276 -6.301,-5.112 -1.583,-1.908 -2.519,-3.6 -2.951,-5.616 z"
   inkscape:connector-curvature="0" />

	<path
   id="path19"
   style="fill:#008000;fill-rule:evenodd;stroke:#000000;stroke-width:0.036;stroke-miterlimit:10"
   d="m 300.447,91.931 c 2.016,2.52 4.715,4.824 8.496,6.768 3.707,1.944 10.188,3.996 13.752,5.04 3.348,0.9 4.32,0.792 7.236,0.792 2.951,0 6.371,-0.288 10.404,-0.72 v 0 l -0.793,-2.556 v 0 c 1.404,0.072 2.916,-0.144 4.141,-0.252 1.188,-0.288 2.16,-0.468 3.492,-0.936 1.332,-0.504 2.699,-1.044 4.391,-1.764 v 0 l -0.756,-2.556 v 0 c 1.729,0 3.385,-0.468 5.365,-1.26 1.836,-0.864 3.814,-2.124 5.939,-3.78 v 0 l -1.045,-1.728 v 0 c 1.152,-0.828 2.629,-1.8 4.285,-2.772 1.691,-1.008 3.564,-2.016 5.76,-3.168 v 0 l -1.045,-2.448 v 0 c 1.908,-0.72 3.672,-1.512 5.293,-2.376 1.584,-0.972 3.023,-1.836 4.32,-2.988 v 0 L 377.99,73.5 v 0 c 1.297,-0.936 2.557,-2.016 3.926,-3.096 1.332,-1.116 2.627,-2.232 4.031,-3.492 v 0 l -0.973,-1.26 v 0 c 1.584,-1.188 2.916,-2.52 3.996,-3.996 1.08,-1.512 1.908,-3.168 2.484,-4.968 v 0 c -5.939,3.636 -10.98,6.552 -15.695,8.892 -4.717,2.268 -8.676,3.816 -12.168,4.788 v 0 c 3.527,1.62 6.264,2.628 8.207,3.42 1.943,0.684 2.953,0.972 3.313,0.864 v 0 c -0.756,0.324 -1.621,0.432 -2.988,0.18 -1.439,-0.36 -3.348,-1.008 -4.896,-1.656 -1.619,-0.684 -3.023,-1.368 -4.5,-2.196 v 0 c -1.619,0.36 -3.455,0.864 -5.904,1.512 -2.412,0.648 -5.219,1.368 -8.424,2.304 v 0 c 1.621,1.26 3.854,2.592 6.697,3.852 2.879,1.296 6.191,2.376 10.367,3.672 v 0 c -0.539,0.108 -1.691,0 -3.455,-0.468 -1.801,-0.468 -4.861,-1.188 -7.236,-2.16 -2.52,-1.08 -4.932,-2.412 -7.523,-4.14 v 0 c -1.297,0.324 -3.061,0.9 -5.293,1.728 -2.268,0.792 -5.004,1.764 -8.207,3.06 v 0 c 1.115,1.62 2.807,2.952 5.219,4.284 2.377,1.26 5.977,2.34 8.855,3.384 2.701,0.972 5.221,1.764 7.561,2.52 v 0 c -0.863,0.468 -2.52,0.324 -5.111,-0.288 -2.736,-0.792 -8.064,-2.736 -10.549,-3.744 -2.52,-1.008 -3.061,-1.512 -4.248,-2.34 -1.223,-0.9 -2.303,-1.98 -3.096,-3.096 v 0 c -2.195,1.26 -4.717,2.484 -7.703,3.672 -2.953,1.152 -6.373,2.268 -10.117,3.348 v 0 c 2.664,2.628 6.121,4.5 10.512,6.048 4.32,1.404 9.541,2.34 15.66,2.664 v 0 c -0.936,0.396 -2.699,0.504 -5.291,0.324 -2.736,-0.252 -6.984,-0.792 -10.369,-1.62 -3.42,-1.008 -7.775,-2.628 -9.863,-3.744 -2.195,-1.116 -3.133,-2.052 -2.951,-2.808 v 0 c -3.926,0.972 -7.852,1.979 -11.811,2.987 z"
   inkscape:connector-curvature="0" />

	<path
   id="path21"
   style="fill:#008000;fill-rule:evenodd;stroke:#000000;stroke-width:0.036;stroke-miterlimit:10"
   d="m 299.402,90.203 c 0.252,-2.016 0.648,-4.104 1.332,-6.264 0.613,-2.34 1.404,-4.752 2.377,-6.84 0.863,-2.088 1.871,-3.744 3.023,-5.256 v 0 l 2.053,1.368 v 0 c 0.684,-1.404 1.439,-2.7 2.412,-4.032 1.008,-1.332 1.908,-2.556 3.24,-3.816 v 0 l 2.268,0.756 v 0 c 0.863,-1.8 1.98,-3.384 3.348,-4.896 1.332,-1.548 2.916,-2.952 4.752,-4.212 v 0 l 3.275,1.8 v 0 c 0.541,-1.152 1.008,-2.016 1.549,-2.736 0.432,-0.792 1.08,-1.332 1.404,-1.62 0.287,-0.324 0.18,-0.396 0.072,-0.216 v 0 l 1.979,0.9 v 0 c 0.686,-1.8 1.693,-2.952 2.629,-3.996 1.043,-0.972 2.664,-1.656 3.313,-1.908 0.504,-0.36 0.504,-0.36 0,0 v 0 l 2.916,2.16 v 0 c 0.539,-1.296 1.439,-2.232 2.699,-2.808 1.225,-0.684 2.699,-0.828 4.572,-0.828 v 0 l 1.584,1.476 v 0 c 0.936,-0.18 1.98,-0.144 2.988,-0.18 1.008,-0.144 2.051,-0.288 3.131,0.108 0.865,0.36 1.656,1.26 2.377,2.412 v 0 c 1.152,-0.468 2.195,-0.756 3.672,-0.864 1.26,-0.144 3.313,-0.432 4.5,0.108 1.225,0.432 2.088,1.404 2.736,2.772 v 0 c 1.08,-1.44 2.088,-2.304 3.168,-2.196 1.043,0 1.908,0.792 2.879,2.376 v 0 c 1.152,-0.432 2.232,-0.684 3.385,-0.756 1.08,-0.108 2.195,-0.036 3.348,0.216 v 0 l 0.432,2.196 v 0 c 1.656,0.144 3.133,0.252 4.428,0.324 1.225,0.072 2.27,0.108 3.133,0.108 v 0 c -1.943,1.296 -5.111,2.988 -9.359,5.22 -4.32,2.232 -9.721,4.86 -16.344,8.028 v 0 c -0.252,-0.576 -0.037,-1.692 0.936,-3.636 0.936,-1.908 2.34,-4.5 4.5,-7.776 v 0 c -0.936,-0.288 -1.908,0.576 -3.061,2.448 -1.152,1.836 -2.484,4.68 -3.852,8.676 v 0 c -1.656,0.576 -3.672,1.224 -6.049,1.944 -2.375,0.648 -5.111,1.476 -8.207,2.34 v 0 c 0.215,-1.224 0.863,-2.736 1.656,-4.536 0.791,-1.944 1.691,-4.5 3.24,-6.552 1.475,-2.088 3.311,-3.96 5.65,-5.76 v 0 c -1.332,-0.108 -2.916,0.828 -4.752,2.808 -1.908,1.98 -4.787,6.48 -6.264,9.036 -1.512,2.484 -2.303,4.392 -2.52,5.868 v 0 l -10.439,3.708 v 0 c -0.18,-0.756 0.287,-1.944 1.26,-3.96 0.9,-2.016 2.807,-5.256 4.752,-7.92 1.836,-2.844 5.977,-7.272 6.732,-8.424 0.646,-1.224 -1.08,-0.144 -2.412,1.296 -1.441,1.404 -3.709,4.104 -5.545,6.732 -1.908,2.448 -4.248,5.796 -5.508,8.1 -1.297,2.268 -2.123,3.924 -2.34,5.256 v 0 c -0.973,0.648 -3.096,1.728 -6.373,2.952 -3.348,1.188 -7.775,2.808 -13.428,4.572 v 0 c 0,-1.548 0.396,-3.456 1.189,-5.868 0.791,-2.556 3.238,-7.344 3.6,-8.532 0.145,-1.116 -1.008,0.144 -1.908,1.692 -0.973,1.404 -2.412,4.752 -3.348,6.984 -0.973,2.16 -1.656,4.284 -2.197,6.228 v 0 c -3.526,1.116 -7.053,2.268 -10.583,3.42 z"
   inkscape:connector-curvature="0" />

	<path
   id="path23"
   style="fill:#008000;fill-rule:evenodd;stroke:#000000;stroke-width:0.036;stroke-miterlimit:10"
   d="m 298.035,92.363 c -1.045,0.936 -2.664,1.692 -4.859,2.556 -2.34,0.72 -5.652,1.656 -8.424,2.268 -2.773,0.54 -5.58,0.936 -8.281,1.188 v 0 l 5.617,-2.772 v 0 c 2.52,0 4.643,-0.288 6.516,-0.576 1.799,-0.432 2.736,-0.864 4.355,-1.584 1.512,-0.756 3.096,-1.692 4.752,-2.808 v 0 c 0.107,0.576 0.217,1.152 0.324,1.728 z"
   inkscape:connector-curvature="0" />

	<path
   id="path25"
   style="fill-rule:evenodd;stroke:#000000;stroke-width:0.036;stroke-miterlimit:10"
   d="m 364.563,111.083 c 1.945,-0.756 4.357,-1.008 7.236,-0.9 2.809,0.036 6.084,0.576 9.828,1.476 v 0 l -2.305,1.8 v 0 c 4.105,0.216 7.236,0.504 9.252,0.864 2.018,0.324 2.988,0.72 2.916,1.188 v 0 l -0.287,2.088 v 0 c 2.268,0.108 4.355,0.504 6.66,1.188 2.268,0.612 4.355,1.548 6.66,2.664 v 0 l -1.152,1.764 v 0 c 1.332,-0.108 2.916,0.288 4.896,1.188 1.871,0.936 4.139,2.232 6.66,4.176 v 0 c -2.232,2.304 -3.924,3.888 -5.508,5.04 -1.549,1.116 -2.846,1.512 -3.744,1.476 v 0 l 2.303,2.052 v 0 c -1.799,1.548 -3.527,2.592 -5.184,3.276 -1.764,0.612 -3.313,0.864 -4.932,0.612 v 0 l 0.287,1.764 v 0 c -3.707,1.404 -6.408,2.196 -8.1,2.664 -1.836,0.324 -2.484,0.324 -2.34,-0.288 v 0 l -0.287,1.764 v 0 c -1.404,0.54 -2.809,0.792 -4.357,0.899 -1.584,0.036 -3.168,-0.216 -4.895,-0.611 v 0 l 0.287,2.088 v 0 c -2.088,1.152 -3.779,1.8 -5.221,2.088 -1.512,0.252 -2.627,0 -3.49,-0.612 v 0 0 c -1.549,1.009 -3.098,1.404 -5.186,1.477 -2.051,-0.072 -4.32,-0.468 -6.947,-1.477 v 0 2.088 0 c -3.637,0.324 -6.732,0.757 -9.576,0.9 -2.809,0.252 -5.221,0.216 -7.236,0.288 v 0 c 0.936,0.936 0.648,1.62 -0.863,2.052 -1.621,0.288 -5.293,0.396 -8.389,0.324 -3.203,-0.144 -6.408,-0.396 -10.152,-0.9 v 0 l -1.727,2.376 v 0 c -2.846,1.261 -7.525,1.944 -14.186,2.053 -6.73,0.035 -15.191,-0.36 -25.775,-1.477 v 0 c 1.332,-0.216 3.6,0.433 6.947,1.8 3.35,1.332 8.713,3.78 13.033,6.517 4.248,2.664 8.207,5.832 12.168,9.504 v 0 c 4.176,-2.376 9.432,-3.816 16.199,-4.464 6.66,-0.685 16.525,-1.08 23.76,0.611 7.201,1.692 13.43,4.572 19.117,9.181 v 0 l -1.477,1.764 v 0 c 2.809,1.044 5.473,2.484 7.848,4.176 2.412,1.62 4.393,3.637 6.373,5.904 v 0 l -2.916,1.8 v 0 c 1.656,0.396 3.635,1.729 5.795,3.853 2.232,2.124 4.465,5.04 7.236,8.892 v 0 l -2.592,0.576 v 0 c 1.656,1.26 3.348,2.988 5.221,5.328 1.836,2.268 3.707,5.04 5.76,8.315 v 0 l -2.881,1.477 v 0 c 2.52,1.8 4.645,3.636 6.373,5.651 1.727,2.017 2.844,3.96 3.744,6.229 v 0 l -2.881,0.864 v 0 c 2.16,2.735 3.996,5.256 5.221,7.416 1.188,2.195 2.051,4.031 2.303,5.651 v 0 l -2.016,0.576 v 0 c 1.729,1.836 3.023,3.924 3.744,6.66 0.684,2.664 0.936,5.688 0.611,9.216 v 0 c -2.051,0.216 -3.887,0.072 -5.795,-0.288 -1.908,-0.432 -3.744,-1.08 -5.508,-2.088 v 0 l -0.289,2.376 v 0 c -2.375,0.145 -4.355,-0.107 -6.084,-0.612 -1.799,-0.54 -3.203,-1.476 -4.355,-2.664 v 0 2.089 0 c -3.133,-0.396 -5.4,-1.045 -6.947,-1.801 -1.584,-0.827 -2.305,-1.764 -2.305,-2.951 v 0 l -3.779,2.376 v 0 c -3.637,-0.648 -6.336,-1.477 -8.102,-2.089 -1.799,-0.72 -2.664,-1.403 -2.592,-2.052 v 0 c -0.828,0.937 -1.656,1.477 -2.627,1.765 -1.08,0.252 -1.764,0.107 -3.168,-0.288 -1.441,-0.469 -3.133,-1.404 -5.221,-2.664 v 0 l -0.576,2.376 v 0 c -3.061,0.071 -5.615,-0.576 -7.523,-1.8 -1.908,-1.297 -3.313,-3.276 -4.068,-5.94 v 0 l -1.729,2.988 v 0 c -2.555,-1.908 -4.355,-3.744 -5.795,-5.652 -1.439,-1.98 -2.305,-3.852 -2.592,-5.904 v 0 l -1.764,2.053 v 0 c -1.514,-2.593 -2.664,-4.536 -3.168,-6.229 -0.648,-1.656 -0.648,-2.844 -0.289,-3.563 v 0 l -3.203,0.899 v 0 c -2.34,-2.016 -4.033,-4.14 -5.473,-6.804 -1.44,-2.664 -2.412,-5.58 -2.916,-8.893 v 0 l -2.305,1.477 v 0 c -1.475,-2.124 -2.592,-4.248 -3.203,-6.517 -0.684,-2.304 -0.973,-4.68 -0.865,-7.128 v 0 l -3.168,1.477 v 0 c -1.332,-3.744 -2.303,-7.992 -2.627,-12.744 -0.359,-4.932 -0.359,-10.044 0.287,-16.02 v 0 c -2.664,-3.456 -5.363,-6.12 -8.1,-7.992 -2.807,-1.98 -5.508,-3.168 -8.387,-3.564 v 0 c 2.844,3.456 4.967,6.517 6.658,9.181 1.621,2.663 2.629,4.716 3.168,6.552 v 0 c -1.871,0.071 -3.168,0.359 -3.742,0.576 -0.686,0.18 -0.686,0.575 0,0.899 v 0 c 1.26,1.836 2.268,3.672 3.168,5.94 0.828,2.124 1.547,4.536 2.016,7.092 v 0 l -3.168,0.9 v 0 c 2.34,2.195 3.707,4.859 4.643,7.991 0.793,3.168 0.938,6.553 0.289,10.692 v 0 0 c 0.287,3.563 0.432,6.876 0.576,9.792 0.072,2.916 0.072,5.436 0,7.704 v 0 l -2.34,-1.188 v 0 c 0.396,2.521 0.648,5.185 0.611,7.992 -0.107,2.809 -0.359,5.544 -0.9,8.604 v 0 l -2.592,-0.9 v 0 c 0.541,4.14 0.684,7.164 0.576,9.216 -0.18,2.052 -0.611,2.988 -1.439,2.952 v 0 l -2.916,-1.188 v 0 c -0.145,2.52 -0.576,4.896 -1.152,7.128 -0.684,2.268 -1.549,4.248 -2.592,6.228 v 0 l -1.729,-1.8 v 0 c -1.188,2.844 -2.447,5.22 -3.779,7.128 -1.404,1.908 -2.809,3.24 -4.355,4.14 v 0 0 c -0.793,1.404 -1.908,2.988 -3.744,4.752 -1.836,1.692 -4.105,3.564 -6.949,5.616 v 0 c -1.764,0.36 -3.852,-0.792 -6.66,-3.852 -2.807,-3.097 -6.047,-7.704 -9.863,-14.221 v 0 l -2.305,0.576 v 0 c -1.043,-0.54 -1.908,-1.872 -2.592,-4.14 -0.756,-2.269 -1.295,-5.472 -1.764,-9.468 v 0 l -2.881,1.476 v 0 c -1.871,-3.492 -2.986,-6.66 -3.49,-9.792 -0.469,-3.132 -0.324,-6.048 0.574,-8.892 v 0 l -3.168,0.288 v 0 c -0.756,-3.024 -1.043,-5.94 -0.863,-8.893 0.107,-2.988 0.684,-5.76 1.729,-8.604 v 0 l -4.068,-0.864 v 0 c 0.359,-3.6 0.9,-6.912 1.764,-10.08 0.828,-3.168 1.836,-6.192 3.168,-8.928 v 0 h -3.168 v 0 c 0.361,-1.332 0.793,-3.061 1.439,-5.04 0.648,-2.017 1.369,-4.428 2.305,-7.092 v 0 l -3.744,-0.9 v 0 c 0.324,-3.42 1.621,-6.948 3.744,-10.98 2.016,-4.14 4.465,-8.712 9,-13.031 4.607,-4.32 10.549,-8.568 18.217,-12.744 v 0 c -4.609,-2.448 -10.441,-4.428 -17.641,-5.94 -7.271,-1.548 -15.623,-2.628 -25.488,-3.239 v 0 l 1.729,-6.229 v 0 c 8.279,0.72 15.047,1.8 21.131,3.24 5.904,1.296 10.189,3.672 14.51,5.04 4.283,1.404 7.848,2.448 10.979,3.275 v 0 c 0.613,-7.092 2.449,-12.852 5.508,-17.964 3.025,-5.076 6.48,-7.956 12.744,-12.132 6.266,-4.32 14.148,-8.64 24.336,-13.356 v 0 l 0.576,2.952 v 0 c 3.961,-1.44 7.092,-2.52 9.541,-3.24 2.447,-0.756 3.959,-1.152 4.932,-1.188 v 0 l 0.287,2.952 v 0 c 3.961,-1.872 7.309,-3.384 10.441,-4.14 3.059,-0.792 5.615,-1.224 7.811,-0.9 v 0 l 1.441,3.564 v 0 c 1.908,-0.972 3.744,-1.908 5.795,-2.664 2.016,-0.828 3.996,-1.476 6.084,-2.088 v 0 c 0.002,0.901 0.002,1.802 0.002,2.701 z"
   inkscape:connector-curvature="0" />

	<path
   id="path27"
   style="fill:#008000;fill-rule:evenodd;stroke:#000000;stroke-width:0.036;stroke-miterlimit:10"
   d="m 272.188,161.591 c -4.104,2.124 -8.064,4.645 -11.881,7.704 -4.068,3.024 -8.027,5.796 -11.303,10.404 -3.205,4.536 -5.762,9.972 -7.813,16.596 v 0 l 3.779,2.376 v 0 c -0.252,0.612 -0.648,1.692 -1.188,3.24 -0.541,1.512 -1.26,3.492 -2.016,5.94 v 0 l 2.627,2.952 v 0 c -1.295,1.907 -2.268,4.283 -3.203,7.128 -0.936,2.88 -1.656,6.012 -2.305,9.792 v 0 l 4.607,1.764 v 0 c -1.115,3.06 -1.691,5.832 -2.016,8.604 -0.252,2.7 -0.252,5.221 0.289,7.704 v 0 l 4.355,1.188 v 0 c -0.936,1.656 -1.512,3.78 -1.439,6.516 -0.072,2.664 0.504,5.832 1.439,9.504 v 0 l 4.031,-0.288 v 0 c 0.145,2.196 0.541,4.465 1.189,6.805 0.611,2.304 1.475,4.68 2.592,7.128 v 0 l 2.592,-0.9 v 0 c 0.936,1.332 2.305,3.456 4.645,6.517 2.23,3.06 5.076,6.768 8.676,11.556 v 0 c -0.793,-5.508 -1.512,-10.692 -2.016,-15.696 -0.506,-4.968 -0.938,-9.756 -1.152,-14.22 v 0 c -1.656,0.792 -3.348,1.872 -5.221,3.24 -1.943,1.332 -5.867,4.716 -6.084,4.752 -0.287,-0.216 2.412,-3.564 4.355,-5.328 1.801,-1.729 4.248,-3.313 6.949,-4.752 v 0 c 0.107,-1.836 0.432,-4.356 0.576,-7.704 0.107,-3.42 0.432,-7.524 0.576,-12.456 v 0 c -2.664,-0.468 -5.365,0.072 -8.102,1.764 -2.916,1.692 -7.236,7.381 -8.387,8.028 -1.08,0.396 1.115,-3.744 2.016,-5.04 0.791,-1.26 1.799,-2.052 2.879,-2.376 v 0 c 1.693,-1.08 3.385,-2.016 5.51,-2.664 1.979,-0.756 4.246,-1.26 6.658,-1.512 v 0 c -0.07,-4.645 0.072,-8.496 0.289,-11.556 0.215,-3.204 0.648,-5.437 1.152,-7.093 v 0 c -3.24,1.62 -5.941,2.952 -8.389,4.141 -2.52,1.044 -3.385,0.18 -6.084,2.664 -2.699,2.52 -6.119,6.479 -10.115,12.168 v 0 c -0.434,-0.576 0,-1.765 1.15,-3.564 1.152,-1.908 3.637,-5.4 5.797,-7.416 2.053,-2.088 4.5,-3.852 6.371,-4.752 1.766,-0.9 2.09,-0.072 4.033,-0.864 1.836,-0.972 4.248,-2.556 7.236,-4.752 v 0 c 0.143,-3.815 0.395,-7.128 0.611,-10.08 0.217,-3.023 0.504,-5.544 0.863,-7.704 v 0 c -1.979,2.305 -4.104,4.824 -6.371,7.416 -2.268,2.593 -4.68,6.049 -7.236,8.28 -2.736,2.16 -6.047,3.24 -8.137,4.752 -2.051,1.44 -3.672,3.744 -4.031,3.853 -0.432,0.036 0.145,-1.152 1.729,-3.564 v 0 c 1.871,-1.476 3.564,-2.808 5.219,-3.852 1.584,-1.116 2.197,-0.756 4.32,-2.664 2.053,-2.053 5.365,-6.265 7.848,-9.181 2.412,-3.06 4.393,-5.796 6.373,-8.604 v 0 c -0.072,-3.816 0.072,-7.092 0.287,-10.368 0.217,-3.24 0.648,-6.156 1.152,-8.892 v 0 c -5.184,2.88 -8.963,5.939 -11.879,9.18 -2.953,3.24 -3.025,7.2 -5.221,10.08 -2.34,2.771 -7.164,6.192 -8.1,6.804 -0.936,0.468 1.367,-2.016 2.592,-3.563 1.115,-1.656 2.988,-3.672 4.355,-5.904 1.188,-2.268 1.836,-5.292 3.492,-7.416 1.621,-2.232 3.744,-4.068 6.373,-5.652 v 0 l 8.676,-6.228 v 0 c 0.504,-2.232 0.646,-4.5 0.576,-6.804 -0.065,-2.343 -0.497,-4.719 -1.145,-7.131 z"
   inkscape:connector-curvature="0" />

	<path
   id="path29"
   style="fill:#008000;fill-rule:evenodd;stroke:#000000;stroke-width:0.036;stroke-miterlimit:10"
   d="m 275.066,159.539 c 3.492,1.188 6.588,2.809 9.289,4.716 2.627,1.944 4.104,3.528 6.66,6.841 2.447,3.204 5.291,7.308 8.387,12.456 v 0 l -3.492,2.376 v 0 c 1.225,1.619 2.16,3.491 3.205,5.615 0.936,2.088 1.801,4.32 2.592,6.841 v 0 l -3.168,1.764 v 0 c 2.123,0.792 3.709,3.168 4.607,7.128 0.828,3.996 0.576,11.844 0.9,16.596 0.252,4.608 0.541,8.208 0.863,10.944 v 0 l -3.203,-0.576 v 0 c 0.469,3.384 0.756,6.3 0.863,8.892 0.109,2.593 -0.035,4.717 -0.287,6.517 v 0 l -2.881,0.324 v 0 c 0.361,4.752 0.361,7.956 0,9.756 -0.359,1.8 -1.223,2.052 -2.303,0.899 v 0 c -0.721,-0.575 -1.404,0.252 -2.053,2.088 -0.756,1.837 -1.295,4.896 -2.016,9.181 v 0 l -2.305,-0.288 v 0 c -1.871,3.24 -3.564,5.904 -4.932,7.992 -1.439,2.016 -2.557,3.132 -3.492,4.464 -0.936,1.224 -0.684,1.656 -2.303,3.24 -1.766,1.619 -4.465,3.6 -8.102,6.228 v 0 c -0.646,-5.04 -1.08,-10.224 -1.439,-15.696 -0.324,-5.544 -0.576,-11.231 -0.611,-17.208 v 0 c 0.072,-0.18 0.611,0.36 1.764,1.765 1.08,1.403 4.428,6.407 4.896,6.552 0.287,0 -1.225,-4.536 -2.305,-6.229 -1.115,-1.836 -2.881,-3.275 -3.744,-4.176 -0.863,-0.899 -1.26,-1.296 -1.188,-1.188 v 0 c -0.217,-3.349 -0.361,-6.265 -0.289,-8.893 0.072,-2.735 0.217,-4.823 0.576,-6.804 v 0 c 1.836,0.252 4.393,1.729 7.525,4.428 3.096,2.664 9.826,10.692 11.303,11.593 1.297,0.72 -1.008,-4.284 -2.879,-6.553 -1.873,-2.231 -4.572,-4.5 -8.102,-6.804 v 0 c -1.691,-1.476 -3.096,-2.52 -4.355,-3.276 -1.26,-0.756 -2.375,-1.151 -3.203,-1.188 v 0 c -0.145,-4.716 0,-8.964 0.287,-12.744 0.252,-3.852 0.793,-7.164 1.477,-10.08 v 0 c 3.564,1.729 6.516,3.564 9.252,5.94 2.699,2.268 4.787,4.788 6.66,7.704 1.656,2.88 1.943,7.056 3.779,9.18 1.801,1.944 6.191,2.52 6.949,2.7 0.574,0.035 -0.252,-0.612 -2.916,-2.088 v 0 c -1.441,0.252 -2.736,-0.396 -3.744,-2.089 -1.045,-1.764 -1.549,-5.579 -2.629,-7.991 -1.225,-2.557 -1.836,-4.177 -4.607,-6.805 -2.881,-2.628 -6.984,-5.651 -12.457,-8.928 v 0 c 0.072,-4.644 0.217,-8.784 0.576,-12.42 0.361,-3.672 0.793,-6.84 1.441,-9.504 v 0 c 4.607,2.088 7.811,4.212 10.15,6.516 2.125,2.196 0.686,3.744 3.168,7.128 2.557,3.42 6.193,7.632 11.592,13.032 v 0 c -2.375,-2.628 -3.49,-4.752 -3.203,-6.516 0.18,-1.872 4.465,-3.708 4.645,-4.141 0,-0.432 -2.701,0.756 -3.781,1.477 -1.115,0.611 -1.979,1.403 -2.592,2.376 v 0 c -2.232,-1.656 -4.068,-3.78 -5.508,-6.229 -1.547,-2.52 -0.791,-6.084 -3.168,-8.604 -2.412,-2.664 -6.084,-4.788 -11.016,-6.804 v 0 c 0.648,-6.372 1.08,-11.341 1.152,-15.444 0.072,-4.068 -0.576,-6.336 -0.576,-8.893 -0.068,-2.661 0.077,-5.073 0.291,-7.09 z"
   inkscape:connector-curvature="0" />

	<path
   id="path31"
   style="fill:#008000;fill-rule:evenodd;stroke:#000000;stroke-width:0.036;stroke-miterlimit:10"
   d="m 229.6,146.759 c 1.979,-0.072 5.219,0.432 9.863,1.512 4.644,1.08 12.42,3.023 17.928,4.716 5.365,1.62 12.277,3.852 14.221,4.752 1.871,0.72 -0.396,0.576 -2.916,0 -2.701,-0.684 -6.156,-2.34 -12.744,-3.564 -6.732,-1.296 -15.48,-2.483 -26.928,-3.852 v 0 c 0.179,-1.187 0.359,-2.376 0.576,-3.564 z"
   inkscape:connector-curvature="0" />

	<path
   id="path33"
   style="fill:#008000;fill-rule:evenodd;stroke:#000000;stroke-width:0.036;stroke-miterlimit:10"
   d="m 276.795,155.543 c 1.225,-5.472 2.916,-10.224 5.221,-14.256 2.232,-4.068 4.895,-7.056 8.424,-10.08 3.492,-3.06 7.813,-5.868 12.131,-8.28 4.213,-2.556 8.461,-4.788 13.033,-6.84 v 0 l 2.916,1.8 v 0 c 0.611,-0.108 1.908,-0.504 4.031,-1.188 2.125,-0.792 4.789,-1.836 8.424,-3.276 v 0 l 0.865,3.276 v 0 c 0.719,-0.612 2.699,-1.26 5.795,-2.088 3.133,-0.9 7.236,-1.836 12.744,-2.952 v 0 l 2.016,4.14 v 0 c 2.016,-0.828 3.854,-1.62 5.508,-2.376 1.621,-0.828 3.061,-1.62 4.32,-2.376 v 0 l 1.764,2.376 v 0 c 1.98,-1.08 4.105,-1.8 6.373,-1.764 2.232,0 4.5,0.36 6.947,1.476 v 0 l -0.287,1.764 v 0 c 2.412,0.036 4.391,0 6.371,0.288 1.945,0.108 3.852,0.36 4.896,0.9 0.936,0.504 1.08,1.152 0.576,2.088 v 0 c 2.123,0.468 4.104,1.152 6.084,1.764 1.871,0.504 4.5,1.476 5.508,2.088 1.008,0.576 0.973,1.26 0.287,1.764 v 0 c 2.053,0.216 4.033,0.864 6.084,1.8 2.018,0.9 3.854,2.232 5.797,3.852 v 0 c -3.348,0.072 -7.596,0.216 -12.744,0.576 -5.184,0.324 -11.268,0.864 -18.252,1.476 v 0 c 0,-0.936 0.252,-2.088 1.152,-3.852 0.791,-1.764 3.348,-5.508 3.779,-6.516 0.217,-1.044 -0.863,-0.576 -1.727,0.288 -0.938,0.864 -2.197,2.484 -3.205,4.464 -1.008,1.836 -1.871,3.96 -2.592,6.516 v 0 c -4.283,0.144 -8.389,0.54 -12.168,1.188 -3.852,0.54 -7.381,1.332 -10.729,2.376 v 0 c 0.109,-1.548 0.936,-3.528 2.34,-6.228 1.369,-2.808 5.113,-7.74 6.084,-9.792 0.865,-2.124 0.072,-3.06 -0.576,-2.376 -0.756,0.612 -2.016,2.736 -3.779,6.228 v 0 c -1.691,2.232 -3.096,4.176 -4.068,6.228 -1.008,1.98 -1.729,3.816 -2.016,5.652 v 0 c -3.852,0.54 -6.984,1.08 -9.539,1.476 -2.557,0.396 -4.537,0.648 -5.797,0.9 v 0 c -0.539,-1.8 -0.539,-3.78 -0.287,-5.94 0.287,-2.232 0.684,-4.932 2.016,-7.128 1.332,-2.376 5.076,-5.148 5.795,-6.228 0.613,-1.044 -0.252,-1.044 -2.303,0 v 0 c -1.729,1.044 -3.133,2.34 -4.357,4.176 -1.332,1.728 -2.447,3.996 -2.916,6.516 -0.504,2.412 -0.504,5.22 0,8.28 v 0 c -3.852,0.54 -7.811,1.332 -12.42,2.376 -4.643,0.936 -9.395,2.124 -14.795,3.564 v 0 c -0.361,-1.656 0.359,-3.924 1.764,-6.804 1.439,-2.988 5.795,-8.496 6.947,-10.692 0.973,-2.304 0.504,-3.888 -0.576,-2.664 -1.115,1.152 -4.715,7.2 -6.084,9.792 -1.402,2.52 -2.23,4.248 -2.34,5.328 v 0 l -2.016,5.328 v 0 c -5.039,0.936 -9.145,1.98 -12.455,2.988 -3.385,1.008 -5.797,2.088 -7.525,3.24 v 0 c -0.252,-2.628 0.182,-5.292 1.441,-7.992 1.15,-2.736 3.131,-5.508 5.795,-8.316 v 0 c -1.512,-0.036 -2.951,0.9 -4.32,2.664 -1.475,1.728 -3.383,5.652 -4.066,8.028 -0.721,2.376 -0.865,4.212 -0.289,5.939 v 0 c -2.195,1.116 -4.031,2.053 -5.508,2.952 -1.549,0.829 -2.664,1.478 -3.492,2.089 z"
   inkscape:connector-curvature="0" />

	<path
   id="path35"
   style="fill:#008000;fill-rule:evenodd;stroke:#000000;stroke-width:0.036;stroke-miterlimit:10"
   d="m 282.303,157.308 c 4.607,0.432 9.145,0.684 13.607,0.899 4.43,0.181 9.648,0.181 13.033,0 3.275,-0.288 4.896,-1.116 6.947,-1.8 2.053,-0.828 3.744,-1.764 5.221,-2.952 v 0 c 6.084,1.44 10.477,1.98 13.32,1.765 2.807,-0.36 3.924,-1.261 3.492,-3.24 v 0 c 1.08,0.54 3.238,0.684 6.084,0.576 2.986,-0.145 6.516,-0.685 11.268,-1.477 v 0 l 0.576,-2.376 v 0 c 1.871,0.324 3.672,0.756 5.795,0.9 1.98,0.18 4.752,0.504 6.373,0.288 1.547,-0.288 2.52,-0.828 2.916,-1.765 v 0 c 1.799,0.973 3.24,1.261 4.32,0.864 1.043,-0.396 1.727,-1.476 2.051,-3.24 v 0 c 2.988,0.612 5.256,0.612 6.949,0 1.584,-0.72 2.592,-1.872 2.879,-3.852 v 0 c 0.684,1.116 1.656,1.512 2.916,1.476 1.297,-0.072 2.736,-0.864 4.607,-2.088 v 0 0 c 1.621,-0.864 3.025,-1.404 4.068,-1.764 1.08,-0.288 1.152,-0.108 2.305,-0.288 1.008,-0.36 2.412,-1.008 4.068,-1.8 v 0 l -2.016,-3.24 7.811,-2.988 v 0 c -4.428,-0.18 -9.252,-0.036 -14.471,0.288 -5.4,0.324 -10.873,0.972 -17.102,1.8 v 0 c 3.168,1.368 5.293,2.448 6.373,3.24 1.043,0.684 1.043,1.08 0,1.188 v 0 c -1.621,-0.54 -3.168,-1.26 -4.645,-1.764 -1.512,-0.54 -2.951,-1.26 -4.32,-1.764 v 0 c -2.736,-0.036 -5.688,0.108 -9,0.576 -3.311,0.468 -6.875,1.116 -10.691,2.088 v 0 c 0.684,-0.144 1.691,0.576 2.881,1.764 1.223,1.152 2.627,3.168 4.355,5.652 v 0 c -0.793,0.18 -1.908,-0.324 -3.492,-1.512 -1.621,-1.188 -3.457,-3.06 -5.797,-5.616 v 0 c -3.455,0.648 -6.299,1.188 -8.676,1.476 -2.412,0.252 -4.248,0.396 -5.508,0.288 v 0 c 0.252,0.504 1.188,1.44 3.205,2.664 1.979,1.296 4.643,2.7 8.387,4.752 v 0 c -2.592,0.324 -5.004,-0.072 -7.236,-1.188 -2.303,-1.152 -4.428,-3.024 -6.371,-5.616 v 0 c -1.691,0.432 -4.932,1.116 -9.576,2.052 -4.717,0.9 -10.836,1.944 -18.504,3.276 v 0 c -0.035,0.936 0.684,1.692 2.016,2.664 1.369,0.936 3.348,1.691 6.084,2.664 v 0 c -1.619,0.72 -3.131,0.72 -4.932,0 -1.764,-0.757 -3.6,-2.232 -5.508,-4.428 v 0 c -3.24,0.252 -6.516,0.792 -9.828,1.764 -3.42,0.899 -7.451,2.231 -10.152,3.852 -2.735,1.694 -4.713,3.493 -6.082,5.942 z"
   inkscape:connector-curvature="0" />

	<path
   id="path37"
   style="fill:#008000;fill-rule:evenodd;stroke:#000000;stroke-width:0.036;stroke-miterlimit:10"
   d="m 312.723,179.375 c 3.492,-2.52 8.029,-4.067 13.609,-5.04 5.508,-1.008 14.795,-0.828 19.691,-0.575 4.787,0.18 5.795,0.827 9.539,2.088 3.781,1.151 8.029,3.06 13.033,5.328 v 0 l -2.018,2.951 v 0 c 1.945,0.612 3.637,1.261 5.221,2.088 1.439,0.648 2.557,1.585 4.033,2.664 1.512,1.152 3.059,2.484 4.932,4.141 v 0 l -2.016,2.987 v 0 c 2.158,0.721 4.283,1.908 6.371,3.853 2.053,1.908 4.031,4.284 6.084,7.416 v 0 l -2.053,1.764 v 0 c 1.152,1.584 2.557,3.313 4.357,5.328 1.727,1.98 3.707,4.104 6.084,6.517 v 0 l -2.305,2.699 v 0 c 2.123,1.765 4.104,3.492 5.797,5.328 1.727,1.8 3.023,3.672 4.318,5.616 v 0 l -2.879,1.476 v 0 c 1.295,1.801 2.412,3.637 3.744,5.652 1.223,2.016 2.484,3.96 3.779,6.229 v 0 l -1.729,1.188 v 0 c 1.512,2.124 2.664,4.392 3.457,6.804 0.791,2.412 1.08,4.752 1.152,7.416 v 0 c -6.049,-7.271 -11.449,-13.104 -16.488,-18.071 -5.041,-5.005 -9.576,-8.568 -13.607,-11.269 v 0 c 5.219,-0.54 9.035,-0.792 11.879,-0.899 2.699,-0.145 4.283,0 4.607,0.287 v 0 c -0.791,-0.72 -1.908,-1.26 -3.744,-1.476 -1.906,-0.36 -4.643,-0.18 -6.947,0 -2.34,0.18 -4.465,0.432 -6.66,0.9 v 0 c -1.799,-1.188 -4.211,-2.628 -6.947,-4.464 -2.916,-1.872 -6.012,-3.996 -9.865,-6.517 v 0 c 2.594,-1.044 5.977,-1.692 10.152,-2.088 4.213,-0.396 9,-0.54 14.76,-0.288 v 0 c -0.646,-0.432 -2.195,-0.72 -4.643,-0.864 -2.592,-0.252 -6.48,-0.684 -10.117,-0.323 -3.635,0.287 -7.271,0.936 -11.303,2.088 v 0 c -1.549,-0.973 -3.529,-2.557 -6.084,-4.464 -2.629,-1.944 -5.58,-4.5 -9.252,-7.381 v 0 c 2.016,-1.584 4.859,-2.628 8.387,-3.275 3.529,-0.648 8.748,-0.576 12.744,-0.612 3.961,-0.144 7.381,-0.144 10.691,0 v 0 c -0.898,-0.972 -2.986,-1.512 -6.658,-1.764 -3.744,-0.288 -11.449,0 -15.049,0.288 -3.672,0.216 -4.5,0.432 -6.373,1.188 -1.979,0.612 -3.672,1.548 -5.219,2.664 v 0 c -2.34,-2.592 -5.004,-5.256 -8.389,-7.992 -3.383,-2.844 -7.199,-5.58 -11.592,-8.604 v 0 c 4.5,-2.196 9.684,-3.276 15.947,-3.24 6.229,-0.036 13.141,1.044 21.133,3.24 v 0 c -1.008,-1.008 -3.275,-1.8 -6.66,-2.664 -3.637,-0.864 -9.107,-2.16 -13.896,-2.376 -4.752,-0.36 -11.051,0.072 -14.184,0.612 -3.168,0.504 -4.859,1.296 -4.932,2.376 v 0 c -4.603,-2.953 -9.248,-5.942 -13.892,-8.93 z"
   inkscape:connector-curvature="0" />

	<path
   id="path39"
   style="fill:#008000;fill-rule:evenodd;stroke:#000000;stroke-width:0.036;stroke-miterlimit:10"
   d="m 310.707,181.176 c -0.539,2.628 -0.791,5.544 -0.9,8.604 -0.18,3.132 -0.035,6.66 0.289,9.756 0.359,2.988 0.898,5.616 1.764,8.028 v 0 l 3.168,-0.9 v 0 c 0.287,2.124 0.721,4.068 1.439,6.229 0.684,2.124 1.512,4.067 2.629,6.228 v 0 h 3.168 v 0 c 0.504,2.592 1.152,5.112 2.34,7.704 1.08,2.556 2.52,4.932 4.32,7.416 v 0 l 4.932,-0.9 v 0 c 0.215,1.584 0.504,3.024 0.863,4.177 0.324,1.151 0.9,2.088 1.152,2.664 0.18,0.468 0.18,0.611 0,0.288 v 0 l 2.916,-0.288 v 0 c 0.287,2.447 0.863,4.571 1.729,6.228 0.863,1.656 2.807,3.132 3.492,3.853 0.576,0.611 0.576,0.611 0,0 v 0 l 4.607,-1.477 v 0 c 0.217,1.836 1.043,3.456 2.34,4.716 1.26,1.261 3.133,2.305 5.473,2.988 v 0 l 2.627,-1.188 v 0 c 1.188,0.575 2.449,0.972 3.781,1.476 1.332,0.468 2.627,1.188 4.031,1.188 1.404,-0.107 2.627,-0.936 4.068,-2.088 v 0 c 1.26,0.973 2.52,1.908 4.32,2.664 1.584,0.685 4.066,1.836 5.795,1.8 1.801,-0.107 3.168,-0.899 4.645,-2.376 v 0 c 0.828,2.376 1.836,3.708 3.168,4.141 1.367,0.359 2.736,-0.181 4.645,-1.765 v 0 c 1.332,0.973 2.592,1.765 4.066,2.376 1.369,0.576 2.809,0.973 4.32,1.188 v 0 l 1.477,-2.7 v 0 c 2.232,0.54 4.104,1.044 5.76,1.512 1.656,0.433 2.916,0.828 4.068,1.188 v 0 c -2.016,-2.52 -5.293,-6.084 -9.828,-10.692 -4.68,-4.788 -10.439,-10.296 -17.676,-17.208 v 0 c -0.648,0.576 -0.648,2.16 -0.289,5.04 0.361,2.809 1.225,6.769 2.594,11.88 v 0 c -1.189,-0.144 -2.197,-1.584 -2.881,-4.464 -0.756,-2.987 -1.188,-7.056 -1.439,-12.744 v 0 c -1.908,-1.439 -4.176,-3.168 -6.949,-5.039 -2.844,-1.98 -5.904,-4.104 -9.576,-6.517 v 0 c -0.143,1.62 0,3.744 0.289,6.517 0.252,2.771 0.359,6.407 1.439,9.792 1.08,3.312 2.629,6.443 4.932,9.792 v 0 c -1.836,-0.505 -3.348,-2.341 -4.932,-5.652 -1.691,-3.348 -3.455,-10.404 -4.32,-14.22 -0.9,-3.816 -1.188,-6.732 -0.863,-8.604 v 0 l -11.881,-9.18 v 0 c -0.504,0.756 -0.504,2.628 0,5.616 0.469,3.023 1.477,7.775 2.881,12.168 1.295,4.319 4.752,11.735 5.221,13.644 0.359,1.8 -1.477,-0.432 -2.594,-2.664 -1.26,-2.34 -2.986,-7.02 -4.355,-10.979 -1.439,-4.177 -3.023,-9.217 -3.779,-12.744 -0.793,-3.456 -1.08,-5.977 -0.865,-7.704 v 0 c -0.971,-1.368 -3.238,-3.492 -6.947,-6.517 -3.744,-3.06 -8.855,-6.876 -15.336,-11.592 v 0 c -0.648,1.944 -0.936,4.572 -0.863,8.028 0.035,3.42 1.115,10.764 1.152,12.456 -0.182,1.476 -1.225,-0.72 -1.729,-2.988 -0.613,-2.34 -1.152,-7.092 -1.477,-10.368 -0.287,-3.239 -0.432,-6.155 -0.287,-8.892 v 0 c -4.034,-2.956 -8.066,-5.908 -12.134,-8.895 z"
   inkscape:connector-curvature="0" />

	<path
   id="path41"
   style="fill:#008000;fill-rule:evenodd;stroke:#000000;stroke-width:0.036;stroke-miterlimit:10"
   d="m 309.807,177.827 c -1.043,-1.62 -2.627,-3.348 -5.184,-5.328 -2.557,-2.016 -6.588,-4.644 -9.863,-6.516 -3.385,-1.908 -6.66,-3.636 -10.117,-5.04 v 0 l 6.084,5.94 v 0 c 3.205,1.151 5.904,2.231 8.1,3.527 2.16,1.225 3.205,2.232 4.934,3.853 1.656,1.584 3.24,3.42 4.895,5.651 v 0 c 0.36,-0.683 0.754,-1.367 1.151,-2.087 z"
   inkscape:connector-curvature="0" />

	<path
   id="path43"
   style="fill-rule:evenodd;stroke:#000000;stroke-width:0.036;stroke-miterlimit:10"
   d="m 36.027,131.099 c -1.62,-0.324 -3.24,-0.504 -5.4,-0.144 -2.124,0.324 -4.464,0.792 -7.164,1.8 v 0 l 1.836,1.152 v 0 c -3.096,0.468 -5.364,0.864 -6.804,1.332 -1.512,0.396 -2.196,0.72 -2.052,1.116 v 0 l 0.36,1.512 v 0 c -1.692,0.252 -3.168,0.648 -4.824,1.332 -1.62,0.576 -3.204,1.404 -4.752,2.484 v 0 l 0.972,1.224 v 0 c -1.044,0 -2.232,0.36 -3.564,1.224 -1.44,0.792 -2.88,1.98 -4.608,3.564 v 0 c 1.656,1.476 3.168,2.628 4.392,3.312 1.152,0.648 2.16,0.973 2.88,0.828 v 0 l -1.548,1.692 v 0 c 1.44,0.972 2.7,1.656 4.068,2.052 1.332,0.396 2.52,0.288 3.708,0.072 v 0 l -0.108,1.332 v 0 c 2.808,0.756 4.824,1.224 6.192,1.404 1.368,0.18 1.8,0 1.692,-0.396 v 0 l 0.324,1.296 v 0 c 0.972,0.252 2.16,0.36 3.276,0.324 1.08,-0.108 2.376,-0.324 3.6,-0.792 v 0 l -0.072,1.548 v 0 c 1.62,0.648 2.808,1.08 3.996,1.152 1.08,0.036 1.872,-0.145 2.52,-0.685 v 0 0 c 1.08,0.612 2.448,0.9 3.96,0.721 1.44,-0.181 3.168,-0.721 5.04,-1.62 v 0 l 0.144,1.548 v 0 c 2.736,0.072 4.932,-0.036 7.128,-0.036 2.052,-0.072 3.888,-0.18 5.364,-0.324 v 0 c -0.612,0.756 -0.396,1.296 0.792,1.477 1.152,0.071 3.924,-0.108 6.228,-0.396 2.232,-0.359 4.752,-0.72 7.416,-1.368 v 0 l 1.476,1.62 v 0 c 2.16,0.721 5.652,0.828 10.62,0.468 4.968,-0.468 11.16,-1.403 18.972,-2.951 v 0 c -1.044,-0.072 -2.628,0.54 -5.04,1.836 -2.448,1.296 -6.3,3.348 -9.18,5.76 -2.952,2.34 -5.724,4.788 -8.316,7.884 v 0 c -3.276,-1.368 -7.38,-2.16 -12.312,-2.088 -5.04,-0.108 -12.348,0.432 -17.496,2.16 -5.292,1.691 -9.612,4.428 -13.5,8.208 v 0 l 1.188,1.188 v 0 c -2.016,1.044 -3.888,2.124 -5.472,3.637 -1.728,1.367 -3.024,2.987 -4.32,4.859 v 0 l 2.268,1.116 v 0 c -1.26,0.468 -2.592,1.512 -3.996,3.276 -1.512,1.764 -3.096,3.996 -4.752,7.092 v 0 l 1.98,0.252 v 0 c -1.188,1.044 -2.304,2.484 -3.492,4.32 -1.26,1.836 -2.448,3.924 -3.708,6.552 v 0 l 2.268,0.899 v 0 c -1.8,1.513 -3.24,2.952 -4.32,4.608 -1.152,1.62 -1.944,3.204 -2.376,4.896 v 0 l 2.196,0.432 v 0 c -1.512,2.196 -2.484,4.104 -3.312,5.868 -0.72,1.691 -1.296,3.132 -1.332,4.319 v 0 l 1.548,0.288 v 0 c -1.296,1.404 -1.944,3.24 -2.34,5.221 -0.396,1.943 -0.324,4.319 0.216,6.84 v 0 c 1.512,-0.036 2.844,-0.252 4.284,-0.648 1.404,-0.468 2.664,-1.116 3.924,-1.943 v 0 l 0.36,1.728 v 0 c 1.728,-0.108 3.168,-0.396 4.464,-0.864 1.296,-0.576 2.16,-1.296 3.024,-2.304 v 0 l 0.144,1.548 v 0 c 2.232,-0.54 3.852,-1.151 5.004,-1.836 1.08,-0.684 1.584,-1.512 1.512,-2.34 v 0 l 2.952,1.476 v 0 c 2.664,-0.792 4.464,-1.548 5.832,-2.124 1.224,-0.647 1.872,-1.224 1.8,-1.728 v 0 c 0.612,0.612 1.296,0.936 2.052,1.116 0.648,0.107 1.332,-0.036 2.34,-0.433 0.972,-0.504 2.196,-1.296 3.672,-2.376 v 0 l 0.576,1.729 v 0 c 2.268,-0.216 4.032,-0.792 5.436,-1.872 1.332,-1.152 2.196,-2.664 2.592,-4.68 v 0 l 1.512,2.052 v 0 c 1.656,-1.477 2.952,-3.132 3.888,-4.572 0.864,-1.476 1.368,-3.132 1.512,-4.572 v 0 l 1.404,1.404 v 0 c 0.936,-1.944 1.584,-3.6 1.944,-4.824 0.36,-1.224 0.216,-2.16 -0.036,-2.664 v 0 l 2.412,0.433 v 0 c 1.548,-1.62 2.7,-3.385 3.6,-5.437 0.792,-2.088 1.296,-4.355 1.512,-6.804 v 0 l 1.8,0.936 v 0 c 0.9,-1.691 1.584,-3.275 1.908,-5.04 0.36,-1.8 0.36,-3.527 0.144,-5.327 v 0 l 2.484,0.863 v 0 c 0.648,-2.844 1.08,-6.048 1.008,-9.611 -0.072,-3.637 -0.504,-7.488 -1.296,-11.845 v 0 c 1.728,-2.735 3.492,-4.896 5.436,-6.479 1.944,-1.656 3.78,-2.736 5.94,-3.24 v 0 c -1.836,2.772 -3.312,5.148 -4.284,7.272 -1.044,2.088 -1.728,3.672 -1.908,5.04 v 0 c 1.404,-0.072 2.304,0.035 2.844,0.18 0.432,0.144 0.504,0.36 0.072,0.647 v 0 c -0.828,1.368 -1.476,2.952 -1.944,4.608 -0.468,1.728 -0.9,3.348 -1.008,5.4 v 0 l 2.412,0.432 v 0 c -1.512,1.8 -2.52,3.888 -2.88,6.264 -0.432,2.341 -0.252,4.933 0.54,7.92 v 0 0 c -0.036,2.664 0.144,5.04 0.252,7.272 0.108,2.196 0.288,3.996 0.54,5.688 v 0 l 1.62,-1.044 v 0 c -0.144,1.98 -0.144,3.925 0.144,5.977 0.216,2.016 0.576,4.104 1.224,6.264 v 0 l 1.872,-0.828 v 0 c -0.108,3.061 -0.036,5.292 0.216,6.84 0.18,1.477 0.648,2.124 1.26,2.089 v 0 l 2.052,-1.08 v 0 c 0.324,1.872 0.684,3.456 1.368,5.147 0.648,1.548 1.332,3.024 2.34,4.428 v 0 l 1.188,-1.439 v 0 c 1.08,2.016 2.124,3.672 3.276,4.968 1.152,1.332 2.268,2.16 3.492,2.772 v 0 0 c 0.576,1.008 1.656,2.088 3.096,3.239 1.44,1.188 3.24,2.305 5.544,3.637 v 0 c 1.26,0.216 2.808,-0.937 4.644,-3.313 1.8,-2.483 3.852,-6.191 6.3,-11.268 v 0 l 1.764,0.288 v 0 c 0.684,-0.396 1.224,-1.62 1.62,-3.276 0.36,-1.764 0.576,-4.14 0.648,-7.128 v 0 l 2.232,0.9 v 0 c 1.044,-2.664 1.764,-5.112 1.872,-7.488 0.072,-2.412 -0.18,-4.5 -1.044,-6.552 v 0 h 2.376 v 0 c 0.252,-2.305 0.396,-4.572 0.036,-6.66 -0.252,-2.16 -1.008,-4.284 -1.872,-6.229 v 0 l 2.916,-0.936 v 0 c -0.468,-2.628 -1.224,-5.076 -1.98,-7.344 -0.792,-2.341 -1.872,-4.356 -2.952,-6.336 v 0 l 2.34,-0.217 v 0 c -0.396,-0.972 -0.828,-2.231 -1.44,-3.636 -0.648,-1.548 -1.332,-3.096 -2.196,-5.076 v 0 l 2.736,-0.936 v 0 c -0.576,-2.412 -1.764,-5.076 -3.564,-7.849 -1.872,-2.951 -3.96,-6.084 -7.524,-9 -3.672,-2.916 -8.424,-5.508 -14.4,-8.063 v 0 c 3.24,-2.124 7.416,-4.068 12.672,-5.688 5.22,-1.691 11.376,-3.06 18.612,-4.248 v 0 l -1.728,-4.5 v 0 c -6.084,1.152 -11.088,2.52 -15.408,3.96 -4.32,1.476 -7.344,3.348 -10.332,4.787 -3.096,1.368 -5.688,2.341 -7.92,3.204 v 0 c -0.972,-5.111 -2.7,-9.396 -5.328,-12.852 -2.592,-3.528 -5.508,-5.436 -10.26,-8.064 -4.968,-2.736 -11.124,-5.436 -18.9,-8.1 v 0 l -0.216,2.232 v 0 c -3.096,-0.756 -5.436,-1.368 -7.308,-1.692 -1.908,-0.432 -3.096,-0.612 -3.708,-0.54 v 0 2.232 0 c -3.06,-1.224 -5.688,-1.908 -8.028,-2.34 -2.34,-0.468 -4.284,-0.396 -5.832,-0.072 v 0 l -0.828,2.736 v 0 c -1.512,-0.648 -2.952,-1.116 -4.464,-1.548 -1.62,-0.432 -3.024,-0.792 -4.644,-1.08 v 0 c 0.036,0.649 0.108,1.297 0.18,1.98 z"
   inkscape:connector-curvature="0" />

	<path
   id="path45"
   style="fill:#008000;fill-rule:evenodd;stroke:#000000;stroke-width:0.036;stroke-miterlimit:10"
   d="m 107.847,161.699 c 3.132,1.26 6.192,2.88 9.324,4.86 3.096,1.836 6.3,3.744 9.072,6.84 2.664,3.168 4.968,6.876 6.912,11.7 v 0 l -2.592,2.016 v 0 c 0.18,0.504 0.54,1.152 1.08,2.34 0.468,1.116 1.152,2.484 1.908,4.248 v 0 l -1.728,2.376 v 0 c 1.044,1.332 1.944,2.952 2.844,5.004 0.9,1.98 1.656,4.393 2.412,7.093 v 0 l -3.312,1.655 v 0 c 1.008,2.16 1.656,4.176 2.088,6.192 0.36,2.052 0.468,3.78 0.324,5.724 v 0 l -3.132,1.188 v 0 c 0.756,1.116 1.404,2.735 1.548,4.716 0.144,2.016 0,4.248 -0.432,7.128 v 0 l -3.024,0.072 v 0 c 0.036,1.62 -0.036,3.275 -0.36,5.111 -0.324,1.801 -0.756,3.528 -1.44,5.473 v 0 l -1.98,-0.468 v 0 c -0.648,1.008 -1.512,2.771 -2.988,5.147 -1.476,2.448 -3.348,5.328 -5.616,9.18 v 0 c 0.18,-4.212 0.36,-7.991 0.396,-11.771 0.036,-3.816 0,-7.2 -0.108,-10.584 v 0 c 1.188,0.432 2.592,1.151 4.068,2.016 1.44,0.9 4.536,2.988 4.824,3.061 0.144,-0.145 -2.16,-2.557 -3.6,-3.637 -1.548,-1.188 -3.312,-2.052 -5.436,-2.987 v 0 c -0.288,-1.368 -0.612,-3.204 -0.972,-5.652 -0.396,-2.484 -0.828,-5.544 -1.296,-9.18 v 0 c 1.979,-0.54 3.888,-0.288 6.12,0.756 2.124,0.936 5.904,4.968 6.768,5.292 0.72,0.144 -1.152,-2.664 -1.872,-3.564 -0.72,-0.899 -1.44,-1.367 -2.304,-1.548 v 0 c -1.332,-0.756 -2.7,-1.188 -4.248,-1.584 -1.584,-0.432 -3.204,-0.54 -5.004,-0.611 v 0 c -0.36,-3.421 -0.612,-6.265 -1.044,-8.532 -0.36,-2.305 -0.9,-4.032 -1.332,-5.185 v 0 c 2.52,0.973 4.5,1.801 6.48,2.484 1.872,0.54 2.412,-0.108 4.68,1.512 2.16,1.656 4.896,4.356 8.352,8.244 v 0 c 0.216,-0.36 -0.108,-1.332 -1.116,-2.52 -1.008,-1.297 -3.204,-3.78 -4.788,-5.076 -1.764,-1.404 -3.636,-2.557 -5.04,-3.061 -1.368,-0.611 -1.692,0.108 -3.06,-0.359 -1.548,-0.504 -3.312,-1.62 -5.688,-2.952 v 0 c -0.396,-2.772 -0.72,-5.292 -1.116,-7.416 -0.432,-2.232 -0.828,-4.068 -1.188,-5.652 v 0 c 1.62,1.548 3.312,3.276 5.22,5.04 1.836,1.8 3.816,4.032 5.94,5.58 2.052,1.332 4.68,1.98 6.336,2.916 1.548,0.9 2.952,2.448 3.24,2.556 0.288,0 -0.216,-0.827 -1.512,-2.483 v 0 c -1.548,-1.008 -2.88,-1.836 -4.14,-2.484 -1.26,-0.72 -1.836,-0.432 -3.384,-1.656 -1.728,-1.512 -4.464,-4.104 -6.408,-6.228 -2.016,-2.088 -3.744,-3.996 -5.328,-5.868 v 0 c -0.216,-2.808 -0.576,-5.364 -0.936,-7.668 -0.396,-2.412 -0.936,-4.572 -1.476,-6.479 v 0 c 3.996,1.836 7.092,3.672 9.432,5.939 2.196,2.124 2.736,5.076 4.536,7.056 1.872,1.837 5.652,4.104 6.48,4.465 0.648,0.288 -1.188,-1.368 -2.16,-2.448 -1.08,-1.152 -2.484,-2.556 -3.636,-4.068 -1.152,-1.584 -1.764,-3.779 -3.096,-5.22 -1.404,-1.512 -3.096,-2.7 -5.076,-3.708 v 0 l -6.876,-3.96 v 0 c -0.468,-1.62 -0.9,-3.24 -0.9,-5.004 -0.18,-1.802 0.072,-3.495 0.36,-5.367 z"
   inkscape:connector-curvature="0" />

	<path
   id="path47"
   style="fill:#008000;fill-rule:evenodd;stroke:#000000;stroke-width:0.036;stroke-miterlimit:10"
   d="m 105.579,160.403 c -2.52,1.224 -4.752,2.484 -6.552,4.176 -1.872,1.477 -2.88,2.988 -4.428,5.508 -1.692,2.593 -3.384,5.725 -5.364,9.828 v 0 l 2.736,1.513 v 0 c -0.792,1.296 -1.44,2.808 -1.944,4.392 -0.612,1.62 -1.044,3.312 -1.44,5.22 v 0 l 2.448,1.08 v 0 c -1.584,0.72 -2.556,2.592 -2.916,5.616 -0.396,3.06 0.324,8.784 0.504,12.312 0.036,3.456 0.18,6.084 0.144,8.173 v 0 l 2.304,-0.648 v 0 c -0.18,2.52 -0.144,4.68 -0.036,6.624 0.108,1.872 0.288,3.528 0.684,4.824 v 0 h 2.16 v 0 c 0.036,3.527 0.216,5.939 0.684,7.235 0.396,1.225 0.936,1.477 1.764,0.469 v 0 c 0.468,-0.433 0.972,0.036 1.656,1.403 0.576,1.332 1.332,3.492 2.124,6.624 v 0 l 1.692,-0.359 v 0 c 1.656,2.268 2.916,4.067 4.176,5.544 1.152,1.296 2.016,2.16 2.88,3.023 0.792,0.792 0.468,1.225 1.944,2.269 1.44,1.044 3.456,2.376 6.444,3.996 v 0 c 0.072,-3.744 0.108,-7.597 -0.036,-11.7 -0.18,-4.104 -0.432,-8.316 -0.756,-12.78 v 0 c -0.036,-0.144 -0.468,0.288 -1.152,1.44 -0.828,1.151 -2.916,5.004 -3.204,5.184 -0.36,0.072 0.576,-3.456 1.296,-4.752 0.648,-1.476 1.8,-2.592 2.484,-3.348 0.504,-0.721 0.756,-1.044 0.756,-0.973 v 0 c -0.036,-2.483 -0.216,-4.68 -0.396,-6.588 -0.252,-1.943 -0.504,-3.563 -0.9,-5.004 v 0 c -1.44,0.396 -3.096,1.584 -5.256,3.853 -2.196,2.195 -6.552,8.604 -7.524,9.359 -1.044,0.612 0.432,-3.204 1.656,-5.04 1.116,-1.8 3.096,-3.672 5.544,-5.615 v 0 c 1.08,-1.152 2.124,-2.16 2.988,-2.736 0.828,-0.612 1.584,-1.08 2.268,-1.116 v 0 c -0.216,-3.6 -0.72,-6.552 -1.116,-9.396 -0.432,-2.809 -1.152,-5.257 -1.764,-7.345 v 0 c -2.484,1.44 -4.68,3.168 -6.444,5.04 -1.908,1.872 -3.276,3.889 -4.392,6.192 -1.116,2.16 -1.044,5.436 -2.124,7.056 -1.296,1.513 -4.428,2.34 -4.968,2.484 -0.54,0.107 0.18,-0.468 2.016,-1.729 v 0 c 1.008,0.145 2.016,-0.504 2.628,-1.8 0.612,-1.404 0.612,-4.14 1.368,-6.12 0.576,-1.979 1.044,-3.312 2.952,-5.399 1.908,-2.196 4.716,-4.681 8.568,-7.452 v 0 c -0.324,-3.456 -0.792,-6.517 -1.26,-9.18 -0.54,-2.7 -1.116,-5.005 -1.728,-6.912 v 0 c -3.168,1.836 -5.652,3.743 -7.056,5.58 -1.44,1.764 -0.396,2.808 -1.872,5.472 -1.656,2.7 -4.068,6.048 -7.632,10.476 v 0 c 1.584,-2.124 2.16,-3.708 1.872,-5.04 -0.324,-1.403 -3.636,-2.447 -3.708,-2.735 -0.252,-0.324 2.052,0.323 2.88,0.828 0.792,0.396 1.548,0.863 2.124,1.548 v 0 c 1.584,-1.404 2.664,-3.061 3.636,-4.969 0.756,-1.943 0.216,-4.607 1.728,-6.623 1.548,-2.196 4.104,-3.961 7.668,-5.832 v 0 c -0.936,-4.536 -1.62,-8.353 -1.908,-11.305 -0.324,-3.023 -0.216,-4.716 -0.216,-6.624 -0.18,-2.017 -0.36,-3.709 -0.684,-5.221 z"
   inkscape:connector-curvature="0" />

	<path
   id="path49"
   style="fill:#ffffff;fill-rule:evenodd;stroke:#000000;stroke-width:0.036;stroke-miterlimit:10"
   d="m 138.303,147.659 c -1.44,0.036 -3.888,0.685 -7.2,1.8 -3.42,1.044 -9.072,3.204 -12.924,4.824 -3.96,1.477 -8.784,3.816 -10.152,4.536 -1.296,0.72 0.108,0.324 2.124,-0.216 1.8,-0.792 4.356,-2.124 9.18,-3.564 4.86,-1.439 11.268,-2.987 19.62,-4.788 v 0 c -0.216,-0.863 -0.432,-1.728 -0.648,-2.592 z"
   inkscape:connector-curvature="0" />

	<path
   id="path51"
   style="fill:#008000;fill-rule:evenodd;stroke:#000000;stroke-width:0.036;stroke-miterlimit:10"
   d="m 103.995,157.56 c -1.26,-3.96 -2.916,-7.344 -4.824,-10.152 -2.052,-2.844 -4.212,-4.896 -6.912,-6.84 -2.952,-2.088 -6.192,-3.744 -9.576,-5.256 -3.348,-1.548 -6.588,-2.952 -10.116,-4.068 v 0 l -2.016,1.512 v 0 c -0.504,-0.036 -1.476,-0.18 -3.06,-0.576 -1.584,-0.396 -3.78,-1.044 -6.444,-1.8 v 0 l -0.432,2.484 v 0 c -0.648,-0.396 -2.124,-0.72 -4.428,-1.116 -2.376,-0.396 -5.58,-0.864 -9.612,-1.26 v 0 l -1.224,3.204 v 0 c -1.656,-0.54 -2.88,-0.864 -4.212,-1.368 -1.296,-0.504 -2.376,-0.972 -3.384,-1.404 v 0 l -1.116,1.872 v 0 c -1.584,-0.756 -3.24,-1.044 -4.824,-0.864 -1.656,0.072 -3.384,0.612 -5.04,1.62 v 0 l 0.324,1.296 v 0 c -1.8,0.108 -3.312,0.432 -4.68,0.684 -1.548,0.252 -2.88,0.54 -3.564,1.008 -0.72,0.396 -0.684,0.972 -0.288,1.584 v 0 c -1.548,0.576 -3.06,1.116 -4.392,1.764 -1.476,0.504 -3.24,1.368 -3.924,1.908 -0.756,0.54 -0.648,0.936 -0.072,1.332 v 0 c -1.584,0.36 -2.952,0.9 -4.392,1.764 -1.404,0.864 -2.736,1.908 -3.996,3.276 v 0 c 2.484,-0.288 5.544,-0.359 9.468,-0.504 3.852,-0.144 8.28,-0.216 13.572,-0.216 v 0 c -0.072,-0.612 -0.396,-1.584 -1.116,-2.772 -0.828,-1.332 -2.88,-3.816 -3.24,-4.536 -0.36,-0.864 0.576,-0.468 1.296,0.072 0.648,0.468 1.764,1.764 2.664,3.06 0.828,1.26 1.62,2.808 2.376,4.644 v 0 c 3.168,-0.18 6.192,-0.18 9.072,0 2.844,0.145 5.544,0.468 8.1,0.973 v 0 c -0.252,-1.116 -0.972,-2.592 -2.16,-4.429 -1.296,-1.98 -4.356,-5.364 -5.148,-6.804 -0.864,-1.548 -0.324,-2.196 0.252,-1.8 0.612,0.396 1.584,1.836 3.204,4.32 v 0 c 1.404,1.476 2.556,2.916 3.456,4.32 0.828,1.368 1.548,2.664 1.872,4.032 v 0 c 2.844,0.107 5.184,0.288 7.164,0.396 1.908,0.108 3.312,0.181 4.356,0.217 v 0 c 0.18,-1.44 0.108,-2.772 -0.216,-4.393 -0.36,-1.62 -0.972,-3.6 -1.98,-5.112 -1.152,-1.692 -4.248,-3.456 -4.716,-4.176 -0.54,-0.72 0.036,-0.828 1.728,-0.18 v 0 c 1.296,0.504 2.412,1.548 3.492,2.736 1.044,1.188 1.908,2.736 2.592,4.644 0.54,1.764 0.684,3.852 0.576,6.12 v 0 c 2.772,0.144 5.94,0.432 9.36,0.864 3.42,0.323 7.092,0.972 11.16,1.548 v 0 c 0.036,-1.225 -0.504,-2.916 -1.764,-4.932 -1.368,-2.196 -4.896,-5.76 -5.868,-7.38 -0.972,-1.548 -0.756,-2.916 0.252,-2.016 0.936,0.828 3.816,4.896 5.184,6.804 1.224,1.728 1.872,2.988 2.088,3.78 v 0 l 1.872,3.78 v 0 c 3.708,0.288 6.84,0.72 9.396,1.296 2.556,0.468 4.392,1.08 5.796,1.836 v 0 c -0.036,-2.017 -0.576,-3.816 -1.62,-5.796 -1.116,-1.944 -2.736,-3.852 -4.86,-5.724 v 0 c 1.116,-0.108 2.196,0.396 3.384,1.656 1.224,1.188 2.736,3.888 3.564,5.616 0.72,1.728 0.828,3.06 0.612,4.392 v 0 c 1.728,0.685 3.06,1.225 4.284,1.765 1.152,0.466 2.052,0.898 2.7,1.295 z"
   inkscape:connector-curvature="0" />

	<path
   id="path53"
   style="fill:#008000;fill-rule:evenodd;stroke:#000000;stroke-width:0.036;stroke-miterlimit:10"
   d="m 100.071,159.287 c -3.456,0.612 -6.696,1.152 -10.008,1.62 -3.456,0.396 -7.092,0.9 -9.648,0.972 -2.484,-0.071 -3.78,-0.396 -5.256,-0.827 -1.548,-0.505 -2.952,-1.009 -4.068,-1.801 v 0 c -4.5,1.513 -7.596,2.232 -9.72,2.305 -2.088,0 -3.06,-0.721 -2.772,-2.16 v 0 c -0.864,0.432 -2.304,0.72 -4.464,0.864 -2.196,0.071 -4.968,0.035 -8.46,-0.253 v 0 l -0.576,-1.728 v 0 c -1.368,0.396 -2.736,0.756 -4.248,1.08 -1.62,0.324 -3.456,0.647 -4.68,0.684 -1.152,-0.107 -1.908,-0.432 -2.268,-1.115 v 0 c -1.296,0.827 -2.34,1.151 -3.132,0.972 -0.828,-0.252 -1.404,-1.008 -1.728,-2.269 v 0 c -2.16,0.648 -3.924,0.864 -5.148,0.505 -1.296,-0.396 -2.052,-1.225 -2.412,-2.629 v 0 c -0.468,0.793 -1.044,1.368 -2.016,1.332 -1.008,0.072 -2.16,-0.468 -3.6,-1.224 v 0 0 c -1.26,-0.468 -2.34,-0.899 -3.096,-1.008 -0.864,-0.072 -0.972,-0.036 -1.728,-0.036 -0.864,-0.252 -1.908,-0.504 -3.132,-1.044 v 0 l 1.26,-2.556 -5.976,-1.62 v 0 c 3.24,-0.396 6.768,-0.721 10.728,-0.828 3.888,-0.145 8.136,-0.072 12.744,0.072 v 0 c -2.196,1.26 -3.816,2.268 -4.464,2.88 -0.684,0.576 -0.792,0.863 0.072,0.863 v 0 c 1.188,-0.504 2.196,-1.188 3.312,-1.655 1.044,-0.576 2.016,-1.116 3.06,-1.62 v 0 c 1.98,-0.252 4.212,-0.324 6.696,-0.216 2.52,0.071 5.076,0.323 8.064,0.756 v 0 c -0.54,0 -1.26,0.504 -2.016,1.512 -0.864,1.044 -1.8,2.448 -2.808,4.5 v 0 c 0.54,0 1.404,-0.324 2.448,-1.368 1.116,-1.044 2.232,-2.52 3.888,-4.572 v 0 c 2.592,0.181 4.716,0.469 6.516,0.469 1.836,-0.036 3.024,0.036 4.104,-0.181 v 0 c -0.108,0.324 -0.828,1.188 -2.16,2.196 -1.332,1.008 -3.348,2.376 -5.904,4.104 v 0 c 1.908,0.036 3.672,-0.433 5.292,-1.404 1.584,-1.08 3.024,-2.484 4.32,-4.608 v 0 c 1.296,0.217 3.6,0.54 7.2,0.828 3.492,0.288 8.136,0.685 13.932,1.044 v 0 c 0.072,0.685 -0.468,1.296 -1.332,2.124 -1.008,0.685 -2.34,1.584 -4.284,2.412 v 0 c 1.152,0.396 2.412,0.324 3.636,-0.359 1.188,-0.721 2.484,-1.944 3.744,-3.673 v 0 c 2.448,-0.036 4.824,0.108 7.416,0.576 2.556,0.36 5.508,1.116 7.74,2.124 2.052,0.973 3.744,2.34 4.932,3.96 z"
   inkscape:connector-curvature="0" />

	<path
   id="path55"
   style="fill:#008000;fill-rule:evenodd;stroke:#000000;stroke-width:0.036;stroke-miterlimit:10"
   d="m 79.119,177.827 c -2.88,-1.584 -6.156,-2.448 -10.404,-2.736 -4.356,-0.287 -10.944,0.36 -14.616,0.973 -3.636,0.504 -4.32,0.972 -6.912,2.231 -2.772,1.188 -5.76,2.772 -9.252,4.896 v 0 l 1.692,2.052 v 0 c -1.404,0.612 -2.592,1.152 -3.708,1.908 -1.188,0.576 -1.8,1.332 -2.808,2.268 -1.044,0.9 -2.16,2.053 -3.348,3.456 v 0 l 1.692,2.017 v 0 c -1.548,0.72 -3.024,1.691 -4.428,3.312 -1.404,1.512 -2.736,3.492 -3.996,5.94 v 0 l 1.62,1.151 v 0 c -0.792,1.296 -1.692,2.628 -2.844,4.284 -1.188,1.62 -2.484,3.276 -4.032,5.256 v 0 l 1.908,1.801 v 0 c -1.548,1.439 -2.808,2.844 -3.924,4.355 -1.116,1.44 -2.052,2.988 -2.808,4.5 v 0 l 2.232,0.864 v 0 c -0.828,1.404 -1.62,2.844 -2.376,4.464 -0.828,1.548 -1.62,3.168 -2.376,4.86 v 0 l 1.368,0.756 v 0 c -1.044,1.691 -1.692,3.456 -2.088,5.292 -0.396,1.836 -0.504,3.6 -0.324,5.58 v 0 c 3.96,-5.868 7.56,-10.548 10.944,-14.58 3.348,-4.032 6.444,-7.092 9.288,-9.324 v 0 c -3.888,0 -6.84,0.072 -8.856,0.216 -2.124,0.108 -3.168,0.288 -3.42,0.54 v 0 c 0.432,-0.576 1.332,-1.08 2.7,-1.368 1.224,-0.288 3.456,-0.504 5.148,-0.504 1.728,0 3.24,-0.072 4.968,0.181 v 0 c 1.332,-1.009 2.808,-2.232 4.824,-3.816 1.944,-1.584 4.176,-3.42 6.84,-5.508 v 0 c -2.088,-0.576 -4.5,-0.9 -7.632,-0.828 -3.132,0 -6.732,0.288 -10.944,0.864 v 0 c 0.396,-0.36 1.512,-0.685 3.348,-0.973 1.872,-0.359 4.644,-1.008 7.488,-0.972 2.7,-0.108 5.436,0.18 8.496,0.72 v 0 c 1.008,-0.828 2.448,-2.124 4.176,-3.744 1.728,-1.764 3.888,-3.636 6.336,-6.155 v 0 c -1.62,-1.044 -3.816,-1.549 -6.444,-1.801 -2.736,-0.107 -6.588,0.108 -9.468,0.505 -2.916,0.144 -5.508,0.504 -7.92,0.792 v 0 c 0.504,-0.721 2.16,-1.368 4.824,-1.801 2.736,-0.468 8.352,-0.899 11.16,-0.899 2.664,-0.108 3.24,0.036 4.788,0.432 1.476,0.288 2.772,0.864 4.032,1.584 v 0 c 1.476,-2.16 3.312,-4.212 5.652,-6.552 2.304,-2.376 4.86,-4.645 7.956,-7.2 v 0 c -3.528,-1.224 -7.38,-1.764 -11.988,-1.224 -4.608,0.359 -9.648,1.8 -15.408,3.924 v 0 c 0.756,-0.828 2.16,-1.548 4.752,-2.448 2.52,-0.936 6.48,-2.231 10.08,-2.771 3.384,-0.576 8.1,-0.721 10.548,-0.576 2.376,0.107 3.6,0.576 3.816,1.403 v 0 c 3.204,-2.521 6.408,-5.04 9.648,-7.597 z"
   inkscape:connector-curvature="0" />

	<path
   id="path57"
   style="fill:#008000;fill-rule:evenodd;stroke:#000000;stroke-width:0.036;stroke-miterlimit:10"
   d="m 80.739,178.979 c 0.54,1.979 0.9,4.032 1.224,6.3 0.288,2.232 0.396,4.968 0.468,7.236 -0.036,2.195 -0.324,4.212 -0.72,6.048 v 0 l -2.412,-0.396 v 0 c -0.072,1.548 -0.288,3.061 -0.648,4.681 -0.36,1.584 -0.9,3.132 -1.476,4.788 v 0 l -2.376,0.252 v 0 c -0.144,1.979 -0.576,3.888 -1.152,5.867 -0.648,1.98 -1.548,3.78 -2.7,5.797 v 0 l -3.708,-0.288 v 0 c -0.036,1.188 -0.252,2.231 -0.36,3.132 -0.288,0.864 -0.504,1.548 -0.648,2.052 -0.144,0.36 -0.144,0.432 0,0.216 v 0 h -2.16 v 0 c -0.108,1.872 -0.396,3.349 -0.864,4.716 -0.576,1.297 -1.98,2.521 -2.268,3.097 -0.396,0.504 -0.396,0.504 0,0 v 0 l -3.528,-0.756 v 0 c -0.072,1.367 -0.54,2.592 -1.404,3.672 -0.864,1.008 -2.196,1.872 -3.852,2.592 v 0 l -2.016,-0.684 v 0 c -0.864,0.432 -1.8,0.936 -2.664,1.367 -0.936,0.433 -1.908,1.152 -2.916,1.188 -1.08,0 -2.088,-0.468 -3.168,-1.26 v 0 c -0.936,0.863 -1.764,1.584 -3.024,2.304 -1.224,0.612 -2.88,1.656 -4.14,1.728 -1.332,0.036 -2.484,-0.432 -3.6,-1.403 v 0 c -0.432,1.8 -1.116,2.952 -2.052,3.312 -0.936,0.36 -2.124,0.072 -3.564,-1.008 v 0 c -0.972,0.828 -1.872,1.512 -2.844,2.052 -1.044,0.54 -1.98,0.9 -3.096,1.225 v 0 l -1.26,-1.872 v 0 c -1.692,0.54 -2.952,1.044 -4.176,1.512 -1.224,0.468 -2.196,0.756 -2.916,1.152 v 0 c 1.296,-2.017 3.42,-4.788 6.516,-8.604 3.132,-3.815 6.912,-8.388 11.88,-14.004 v 0 c 0.432,0.36 0.612,1.548 0.54,3.708 -0.108,2.088 -0.468,5.076 -1.08,8.964 v 0 c 0.864,-0.216 1.476,-1.332 1.836,-3.492 0.36,-2.231 0.324,-5.363 0.18,-9.54 v 0 c 1.296,-1.224 2.844,-2.628 4.788,-4.212 1.944,-1.655 3.996,-3.456 6.588,-5.544 v 0 c 0.108,1.152 0.324,2.772 0.252,4.86 -0.036,1.979 0.108,4.752 -0.396,7.344 -0.504,2.521 -1.62,5.004 -2.952,7.596 v 0 c 1.224,-0.575 2.304,-1.907 3.24,-4.535 0.936,-2.7 1.728,-7.885 2.232,-10.836 0.36,-2.916 0.324,-5.005 0.036,-6.408 v 0 l 8.136,-7.668 v 0 c 0.396,0.54 0.576,1.872 0.396,4.14 -0.18,2.304 -0.612,5.796 -1.296,9.216 -0.792,3.24 -2.736,9 -2.916,10.477 -0.18,1.367 1.008,-0.469 1.764,-2.196 0.756,-1.908 1.62,-5.364 2.448,-8.424 0.684,-3.132 1.512,-7.057 1.908,-9.685 0.288,-2.628 0.36,-4.5 0.072,-5.76 v 0 c 0.648,-1.08 2.088,-2.808 4.716,-5.328 2.556,-2.483 6.012,-5.76 10.512,-9.684 v 0 c 0.612,1.404 0.972,3.312 1.224,5.868 0.144,2.52 -0.18,8.063 0,9.288 0.108,1.044 0.792,-0.648 1.08,-2.305 0.252,-1.8 0.324,-5.363 0.36,-7.775 -0.072,-2.448 -0.216,-4.608 -0.432,-6.624 v 0 c 2.772,-2.488 5.58,-4.972 8.388,-7.456 z"
   inkscape:connector-curvature="0" />

	<path
   id="path59"
   style="fill:#008000;fill-rule:evenodd;stroke:#000000;stroke-width:0.036;stroke-miterlimit:10"
   d="m 81.135,176.459 c 0.612,-1.26 1.728,-2.699 3.492,-4.319 1.728,-1.765 4.428,-3.889 6.84,-5.544 2.304,-1.729 4.68,-3.168 7.128,-4.465 v 0 l -4.068,4.824 v 0 c -2.376,1.116 -4.248,2.052 -5.76,3.204 -1.584,1.044 -2.34,1.836 -3.384,3.204 -1.224,1.26 -2.124,2.772 -3.24,4.536 v 0 c -0.324,-0.467 -0.648,-0.936 -1.008,-1.44 z"
   inkscape:connector-curvature="0" />

	<path
   id="path61"
   style="fill-rule:evenodd;stroke:#000000;stroke-width:0.036;stroke-miterlimit:10"
   d="m 128.475,97.763 c -3.276,-2.232 -5.76,-5.652 -7.308,-10.548 -1.656,-5.004 -2.844,-14.004 -2.304,-18.684 0.54,-4.644 2.808,-6.12 5.292,-9.144 2.376,-3.132 5.688,-7.56 8.964,-9.54 3.132,-2.052 6.444,-2.952 9.936,-2.7 v 0 c 4.716,-4.86 8.676,-7.884 12.312,-9.504 3.492,-1.548 5.544,-0.072 8.928,0 3.312,-0.072 7.2,-0.648 10.98,-0.36 3.744,0.108 7.92,0.072 11.268,1.692 3.276,1.62 5.94,4.824 8.28,7.812 2.232,2.88 3.852,6.012 5.004,9.54 v 0 c 3.852,-2.016 7.452,-3.312 10.944,-3.744 3.348,-0.432 6.336,0.324 9.936,1.008 3.744,0.504 8.1,0.792 11.951,2.376 3.637,1.476 7.057,3.924 9.973,6.804 2.881,2.664 5.256,4.932 7.271,9.864 1.908,4.86 3.492,13.644 4.32,19.692 0.684,6.012 0.18,11.448 0,16.308 -0.287,4.716 0.18,8.748 -1.656,12.24 -1.979,3.456 -7.127,6.66 -9.611,8.496 -2.484,1.8 -4.104,2.34 -5.004,2.016 v 0 c -0.432,4.464 -0.035,9.288 1.332,14.616 1.332,5.328 5.4,11.268 6.66,16.992 1.152,5.58 1.26,12.96 0.324,16.309 -1.08,3.168 -3.133,2.844 -6.301,3.06 -3.24,0.108 -7.813,-2.124 -12.6,-1.692 -4.859,0.469 -10.045,1.836 -15.947,4.393 v 0 c -0.758,7.452 -2.628,13.212 -5.617,17.676 -3.096,4.284 -6.228,6.336 -12.312,8.496 -6.3,2.196 -17.604,3.672 -24.192,4.428 -6.516,0.576 -10.044,-0.432 -14.616,-0.684 -4.788,-0.36 -9.216,1.008 -13.284,-1.044 -4.104,-2.305 -9.324,-6.984 -10.944,-11.557 -1.692,-4.607 -0.576,-10.296 1.008,-15.264 1.44,-5.04 4.14,-9.612 7.956,-14.292 v 0 c -5.976,2.484 -11.304,3.061 -16.272,1.729 -4.968,-1.513 -9.432,-7.524 -13.248,-9.864 -3.78,-2.34 -6.66,-0.252 -9.612,-3.744 -3.132,-3.636 -6.12,-9.18 -8.964,-17.316 v 0 c -2.052,-3.384 -2.988,-7.416 -2.664,-12.24 0.216,-5.04 1.332,-11.88 4.32,-16.632 2.88,-4.788 8.712,-8.532 12.924,-11.232 4.14,-2.736 7.74,-3.852 11.628,-4.752 3.781,-1.01 7.381,-1.298 10.945,-1.01 z"
   inkscape:connector-curvature="0" />

	<path
   id="path63"
   style="fill:#ffd6ff;fill-rule:evenodd;stroke:#000000;stroke-width:0.036;stroke-miterlimit:10"
   d="m 155.007,115.763 c -1.548,-0.864 -4.176,-2.808 -8.28,-6.12 -4.14,-3.42 -11.952,-9.288 -15.948,-13.572 -4.032,-4.356 -6.408,-7.164 -7.956,-11.916 -1.692,-4.86 -3.672,-11.376 -1.656,-16.632 1.98,-5.364 9.9,-12.096 13.608,-14.94 3.564,-2.808 5.112,-0.576 7.956,-2.052 2.736,-1.692 5.796,-5.472 8.64,-7.452 2.7,-2.052 4.248,-3.564 7.956,-4.104 3.708,-0.468 9.9,0.72 14.256,1.044 4.248,0.144 8.208,-0.72 11.304,0.324 2.952,0.936 4.896,2.916 6.948,5.796 2.016,2.916 4.032,6.624 5.652,11.52 v 0 c -2.376,6.372 -4.032,11.196 -4.968,14.616 -0.936,3.312 -0.324,2.052 -0.684,5.796 -0.396,3.744 -1.188,9 -1.98,16.308 v 0 c 1.296,-3.132 2.196,-6.372 2.988,-9.864 0.648,-3.6 0.072,-6.444 1.332,-10.872 1.224,-4.428 3.168,-9.396 5.976,-15.3 v 0 c 2.592,-2.052 5.976,-3.132 10.296,-3.384 4.248,-0.216 10.439,0.684 15.229,2.016 4.715,1.152 9.215,2.7 12.959,5.472 3.672,2.844 6.373,7.128 8.641,11.196 2.123,3.852 3.42,7.38 4.283,12.24 0.684,4.86 0.289,12.204 0.361,16.632 -0.037,4.212 0.467,5.976 0,9.18 -0.434,3.204 -0.828,6.804 -2.988,9.828 -2.377,2.916 -5.941,5.364 -10.98,7.488 v 0 c -0.648,-1.512 -1.512,-2.592 -2.988,-3.384 -1.512,-0.864 -2.412,-1.368 -5.615,-1.368 -3.385,-0.072 -11.629,0.54 -13.609,1.008 -2.016,0.432 -0.107,1.116 1.98,1.368 2.053,0.072 7.561,-1.008 10.297,-0.324 2.664,0.648 4.355,2.196 5.652,4.068 1.115,1.692 0.971,2.916 1.654,6.444 0.576,3.492 1.152,10.332 2.305,14.292 1.152,3.78 3.061,4.932 4.32,8.46 1.152,3.601 2.123,9.145 2.34,12.601 0.072,3.312 -0.107,5.867 -1.656,7.128 -1.764,1.115 -5.4,-0.252 -7.992,-0.36 -2.555,-0.252 -4.607,-1.08 -7.271,-0.684 -2.844,0.396 -6.408,2.34 -9.324,3.06 -2.988,0.54 -6.301,0.216 -8.279,0.684 -1.98,0.504 -1.621,1.656 -3.637,2.053 -2.196,0.18 -6.156,1.943 -8.964,-0.685 -2.844,-2.735 -5.256,-7.74 -7.632,-15.3 v 0 c 0.936,4.896 1.692,8.748 2.664,11.556 0.756,2.664 1.404,3.996 2.628,5.112 1.152,1.08 2.376,1.692 4.644,1.692 2.304,0 5.148,-0.612 8.964,-1.692 v 0 c 0.504,4.968 -0.108,9.216 -1.98,12.888 -2.052,3.637 -5.616,6.588 -9.288,8.856 -3.744,2.16 -7.812,3.348 -12.6,4.392 -4.86,0.937 -10.692,1.332 -15.948,1.729 -5.364,0.288 -11.16,0.396 -15.588,0.324 -4.428,-0.145 -7.416,0.72 -10.62,-1.009 -3.276,-1.836 -7.416,-6.876 -8.964,-9.863 -1.764,-3.061 -1.584,-4.969 -0.972,-8.496 0.612,-3.601 2.808,-9.145 4.644,-12.889 1.692,-3.888 2.52,-6.479 5.94,-9.863 3.348,-3.528 13.248,-9.145 14.292,-10.188 0.864,-0.972 -5.292,2.196 -8.316,4.068 -3.06,1.764 -6.768,4.932 -9.612,6.443 -2.988,1.297 -4.608,1.98 -7.632,2.053 -3.132,0.107 -7.812,-0.396 -10.296,-1.368 -2.484,-1.116 -2.484,-3.348 -4.284,-4.752 -1.908,-1.368 -4.5,-2.448 -6.66,-3.384 -2.34,-0.937 -4.392,-1.801 -6.3,-2.736 -1.836,-1.26 -3.348,-1.368 -4.968,-4.068 -1.8,-2.7 -4.284,-7.775 -5.652,-11.88 -1.548,-4.284 -3.096,-8.568 -2.988,-13.248 0.072,-4.788 1.44,-10.728 3.672,-14.616 2.196,-3.924 5.94,-6.156 9.288,-8.496 3.168,-2.412 5.508,-4.464 9.936,-5.76 4.392,-1.404 9.684,-2.16 16.272,-2.412 v 0 c 2.7,1.584 5.22,3.384 7.956,5.112 2.628,1.728 5.004,3.672 7.956,5.436 2.842,1.654 5.938,3.238 9.286,4.75 z"
   inkscape:connector-curvature="0" />

	<path
   id="path65"
   style="fill-rule:evenodd;stroke:#000000;stroke-width:0.036;stroke-miterlimit:10"
   d="m 166.071,112.651 c 0.735,0 1.332,0.613 1.332,1.368 0,0.755 -0.597,1.368 -1.332,1.368 -0.735,0 -1.332,-0.613 -1.332,-1.368 0,-0.755 0.597,-1.368 1.332,-1.368"
   inkscape:connector-curvature="0" />

	<path
   id="path67"
   style="fill:#feff48;fill-rule:evenodd;stroke:#000000;stroke-width:0.036;stroke-miterlimit:10"
   d="m 166.071,112.976 c 0.497,0 0.9,0.467 0.9,1.044 0,0.576 -0.403,1.044 -0.9,1.044 -0.497,0 -0.9,-0.468 -0.9,-1.044 0,-0.577 0.403,-1.044 0.9,-1.044"
   inkscape:connector-curvature="0" />

	<path
   id="path69"
   style="fill-rule:evenodd;stroke:#000000;stroke-width:0.036;stroke-miterlimit:10"
   d="m 176.631,111.416 c 0.735,0 1.332,0.629 1.332,1.404 0,0.775 -0.597,1.404 -1.332,1.404 -0.735,0 -1.332,-0.629 -1.332,-1.404 0,-0.775 0.597,-1.404 1.332,-1.404"
   inkscape:connector-curvature="0" />

	<path
   id="path71"
   style="fill:#feff48;fill-rule:evenodd;stroke:#000000;stroke-width:0.036;stroke-miterlimit:10"
   d="m 176.511,111.859 c 0.497,0 0.9,0.484 0.9,1.08 0,0.596 -0.403,1.08 -0.9,1.08 -0.497,0 -0.9,-0.484 -0.9,-1.08 0,-0.596 0.403,-1.08 0.9,-1.08"
   inkscape:connector-curvature="0" />

	<path
   id="path73"
   style="fill-rule:evenodd;stroke:#000000;stroke-width:0.036;stroke-miterlimit:10"
   d="m 181.431,107.215 c 0.735,0 1.332,0.629 1.332,1.404 0,0.775 -0.597,1.404 -1.332,1.404 -0.735,0 -1.332,-0.629 -1.332,-1.404 0,-0.775 0.597,-1.404 1.332,-1.404"
   inkscape:connector-curvature="0" />

	<path
   id="path75"
   style="fill:#feff48;fill-rule:evenodd;stroke:#000000;stroke-width:0.036;stroke-miterlimit:10"
   d="m 181.431,107.575 c 0.497,0 0.9,0.468 0.9,1.044 0,0.577 -0.403,1.044 -0.9,1.044 -0.497,0 -0.9,-0.467 -0.9,-1.044 0,-0.576 0.403,-1.044 0.9,-1.044"
   inkscape:connector-curvature="0" />

	<path
   id="path77"
   style="fill-rule:evenodd;stroke:#000000;stroke-width:0.036;stroke-miterlimit:10"
   d="m 188.871,108.295 c 0.735,0 1.332,0.629 1.332,1.404 0,0.775 -0.597,1.404 -1.332,1.404 -0.735,0 -1.332,-0.629 -1.332,-1.404 0,-0.775 0.597,-1.404 1.332,-1.404"
   inkscape:connector-curvature="0" />

	<path
   id="path79"
   style="fill:#feff48;fill-rule:evenodd;stroke:#000000;stroke-width:0.036;stroke-miterlimit:10"
   d="m 188.991,108.655 c 0.497,0 0.9,0.468 0.9,1.044 0,0.576 -0.403,1.044 -0.9,1.044 -0.497,0 -0.9,-0.468 -0.9,-1.044 0,-0.576 0.403,-1.044 0.9,-1.044"
   inkscape:connector-curvature="0" />

	<path
   id="path81"
   style="fill-rule:evenodd;stroke:#000000;stroke-width:0.036;stroke-miterlimit:10"
   d="m 195.831,104.695 c 0.735,0 1.332,0.629 1.332,1.404 0,0.775 -0.597,1.404 -1.332,1.404 -0.735,0 -1.332,-0.629 -1.332,-1.404 0,-0.775 0.597,-1.404 1.332,-1.404"
   inkscape:connector-curvature="0" />

	<path
   id="path83"
   style="fill:#feff48;fill-rule:evenodd;stroke:#000000;stroke-width:0.036;stroke-miterlimit:10"
   d="m 195.951,105.139 c 0.497,0 0.9,0.484 0.9,1.08 0,0.596 -0.403,1.08 -0.9,1.08 -0.497,0 -0.9,-0.484 -0.9,-1.08 0,-0.596 0.403,-1.08 0.9,-1.08"
   inkscape:connector-curvature="0" />

	<path
   id="path85"
   style="fill-rule:evenodd;stroke:#000000;stroke-width:0.036;stroke-miterlimit:10"
   d="m 199.311,112.255 c 0.735,0 1.332,0.629 1.332,1.404 0,0.775 -0.597,1.404 -1.332,1.404 -0.735,0 -1.332,-0.629 -1.332,-1.404 0,-0.775 0.597,-1.404 1.332,-1.404"
   inkscape:connector-curvature="0" />

	<path
   id="path87"
   style="fill:#feff48;fill-rule:evenodd;stroke:#000000;stroke-width:0.036;stroke-miterlimit:10"
   d="m 199.311,112.615 c 0.497,0 0.9,0.468 0.9,1.044 0,0.576 -0.403,1.044 -0.9,1.044 -0.497,0 -0.9,-0.468 -0.9,-1.044 0,-0.576 0.403,-1.044 0.9,-1.044"
   inkscape:connector-curvature="0" />

	<path
   id="path89"
   style="fill-rule:evenodd;stroke:#000000;stroke-width:0.036;stroke-miterlimit:10"
   d="m 204.111,115.375 c 0.735,0 1.332,0.629 1.332,1.404 0,0.775 -0.597,1.404 -1.332,1.404 -0.735,0 -1.332,-0.629 -1.332,-1.404 0,-0.775 0.597,-1.404 1.332,-1.404"
   inkscape:connector-curvature="0" />

	<path
   id="path91"
   style="fill:#feff48;fill-rule:evenodd;stroke:#000000;stroke-width:0.036;stroke-miterlimit:10"
   d="m 204.111,115.735 c 0.497,0 0.9,0.468 0.9,1.044 0,0.576 -0.403,1.044 -0.9,1.044 -0.497,0 -0.9,-0.468 -0.9,-1.044 0,-0.576 0.403,-1.044 0.9,-1.044"
   inkscape:connector-curvature="0" />

	<path
   id="path93"
   style="fill-rule:evenodd;stroke:#000000;stroke-width:0.036;stroke-miterlimit:10"
   d="m 203.271,121.375 c 0.735,0 1.332,0.629 1.332,1.404 0,0.775 -0.597,1.404 -1.332,1.404 -0.735,0 -1.332,-0.629 -1.332,-1.404 0,-0.775 0.597,-1.404 1.332,-1.404"
   inkscape:connector-curvature="0" />

	<path
   id="path95"
   style="fill:#feff48;fill-rule:evenodd;stroke:#000000;stroke-width:0.036;stroke-miterlimit:10"
   d="m 203.271,121.699 c 0.497,0 0.9,0.484 0.9,1.08 0,0.596 -0.403,1.08 -0.9,1.08 -0.497,0 -0.9,-0.484 -0.9,-1.08 0,-0.596 0.403,-1.08 0.9,-1.08"
   inkscape:connector-curvature="0" />

	<path
   id="path97"
   style="fill-rule:evenodd;stroke:#000000;stroke-width:0.036;stroke-miterlimit:10"
   d="m 204.351,129.416 c 0.735,0 1.332,0.629 1.332,1.404 0,0.775 -0.597,1.404 -1.332,1.404 -0.735,0 -1.332,-0.629 -1.332,-1.404 0,-0.775 0.597,-1.404 1.332,-1.404"
   inkscape:connector-curvature="0" />

	<path
   id="path99"
   style="fill:#feff48;fill-rule:evenodd;stroke:#000000;stroke-width:0.036;stroke-miterlimit:10"
   d="m 204.351,129.775 c 0.497,0 0.9,0.468 0.9,1.044 0,0.576 -0.403,1.044 -0.9,1.044 -0.497,0 -0.9,-0.468 -0.9,-1.044 0,-0.576 0.403,-1.044 0.9,-1.044"
   inkscape:connector-curvature="0" />

	<path
   id="path101"
   style="fill-rule:evenodd;stroke:#000000;stroke-width:0.036;stroke-miterlimit:10"
   d="m 206.631,135.775 c 0.735,0 1.332,0.629 1.332,1.404 0,0.775 -0.597,1.404 -1.332,1.404 -0.735,0 -1.332,-0.629 -1.332,-1.404 0,-0.775 0.597,-1.404 1.332,-1.404"
   inkscape:connector-curvature="0" />

	<path
   id="path103"
   style="fill:#feff48;fill-rule:evenodd;stroke:#000000;stroke-width:0.036;stroke-miterlimit:10"
   d="m 206.631,136.099 c 0.497,0 0.9,0.484 0.9,1.08 0,0.596 -0.403,1.08 -0.9,1.08 -0.497,0 -0.9,-0.484 -0.9,-1.08 0,-0.596 0.403,-1.08 0.9,-1.08"
   inkscape:connector-curvature="0" />

	<path
   id="path105"
   style="fill-rule:evenodd;stroke:#000000;stroke-width:0.036;stroke-miterlimit:10"
   d="m 199.671,142.135 c 0.735,0 1.332,0.629 1.332,1.404 0,0.775 -0.597,1.404 -1.332,1.404 -0.735,0 -1.332,-0.629 -1.332,-1.404 0,-0.775 0.597,-1.404 1.332,-1.404"
   inkscape:connector-curvature="0" />

	<path
   id="path107"
   style="fill:#feff48;fill-rule:evenodd;stroke:#000000;stroke-width:0.036;stroke-miterlimit:10"
   d="m 199.671,142.615 c 0.497,0 0.9,0.468 0.9,1.044 0,0.576 -0.403,1.044 -0.9,1.044 -0.497,0 -0.9,-0.468 -0.9,-1.044 0,-0.576 0.403,-1.044 0.9,-1.044"
   inkscape:connector-curvature="0" />

	<path
   id="path109"
   style="fill-rule:evenodd;stroke:#000000;stroke-width:0.036;stroke-miterlimit:10"
   d="m 194.391,147.896 c 0.735,0 1.332,0.629 1.332,1.404 0,0.774 -0.597,1.403 -1.332,1.403 -0.735,0 -1.332,-0.629 -1.332,-1.403 0,-0.776 0.597,-1.404 1.332,-1.404"
   inkscape:connector-curvature="0" />

	<path
   id="path111"
   style="fill:#feff48;fill-rule:evenodd;stroke:#000000;stroke-width:0.036;stroke-miterlimit:10"
   d="m 194.391,148.255 c 0.497,0 0.9,0.468 0.9,1.045 0,0.576 -0.403,1.044 -0.9,1.044 -0.497,0 -0.9,-0.468 -0.9,-1.044 0,-0.577 0.404,-1.045 0.9,-1.045"
   inkscape:connector-curvature="0" />

	<path
   id="path113"
   style="fill-rule:evenodd;stroke:#000000;stroke-width:0.036;stroke-miterlimit:10"
   d="m 189.591,154.375 c 0.735,0 1.332,0.629 1.332,1.404 0,0.775 -0.597,1.404 -1.332,1.404 -0.735,0 -1.332,-0.629 -1.332,-1.404 0,-0.775 0.597,-1.404 1.332,-1.404"
   inkscape:connector-curvature="0" />

	<path
   id="path115"
   style="fill:#feff48;fill-rule:evenodd;stroke:#000000;stroke-width:0.036;stroke-miterlimit:10"
   d="m 189.591,154.579 c 0.497,0 0.9,0.484 0.9,1.08 0,0.597 -0.403,1.08 -0.9,1.08 -0.497,0 -0.9,-0.483 -0.9,-1.08 0,-0.596 0.403,-1.08 0.9,-1.08"
   inkscape:connector-curvature="0" />

	<path
   id="path117"
   style="fill-rule:evenodd;stroke:#000000;stroke-width:0.036;stroke-miterlimit:10"
   d="m 185.271,151.375 c 0.735,0 1.332,0.629 1.332,1.404 0,0.775 -0.597,1.404 -1.332,1.404 -0.735,0 -1.332,-0.629 -1.332,-1.404 0,-0.775 0.597,-1.404 1.332,-1.404"
   inkscape:connector-curvature="0" />

	<path
   id="path119"
   style="fill:#feff48;fill-rule:evenodd;stroke:#000000;stroke-width:0.036;stroke-miterlimit:10"
   d="m 185.151,151.735 c 0.497,0 0.9,0.468 0.9,1.044 0,0.576 -0.403,1.044 -0.9,1.044 -0.497,0 -0.9,-0.468 -0.9,-1.044 0,-0.576 0.403,-1.044 0.9,-1.044"
   inkscape:connector-curvature="0" />

	<path
   id="path121"
   style="fill-rule:evenodd;stroke:#000000;stroke-width:0.036;stroke-miterlimit:10"
   d="m 178.311,152.575 c 0.735,0 1.332,0.629 1.332,1.404 0,0.774 -0.597,1.404 -1.332,1.404 -0.735,0 -1.332,-0.63 -1.332,-1.404 0,-0.775 0.597,-1.404 1.332,-1.404"
   inkscape:connector-curvature="0" />

	<path
   id="path123"
   style="fill:#feff48;fill-rule:evenodd;stroke:#000000;stroke-width:0.036;stroke-miterlimit:10"
   d="m 178.311,152.899 c 0.497,0 0.9,0.483 0.9,1.08 0,0.596 -0.403,1.08 -0.9,1.08 -0.497,0 -0.9,-0.484 -0.9,-1.08 0,-0.596 0.403,-1.08 0.9,-1.08"
   inkscape:connector-curvature="0" />

	<path
   id="path125"
   style="fill-rule:evenodd;stroke:#000000;stroke-width:0.036;stroke-miterlimit:10"
   d="m 171.711,148.136 c 0.735,0 1.332,0.629 1.332,1.403 0,0.775 -0.597,1.404 -1.332,1.404 -0.735,0 -1.332,-0.629 -1.332,-1.404 0,-0.774 0.597,-1.403 1.332,-1.403"
   inkscape:connector-curvature="0" />

	<path
   id="path127"
   style="fill:#feff48;fill-rule:evenodd;stroke:#000000;stroke-width:0.036;stroke-miterlimit:10"
   d="m 171.711,148.495 c 0.497,0 0.9,0.468 0.9,1.044 0,0.576 -0.403,1.044 -0.9,1.044 -0.497,0 -0.9,-0.468 -0.9,-1.044 0,-0.576 0.403,-1.044 0.9,-1.044"
   inkscape:connector-curvature="0" />

	<path
   id="path129"
   style="fill-rule:evenodd;stroke:#000000;stroke-width:0.036;stroke-miterlimit:10"
   d="m 164.631,151.976 c 0.735,0 1.332,0.629 1.332,1.403 0,0.775 -0.597,1.404 -1.332,1.404 -0.735,0 -1.332,-0.629 -1.332,-1.404 0,-0.775 0.597,-1.403 1.332,-1.403"
   inkscape:connector-curvature="0" />

	<path
   id="path131"
   style="fill:#feff48;fill-rule:evenodd;stroke:#000000;stroke-width:0.036;stroke-miterlimit:10"
   d="m 164.631,152.419 c 0.497,0 0.9,0.484 0.9,1.08 0,0.597 -0.403,1.08 -0.9,1.08 -0.497,0 -0.9,-0.483 -0.9,-1.08 0,-0.596 0.403,-1.08 0.9,-1.08"
   inkscape:connector-curvature="0" />

	<path
   id="path133"
   style="fill-rule:evenodd;stroke:#000000;stroke-width:0.036;stroke-miterlimit:10"
   d="m 162.591,144.775 c 0.735,0 1.332,0.629 1.332,1.404 0,0.775 -0.597,1.405 -1.332,1.405 -0.735,0 -1.332,-0.63 -1.332,-1.405 0,-0.775 0.597,-1.404 1.332,-1.404"
   inkscape:connector-curvature="0" />

	<path
   id="path135"
   style="fill:#feff48;fill-rule:evenodd;stroke:#000000;stroke-width:0.036;stroke-miterlimit:10"
   d="m 162.591,145.135 c 0.497,0 0.9,0.468 0.9,1.044 0,0.577 -0.403,1.044 -0.9,1.044 -0.497,0 -0.9,-0.468 -0.9,-1.044 0,-0.576 0.403,-1.044 0.9,-1.044"
   inkscape:connector-curvature="0" />

	<path
   id="path137"
   style="fill-rule:evenodd;stroke:#000000;stroke-width:0.036;stroke-miterlimit:10"
   d="m 159.591,140.215 c 0.735,0 1.332,0.629 1.332,1.404 0,0.775 -0.597,1.404 -1.332,1.404 -0.735,0 -1.332,-0.629 -1.332,-1.404 0,-0.775 0.597,-1.404 1.332,-1.404"
   inkscape:connector-curvature="0" />

	<path
   id="path139"
   style="fill:#feff48;fill-rule:evenodd;stroke:#000000;stroke-width:0.036;stroke-miterlimit:10"
   d="m 159.591,140.695 c 0.497,0 0.9,0.468 0.9,1.044 0,0.576 -0.403,1.044 -0.9,1.044 -0.497,0 -0.9,-0.468 -0.9,-1.044 0,-0.576 0.403,-1.044 0.9,-1.044"
   inkscape:connector-curvature="0" />

	<path
   id="path141"
   style="fill-rule:evenodd;stroke:#000000;stroke-width:0.036;stroke-miterlimit:10"
   d="m 162.231,135.055 c 0.735,0 1.332,0.629 1.332,1.404 0,0.775 -0.597,1.404 -1.332,1.404 -0.735,0 -1.332,-0.629 -1.332,-1.404 0,-0.775 0.597,-1.404 1.332,-1.404"
   inkscape:connector-curvature="0" />

	<path
   id="path143"
   style="fill:#feff48;fill-rule:evenodd;stroke:#000000;stroke-width:0.036;stroke-miterlimit:10"
   d="m 162.231,135.416 c 0.497,0 0.9,0.467 0.9,1.044 0,0.576 -0.403,1.044 -0.9,1.044 -0.497,0 -0.9,-0.468 -0.9,-1.044 0,-0.577 0.403,-1.044 0.9,-1.044"
   inkscape:connector-curvature="0" />

	<path
   id="path145"
   style="fill-rule:evenodd;stroke:#000000;stroke-width:0.036;stroke-miterlimit:10"
   d="m 164.151,131.095 c 0.735,0 1.332,0.629 1.332,1.404 0,0.775 -0.597,1.404 -1.332,1.404 -0.735,0 -1.332,-0.629 -1.332,-1.404 0,-0.775 0.597,-1.404 1.332,-1.404"
   inkscape:connector-curvature="0" />

	<path
   id="path147"
   style="fill:#feff48;fill-rule:evenodd;stroke:#000000;stroke-width:0.036;stroke-miterlimit:10"
   d="m 164.031,131.575 c 0.497,0 0.9,0.468 0.9,1.044 0,0.577 -0.403,1.044 -0.9,1.044 -0.497,0 -0.9,-0.467 -0.9,-1.044 0,-0.576 0.403,-1.044 0.9,-1.044"
   inkscape:connector-curvature="0" />

	<path
   id="path149"
   style="fill-rule:evenodd;stroke:#000000;stroke-width:0.036;stroke-miterlimit:10"
   d="m 158.631,128.335 c 0.735,0 1.332,0.629 1.332,1.404 0,0.775 -0.597,1.404 -1.332,1.404 -0.735,0 -1.332,-0.629 -1.332,-1.404 0,-0.775 0.597,-1.404 1.332,-1.404"
   inkscape:connector-curvature="0" />

	<path
   id="path151"
   style="fill:#feff48;fill-rule:evenodd;stroke:#000000;stroke-width:0.036;stroke-miterlimit:10"
   d="m 158.631,128.695 c 0.497,0 0.9,0.468 0.9,1.044 0,0.576 -0.403,1.044 -0.9,1.044 -0.497,0 -0.9,-0.468 -0.9,-1.044 0,-0.576 0.403,-1.044 0.9,-1.044"
   inkscape:connector-curvature="0" />

	<path
   id="path153"
   style="fill-rule:evenodd;stroke:#000000;stroke-width:0.036;stroke-miterlimit:10"
   d="m 161.511,124.651 c 0.735,0 1.332,0.613 1.332,1.368 0,0.755 -0.597,1.368 -1.332,1.368 -0.735,0 -1.332,-0.613 -1.332,-1.368 0,-0.755 0.597,-1.368 1.332,-1.368"
   inkscape:connector-curvature="0" />

	<path
   id="path155"
   style="fill:#feff48;fill-rule:evenodd;stroke:#000000;stroke-width:0.036;stroke-miterlimit:10"
   d="m 161.511,125.095 c 0.497,0 0.9,0.468 0.9,1.044 0,0.577 -0.403,1.044 -0.9,1.044 -0.497,0 -0.9,-0.467 -0.9,-1.044 0,-0.576 0.403,-1.044 0.9,-1.044"
   inkscape:connector-curvature="0" />

	<path
   id="path157"
   style="fill-rule:evenodd;stroke:#000000;stroke-width:0.036;stroke-miterlimit:10"
   d="m 155.871,121.375 c 0.735,0 1.332,0.629 1.332,1.404 0,0.775 -0.597,1.404 -1.332,1.404 -0.735,0 -1.332,-0.629 -1.332,-1.404 0,-0.775 0.597,-1.404 1.332,-1.404"
   inkscape:connector-curvature="0" />

	<path
   id="path159"
   style="fill:#feff48;fill-rule:evenodd;stroke:#000000;stroke-width:0.036;stroke-miterlimit:10"
   d="m 155.871,121.735 c 0.497,0 0.9,0.468 0.9,1.044 0,0.576 -0.403,1.044 -0.9,1.044 -0.497,0 -0.9,-0.468 -0.9,-1.044 0,-0.576 0.404,-1.044 0.9,-1.044"
   inkscape:connector-curvature="0" />

	<path
   id="path161"
   style="fill-rule:evenodd;stroke:#000000;stroke-width:0.036;stroke-miterlimit:10"
   d="m 164.391,120.175 c 0.735,0 1.332,0.629 1.332,1.404 0,0.775 -0.597,1.404 -1.332,1.404 -0.735,0 -1.332,-0.629 -1.332,-1.404 0,-0.775 0.597,-1.404 1.332,-1.404"
   inkscape:connector-curvature="0" />

	<path
   id="path163"
   style="fill:#feff48;fill-rule:evenodd;stroke:#000000;stroke-width:0.036;stroke-miterlimit:10"
   d="m 164.391,120.535 c 0.497,0 0.9,0.468 0.9,1.044 0,0.577 -0.403,1.044 -0.9,1.044 -0.497,0 -0.9,-0.467 -0.9,-1.044 0,-0.576 0.404,-1.044 0.9,-1.044"
   inkscape:connector-curvature="0" />

	<path
   id="path165"
   style="fill-rule:evenodd;stroke:#000000;stroke-width:0.036;stroke-miterlimit:10"
   d="m 177.255,127.211 c 0.288,-0.828 -0.72,-2.844 -0.252,-3.276 0.432,-0.396 2.124,1.224 2.988,0.828 0.684,-0.612 0.936,-3.384 1.584,-3.744 0.612,-0.36 1.08,1.8 2.376,1.764 1.26,-0.288 4.32,-2.808 5.148,-2.7 0.684,0.144 -1.728,2.664 -1.008,3.384 0.72,0.504 3.816,-0.288 5.004,0.252 1.008,0.432 0.648,2.16 1.26,2.808 0.468,0.504 2.232,0.252 1.944,0.792 -0.468,0.468 -4.032,1.62 -3.888,2.484 0.216,0.792 4.356,1.656 4.788,2.448 0.252,0.54 -2.808,1.116 -3.204,1.728 -0.468,0.612 0.684,1.332 0.252,2.016 -0.612,0.54 -2.772,0.396 -3.42,1.512 -0.648,1.152 0.036,4.716 -0.468,5.148 -0.792,0.252 -2.016,-2.808 -3.096,-3.06 -0.936,-0.288 -1.944,1.692 -2.736,1.656 -0.9,-0.18 -1.26,-2.088 -2.484,-2.232 -1.404,-0.18 -4.644,1.404 -5.256,1.152 -0.648,-0.396 1.836,-2.196 1.476,-3.024 -0.504,-0.9 -3.78,-1.188 -3.996,-1.98 -0.324,-0.936 2.412,-2.16 2.52,-3.276 0,-1.188 -2.16,-2.772 -2.052,-3.492 0,-0.792 2.088,-0.54 2.52,-1.188 z"
   inkscape:connector-curvature="0" />

	<path
   id="path167"
   style="fill:#c2ff80;fill-rule:evenodd;stroke:#000000;stroke-width:0.036;stroke-miterlimit:10"
   d="m 178.155,127.463 c 0.288,-0.612 -0.612,-2.052 -0.216,-2.232 0.288,-0.216 1.728,1.224 2.376,0.828 0.54,-0.612 0.72,-3.384 1.368,-3.744 0.612,-0.36 1.368,1.656 2.412,1.62 1.008,-0.144 2.88,-2.628 3.528,-2.448 0.54,0.036 -0.972,2.268 -0.108,2.808 0.828,0.432 3.636,-0.576 4.68,-0.108 0.756,0.396 0.108,1.692 0.576,2.34 0.396,0.468 2.448,0.18 2.268,0.792 -0.396,0.504 -3.708,1.872 -3.672,2.7 0.108,0.684 3.888,1.476 4.248,1.98 0.216,0.468 -2.448,0.72 -2.736,1.296 -0.432,0.576 1.008,1.368 0.576,2.088 -0.612,0.648 -3.132,0.504 -3.672,1.656 -0.54,1.008 0.648,4.464 0.36,4.68 -0.54,0.072 -1.728,-3.492 -2.736,-3.744 -1.044,-0.324 -2.052,1.872 -2.88,1.872 -0.936,-0.144 -1.224,-2.268 -2.268,-2.34 -1.116,-0.108 -3.816,2.088 -4.212,1.872 -0.576,-0.396 1.872,-2.592 1.368,-3.384 -0.612,-0.756 -4.104,-0.468 -4.356,-1.08 -0.216,-0.72 2.772,-2.052 2.988,-3.024 0.072,-1.188 -2.232,-2.592 -2.196,-3.384 0,-0.792 1.836,-0.54 2.304,-1.044 z"
   inkscape:connector-curvature="0" />

</g>
  </g>
</svg>
