<?xml version="1.0" encoding="utf-8"?>

<!DOCTYPE svg PUBLIC "-//W3C//DTD SVG 1.1//EN" "http://www.w3.org/Graphics/SVG/1.1/DTD/svg11.dtd">
<svg version="1.1" id="Layer_1" xmlns="http://www.w3.org/2000/svg" xmlns:xlink="http://www.w3.org/1999/xlink" x="0px" y="0px"
	 viewBox="0 0 1668.0975 1668.0975" enable-background="new 0 0 1668.0975 1668.0975" xml:space="preserve">
<g>
	<path d="M1511.339,613.9838c14.0739-9.7707,26.5605-21.9658,45.8264-26.1585c-2.9332-1.1191-3.7921-1.6961-4.6829-1.7499
		c-18.7551-1.1329-36.8147,1.9525-54.7122,7.6777c-4.4019,1.4081-9.3718,9.0297-14.6603,2.0732
		c-4.8688-6.4044,4.3142-9.2772,4.8116-14.6074c0.1776-1.9039,2.3899-4.8661,1.847-5.3675
		c-2.0624-1.9046-4.9911-1.7027-7.5776-0.5593c-13.6548,6.0361-27.5653,11.6747-33.4745,27.3574
		c-1.368,3.6307-5.2404,4.3077-8.6603,3.3567c-5.601-1.5576-8.3411-5.2994-7.6196-11.4487
		c0.5829-4.9692,0.6671-9.9993,0.9084-15.0054c0.1211-2.5109-0.2813-5.1021-3.1229-5.7188
		c-4.1689-0.9048-1.8496,3.2483-3.1758,4.7785c-1.4316,1.652-1.5999,4.3123-2.2806,6.4899
		c-2.6044,8.3309-4.5227,17.5652-9.5837,24.2898c-9.3221,12.3864-21.3923,22.1848-35.0874,30.1279
		c-13.0249,7.5543-27.3124,11.657-41.0719,17.096c-16.6748,6.5914-32.9127,14.0403-48.8398,22.138
		c-10.816,5.4991-22.0054,10.4307-31.9803,17.4795c12.2131-0.1605,24.1642-2.7477,36.1469-4.6564
		c17.645-2.8105,35.1602-6.3286,52.5247-10.7973c14.3286-3.6874,28.299-8.7662,43.2766-10.3105
		c15.7484-1.6237,31.2727-0.7913,46.0951,3.7501c8.047,2.4655,15.0267,8.8086,22.0305,14.0176
		c1.8307,1.3616,3.5305,3.4149,5.6598,3.9099c1.9723,0.4585,2.537,5.1817,5.3779,1.9993c1.9364-2.1692,0.7389-4.5021-0.8348-6.4622
		c-3.1379-3.9081-6.1625-7.9281-9.5551-11.6057c-4.1981-4.5508-4.1805-9.1886-0.5648-13.7409
		c2.2078-2.7795,5.7384-4.5079,8.9792-2.3747c13.9988,9.2142,28.5669,5.5995,43.1617,2.4567
		c2.7646-0.5953,5.2527-2.1534,5.8016-4.9066c0.1445-0.7247-3.3864-1.8208-4.6493-3.2567
		c-3.5354-4.0198-12.6532-0.9463-12.4786-8.9894c0.1896-8.7364,8.6902-5.4916,13.0791-6.9398
		c17.8445-5.8881,34.2686-14.0071,48.7759-25.9476c0.689-0.5671,1.0447-1.5388,2.7599-4.1683
		C1545.7382,616.1427,1528.4681,613.6161,1511.339,613.9838z M1511.339,1054.1136c17.1292,0.3678,34.3992-2.1588,52.45,5.7734
		c-1.7152-2.6295-2.0709-3.6012-2.7599-4.1683c-14.5073-11.9404-30.9314-20.0594-48.7759-25.9475
		c-4.3889-1.4482-12.8895,1.7965-13.0791-6.9399c-0.1746-8.043,8.9432-4.9696,12.4786-8.9894
		c1.2629-1.4359,4.7938-2.532,4.6493-3.2567c-0.549-2.7531-3.037-4.3112-5.8016-4.9065
		c-14.5948-3.1428-29.163-6.7574-43.1617,2.4567c-3.2408,2.1332-6.7715,0.4048-8.9792-2.3748
		c-3.6157-4.5523-3.6333-9.1901,0.5648-13.7409c3.3926-3.6776,6.4171-7.6974,9.5551-11.6056
		c1.5737-1.9601,2.7712-4.2931,0.8348-6.4623c-2.8409-3.1824-3.4056,1.5408-5.3779,1.9993
		c-2.1293,0.495-3.8291,2.5483-5.6598,3.9099c-7.0038,5.2091-13.9835,11.5522-22.0305,14.0177
		c-14.8224,4.5413-30.3467,5.3738-46.0951,3.7501c-14.9777-1.5443-28.948-6.623-43.2766-10.3105
		c-17.3645-4.4687-34.8796-7.9868-52.5247-10.7972c-11.9827-1.9087-23.9337-4.4959-36.1469-4.6564
		c9.975,7.0488,21.1643,11.9803,31.9803,17.4795c15.9271,8.0977,32.165,15.5467,48.8398,22.138
		c13.7595,5.439,28.047,9.5417,41.0719,17.0961c13.6951,7.9431,25.7653,17.7415,35.0874,30.1278
		c5.061,6.7246,6.9794,15.9589,9.5837,24.2898c0.6808,2.1776,0.849,4.8379,2.2806,6.4899c1.3262,1.5303-0.9932,5.6833,3.1758,4.7786
		c2.8417-0.6167,3.244-3.208,3.1229-5.7189c-0.2413-5.0061-0.3256-10.0361-0.9084-15.0054
		c-0.7214-6.1493,2.0187-9.891,7.6196-11.4486c3.4199-0.951,7.2922-0.274,8.6603,3.3566
		c5.9092,15.6827,19.8197,21.3214,33.4745,27.3574c2.5865,1.1434,5.5153,1.3453,7.5776-0.5593
		c0.5428-0.5013-1.6694-3.4635-1.847-5.3674c-0.4974-5.3302-9.6804-8.203-4.8116-14.6074
		c5.2885-6.9564,10.2584,0.6652,14.6603,2.0732c17.8975,5.7251,35.957,8.8107,54.7122,7.6777
		c0.8907-0.0538,1.7496-0.6309,4.6829-1.75C1537.8995,1076.0796,1525.4128,1063.8844,1511.339,1054.1136z M1252.6372,1410.1863
		c13.6415,10.3657,29.0984,18.4727,39.0393,35.5c0.158-3.1355,0.4413-4.1306,0.2173-4.9944
		c-4.7183-18.1873-13.2334-34.4095-24.2089-49.6619c-2.6996-3.7513-11.4839-6.1227-6.5021-13.302
		c4.5863-6.6096,10.1563,1.2361,15.3793,0.0621c1.8656-0.4193,5.3665,0.7693,5.6755,0.098c1.1741-2.5499,0.077-5.2729-1.8097-7.3795
		c-9.9602-11.1212-19.6215-22.6085-36.3625-23.3823c-3.8759-0.1791-5.7162-3.6527-5.8685-7.1991
		c-0.2494-5.8081,2.4624-9.5704,8.5337-10.7845c4.9061-0.9812,9.7159-2.4556,14.5518-3.7729
		c2.4253-0.6606,4.7654-1.8441,4.4739-4.7373c-0.4279-4.2445-3.661-0.7552-5.5261-1.5437c-2.0135-0.8511-4.5956-0.1891-6.877-0.1636
		c-8.7279,0.0975-18.1031,1.1266-26.0625-1.6086c-14.6609-5.0383-27.7096-13.4899-39.4958-24.0602
		c-11.2095-10.0529-19.5266-22.3733-28.9513-33.7787c-11.4215-13.8219-23.5237-26.9631-36.1467-39.6084
		c-8.5724-8.5874-16.7202-17.7052-26.5065-25.0137c3.9266,11.5658,10.0803,22.1323,15.5985,32.9388
		c8.1255,15.9128,16.8838,31.4835,26.4998,46.6173c7.9348,12.4878,17.082,24.2051,23.1791,37.9724
		c6.4108,14.476,10.4164,29.4976,10.6776,44.9978c0.1418,8.4152-3.7339,17.0134-6.5238,25.2841
		c-0.7292,2.1619-2.1567,4.413-1.9695,6.5909c0.1735,2.0175-4.1442,4.0142-0.2396,5.7325c2.6615,1.1714,4.5101-0.6885,5.8881-2.791
		c2.7472-4.1919,5.6357-8.3107,8.085-12.6736c3.0308-5.3989,7.447-6.8154,12.8938-4.7833c3.3257,1.2407,6.0605,4.0645,5.0332,7.8059
		c-4.4374,16.1609,3.5022,28.899,11.0012,41.8083c1.4205,2.4454,3.6713,4.3302,6.4592,4.0016
		c0.7339-0.0865,0.6852-3.7833,1.6606-5.4281c2.7305-4.6046-3.0101-12.3264,4.6932-14.6459
		c8.3674-2.5193,7.9083,6.5679,10.6418,10.2944c11.1141,15.1516,23.911,28.2629,39.7502,38.3704
		c0.7522,0.48,1.7863,0.5181,4.8171,1.3368C1261.2139,1443.5688,1258.28,1426.3633,1252.6372,1410.1863z M834.0488,1546.194
		c4.9434,16.4043,12.6831,32.0483,10.7171,51.6669c1.9708-2.4438,2.785-3.0825,3.1114-3.913
		c6.8731-17.4871,9.5194-35.6162,9.6051-54.4069c0.0211-4.6216-5.6917-11.7034,2.5585-14.5834
		c7.5955-2.6515,7.49,6.9697,12.4055,9.09c1.7559,0.7573,3.8895,3.7767,4.5341,3.4154c2.4487-1.3729,3.1617-4.2207,2.8735-7.0339
		c-1.5211-14.8517-2.5851-29.8239-15.6742-40.2902c-3.0303-2.423-2.4775-6.3149-0.5162-9.2736
		c3.2122-4.8455,7.6176-6.2953,13.243-3.709c4.5459,2.0901,9.3037,3.7245,13.9902,5.501c2.3505,0.8911,4.9393,1.3091,6.4039-1.2029
		c2.1487-3.6853-2.5178-2.7628-3.5633-4.4969c-1.1287-1.8721-3.6068-2.8541-5.4675-4.1746
		c-7.1184-5.0513-15.3079-9.7292-20.1394-16.6206c-8.8995-12.6935-14.4884-27.2007-17.8107-42.6802
		c-3.1597-14.7217-2.6465-29.5778-3.5673-44.3446c-1.116-17.8955-3.1826-35.6405-5.9622-53.2904
		c-1.8876-11.9861-3.1201-24.1517-6.7415-35.8165c-3.6215,11.6648-4.8539,23.8304-6.7415,35.8165
		c-2.7797,17.6499-4.8463,35.3949-5.9622,53.2904c-0.9208,14.7668-0.4077,29.6229-3.5674,44.3446
		c-3.3223,15.4795-8.9113,29.9867-17.8107,42.6802c-4.8315,6.8914-13.021,11.5693-20.1394,16.6206
		c-1.8607,1.3204-4.3387,2.3025-5.4674,4.1746c-1.0455,1.7341-5.7121,0.8116-3.5634,4.4969c1.4647,2.512,4.0535,2.094,6.404,1.2029
		c4.6865-1.7765,9.4443-3.4109,13.9902-5.501c5.6254-2.5863,10.0308-1.1365,13.2429,3.709
		c1.9613,2.9586,2.5141,6.8506-0.5162,9.2736c-13.0891,10.4663-14.1531,25.4385-15.6742,40.2902
		c-0.2881,2.8132,0.4249,5.661,2.8736,7.0339c0.6445,0.3613,2.7781-2.6581,4.534-3.4154c4.9155-2.1202,4.8101-11.7415,12.4056-9.09
		c8.2502,2.88,2.5374,9.9618,2.5585,14.5834c0.0857,18.7906,2.7319,36.9198,9.605,54.4069c0.3265,0.8304,1.1406,1.4691,3.1115,3.913
		C821.3656,1578.2423,829.1053,1562.5983,834.0488,1546.194z M415.4603,1410.1863c-5.6429,16.177-8.5767,33.3826-21.6987,48.0988
		c3.0309-0.8187,4.0649-0.8568,4.8171-1.3368c15.8391-10.1074,28.636-23.2188,39.7502-38.3704
		c2.7336-3.7266,2.2744-12.8137,10.6418-10.2944c7.7034,2.3195,1.9628,10.0413,4.6933,14.6459
		c0.9754,1.6448,0.9267,5.3416,1.6606,5.4281c2.788,0.3286,5.0387-1.5562,6.4592-4.0016
		c7.4991-12.9093,15.4386-25.6475,11.0013-41.8083c-1.0273-3.7415,1.7075-6.5652,5.0332-7.8059
		c5.4468-2.0321,9.863-0.6156,12.8938,4.7833c2.4492,4.3629,5.3377,8.4817,8.085,12.6736c1.3778,2.1025,3.2265,3.9624,5.888,2.791
		c3.9045-1.7184-0.413-3.7151-0.2395-5.7325c0.1872-2.178-1.2403-4.4291-1.9695-6.5909
		c-2.7898-8.2706-6.6656-16.8689-6.5237-25.2841c0.2612-15.5002,4.2668-30.5219,10.6776-44.9978
		c6.097-13.7673,15.2443-25.4846,23.179-37.9724c9.616-15.1338,18.3743-30.7045,26.4998-46.6173
		c5.5181-10.8065,11.6718-21.373,15.5985-32.9388c-9.7863,7.3085-17.9341,16.4263-26.5065,25.0137
		c-12.6231,12.6453-24.7253,25.7865-36.1468,39.6084c-9.4247,11.4054-17.7417,23.7258-28.9512,33.7787
		c-11.7864,10.5703-24.8351,19.0219-39.4959,24.0602c-7.9594,2.7352-17.3345,1.7062-26.0625,1.6086
		c-2.2814-0.0255-4.8634-0.6875-6.877,0.1636c-1.8651,0.7885-5.0983-2.7008-5.526,1.5437
		c-0.2916,2.8932,2.0485,4.0767,4.4738,4.7373c4.8357,1.3174,9.6455,2.7917,14.5517,3.7729
		c6.0713,1.2141,8.7831,4.9764,8.5337,10.7845c-0.1523,3.5464-1.9927,7.02-5.8685,7.1991
		c-16.7412,0.7738-26.4024,12.2611-36.3626,23.3823c-1.8867,2.1066-2.9837,4.8296-1.8097,7.3795
		c0.3091,0.6713,3.8099-0.5173,5.6756-0.098c5.223,1.174,10.7929-6.6718,15.3793-0.0621c4.9817,7.1793-3.8026,9.5507-6.5021,13.302
		c-10.9755,15.2523-19.4907,31.4746-24.2089,49.6619c-0.2241,0.8638,0.0593,1.8589,0.2172,4.9944
		C386.3619,1428.6589,401.8188,1420.552,415.4603,1410.1863z M156.7584,1054.1136c-14.0738,9.7708-26.5605,21.9659-45.8264,26.1586
		c2.9332,1.1191,3.7922,1.6962,4.6829,1.75c18.7551,1.1329,36.8147-1.9526,54.7121-7.6777
		c4.4019-1.4081,9.3718-9.0297,14.6603-2.0732c4.8688,6.4044-4.3141,9.2772-4.8116,14.6074
		c-0.1777,1.9039-2.39,4.8661-1.8471,5.3674c2.0624,1.9047,4.9911,1.7028,7.5776,0.5593
		c13.6548-6.036,27.5653-11.6747,33.4746-27.3574c1.368-3.6306,5.2403-4.3076,8.6602-3.3566
		c5.601,1.5576,8.3412,5.2993,7.6197,11.4486c-0.583,4.9692-0.6671,9.9993-0.9085,15.0054
		c-0.1211,2.5109,0.2813,5.1022,3.123,5.7189c4.1689,0.9048,1.8496-3.2483,3.1758-4.7786c1.4317-1.652,1.5999-4.3123,2.2807-6.4899
		c2.6043-8.3309,4.5227-17.5652,9.5837-24.2898c9.3222-12.3864,21.3923-22.1847,35.0874-30.1278
		c13.0248-7.5543,27.3123-11.6571,41.0719-17.0961c16.6749-6.5913,32.9127-14.0403,48.8398-22.138
		c10.8161-5.4991,22.0055-10.4307,31.9803-17.4795c-12.213,0.1605-24.1641,2.7477-36.1468,4.6564
		c-17.645,2.8105-35.1601,6.3286-52.5246,10.7972c-14.3286,3.6875-28.299,8.7662-43.2766,10.3105
		c-15.7484,1.6237-31.2727,0.7913-46.095-3.7501c-8.0471-2.4655-15.0268-8.8086-22.0306-14.0177
		c-1.8307-1.3616-3.5305-3.4149-5.6597-3.9099c-1.9724-0.4584-2.5371-5.1817-5.378-1.9993
		c-1.9364,2.1692-0.7389,4.5021,0.8349,6.4623c3.1378,3.9081,6.1625,7.928,9.5549,11.6056
		c4.1981,4.5508,4.1806,9.1886,0.5648,13.7409c-2.2077,2.7795-5.7384,4.508-8.9792,2.3748
		c-13.9987-9.2142-28.5669-5.5995-43.1618-2.4567c-2.7646,0.5953-5.2526,2.1534-5.8017,4.9065
		c-0.1445,0.7247,3.3864,1.8208,4.6493,3.2567c3.5354,4.0198,12.6532,0.9464,12.4787,8.9894
		c-0.1896,8.7364-8.6902,5.4916-13.0791,6.9399c-17.8444,5.8881-34.2685,14.0071-48.7759,25.9475
		c-0.6889,0.5671-1.0447,1.5388-2.7599,4.1683C122.3594,1051.9548,139.6294,1054.4814,156.7584,1054.1136z M156.7584,613.9838
		c-17.129-0.3677-34.3991,2.1589-52.4499-5.7734c1.7152,2.6295,2.071,3.6012,2.7599,4.1683
		c14.5073,11.9405,30.9314,20.0594,48.7759,25.9476c4.3889,1.4482,12.8895-1.7966,13.0791,6.9398
		c0.1746,8.0431-8.9433,4.9696-12.4787,8.9894c-1.2629,1.4359-4.7938,2.532-4.6493,3.2567c0.549,2.7531,3.037,4.3112,5.8017,4.9066
		c14.5949,3.1428,29.163,6.7574,43.1618-2.4567c3.2408-2.1332,6.7715-0.4048,8.9792,2.3747
		c3.6157,4.5523,3.6333,9.1901-0.5648,13.7409c-3.3925,3.6776-6.4171,7.6975-9.5549,11.6057
		c-1.5738,1.9601-2.7713,4.293-0.8349,6.4622c2.8409,3.1824,3.4057-1.5408,5.378-1.9993c2.1293-0.4949,3.829-2.5482,5.6597-3.9099
		c7.0038-5.209,13.9835-11.5521,22.0306-14.0176c14.8223-4.5414,30.3466-5.3738,46.095-3.7501
		c14.9776,1.5443,28.948,6.623,43.2766,10.3105c17.3645,4.4688,34.8796,7.9868,52.5246,10.7973
		c11.9827,1.9086,23.9338,4.4959,36.1468,4.6564c-9.9749-7.0488-21.1642-11.9803-31.9803-17.4795
		c-15.9271-8.0977-32.1649-15.5466-48.8398-22.138c-13.7596-5.439-28.0471-9.5417-41.0719-17.096
		c-13.6951-7.9431-25.7653-17.7415-35.0874-30.1279c-5.061-6.7246-6.9794-15.9589-9.5837-24.2898
		c-0.6807-2.1776-0.849-4.8378-2.2807-6.4899c-1.3262-1.5302,0.9932-5.6833-3.1758-4.7785
		c-2.8416,0.6167-3.2441,3.2079-3.123,5.7188c0.2414,5.0061,0.3255,10.0361,0.9085,15.0054
		c0.7214,6.1493-2.0188,9.8911-7.6197,11.4487c-3.4199,0.951-7.2922,0.274-8.6602-3.3567
		c-5.9093-15.6827-19.8198-21.3213-33.4746-27.3574c-2.5865-1.1434-5.5152-1.3453-7.5776,0.5593
		c-0.5429,0.5013,1.6694,3.4636,1.8471,5.3675c0.4975,5.3301,9.6804,8.203,4.8116,14.6074
		c-5.2885,6.9564-10.2584-0.6652-14.6603-2.0732c-17.8974-5.7252-35.957-8.8106-54.7121-7.6777
		c-0.8907,0.0538-1.7497,0.6308-4.6829,1.7499C130.198,592.0179,142.6846,604.2131,156.7584,613.9838z M415.4603,257.9112
		c-13.6415-10.3657-29.0984-18.4727-39.0394-35.5c-0.158,3.1355-0.4413,4.1307-0.2172,4.9945
		c4.7182,18.1873,13.2334,34.4095,24.2089,49.6618c2.6995,3.7513,11.4838,6.1228,6.5021,13.3021
		c-4.5864,6.6096-10.1563-1.2362-15.3793-0.0622c-1.8657,0.4194-5.3665-0.7693-5.6756-0.0981
		c-1.1741,2.55-0.077,5.273,1.8097,7.3796c9.9602,11.1212,19.6215,22.6085,36.3626,23.3824
		c3.8758,0.1791,5.7162,3.6526,5.8685,7.199c0.2494,5.8082-2.4624,9.5705-8.5337,10.7846
		c-4.9062,0.9812-9.716,2.4555-14.5517,3.7729c-2.4254,0.6607-4.7654,1.8442-4.4738,4.7373
		c0.4278,4.2445,3.6609,0.7552,5.526,1.5437c2.0135,0.8511,4.5956,0.1891,6.877,0.1635c8.7279-0.0975,18.1031-1.1266,26.0625,1.6087
		c14.6609,5.0383,27.7096,13.4898,39.4959,24.0601c11.2094,10.0529,19.5265,22.3734,28.9512,33.7787
		c11.4215,13.8219,23.5237,26.9632,36.1468,39.6084c8.5723,8.5874,16.7202,17.7052,26.5065,25.0137
		c-3.9267-11.5657-10.0804-22.1323-15.5985-32.9388c-8.1255-15.9128-16.8839-31.4836-26.4998-46.6173
		c-7.9348-12.4879-17.082-24.205-23.179-37.9724c-6.4108-14.4759-10.4164-29.4976-10.6776-44.9978
		c-0.1418-8.4151,3.7339-17.0134,6.5237-25.284c0.7292-2.1619,2.1568-4.4129,1.9695-6.5909
		c-0.1735-2.0175,4.1441-4.0141,0.2395-5.7326c-2.6614-1.1714-4.5101,0.6885-5.888,2.791
		c-2.7472,4.1919-5.6357,8.3108-8.085,12.6736c-3.0308,5.399-7.447,6.8154-12.8938,4.7834
		c-3.3257-1.2407-6.0606-4.0645-5.0332-7.8059c4.4374-16.1609-3.5022-28.8991-11.0013-41.8084
		c-1.4205-2.4453-3.6711-4.3301-6.4592-4.0015c-0.7339,0.0865-0.6852,3.7833-1.6606,5.4281
		c-2.7305,4.6046,3.01,12.3264-4.6933,14.6458c-8.3673,2.5193-7.9082-6.5678-10.6418-10.2944
		c-11.1142-15.1516-23.9111-28.2629-39.7502-38.3703c-0.7522-0.48-1.7863-0.5181-4.8171-1.3368
		C406.8836,224.5286,409.8174,241.7341,415.4603,257.9112z M834.0488,121.9036c-4.9435-16.4043-12.6832-32.0483-10.7171-51.6669
		c-1.9708,2.4438-2.785,3.0825-3.1115,3.9129c-6.8731,17.4871-9.5193,35.6162-9.605,54.4068
		c-0.0211,4.6216,5.6917,11.7034-2.5585,14.5835c-7.5955,2.6515-7.4901-6.9698-12.4056-9.09
		c-1.7559-0.7573-3.8895-3.7767-4.534-3.4154c-2.4487,1.3729-3.1617,4.2206-2.8736,7.0339
		c1.5211,14.8517,2.5851,29.8239,15.6742,40.2901c3.0303,2.423,2.4775,6.315,0.5162,9.2736
		c-3.2122,4.8455-7.6176,6.2953-13.2429,3.709c-4.5459-2.09-9.3037-3.7244-13.9902-5.501c-2.3505-0.8911-4.9393-1.3091-6.404,1.2029
		c-2.1487,3.6853,2.5178,2.7628,3.5634,4.497c1.1287,1.8721,3.6068,2.8542,5.4674,4.1745
		c7.1184,5.0513,15.3079,9.7293,20.1394,16.6206c8.8995,12.6935,14.4884,27.2007,17.8107,42.6801
		c3.1597,14.7218,2.6465,29.5778,3.5674,44.3447c1.1159,17.8955,3.1825,35.6405,5.9622,53.2904
		c1.8876,11.9861,3.1201,24.1517,6.7415,35.8166c3.6214-11.6649,4.8539-23.8305,6.7415-35.8166
		c2.7797-17.6498,4.8463-35.3948,5.9622-53.2904c0.9208-14.7668,0.4077-29.6229,3.5673-44.3447
		c3.3223-15.4794,8.9113-29.9866,17.8107-42.6801c4.8315-6.8913,13.021-11.5694,20.1394-16.6206
		c1.8607-1.3203,4.3387-2.3024,5.4675-4.1745c1.0455-1.7341,5.712-0.8117,3.5633-4.497c-1.4647-2.512-4.0535-2.094-6.4039-1.2029
		c-4.6865,1.7766-9.4443,3.4109-13.9902,5.501c-5.6254,2.5864-10.0308,1.1365-13.243-3.709
		c-1.9613-2.9586-2.514-6.8506,0.5162-9.2736c13.0891-10.4662,14.1531-25.4384,15.6742-40.2901
		c0.2881-2.8132-0.4249-5.661-2.8735-7.0339c-0.6446-0.3614-2.7782,2.658-4.5341,3.4154c-4.9155,2.1202-4.8101,11.7415-12.4055,9.09
		c-8.2502-2.88-2.5374-9.9618-2.5585-14.5835c-0.0857-18.7906-2.732-36.9197-9.6051-54.4068
		c-0.3264-0.8305-1.1406-1.4691-3.1114-3.9129C846.7319,89.8552,838.9922,105.4993,834.0488,121.9036z M1252.6372,257.9112
		c5.6428-16.177,8.5767-33.3826,21.6987-48.0988c-3.0309,0.8187-4.0649,0.8568-4.8171,1.3368
		c-15.8392,10.1075-28.6361,23.2188-39.7502,38.3703c-2.7335,3.7266-2.2744,12.8138-10.6418,10.2944
		c-7.7034-2.3194-1.9628-10.0412-4.6932-14.6458c-0.9755-1.6448-0.9268-5.3416-1.6606-5.4281
		c-2.788-0.3286-5.0387,1.5562-6.4592,4.0015c-7.499,12.9094-15.4386,25.6475-11.0012,41.8084
		c1.0273,3.7414-1.7075,6.5652-5.0332,7.8059c-5.4468,2.032-9.863,0.6156-12.8938-4.7834
		c-2.4492-4.3629-5.3378-8.4817-8.085-12.6736c-1.3779-2.1025-3.2266-3.9623-5.8881-2.791
		c-3.9045,1.7184,0.4131,3.7151,0.2396,5.7326c-0.1873,2.178,1.2402,4.4291,1.9695,6.5909
		c2.7899,8.2707,6.6656,16.8689,6.5238,25.284c-0.2612,15.5002-4.2668,30.5219-10.6776,44.9978
		c-6.097,13.7674-15.2443,25.4846-23.1791,37.9724c-9.616,15.1337-18.3743,30.7045-26.4998,46.6173
		c-5.5182,10.8065-11.6719,21.3731-15.5985,32.9388c9.7863-7.3085,17.9341-16.4262,26.5065-25.0137
		c12.623-12.6452,24.7252-25.7865,36.1467-39.6084c9.4247-11.4054,17.7418-23.7258,28.9513-33.7787
		c11.7863-10.5703,24.835-19.0218,39.4958-24.0601c7.9594-2.7353,17.3346-1.7062,26.0625-1.6087
		c2.2814,0.0255,4.8634,0.6876,6.877-0.1635c1.8651-0.7884,5.0983,2.7008,5.5261-1.5437c0.2915-2.8931-2.0486-4.0766-4.4739-4.7373
		c-4.8358-1.3174-9.6456-2.7917-14.5518-3.7729c-6.0713-1.2141-8.7831-4.9764-8.5337-10.7846
		c0.1523-3.5464,1.9927-7.02,5.8685-7.199c16.7411-0.7738,26.4023-12.2611,36.3625-23.3824
		c1.8867-2.1066,2.9838-4.8296,1.8097-7.3796c-0.3091-0.6712-3.8099,0.5174-5.6755,0.0981
		c-5.223-1.174-10.793,6.6718-15.3793,0.0622c-4.9818-7.1793,3.8025-9.5508,6.5021-13.3021
		c10.9755-15.2523,19.4906-31.4745,24.2089-49.6618c0.224-0.8637-0.0593-1.859-0.2173-4.9945
		C1281.7356,239.4385,1266.2787,247.5455,1252.6372,257.9112z M1034.8484,557.6717c1.2745-5.3442,2.2325-10.7741,3.5601-16.0986
		c3.7693-15.1169,1.3011-29.788-0.6117-44.8285c-1.632-12.8318-11.3558-19.49-17.8536-28.574
		c-2.8781-4.0237-7.985-6.5916-13.3575-6.2206c-4.4623,0.3081-7.1592-0.5691-8.0487-5.413
		c-0.9383-5.1095,1.053-8.0774,5.2684-10.8701c13.1251-8.695,26.3675-7.8159,40.0245-1.6684
		c2.3555,1.0603,5.4219,2.4483,7.4994,1.742c2.674-0.9091,1.0557-4.2312,0.5461-6.2956
		c-5.0198-20.3406-13.4376-39.0928-27.3344-54.9711c-7.7666-8.8739-18.0199-13.9285-29.2547-17.2267
		c-2.8419-0.8343-6.6662-1.4648-8.3474-3.7459c-2.7009,0.8573-6.1654-0.8805-8.9549-1.876
		c-11.0278-3.9354-22.2939-5.8729-33.7932-3.2588c-20.5757,4.6774-38.4082,14.9005-54.4252,28.4058
		c-1.6256,1.3707-4.8876,3.1071-3.2587,5.4142c1.2656,1.7925,4.5623,2.472,7.0911,2.9988
		c14.6621,3.0539,25.8923,10.1264,31.3998,24.8755c1.7689,4.7372,1.6353,8.3087-2.127,11.8909
		c-3.5668,3.396-6.2642,2.5204-9.6932-0.3517c-4.1284-3.458-9.7694-4.3824-14.4629-2.8188
		c-10.5962,3.5299-22.3766,3.2009-31.2392,12.6228c-10.3881,11.0436-21.0083,21.4621-26.8445,35.9074
		c-2.0556,5.088-4.4722,10.0439-6.5823,15.1166c-2.1102-5.0727-4.5268-10.0286-6.5824-15.1166
		c-5.8362-14.4453-16.4564-24.8638-26.8444-35.9074c-8.8626-9.4219-20.6431-9.093-31.2392-12.6228
		c-4.6935-1.5635-10.3345-0.6392-14.4629,2.8188c-3.4291,2.8721-6.1265,3.7477-9.6932,0.3517
		c-3.7624-3.5822-3.8959-7.1537-2.1271-11.8909c5.5076-14.7491,16.7377-21.8217,31.3998-24.8755
		c2.5288-0.5267,5.8255-1.2062,7.0911-2.9988c1.6289-2.3071-1.6331-4.0435-3.2587-5.4142
		c-16.017-13.5053-33.8494-23.7284-54.4252-28.4058c-11.4992-2.6141-22.7653-0.6765-33.7931,3.2588
		c-2.7896,0.9955-6.254,2.7333-8.955,1.876c-1.6812,2.2811-5.5055,2.9116-8.3474,3.7459
		c-11.2348,3.2982-21.4881,8.3528-29.2546,17.2267c-13.8969,15.8783-22.3146,34.6305-27.3344,54.9711
		c-0.5095,2.0644-2.1278,5.3866,0.5461,6.2956c2.0776,0.7063,5.144-0.6817,7.4995-1.742
		c13.6569-6.1476,26.8994-7.0267,40.0244,1.6684c4.2155,2.7927,6.2067,5.7607,5.2684,10.8701
		c-0.8895,4.844-3.5863,5.7211-8.0486,5.413c-5.3726-0.3709-10.4795,2.1969-13.3576,6.2206
		c-6.4977,9.084-16.2216,15.7422-17.8535,28.574c-1.9128,15.0404-4.381,29.7116-0.6118,44.8285
		c1.3276,5.3245,2.2856,10.7544,3.5601,16.0986c-4.6888-2.8636-9.5569-5.4526-14.2105-8.3606
		c-13.2123-8.256-27.9281-10.4423-42.8235-13.2709c-12.7081-2.4133-22.0452,4.7773-32.6926,8.1498
		c-4.7161,1.4938-8.7365,5.5573-10.0439,10.7815c-1.0859,4.3392-2.7535,6.633-7.6353,5.9821
		c-5.1494-0.6865-7.3568-3.4975-8.7101-8.3696c-4.2136-15.1696,0.7146-27.4922,10.7815-38.5811
		c1.7363-1.9125,4.004-4.4,3.9742-6.5941c-0.0383-2.824-3.6979-2.3114-5.8187-2.4648c-20.8962-1.5115-41.3319,0.6995-60.7274,9.0096
		c-10.8396,4.6442-18.8152,12.8337-25.4237,22.4995c-1.6717,2.4449-3.4531,5.8873-6.1421,6.7813
		c-0.0193,2.8337-2.7426,5.5916-4.5514,7.937c-7.1505,9.272-12.4746,19.3879-13.5419,31.1321
		c-1.9098,21.0142,2.3024,41.1329,10.1972,60.5393c0.8012,1.9696,1.4447,5.6085,4.1423,4.7723
		c2.0959-0.6497,3.7609-3.5751,5.0433-5.8174c7.4352-13.0009,17.6319-21.4958,33.3611-22.176
		c5.0519-0.2184,8.4074,1.0123,10.6516,5.6974c2.1276,4.4417,0.4614,6.7365-3.3298,9.1101
		c-4.5645,2.8578-7.1868,7.937-7.1501,12.884c0.0827,11.1683-3.8705,22.2706,2.3516,33.6109
		c7.293,13.2923,13.9197,26.6122,25.8546,36.6266c4.2037,3.5273,8.1703,7.3571,12.3427,10.9315
		c-5.4765,0.4393-10.9366,1.2062-16.4108,1.5889c-15.5418,1.0867-28.7321,7.9677-42.4453,14.4346
		c-11.6995,5.5173-15.027,16.8228-21.6585,25.8096c-2.9374,3.9807-3.8014,9.6312-1.7885,14.6261
		c1.6719,4.1487,1.6711,6.9847-2.6609,9.3275c-4.5695,2.4713-8.0075,1.4947-11.9662-1.6516
		c-12.3253-9.7957-15.5814-22.6617-13.955-37.5499c0.2805-2.5678,0.653-5.9131-0.6607-7.6707
		c-1.6909-2.2621-4.3503,0.3036-6.1563,1.4261c-17.7938,11.0597-33.0271,24.8602-43.8338,42.9836
		c-6.0396,10.1286-7.6783,21.442-7.3433,33.1462c0.0847,2.9606,0.6669,6.7925-0.9831,9.0964
		c1.65,2.3038,1.0678,6.1357,0.9831,9.0964c-0.335,11.7041,1.3037,23.0176,7.3433,33.1461
		c10.8068,18.1234,26.04,31.9239,43.8338,42.9836c1.8059,1.1225,4.4654,3.6882,6.1563,1.4261
		c1.3137-1.7576,0.9412-5.1029,0.6607-7.6707c-1.6264-14.8882,1.6296-27.7542,13.955-37.5499
		c3.9587-3.1462,7.3967-4.1228,11.9662-1.6516c4.332,2.3428,4.3328,5.1787,2.6609,9.3275
		c-2.013,4.9949-1.149,10.6455,1.7885,14.6261c6.6315,8.9868,9.959,20.2923,21.6585,25.8096
		c13.7132,6.467,26.9036,13.3479,42.4453,14.4346c5.4742,0.3828,10.9343,1.1496,16.4108,1.5889
		c-4.1724,3.5744-8.139,7.4042-12.3427,10.9315c-11.9348,10.0144-18.5616,23.3343-25.8546,36.6266
		c-6.2221,11.3403-2.2689,22.4426-2.3516,33.6109c-0.0367,4.947,2.5856,10.0262,7.1501,12.884
		c3.7912,2.3737,5.4574,4.6685,3.3298,9.1101c-2.2442,4.6852-5.5996,5.9159-10.6516,5.6975
		c-15.7292-0.6803-25.9258-9.1753-33.3611-22.176c-1.2824-2.2423-2.9474-5.1677-5.0433-5.8174
		c-2.6976-0.8362-3.341,2.8027-4.1423,4.7723c-7.8948,19.4064-12.107,39.5251-10.1972,60.5393
		c1.0673,11.7441,6.3914,21.8602,13.5419,31.1321c1.8087,2.3455,4.5321,5.1034,4.5514,7.937
		c2.689,0.8939,4.4704,4.3363,6.1421,6.7813c6.6085,9.6658,14.5841,17.8553,25.4237,22.4995
		c19.3955,8.3101,39.8312,10.5211,60.7274,9.0096c2.1208-0.1534,5.7805,0.3591,5.8187-2.4648
		c0.0298-2.1941-2.2379-4.6816-3.9742-6.5941c-10.0669-11.0889-14.9951-23.4115-10.7815-38.5811
		c1.3533-4.8722,3.5607-7.6831,8.7101-8.3696c4.8817-0.651,6.5493,1.6428,7.6353,5.9819
		c1.3074,5.2242,5.3278,9.2877,10.0439,10.7816c10.6473,3.3726,19.9845,10.563,32.6926,8.1498
		c14.8954-2.8285,29.6111-5.0148,42.8235-13.2709c4.6536-2.908,9.5217-5.4969,14.2105-8.3606
		c-1.2745,5.3442-2.2324,10.7742-3.5601,16.0986c-3.7692,15.1169-1.301,29.7881,0.6118,44.8285
		c1.6319,12.8318,11.3558,19.49,17.8535,28.574c2.8781,4.0237,7.985,6.5916,13.3576,6.2207c4.4623-0.3081,7.1592,0.569,8.0486,5.413
		c0.9383,5.1095-1.0529,8.0775-5.2684,10.8701c-13.1251,8.6951-26.3675,7.816-40.0244,1.6685
		c-2.3555-1.0603-5.4219-2.4484-7.4995-1.7421c-2.6739,0.9091-1.0555,4.2312-0.5461,6.2957
		c5.0198,20.3406,13.4376,39.0928,27.3344,54.9711c7.7665,8.8739,18.0198,13.9285,29.2546,17.2267
		c2.8419,0.8342,6.6663,1.4647,8.3474,3.7458c2.7009-0.8573,6.1654,0.8805,8.955,1.876
		c11.0278,3.9354,22.2939,5.8729,33.7931,3.2588c20.5757-4.6774,38.4082-14.9004,54.4252-28.4058
		c1.6256-1.3707,4.8876-3.1071,3.2587-5.4142c-1.2656-1.7926-4.5623-2.472-7.0911-2.9988
		c-14.6622-3.054-25.8923-10.1263-31.3998-24.8756c-1.7689-4.7371-1.6353-8.3087,2.1271-11.8907
		c3.5668-3.3961,6.2642-2.5205,9.6932,0.3517c4.1284,3.4579,9.7693,4.3823,14.4629,2.8187
		c10.5961-3.5299,22.3766-3.2009,31.2392-12.6228c10.388-11.0437,21.0082-21.4622,26.8444-35.9075
		c2.0556-5.0879,4.4722-10.0438,6.5824-15.1166c2.1101,5.0728,4.5267,10.0287,6.5823,15.1166
		c5.8362,14.4453,16.4564,24.8638,26.8445,35.9075c8.8625,9.4219,20.643,9.0929,31.2392,12.6228
		c4.6935,1.5636,10.3345,0.6392,14.4629-2.8187c3.429-2.8722,6.1264-3.7478,9.6932-0.3517c3.7623,3.582,3.8959,7.1537,2.127,11.8907
		c-5.5075,14.7493-16.7377,21.8217-31.3998,24.8756c-2.5288,0.5267-5.8255,1.2062-7.0911,2.9988
		c-1.6289,2.3071,1.6331,4.0435,3.2587,5.4142c16.017,13.5054,33.8494,23.7284,54.4252,28.4058
		c11.4992,2.6141,22.7653,0.6766,33.7932-3.2588c2.7895-0.9955,6.254-2.7333,8.9549-1.876
		c1.6812-2.2811,5.5055-2.9116,8.3474-3.7458c11.2348-3.2982,21.4881-8.3528,29.2547-17.2267
		c13.8967-15.8783,22.3146-34.6305,27.3344-54.9711c0.5095-2.0645,2.1278-5.3866-0.5461-6.2957
		c-2.0775-0.7063-5.1439,0.6818-7.4994,1.7421c-13.657,6.1476-26.8994,7.0266-40.0245-1.6685
		c-4.2155-2.7926-6.2067-5.7606-5.2684-10.8701c0.8895-4.844,3.5864-5.7211,8.0487-5.413
		c5.3725,0.3708,10.4795-2.197,13.3575-6.2207c6.4977-9.084,16.2216-15.7422,17.8536-28.574
		c1.9128-15.0404,4.381-29.7115,0.6117-44.8285c-1.3275-5.3245-2.2855-10.7544-3.5601-16.0986
		c4.6888,2.8636,9.557,5.4526,14.2106,8.3606c13.2124,8.2561,27.9281,10.4424,42.8235,13.2709
		c12.708,2.4132,22.0453-4.7772,32.6926-8.1498c4.7161-1.4939,8.7365-5.5574,10.0438-10.7816
		c1.0859-4.3391,2.7535-6.6329,7.6353-5.9819c5.1494,0.6865,7.3567,3.4974,8.7101,8.3696
		c4.2136,15.1696-0.7146,27.4922-10.7815,38.5811c-1.7362,1.9125-4.0039,4.4-3.9742,6.5941c0.0383,2.824,3.698,2.3114,5.8188,2.4648
		c20.8961,1.5115,41.3319-0.6996,60.7273-9.0096c10.8396-4.6442,18.8153-12.8337,25.4238-22.4995
		c1.6716-2.4449,3.453-5.8873,6.142-6.7813c0.0193-2.8336,2.7427-5.5916,4.5514-7.937c7.1505-9.2719,12.4746-19.3879,13.542-31.1321
		c1.9097-21.0142-2.3025-41.1329-10.1973-60.5393c-0.8013-1.9696-1.4447-5.6085-4.1422-4.7723
		c-2.0959,0.6497-3.7609,3.5751-5.0433,5.8174c-7.4352,13.0007-17.6318,21.4957-33.3611,22.176
		c-5.0519,0.2184-8.4073-1.0123-10.6516-5.6975c-2.1276-4.4417-0.4613-6.7365,3.3298-9.1101
		c4.5646-2.8578,7.1868-7.937,7.1501-12.884c-0.0826-11.1683,3.8705-22.2706-2.3516-33.6109
		c-7.2931-13.2923-13.9198-26.6122-25.8546-36.6266c-4.2036-3.5273-8.1703-7.3571-12.3427-10.9315
		c5.4766-0.4393,10.9366-1.2062,16.4108-1.5889c15.5419-1.0867,28.7322-7.9677,42.4454-14.4346
		c11.6995-5.5173,15.027-16.8228,21.6584-25.8096c2.9374-3.9806,3.8014-9.6312,1.7885-14.6261
		c-1.6719-4.1487-1.6711-6.9846,2.6609-9.3275c4.5695-2.4713,8.0074-1.4946,11.9662,1.6516
		c12.3253,9.7957,15.5814,22.6617,13.955,37.5499c-0.2805,2.5678-0.653,5.9131,0.6608,7.6707
		c1.6908,2.2621,4.3502-0.3036,6.1561-1.4261c17.7938-11.0597,33.0271-24.8602,43.8339-42.9836
		c6.0396-10.1285,7.6783-21.442,7.3434-33.1461c-0.0847-2.9606-0.667-6.7926,0.983-9.0964c-1.65-2.3038-1.0677-6.1358-0.983-9.0964
		c0.335-11.7042-1.3038-23.0176-7.3434-33.1462c-10.8068-18.1234-26.04-31.9239-43.8339-42.9836
		c-1.8059-1.1225-4.4653-3.6882-6.1561-1.4261c-1.3137,1.7576-0.9413,5.1029-0.6608,7.6707
		c1.6265,14.8882-1.6296,27.7542-13.955,37.5499c-3.9587,3.1462-7.3967,4.1228-11.9662,1.6516
		c-4.332-2.3428-4.3328-5.1787-2.6609-9.3275c2.0129-4.9949,1.1489-10.6454-1.7885-14.6261
		c-6.6315-8.9868-9.959-20.2923-21.6584-25.8096c-13.7133-6.4669-26.9036-13.3479-42.4454-14.4346
		c-5.4741-0.3828-10.9342-1.1497-16.4108-1.5889c4.1724-3.5744,8.139-7.4042,12.3427-10.9315
		c11.9348-10.0144,18.5615-23.3343,25.8546-36.6266c6.222-11.3403,2.2689-22.4426,2.3516-33.6109
		c0.0366-4.947-2.5856-10.0262-7.1501-12.884c-3.7911-2.3737-5.4574-4.6685-3.3298-9.1101
		c2.2443-4.6852,5.5997-5.9159,10.6516-5.6974c15.7292,0.6802,25.9259,9.1752,33.3611,22.176
		c1.2825,2.2423,2.9474,5.1677,5.0433,5.8174c2.6975,0.8362,3.3409-2.8027,4.1422-4.7723
		c7.8948-19.4064,12.1069-39.5251,10.1973-60.5393c-1.0674-11.7442-6.3915-21.8602-13.542-31.1321
		c-1.8087-2.3453-4.5321-5.1033-4.5514-7.937c-2.689-0.8939-4.4703-4.3363-6.142-6.7813
		c-6.6085-9.6658-14.5842-17.8553-25.4238-22.4995c-19.3954-8.31-39.8312-10.5211-60.7273-9.0096
		c-2.1208,0.1534-5.7805-0.3592-5.8188,2.4648c-0.0297,2.1941,2.238,4.6816,3.9742,6.5941
		c10.0669,11.0888,14.9951,23.4115,10.7815,38.5811c-1.3534,4.8721-3.5607,7.6831-8.7101,8.3696
		c-4.8817,0.6509-6.5493-1.6429-7.6353-5.9821c-1.3074-5.2242-5.3278-9.2877-10.0438-10.7815
		c-10.6473-3.3726-19.9846-10.5631-32.6926-8.1498c-14.8954,2.8286-29.6111,5.0148-42.8235,13.2709
		C1044.4054,552.2191,1039.5372,554.8081,1034.8484,557.6717z M989.8759,354.462c1.5165-1.1085,3.3003-1.9874,4.9836-2.6848
		c6.7849-2.8107,13.6707-5.5059,20.7264-7.497c6.5136-1.8381,4.6741-4.3235,1.4358-7.6041
		c-5.2346-5.303-10.7839-10.1827-16.5975-14.6783c-7.3456,0.2199-14.7034,0.9059-22.0554,2.1192
		c-4.5482,0.7507-7.4972,1.6801-3.308,6.9958c4.5378,5.7581,8.5244,11.986,12.3613,18.2479
		C988.3741,350.9143,989.3006,352.6739,989.8759,354.462z M678.2216,354.462c0.5753-1.7881,1.5018-3.5477,2.4538-5.1013
		c3.8369-6.262,7.8235-12.4898,12.3613-18.2479c4.1891-5.3156,1.2401-6.2451-3.308-6.9958
		c-7.3519-1.2134-14.7097-1.8994-22.0554-2.1192c-5.8135,4.4956-11.3629,9.3753-16.5975,14.6783
		c-3.2383,3.2806-5.0778,5.766,1.4358,7.6041c7.0557,1.9911,13.9415,4.6863,20.7264,7.497
		C674.9213,352.4746,676.7051,353.3536,678.2216,354.462z M426.0879,537.6479c-0.5856-1.7848-0.8703-3.7529-1.0134-5.5693
		c-0.5765-7.3214-1.012-14.703-0.7253-22.0287c0.2646-6.7628-2.6675-5.7813-6.7883-3.7153
		c-6.661,3.3397-13.0168,7.1096-19.0888,11.2493c-2.0608,7.0541-3.6821,14.2637-4.8,21.6307
		c-0.6915,4.5575-0.7189,7.6495,5.6312,5.3079c6.8785-2.5364,14.0335-4.4033,21.1747-6.1174
		C422.2498,537.9799,424.2095,537.6425,426.0879,537.6479z M329.7815,834.0488c-1.5229-1.0997-2.91-2.5246-4.0934-3.9101
		c-4.7698-5.5842-9.4609-11.3001-13.5349-17.3952c-3.761-5.6268-5.5562-3.1093-7.6756,0.9843
		c-3.4258,6.6171-6.3519,13.4028-8.831,20.321c2.4791,6.9182,5.4052,13.7039,8.831,20.321
		c2.1194,4.0936,3.9147,6.6111,7.6756,0.9843c4.074-6.0951,8.7651-11.811,13.5349-17.3953
		C326.8714,836.5734,328.2586,835.1484,329.7815,834.0488z M426.0879,1130.4496c-1.8784,0.0055-3.8382-0.3319-5.6099-0.7572
		c-7.1412-1.7141-14.2961-3.5811-21.1747-6.1174c-6.35-2.3416-6.3227,0.7505-5.6312,5.308c1.1179,7.3669,2.7392,14.5767,4.8,21.6307
		c6.072,4.1398,12.4278,7.9095,19.0888,11.2493c4.1208,2.066,7.0529,3.0475,6.7883-3.7153
		c-0.2867-7.3257,0.1488-14.7073,0.7253-22.0287C425.2176,1134.2025,425.5023,1132.2344,426.0879,1130.4496z M678.2216,1313.6355
		c-1.5165,1.1084-3.3003,1.9874-4.9836,2.6847c-6.7849,2.8108-13.6707,5.506-20.7264,7.4971
		c-6.5136,1.8381-4.6741,4.3235-1.4358,7.6041c5.2346,5.303,10.784,10.1827,16.5975,14.6783
		c7.3457-0.2198,14.7035-0.9059,22.0554-2.1193c4.5482-0.7506,7.4972-1.6802,3.308-6.9957
		c-4.5378-5.7582-8.5244-11.986-12.3613-18.2479C679.7234,1317.1832,678.7969,1315.4236,678.2216,1313.6355z M989.8759,1313.6355
		c-0.5753,1.7881-1.5018,3.5477-2.4537,5.1013c-3.837,6.262-7.8235,12.4897-12.3613,18.2479
		c-4.1892,5.3156-1.2402,6.2451,3.308,6.9957c7.3519,1.2134,14.7097,1.8994,22.0554,2.1193
		c5.8135-4.4956,11.3629-9.3754,16.5975-14.6783c3.2383-3.2806,5.0778-5.766-1.4358-7.6041
		c-7.0557-1.9911-13.9415-4.6863-20.7264-7.4971C993.1762,1315.6229,991.3924,1314.7439,989.8759,1313.6355z M1242.0095,1130.4496
		c0.5857,1.7848,0.8704,3.7529,1.0134,5.5693c0.5765,7.3214,1.012,14.703,0.7253,22.0287
		c-0.2646,6.7628,2.6675,5.7814,6.7882,3.7153c6.661-3.3397,13.0168-7.1095,19.0889-11.2493
		c2.0608-7.0541,3.682-14.2638,4.7999-21.6307c0.6915-4.5575,0.7189-7.6495-5.6312-5.308
		c-6.8785,2.5364-14.0334,4.4033-21.1746,6.1174C1245.8478,1130.1177,1243.8879,1130.4551,1242.0095,1130.4496z M1338.316,834.0488
		c1.5228,1.0997,2.91,2.5246,4.0934,3.91c4.7698,5.5842,9.4609,11.3002,13.5349,17.3953c3.761,5.6268,5.5563,3.1093,7.6757-0.9843
		c3.4259-6.6171,6.3519-13.4028,8.8311-20.321c-2.4791-6.9182-5.4052-13.7039-8.8311-20.321
		c-2.1194-4.0936-3.9147-6.611-7.6757-0.9843c-4.074,6.0951-8.7651,11.811-13.5349,17.3952
		C1341.2261,831.5242,1339.8389,832.949,1338.316,834.0488z M1242.0095,537.6479c1.8784-0.0054,3.8383,0.332,5.61,0.7573
		c7.1411,1.7141,14.296,3.581,21.1746,6.1174c6.3501,2.3416,6.3228-0.7504,5.6312-5.3079
		c-1.1179-7.367-2.7391-14.5767-4.7999-21.6307c-6.072-4.1398-12.4279-7.9096-19.0889-11.2493
		c-4.1207-2.066-7.0529-3.0475-6.7882,3.7153c0.2866,7.3257-0.1488,14.7074-0.7253,22.0287
		C1242.8799,533.895,1242.5952,535.8631,1242.0095,537.6479z M978.1786,390.4626c0.3568,1.8138,0.6474,3.5234,0.9346,4.9586
		c3.2651,16.3185,0.3162,33.4388-7.5443,48.0426c-4.3486,8.0792-10.3824,15.0235-17.3972,20.8846
		c-2.23-8.8649-3.0297-18.0295-1.799-27.1218c2.2246-16.4351,9.902-32.0189,22.1353-43.3017
		C975.5839,392.9325,976.8239,391.7202,978.1786,390.4626z M689.9189,390.4626c1.3547,1.2577,2.5947,2.4699,3.6706,3.4622
		c12.2334,11.2828,19.9107,26.8666,22.1353,43.3017c1.2307,9.0923,0.431,18.2569-1.799,27.1218
		c-7.0148-5.8611-13.0486-12.8053-17.3972-20.8846c-7.8605-14.6039-10.8094-31.7241-7.5443-48.0426
		C689.2715,393.9859,689.5621,392.2764,689.9189,390.4626z M456.7118,559.8974c1.8353,0.2211,3.551,0.4731,5.0046,0.6434
		c16.5289,1.9374,31.8999,10.0324,43.36,22.0211c6.34,6.6324,11.0798,14.5168,14.4864,22.9994
		c-9.1201-0.6185-18.0833-2.69-26.3503-6.6701c-14.9432-7.1945-27.3919-19.3117-34.3422-34.4329
		C458.259,563.1284,457.4893,561.5745,456.7118,559.8974z M367.6346,834.0488c1.6148-0.8998,3.1509-1.7045,4.4271-2.4211
		c14.5109-8.1481,31.7044-10.634,48.0226-7.671c9.0276,1.6392,17.4965,5.2318,25.2384,10.092
		c-7.7419,4.8602-16.2108,8.4528-25.2384,10.092c-16.3181,2.963-33.5117,0.4771-48.0226-7.671
		C370.7855,835.7532,369.2494,834.9486,367.6346,834.0488z M456.7118,1108.2001c0.7775-1.6771,1.5472-3.231,2.1585-4.5608
		c6.9503-15.1212,19.399-27.2385,34.3422-34.433c8.267-3.9801,17.2302-6.0515,26.3503-6.67
		c-3.4066,8.4825-8.1464,16.3669-14.4864,22.9994c-11.4601,11.9886-26.8311,20.0836-43.36,22.021
		C460.2628,1107.7271,458.5471,1107.979,456.7118,1108.2001z M689.9189,1277.6349c-0.3568-1.8137-0.6474-3.5233-0.9346-4.9585
		c-3.2652-16.3186-0.3163-33.4387,7.5443-48.0426c4.3486-8.0792,10.3824-15.0234,17.3972-20.8845
		c2.23,8.8649,3.0297,18.0294,1.799,27.1217c-2.2246,16.4351-9.9019,32.0189-22.1353,43.3018
		C692.5136,1275.165,691.2736,1276.3773,689.9189,1277.6349z M978.1786,1277.6349c-1.3548-1.2576-2.5947-2.4698-3.6707-3.4622
		c-12.2333-11.2828-19.9107-26.8667-22.1353-43.3018c-1.2307-9.0923-0.431-18.2568,1.799-27.1217
		c7.0148,5.8611,13.0486,12.8053,17.3972,20.8845c7.8605,14.6039,10.8094,31.724,7.5443,48.0426
		C978.826,1274.1116,978.5355,1275.8212,978.1786,1277.6349z M1211.3857,1108.2001c-1.8353-0.2211-3.551-0.473-5.0046-0.6434
		c-16.5289-1.9374-31.8999-10.0323-43.36-22.021c-6.34-6.6324-11.0798-14.5168-14.4863-22.9994
		c9.1201,0.6185,18.0833,2.6899,26.3502,6.67c14.9432,7.1945,27.392,19.3118,34.3422,34.433
		C1209.8385,1104.9691,1210.6083,1106.5229,1211.3857,1108.2001z M1300.4629,834.0488c-1.6147,0.8998-3.1509,1.7045-4.4271,2.4211
		c-14.5109,8.1481-31.7043,10.6339-48.0225,7.671c-9.0276-1.6392-17.4966-5.2318-25.2385-10.092
		c7.7419-4.8603,16.2109-8.4529,25.2385-10.092c16.3181-2.963,33.5116-0.4771,48.0225,7.671
		C1297.312,832.3442,1298.8481,833.1489,1300.4629,834.0488z M1211.3857,559.8974c-0.7775,1.6771-1.5472,3.231-2.1586,4.5609
		c-6.9502,15.1212-19.3989,27.2385-34.3422,34.4329c-8.267,3.9801-17.2301,6.0516-26.3502,6.6701
		c3.4065-8.4826,8.1464-16.367,14.4863-22.9994c11.4601-11.9886,26.8311-20.0837,43.36-22.0211
		C1207.8347,560.3705,1209.5504,560.1185,1211.3857,559.8974z M1027.2478,239.4432c5.744-3.5512,12.3732-6.074,19.7224-7.5953
		c13.8553-2.8681,34.2645-1.672,43.6129,10.5551c4.1361,5.4097,10.2776,21.8368-0.2101,23.3404
		c-5.0757,0.7277-10.1102,1.8575-15.207,2.299c-13.3253,1.1543-26.2999,16.758-24.9669,30.0973
		c0.5239,5.243,1.694,7.5432,6.817,3.2096c8.0828-6.8371,16.4641-11.747,28.2574-10.2033
		c6.1974,0.8112,10.6986,3.4013,13.7373,7.2614c2.8958,3.6785-0.6908,8.2903-3.6276,11.4505
		c-9.9824,10.742-9.3446,21.5791-5.1864,35.4513c6.7358,22.4718,13.4457,45.539,10.1438,69.7997
		c-0.4828,3.5473,1.0215,7.365,1.7454,11.9355c10.0139-22.3127,23.2115-41.8856,35.8716-61.7335
		c10.3546-16.2336,15.5508-34.2708,18.069-52.7713c1.8619-13.6797-7.5082-23.7058-17.1073-32.67
		c-4.1483-3.8739-12.0844-6.6947-9.1897-13.8072c2.7346-6.7191,8.5629-10.5195,17.0864-11.7297
		c9.0337-1.2827,17.1724-1.5622,24.9015,3.0933c5.1061,3.0755,4.5702-1.4542,5.8815-3.6146
		c7.0782-11.6624,10.9741-25.1427,20.3705-35.4878c10.1803-11.2083,13.4044-11.5574,24.11-0.8159
		c3.4152,3.4266,5.0647,2.0569,7.3029-0.542c7.0966-8.2402,15.5305-15.4139,25.3057-20.2737
		c4.928-2.45,10.068-4.1452,15.3993-5.4599c5.3928-1.3299,10.8158-0.9875,16.2604-2.3484
		c4.1024-1.0254,8.1865-2.2975,12.4091-2.5257c2.0513-0.1109,3.8843,0.0527,5.5203,0.4774
		c0.9094,1.4247,1.6315,3.1174,2.1599,5.1026c1.0878,4.0864,1.1399,8.3636,1.4325,12.5822
		c0.3882,5.5986,2.3895,10.6503,2.7911,16.1902c0.3972,5.4767,0.3733,10.889-0.434,16.3328
		c-1.6013,10.7985-5.8176,21.0365-11.4615,30.332c-1.7802,2.9317-2.5731,4.9238,1.7412,7.1129
		c13.524,6.8623,14.1882,10.0365,6.6744,23.1822c-6.9352,12.1332-18.5518,20.004-27.4562,30.3398
		c-1.6494,1.9146-6.123,2.8047-1.6202,6.7105c6.8162,5.9123,9.0653,13.739,10.637,22.7269
		c1.4829,8.4803-0.3304,15.1976-5.8756,19.8748c-5.8699,4.9509-11.005-1.7251-15.9712-4.4732
		c-11.4917-6.3593-23.9227-12.1726-36.3574-6.1744c-16.8169,8.1119-32.3656,18.6276-44.6049,33.4918
		c-14.9645,18.1737-29.5011,36.7737-47.6272,53.1925c4.5706-0.7239,8.6661-0.473,11.8906-2.0283
		c22.053-10.6371,46.0647-11.3839,69.5181-11.9219c14.4781-0.3321,24.9819-3.0743,32.1135-15.8877
		c2.0979-3.7695,5.3757-8.6057,9.769-6.9884c4.6102,1.6972,8.4645,5.1777,11.1511,10.8211
		c5.1124,10.7391,3.0328,20.2275-0.9719,30.0274c-2.5383,6.2115,0.0107,6.6134,5.1591,5.4915
		c13.0984-2.8543,23.929-20.0157,20.9091-33.0455c-1.155-4.9838-1.6364-10.1211-2.5128-15.1732
		c-1.8108-10.439,15.7101-9.6743,22.1332-7.4124c14.5175,5.1125,21.9617,24.1531,23.5156,38.2167
		c0.8241,7.4597,0.4734,14.5439-1.129,21.1042c6.7344,0.5033,13.5802,2.3588,20.4202,5.4478
		c12.895,5.8237,28.7034,18.7875,29.0795,34.1743c0.1664,6.8077-4.5206,23.7073-13.889,18.7592
		c-4.5341-2.3947-9.2712-4.4399-13.6542-7.0786c-11.4589-6.8985-31.1271-1.9012-37.8893,9.674
		c-2.658,4.5497-3.0634,7.0982,3.6284,6.6036c10.5579-0.7804,20.2245,0.1739,28.8582,8.3547
		c4.537,4.299,6.6561,9.0402,6.8456,13.9492c0.1805,4.678-5.4319,6.301-9.6652,7.1314c-14.39,2.823-20.2439,11.9652-25.0337,25.6321
		c-7.7592,22.1393-15.8894,44.745-32.8207,62.4315c-2.4756,2.5861-3.5027,6.5588-5.6035,10.6819
		c21.2166-12.1653,43.3983-20.2427,65.3068-28.8588c17.9189-7.0469,32.7247-18.5851,45.6362-32.0721
		c9.5472-9.9727,7.8597-23.5916,5.3629-36.4861c-1.079-5.5723-5.8413-12.5191,0.6812-16.5717
		c6.1617-3.8286,13.1106-3.4773,20.7177,0.5536c8.0624,4.2722,14.8109,8.8298,18.3275,17.1393
		c2.3232,5.4894,4.5522,1.5098,6.8828,0.5327c12.5815-5.2746,23.6569-13.8904,37.3392-16.7368
		c14.8242-3.0839,17.6378-1.4713,19.9851,13.5115c0.7488,4.7795,2.8883,4.6409,6.2267,3.8539
		c10.5846-2.4952,21.6245-3.3415,32.3893-1.5275c5.4269,0.9145,10.5817,2.5643,15.6676,4.6344
		c5.1445,2.0939,9.3306,5.5584,14.5352,7.6577c3.9218,1.5818,7.9735,2.9532,11.5238,5.2505
		c1.7247,1.1161,3.1115,2.3258,4.1853,3.631c-0.1016,1.6871-0.5125,3.481-1.2518,5.3976
		c-1.5219,3.9453-3.9937,7.4364-6.2367,11.0212c-2.9767,4.7576-4.3269,10.0209-7.2582,14.7388
		c-2.8978,4.6641-6.0984,9.0287-9.9513,12.9584c-7.6427,7.7949-17.0715,13.5994-27.1013,17.8021
		c-3.1633,1.3256-4.9758,2.471-2.7722,6.7779c6.9076,13.501,5.5793,16.4594-8.2264,22.6779
		c-12.7423,5.7396-26.7667,5.2792-40.0457,8.4072c-2.4598,0.5794-6.6023-1.33-5.2552,4.4766
		c2.0393,8.7896-0.7416,16.4435-4.7531,24.6387c-3.7849,7.7324-9.2002,12.101-16.4355,12.6254
		c-7.6588,0.5551-7.8893-7.8642-10.2916-13.0065c-5.5592-11.8995-12.1991-23.9093-25.7847-26.3657
		c-18.3732-3.322-37.1333-3.954-55.7721,0.8774c-22.7886,5.907-45.4818,12.4103-69.797,15.0391
		c4.1232,2.1008,7.2892,4.7112,10.812,5.3482c24.0936,4.3568,43.9584,17.8663,63.2488,31.2167
		c11.9083,8.2414,22.0178,12.1968,35.3188,6.0224c3.9131-1.8165,9.4075-3.8024,12.0111,0.0884
		c2.7322,4.0828,3.8046,9.1641,2.6609,15.3088c-2.1761,11.6932-9.4358,18.1471-18.4359,23.7215
		c-5.7046,3.5332-3.8785,5.3567,0.946,7.4752c12.2744,5.3898,31.1238-2.128,36.3394-14.4444
		c1.9949-4.7109,4.6251-9.15,6.8857-13.7523c4.6708-9.5097,18.396,1.4074,22.2628,7.0128
		c8.7399,12.6693,3.5707,32.4491-3.4386,44.7401c-3.7179,6.5195-8.1656,12.0446-13.3181,16.4101
		c5.1525,4.3655,9.6002,9.8906,13.3181,16.41c7.0093,12.291,12.1785,32.0708,3.4386,44.7401
		c-3.8668,5.6054-17.592,16.5225-22.2628,7.0128c-2.2606-4.6024-4.8909-9.0414-6.8857-13.7523
		c-5.2156-12.3164-24.0649-19.8342-36.3394-14.4444c-4.8246,2.1185-6.6506,3.942-0.946,7.4752
		c9.0001,5.5743,16.2598,12.0283,18.4359,23.7214c1.1437,6.1447,0.0713,11.226-2.6609,15.3089
		c-2.6036,3.8907-8.098,1.9048-12.0111,0.0884c-13.301-6.1744-23.4105-2.219-35.3188,6.0224
		c-19.2904,13.3504-39.1552,26.8599-63.2488,31.2167c-3.5228,0.637-6.6888,3.2474-10.812,5.3482
		c24.3152,2.6288,47.0084,9.1321,69.797,15.0391c18.6388,4.8314,37.3989,4.1994,55.7721,0.8774
		c13.5856-2.4564,20.2255-14.4661,25.7847-26.3656c2.4023-5.1423,2.6328-13.5616,10.2916-13.0065
		c7.2354,0.5245,12.6506,4.8931,16.4355,12.6254c4.0115,8.1953,6.7924,15.8491,4.7531,24.6387
		c-1.347,5.8065,2.7954,3.8971,5.2552,4.4766c13.2789,3.1279,27.3033,2.6675,40.0457,8.4071
		c13.8058,6.2186,15.134,9.1769,8.2264,22.6779c-2.2036,4.3069-0.3911,5.4523,2.7722,6.7779
		c10.0298,4.2028,19.4586,10.0072,27.1013,17.8021c3.8529,3.9297,7.0535,8.2943,9.9513,12.9585
		c2.9313,4.7179,4.2815,9.9812,7.2582,14.7388c2.243,3.5848,4.7148,7.0759,6.2367,11.0212
		c0.7394,1.9166,1.1503,3.7104,1.2518,5.3976c-1.0739,1.3052-2.4606,2.5149-4.1853,3.631
		c-3.5503,2.2974-7.6021,3.6687-11.5238,5.2505c-5.2046,2.0992-9.3906,5.5637-14.5352,7.6577
		c-5.0859,2.0701-10.2407,3.7198-15.6676,4.6343c-10.7648,1.8141-21.8047,0.9678-32.3893-1.5275
		c-3.3384-0.787-5.4779-0.9255-6.2267,3.854c-2.3473,14.9827-5.1609,16.5953-19.9851,13.5115
		c-13.6824-2.8463-24.7577-11.4623-37.3392-16.7368c-2.3306-0.9771-4.5596-4.9567-6.8828,0.5327
		c-3.5166,8.3096-10.2651,12.8671-18.3275,17.1393c-7.6071,4.0309-14.5559,4.3821-20.7177,0.5536
		c-6.5225-4.0526-1.7601-10.9994-0.6812-16.5717c2.4968-12.8945,4.1843-26.5134-5.3629-36.4861
		c-12.9115-13.4871-27.7173-25.0253-45.6362-32.0723c-21.9084-8.616-44.0902-16.6934-65.3068-28.8587
		c2.1008,4.1232,3.1279,8.0959,5.6035,10.6819c16.9313,17.6865,25.0615,40.2922,32.8207,62.4315
		c4.7898,13.667,10.6437,22.8092,25.0337,25.6322c4.2333,0.8304,9.8457,2.4534,9.6652,7.1313
		c-0.1895,4.9091-2.3086,9.6503-6.8456,13.9492c-8.6337,8.1808-18.3003,9.1351-28.8582,8.3547
		c-6.6918-0.4946-6.2864,2.0538-3.6284,6.6035c6.7622,11.5753,26.4304,16.5725,37.8893,9.6741
		c4.3829-2.6387,9.1201-4.684,13.6542-7.0786c9.3684-4.948,14.0554,11.9515,13.889,18.7593
		c-0.3761,15.3868-16.1844,28.3506-29.0795,34.1743c-6.84,3.089-13.6858,4.9446-20.4202,5.4478
		c1.6024,6.5603,1.9531,13.6445,1.129,21.1042c-1.554,14.0635-8.9982,33.1041-23.5156,38.2167
		c-6.4231,2.262-23.944,3.0266-22.1332-7.4124c0.8765-5.0521,1.3578-10.1895,2.5128-15.1732
		c3.0199-13.0298-7.8107-30.1913-20.9091-33.0455c-5.1483-1.1218-7.6974-0.72-5.1591,5.4916
		c4.0048,9.7998,6.0844,19.2883,0.9719,30.0273c-2.6866,5.6434-6.5409,9.1239-11.1511,10.8212
		c-4.3933,1.6172-7.6711-3.2189-9.769-6.9884c-7.1316-12.8134-17.6354-15.5557-32.1135-15.8877
		c-23.4534-0.538-47.4651-1.2848-69.5181-11.9219c-3.2245-1.5554-7.3201-1.3044-11.8906-2.0283
		c18.1261,16.4188,32.6627,35.0188,47.6272,53.1925c12.2393,14.8643,27.788,25.3799,44.6049,33.4918
		c12.4347,5.9982,24.8657,0.1848,36.3574-6.1744c4.9662-2.7482,10.1013-9.4241,15.9712-4.4731
		c5.5452,4.6771,7.3585,11.3944,5.8756,19.8748c-1.5717,8.9879-3.8208,16.8146-10.637,22.7269
		c-4.5028,3.9058-0.0292,4.7959,1.6202,6.7104c8.9044,10.3358,20.521,18.2065,27.4562,30.3398
		c7.5138,13.1456,6.8496,16.3198-6.6744,23.1821c-4.3143,2.1891-3.5214,4.1812-1.7412,7.1129
		c5.6439,9.2955,9.8602,19.5336,11.4615,30.332c0.8073,5.4438,0.8312,10.8561,0.434,16.3328
		c-0.4016,5.5399-2.403,10.5917-2.7911,16.1902c-0.2926,4.2186-0.3447,8.4958-1.4325,12.5823
		c-0.5284,1.9852-1.2505,3.6779-2.1599,5.1025c-1.636,0.4247-3.469,0.5883-5.5203,0.4774
		c-4.2225-0.2283-8.3066-1.5004-12.4091-2.5258c-5.4446-1.3608-10.8676-1.0186-16.2604-2.3484
		c-5.3313-1.3147-10.4713-3.0099-15.3993-5.4598c-9.7751-4.8599-18.2091-12.0336-25.3057-20.2738
		c-2.2382-2.5989-3.8877-3.9686-7.3029-0.542c-10.7056,10.7416-13.9297,10.3925-24.11-0.8159
		c-9.3964-10.3451-13.2922-23.8253-20.3705-35.4878c-1.3113-2.1604-0.7754-6.6902-5.8815-3.6146
		c-7.7291,4.6555-15.8678,4.376-24.9015,3.0933c-8.5236-1.2102-14.3518-5.0105-17.0864-11.7296
		c-2.8947-7.1124,5.0414-9.9333,9.1897-13.8073c9.5991-8.9641,18.9692-18.9902,17.1073-32.67
		c-2.5182-18.5004-7.7144-36.5376-18.069-52.7712c-12.66-19.8479-25.8577-39.4208-35.8716-61.7335
		c-0.7239,4.5706-2.2281,8.3882-1.7454,11.9355c3.3019,24.2606-3.408,47.3279-10.1438,69.7996
		c-4.1582,13.8722-4.796,24.7092,5.1864,35.4513c2.9368,3.1602,6.5233,7.7721,3.6276,11.4506
		c-3.0387,3.8601-7.5399,6.4502-13.7373,7.2614c-11.7933,1.5437-20.1747-3.3662-28.2574-10.2032
		c-5.123-4.3336-6.2931-2.0334-6.817,3.2096c-1.333,13.3394,11.6416,28.943,24.9669,30.0973
		c5.0968,0.4415,10.1313,1.5713,15.207,2.299c10.4877,1.5037,4.3462,17.9307,0.2101,23.3403
		c-9.3484,12.2272-29.7576,13.4232-43.6129,10.5552c-7.3492-1.5214-13.9784-4.0441-19.7224-7.5953
		c-2.5597,6.2493-6.4399,12.1866-11.4914,17.7373c-9.5234,10.4642-26.7377,21.4929-41.4877,17.0957
		c-6.526-1.9454-21.1501-11.6252-13.5492-19.0062c3.6786-3.572,7.0876-7.4453,10.9515-10.7983
		c10.1019-8.7662,11.427-29.0162,2.5079-39.0244c-3.5057-3.9337-5.8042-5.1069-7.4017,1.4103
		c-2.5203,10.2822-6.415,19.1809-16.8634,24.864c-5.4906,2.9865-10.6546,3.5367-15.3819,2.2
		c-4.5048-1.2739-4.314-7.113-3.7957-11.3959c1.7619-14.558-5.1239-22.9504-16.6418-31.7292
		c-18.6581-14.2207-37.645-28.9386-49.2338-50.5066c-1.6944-3.1536-5.1554-5.358-8.4275-8.6301
		c5.0136,23.9374,5.8412,47.5295,7.2654,71.0282c1.1648,19.2195,7.563,36.8662,16.4001,53.3135
		c6.5343,12.1616,20.0081,14.7653,33.0431,16.3752c5.633,0.6958,13.7114-1.6868,15.5502,5.7687
		c1.7371,7.0433-0.7443,13.5436-6.9286,19.5326c-6.5545,6.3477-12.9745,11.3575-21.964,12.1343
		c-5.9387,0.5132-2.8426,3.8628-2.6335,6.3813c1.1285,13.5956,5.9003,26.7913,4.3792,40.6837
		c-1.648,15.0516-4.0511,17.229-19.0259,14.8315c-4.777-0.7648-5.3064,1.3129-5.5895,4.7311
		c-0.8977,10.8376-3.5043,21.5986-8.556,31.276c-2.5468,4.8787-5.7087,9.2714-9.2491,13.4686
		c-3.5812,4.2457-8.1697,7.1563-11.7745,11.4575c-2.7162,3.241-5.2726,6.6707-8.5546,9.3372
		c-1.5944,1.2955-3.1735,2.2406-4.7466,2.8585c-1.5732-0.6179-3.1522-1.563-4.7466-2.8585
		c-3.2819-2.6665-5.8383-6.0962-8.5546-9.3372c-3.6048-4.3013-8.1932-7.2118-11.7745-11.4575
		c-3.5404-4.1973-6.7024-8.59-9.2491-13.4686c-5.0517-9.6774-7.6584-20.4384-8.5561-31.276
		c-0.2831-3.4182-0.8125-5.4958-5.5895-4.7311c-14.9747,2.3975-17.3779,0.2201-19.0259-14.8315
		c-1.5211-13.8925,3.2506-27.0881,4.3792-40.6837c0.209-2.5186,3.3051-5.8682-2.6335-6.3813
		c-8.9896-0.7767-15.4095-5.7866-21.9641-12.1343c-6.1843-5.989-8.6656-12.4893-6.9286-19.5326
		c1.8387-7.4554,9.9172-5.0729,15.5502-5.7687c13.0349-1.61,26.5087-4.2136,33.0431-16.3752
		c8.837-16.4473,15.2352-34.094,16.4-53.3135c1.4243-23.4987,2.2518-47.0908,7.2654-71.0282
		c-3.2722,3.2721-6.7331,5.4766-8.4276,8.6301c-11.5889,21.568-30.5757,36.2859-49.2338,50.5066
		c-11.5179,8.7788-18.4037,17.1713-16.6418,31.7292c0.5183,4.2828,0.7092,10.1219-3.7957,11.3959
		c-4.7273,1.3368-9.8912,0.7865-15.3819-2.2c-10.4483-5.6831-14.3431-14.5818-16.8634-24.864
		c-1.5975-6.5172-3.896-5.344-7.4016-1.4103c-8.9191,10.0082-7.5939,30.2582,2.5079,39.0244
		c3.8638,3.353,7.2728,7.2263,10.9514,10.7983c7.6009,7.381-7.0232,17.0608-13.5491,19.0062
		c-14.7499,4.3972-31.9643-6.6315-41.4877-17.0957c-5.0515-5.5507-8.9317-11.488-11.4914-17.7373
		c-5.744,3.5513-12.3731,6.074-19.7224,7.5953c-13.8553,2.868-34.2645,1.672-43.6129-10.5552
		c-4.1361-5.4097-10.2776-21.8367,0.2101-23.3403c5.0756-0.7277,10.1102-1.8574,15.207-2.299
		c13.3253-1.1543,26.3-16.7579,24.9669-30.0973c-0.5239-5.243-1.6939-7.5432-6.817-3.2096
		c-8.0827,6.837-16.4641,11.7469-28.2574,10.2032c-6.1974-0.8112-10.6985-3.4012-13.7373-7.2614
		c-2.8958-3.6785,0.6909-8.2904,3.6276-11.4506c9.9824-10.7421,9.3447-21.5791,5.1865-35.4513
		c-6.7359-22.4717-13.4457-45.5389-10.1439-69.7996c0.4828-3.5474-1.0215-7.365-1.7454-11.9355
		c-10.0139,22.3127-23.2115,41.8856-35.8715,61.7335c-10.3546,16.2336-15.5508,34.2709-18.069,52.7712
		c-1.862,13.6798,7.5081,23.7059,17.1073,32.67c4.1483,3.8739,12.0843,6.6948,9.1896,13.8073
		c-2.7347,6.7191-8.5629,10.5194-17.0864,11.7296c-9.0338,1.2827-17.1723,1.5623-24.9016-3.0933
		c-5.1061-3.0756-4.5702,1.4542-5.8814,3.6146c-7.0783,11.6625-10.9741,25.1427-20.3705,35.4878
		c-10.1804,11.2084-13.4044,11.5575-24.1101,0.8159c-3.4151-3.4266-5.0646-2.0569-7.3028,0.542
		c-7.0965,8.2402-15.5305,15.4139-25.3056,20.2738c-4.9279,2.45-10.068,4.1451-15.3994,5.4598
		c-5.3929,1.3298-10.8157,0.9875-16.2603,2.3484c-4.1025,1.0254-8.1865,2.2975-12.4091,2.5258
		c-2.0513,0.1108-3.8843-0.0527-5.5203-0.4774c-0.9095-1.4247-1.6315-3.1173-2.1599-5.1025
		c-1.0878-4.0864-1.14-8.3636-1.4325-12.5823c-0.3882-5.5985-2.3896-10.6503-2.7912-16.1902
		c-0.3971-5.4767-0.3733-10.8889,0.434-16.3328c1.6013-10.7985,5.8176-21.0365,11.4616-30.332
		c1.7801-2.9318,2.573-4.9238-1.7412-7.1129c-13.524-6.8623-14.1883-10.0365-6.6745-23.1821
		c6.9352-12.1333,18.5518-20.004,27.4561-30.3398c1.6494-1.9146,6.1231-2.8047,1.6202-6.7104
		c-6.8161-5.9124-9.0652-13.739-10.6369-22.7269c-1.4829-8.4803,0.3304-15.1976,5.8757-19.8748
		c5.8698-4.9509,11.0049,1.725,15.9711,4.4731c11.4918,6.3593,23.9227,12.1726,36.3575,6.1744
		c16.8168-8.1119,32.3655-18.6276,44.6048-33.4918c14.9644-18.1737,29.501-36.7737,47.6272-53.1925
		c-4.5706,0.7239-8.6663,0.4729-11.8907,2.0283c-22.0529,10.6371-46.0646,11.3839-69.5181,11.9219
		c-14.4782,0.332-24.9819,3.0743-32.1134,15.8877c-2.098,3.7695-5.3758,8.6056-9.7691,6.9884
		c-4.6102-1.6973-8.4645-5.1777-11.1511-10.8212c-5.1125-10.739-3.0329-20.2275,0.9719-30.0273
		c2.5383-6.2115-0.0108-6.6134-5.1591-5.4916c-13.0984,2.8542-23.9289,20.0157-20.909,33.0455
		c1.1551,4.9838,1.6364,10.1211,2.5128,15.1732c1.8109,10.439-15.71,9.6743-22.1331,7.4124
		c-14.5175-5.1125-21.9618-24.1532-23.5156-38.2167c-0.8242-7.4597-0.4734-14.5439,1.129-21.1042
		c-6.7344-0.5032-13.5803-2.3588-20.4202-5.4478c-12.895-5.8237-28.7034-18.7875-29.0795-34.1743
		c-0.1664-6.8077,4.5206-23.7073,13.8891-18.7593c4.534,2.3947,9.2711,4.4399,13.6541,7.0786
		c11.4589,6.8984,31.1272,1.9012,37.8894-9.6741c2.6579-4.5497,3.0634-7.0981-3.6285-6.6035
		c-10.5578,0.7804-20.2245-0.174-28.8581-8.3547c-4.537-4.299-6.6561-9.0402-6.8456-13.9492
		c-0.1806-4.678,5.4318-6.3009,9.6652-7.1313c14.39-2.823,20.2439-11.9652,25.0337-25.6322
		c7.7591-22.1393,15.8894-44.745,32.8206-62.4315c2.4756-2.5861,3.5027-6.5588,5.6035-10.6819
		c-21.2165,12.1653-43.3983,20.2427-65.3067,28.8587c-17.9189,7.047-32.7247,18.5852-45.6363,32.0723
		c-9.5471,9.9727-7.8597,23.5916-5.3629,36.4861c1.079,5.5723,5.8413,12.519-0.6811,16.5717
		c-6.1618,3.8285-13.1107,3.4773-20.7177-0.5536c-8.0624-4.2722-14.811-8.8297-18.3276-17.1393
		c-2.3232-5.4894-4.5522-1.5098-6.8828-0.5327c-12.5815,5.2745-23.6568,13.8905-37.3393,16.7368
		c-14.8242,3.0839-17.6377,1.4712-19.985-13.5115c-0.7488-4.7795-2.8884-4.641-6.2267-3.854
		c-10.5847,2.4952-21.6245,3.3416-32.3893,1.5275c-5.4269-0.9144-10.5816-2.5642-15.6676-4.6343
		c-5.1446-2.094-9.3306-5.5585-14.5352-7.6577c-3.9217-1.5818-7.9735-2.9531-11.5237-5.2505
		c-1.7247-1.1161-3.1115-2.3258-4.1854-3.631c0.1016-1.6871,0.5125-3.481,1.2518-5.3976c1.5219-3.9453,3.9938-7.4364,6.2367-11.0212
		c2.9767-4.7576,4.3269-10.0209,7.2582-14.7388c2.8979-4.6642,6.0984-9.0288,9.9513-12.9585
		c7.6426-7.7949,17.0715-13.5993,27.1013-17.8021c3.1634-1.3256,4.9758-2.471,2.7722-6.7779
		c-6.9076-13.501-5.5793-16.4594,8.2264-22.6779c12.7424-5.7396,26.7668-5.2792,40.0457-8.4071
		c2.4598-0.5795,6.6023,1.33,5.2552-4.4766c-2.0392-8.7896,0.7416-16.4435,4.7531-24.6387
		c3.7849-7.7323,9.2002-12.1009,16.4356-12.6254c7.6588-0.5552,7.8892,7.8641,10.2916,13.0065
		c5.5592,11.8995,12.199,23.9092,25.7846,26.3656c18.3731,3.322,37.1333,3.954,55.7721-0.8774
		c22.7887-5.907,45.4819-12.4103,69.797-15.0391c-4.1231-2.1008-7.2891-4.7112-10.812-5.3482
		c-24.0936-4.3568-43.9583-17.8663-63.2488-31.2167c-11.9083-8.2414-22.0179-12.1968-35.3189-6.0224
		c-3.913,1.8164-9.4074,3.8023-12.011-0.0884c-2.7322-4.0829-3.8046-9.1642-2.661-15.3089
		c2.1762-11.6931,9.4358-18.1471,18.4359-23.7214c5.7046-3.5332,3.8785-5.3567-0.946-7.4752
		c-12.2745-5.3898-31.1238,2.128-36.3394,14.4444c-1.9949,4.7109-4.6252,9.15-6.8857,13.7523
		c-4.6709,9.5098-18.3961-1.4073-22.2629-7.0128c-8.7399-12.6693-3.5706-32.4491,3.4386-44.7401
		c3.7179-6.5195,8.1657-12.0446,13.3181-16.41c-5.1524-4.3655-9.6002-9.8906-13.3181-16.4101
		c-7.0092-12.291-12.1785-32.0708-3.4386-44.7401c3.8669-5.6053,17.592-16.5225,22.2629-7.0128
		c2.2605,4.6024,4.8908,9.0414,6.8857,13.7523c5.2156,12.3164,24.0649,19.8342,36.3394,14.4444
		c4.8245-2.1185,6.6505-3.942,0.946-7.4752c-9.0001-5.5744-16.2597-12.0283-18.4359-23.7215
		c-1.1436-6.1447-0.0712-11.226,2.661-15.3088c2.6036-3.8907,8.098-1.9048,12.011-0.0884
		c13.301,6.1744,23.4106,2.219,35.3189-6.0224c19.2904-13.3504,39.1552-26.8599,63.2488-31.2167
		c3.5229-0.637,6.6888-3.2474,10.812-5.3482c-24.3151-2.6288-47.0083-9.1321-69.797-15.0391
		c-18.6388-4.8314-37.3989-4.1994-55.7721-0.8774c-13.5856,2.4564-20.2254,14.4661-25.7846,26.3657
		c-2.4024,5.1423-2.6328,13.5616-10.2916,13.0065c-7.2354-0.5245-12.6507-4.8931-16.4356-12.6254
		c-4.0115-8.1952-6.7923-15.8491-4.7531-24.6387c1.3471-5.8066-2.7953-3.8972-5.2552-4.4766
		c-13.279-3.128-27.3034-2.6675-40.0457-8.4072c-13.8057-6.2185-15.134-9.1769-8.2264-22.6779
		c2.2036-4.3069,0.3912-5.4523-2.7722-6.7779c-10.0298-4.2028-19.4587-10.0072-27.1013-17.8021
		c-3.8529-3.9297-7.0535-8.2943-9.9513-12.9584c-2.9313-4.718-4.2815-9.9813-7.2582-14.7388
		c-2.243-3.5848-4.7148-7.0759-6.2367-11.0212c-0.7393-1.9167-1.1502-3.7105-1.2518-5.3976
		c1.0739-1.3052,2.4606-2.5149,4.1854-3.631c3.5502-2.2973,7.602-3.6687,11.5237-5.2505c5.2046-2.0992,9.3906-5.5637,14.5352-7.6577
		c5.0859-2.0701,10.2407-3.7199,15.6676-4.6344c10.7648-1.814,21.8046-0.9677,32.3893,1.5275
		c3.3383,0.787,5.4779,0.9256,6.2267-3.8539c2.3473-14.9827,5.1608-16.5953,19.985-13.5115
		c13.6825,2.8463,24.7578,11.4622,37.3393,16.7368c2.3306,0.9771,4.5596,4.9567,6.8828-0.5327
		c3.5166-8.3095,10.2652-12.8671,18.3276-17.1393c7.607-4.0309,14.5559-4.3821,20.7177-0.5536
		c6.5224,4.0526,1.7601,10.9994,0.6811,16.5717c-2.4969,12.8945-4.1843,26.5134,5.3629,36.4861
		c12.9116,13.487,27.7174,25.0252,45.6363,32.0721c21.9084,8.616,44.0902,16.6934,65.3067,28.8588
		c-2.1008-4.1231-3.1278-8.0959-5.6035-10.6819c-16.9312-17.6865-25.0615-40.2922-32.8206-62.4315
		c-4.7898-13.6669-10.6437-22.8091-25.0337-25.6321c-4.2333-0.8304-9.8457-2.4534-9.6652-7.1314
		c0.1894-4.9091,2.3086-9.6502,6.8456-13.9492c8.6336-8.1808,18.3003-9.1351,28.8581-8.3547
		c6.6919,0.4946,6.2864-2.0539,3.6285-6.6036c-6.7622-11.5753-26.4305-16.5725-37.8894-9.674
		c-4.3829,2.6386-9.1201,4.6838-13.6541,7.0786c-9.3685,4.9481-14.0555-11.9515-13.8891-18.7592
		c0.3761-15.3868,16.1844-28.3506,29.0795-34.1743c6.8399-3.0891,13.6858-4.9446,20.4202-5.4478
		c-1.6024-6.5603-1.9532-13.6445-1.129-21.1042c1.5538-14.0635,8.9981-33.1042,23.5156-38.2167
		c6.4231-2.2619,23.9439-3.0266,22.1331,7.4124c-0.8764,5.0521-1.3577,10.1894-2.5128,15.1732
		c-3.0199,13.0298,7.8106,30.1912,20.909,33.0455c5.1483,1.1219,7.6974,0.72,5.1591-5.4915
		c-4.0047-9.7999-6.0843-19.2883-0.9719-30.0274c2.6866-5.6434,6.5409-9.1239,11.1511-10.8211
		c4.3933-1.6173,7.6711,3.2189,9.7691,6.9884c7.1315,12.8134,17.6353,15.5556,32.1134,15.8877
		c23.4535,0.5379,47.4651,1.2847,69.5181,11.9219c3.2244,1.5553,7.3201,1.3044,11.8907,2.0283
		c-18.1262-16.4188-32.6628-35.0188-47.6272-53.1925c-12.2393-14.8643-27.788-25.3799-44.6048-33.4918
		c-12.4348-5.9982-24.8657-0.1849-36.3575,6.1744c-4.9662,2.7481-10.1013,9.424-15.9711,4.4732
		c-5.5453-4.6771-7.3586-11.3945-5.8757-19.8748c1.5717-8.9879,3.8208-16.8146,10.6369-22.7269
		c4.5029-3.9058,0.0292-4.7959-1.6202-6.7105c-8.9043-10.3358-20.521-18.2066-27.4561-30.3398
		c-7.5139-13.1457-6.8495-16.3199,6.6745-23.1822c4.3142-2.1891,3.5213-4.1812,1.7412-7.1129
		c-5.644-9.2955-9.8603-19.5336-11.4616-30.332c-0.8073-5.4438-0.8311-10.8561-0.434-16.3328
		c0.4017-5.5399,2.403-10.5916,2.7912-16.1902c0.2925-4.2186,0.3447-8.4958,1.4325-12.5822
		c0.5284-1.9852,1.2505-3.6779,2.1599-5.1026c1.636-0.4247,3.4689-0.5883,5.5203-0.4774c4.2225,0.2282,8.3066,1.5003,12.4091,2.5257
		c5.4446,1.3609,10.8675,1.0185,16.2603,2.3484c5.3314,1.3147,10.4714,3.0099,15.3994,5.4599
		c9.7751,4.8598,18.2091,12.0335,25.3056,20.2737c2.2382,2.5989,3.8877,3.9686,7.3028,0.542
		c10.7056-10.7415,13.9297-10.3925,24.1101,0.8159c9.3963,10.3451,13.2921,23.8254,20.3705,35.4878
		c1.3112,2.1604,0.7753,6.6902,5.8814,3.6146c7.7292-4.6555,15.8678-4.376,24.9016-3.0933
		c8.5235,1.2102,14.3517,5.0106,17.0864,11.7297c2.8947,7.1124-5.0414,9.9333-9.1896,13.8072
		c-9.5992,8.9642-18.9693,18.9903-17.1073,32.67c2.5182,18.5005,7.7144,36.5377,18.069,52.7713
		c12.66,19.848,25.8576,39.4208,35.8715,61.7335c0.7239-4.5705,2.2281-8.3882,1.7454-11.9355
		c-3.3018-24.2607,3.408-47.3279,10.1439-69.7997c4.1582-13.8722,4.796-24.7092-5.1865-35.4513
		c-2.9367-3.1602-6.5233-7.772-3.6276-11.4505c3.0388-3.8601,7.5399-6.4502,13.7373-7.2614
		c11.7933-1.5437,20.1747,3.3662,28.2574,10.2033c5.1231,4.3336,6.2931,2.0334,6.817-3.2096
		c1.3331-13.3393-11.6416-28.9429-24.9669-30.0973c-5.0968-0.4415-10.1314-1.5713-15.207-2.299
		c-10.4877-1.5036-4.3462-17.9306-0.2101-23.3404c9.3484-12.2271,29.7576-13.4232,43.6129-10.5551
		c7.3493,1.5213,13.9784,4.0441,19.7224,7.5953c2.5597-6.2493,6.4399-12.1867,11.4914-17.7373
		c9.5234-10.4643,26.7378-21.4929,41.4877-17.0958c6.5259,1.9454,21.15,11.6253,13.5491,19.0062
		c-3.6786,3.5721-7.0876,7.4454-10.9514,10.7984c-10.1019,8.7663-11.4271,29.0162-2.5079,39.0244
		c3.5056,3.9337,5.8041,5.1069,7.4016-1.4103c2.5203-10.2822,6.4151-19.1809,16.8634-24.8639
		c5.4907-2.9864,10.6546-3.5368,15.3819-2.2c4.5049,1.2739,4.314,7.1131,3.7957,11.3959
		c-1.762,14.558,5.1238,22.9505,16.6418,31.7292c18.658,14.2208,37.6449,28.9387,49.2338,50.5067
		c1.6945,3.1536,5.1554,5.358,8.4276,8.6301c-5.0137-23.9374-5.8412-47.5295-7.2654-71.0282
		c-1.1648-19.2195-7.563-36.8662-16.4-53.3135c-6.5344-12.1616-20.0082-14.7652-33.0431-16.3752
		c-5.6331-0.6958-13.7115,1.6868-15.5502-5.7687c-1.737-7.0433,0.7443-13.5436,6.9286-19.5326
		c6.5546-6.3476,12.9745-11.3575,21.9641-12.1342c5.9387-0.5131,2.8426-3.8628,2.6335-6.3813
		c-1.1286-13.5956-5.9003-26.7913-4.3792-40.6837c1.648-15.0516,4.0511-17.2291,19.0259-14.8316
		c4.777,0.7648,5.3064-1.3129,5.5895-4.731c0.8977-10.8377,3.5044-21.5987,8.5561-31.2761
		c2.5467-4.8787,5.7087-9.2713,9.2491-13.4686c3.5812-4.2457,8.1697-7.1563,11.7745-11.4575
		c2.7163-3.241,5.2726-6.6706,8.5546-9.3372c1.5944-1.2954,3.1735-2.2405,4.7466-2.8585c1.5731,0.618,3.1522,1.5631,4.7466,2.8585
		c3.282,2.6666,5.8383,6.0963,8.5546,9.3372c3.6049,4.3012,8.1933,7.2117,11.7745,11.4575c3.5403,4.1973,6.7023,8.59,9.2491,13.4686
		c5.0517,9.6774,7.6583,20.4384,8.556,31.2761c0.2831,3.4181,0.8125,5.4958,5.5895,4.731
		c14.9747-2.3975,17.3779-0.22,19.0259,14.8316c1.5211,13.8924-3.2506,27.0881-4.3792,40.6837
		c-0.209,2.5185-3.3051,5.8682,2.6335,6.3813c8.9895,0.7767,15.4095,5.7867,21.964,12.1342
		c6.1843,5.9891,8.6656,12.4893,6.9286,19.5326c-1.8387,7.4555-9.9172,5.0729-15.5502,5.7687
		c-13.035,1.6099-26.5088,4.2136-33.0431,16.3752c-8.837,16.4473-15.2353,34.094-16.4001,53.3135
		c-1.4242,23.4987-2.2518,47.0908-7.2654,71.0282c3.2721-3.2721,6.7331-5.4765,8.4275-8.6301
		c11.5889-21.568,30.5757-36.2859,49.2338-50.5067c11.5179-8.7787,18.4037-17.1712,16.6418-31.7292
		c-0.5184-4.2828-0.7092-10.122,3.7957-11.3959c4.7273-1.3368,9.8913-0.7865,15.3819,2.2
		c10.4484,5.6831,14.3431,14.5817,16.8634,24.8639c1.5975,6.5172,3.896,5.344,7.4017,1.4103
		c8.9191-10.0082,7.5939-30.2581-2.5079-39.0244c-3.8639-3.353-7.2729-7.2263-10.9515-10.7984
		c-7.6009-7.3809,7.0232-17.0608,13.5492-19.0062c14.7499-4.3971,31.9643,6.6315,41.4877,17.0958
		C1020.8079,227.2565,1024.6881,233.1939,1027.2478,239.4432z M1086.4492,486.6494c-1.0688,0.0676-2.2142-0.0536-3.4221-0.3804
		c-6.0315-1.6321-3.0652-6.8764-2.2874-10.335c4.1039-18.2478,8.7787-36.1839,6.6385-55.392
		c-2.4113-21.6406-5.5775-43.0193-10.3131-64.3038c-3.2-14.382-10.5029-29.2834-1.0131-44.1644
		c1.4573-2.2851,0.704-3.712-1.2236-5.0912c-2.2686-1.623-3.575-0.402-5.0944,1.2807c-6.6946,7.4137-8.9788,16.5391-9.4198,26.0379
		c-0.2167,4.6686-1.2938,8.4552-5.6754,9.5298c-5.2352,1.2839-6.4685-3.9134-8.4276-7.1812
		c-7.3485-12.2567-9.0735-26.1701-10.4481-39.9251c-1.4347-14.3555,3.1031-27.2634,14.4387-36.5887
		c3.899-3.2076,9.2603-4.6724,11.9158-9.5631c-5.7734-1.408-11.1677,1.0839-16.7428,1.6955
		c-0.8851,0.0971-1.6345,1.1261-2.5182,1.5871c-17.7817,9.2755-22.8229,24.9013-21.8379,43.5892
		c0.1269,2.4074,2.2231,5.7529-2.2206,6.5341c-2.8065,0.4933-5.0396,1.1607-8.0051-1.7816
		c-0.9805-0.9728-1.9869-1.9144-3.0176-2.8246c-1.3689,0.1306-2.7365,0.3008-4.1016,0.5115
		c-4.1285,0.6373-5.5429-1.2152-7.5234-3.2639c-3.1359-3.2439,0.5264-4.7184,2.0441-6.5914
		c11.7814-14.5398,16.8876-30.1445,7.9539-48.1004c-0.444-0.8923-0.4454-2.1653-1.1044-2.7641
		c-4.1509-3.7718-7.0502-8.9585-12.5486-11.2129c-0.7263,5.5175,2.75,9.8538,4.019,14.7406
		c3.6894,14.2073-0.2265,27.3172-9.8251,38.0878c-9.1971,10.32-18.7708,20.5623-31.9201,26.1589
		c-3.5058,1.4922-7.5584,4.972-11.0391,0.8561c-2.9131-3.4448-1.5588-7.1414,1.0099-11.0457
		c5.2264-7.9439,8.7422-16.6692,7.684-26.6019c-0.2402-2.2545-0.5793-4.0101-3.3687-4.0305
		c-2.3702-0.0173-3.8182,0.6944-3.9824,3.3996c-1.0693,17.617-15.7365,25.3799-26.7788,35.1343
		c-16.342,14.436-31.4695,29.8706-46.1403,45.961c-13.0216,14.2817-19.7822,31.5402-27.1879,48.7151
		c-1.4036,3.2552-2.0863,9.2415-7.9252,7.0167c-1.1693-0.4455-2.1672-1.0207-2.9921-1.7037
		c-0.825,0.683-1.8228,1.2581-2.9921,1.7037c-5.839,2.2248-6.5217-3.7615-7.9253-7.0167
		c-7.4058-17.1749-14.1663-34.4334-27.1879-48.7151c-14.6707-16.0903-29.7983-31.525-46.1403-45.961
		c-11.0423-9.7545-25.7094-17.5173-26.7787-35.1343c-0.1642-2.7052-1.6123-3.4169-3.9825-3.3996
		c-2.7893,0.0204-3.1284,1.7761-3.3687,4.0305c-1.0583,9.9327,2.4575,18.658,7.684,26.6019
		c2.5687,3.9044,3.923,7.601,1.0099,11.0457c-3.4807,4.1159-7.5333,0.6361-11.0391-0.8561
		c-13.1494-5.5966-22.723-15.8389-31.9201-26.1589c-9.5986-10.7706-13.5145-23.8805-9.8251-38.0878
		c1.269-4.8869,4.7454-9.2231,4.0191-14.7406c-5.4985,2.2544-8.3978,7.4411-12.5487,11.2129
		c-0.659,0.5988-0.6604,1.8717-1.1044,2.7641c-8.9337,17.9559-3.8275,33.5606,7.9539,48.1004
		c1.5176,1.873,5.1799,3.3475,2.0441,6.5914c-1.9805,2.0487-3.3948,3.9012-7.5234,3.2639c-1.365-0.2107-2.7327-0.3809-4.1016-0.5115
		c-1.0306,0.9103-2.0371,1.8518-3.0176,2.8246c-2.9655,2.9423-5.1986,2.2749-8.005,1.7816
		c-4.4437-0.7812-2.3475-4.1267-2.2206-6.5341c0.9851-18.6879-4.0562-34.3137-21.8379-43.5892
		c-0.8837-0.461-1.633-1.4899-2.5181-1.5871c-5.5751-0.6116-10.9694-3.1035-16.7429-1.6955
		c2.6556,4.8907,8.0167,6.3555,11.9158,9.5631c11.3356,9.3253,15.8734,22.2332,14.4387,36.5887
		c-1.3746,13.755-3.0996,27.6684-10.4481,39.9251c-1.9592,3.2679-3.1924,8.4651-8.4276,7.1812
		c-4.3816-1.0746-5.4587-4.8612-5.6755-9.5298c-0.441-9.4988-2.7253-18.6242-9.4197-26.0379
		c-1.5195-1.6827-2.8258-2.9037-5.0944-1.2807c-1.9277,1.3792-2.6809,2.8061-1.2237,5.0912
		c9.4899,14.881,2.1869,29.7824-1.013,44.1644c-4.7357,21.2845-7.9019,42.6632-10.3131,64.3038
		c-2.1402,19.208,2.5347,37.1442,6.6385,55.392c0.7778,3.4586,3.7441,8.7029-2.2874,10.335
		c-1.2079,0.3268-2.3532,0.448-3.4221,0.3804c-0.2659,1.0374-0.7351,2.0892-1.4192,3.137
		c-3.4161,5.232-7.4871,0.7903-10.5361-1.0183c-16.0865-9.5418-31.7002-19.5304-50.6295-23.4306
		c-21.3265-4.3941-42.6373-7.9892-64.3435-10.0626c-14.6669-1.401-31.0958,0.9398-42.3159-12.6841
		c-1.7229-2.092-3.3127-1.8166-5.2201-0.4095c-2.2446,1.656-1.487,3.2757-0.3562,5.2408
		c4.9821,8.6578,12.9551,13.6502,21.8527,17.0049c4.3731,1.6488,7.6415,3.8434,7.3096,8.3426
		c-0.3967,5.3757-5.7207,4.9425-9.4341,5.7961c-13.9276,3.2013-27.6931,0.5423-41.1997-2.4008
		c-14.0963-3.0717-24.9701-11.3761-30.3362-25.0386c-1.8457-4.6995-1.5821-10.2509-5.4128-14.2878
		c-3.1232,5.0557-2.4202,10.9561-3.5613,16.4473c-0.1812,0.8718,0.5659,1.9025,0.7312,2.8853
		c3.3267,19.7777,16.6299,29.4009,34.7076,34.2389c2.3287,0.6232,6.1583-0.3365,5.528,4.1311
		c-0.398,2.8215-0.4534,5.1516-4.168,7.0627c-1.2282,0.6319-2.4347,1.2981-3.6189,1.997c-0.2988,1.3422-0.5596,2.6955-0.781,4.0589
		c-0.6697,4.1234-2.8686,4.896-5.429,6.1465c-4.0542,1.98-4.3248-1.9587-5.6371-3.9809
		c-10.1876-15.6978-23.4506-25.3762-43.2883-22.4285c-0.9858,0.1465-2.1969-0.2455-2.9701,0.1962
		c-4.8699,2.7822-10.6987,3.9369-14.5419,8.4695c5.0231,2.3958,10.2213,0.4295,15.2612,0.7327
		c14.652,0.8815,25.9102,8.6569,33.1875,21.114c6.9729,11.936,13.7555,24.2062,15.0147,38.4414
		c0.3358,3.7953,2.3929,8.7249-2.5971,10.7634c-4.1764,1.7061-7.2736-0.7242-10.1931-4.3738
		c-5.94-7.4255-13.1518-13.4655-22.9254-15.5283c-2.2183-0.4682-3.9929-0.6882-4.8742,1.9583
		c-0.7489,2.2488-0.5195,3.8459,2.0025,4.8381c16.4244,6.461,19.2749,22.8091,25.1396,36.3253
		c8.6795,20.0031,18.6841,39.1599,29.4534,58.0848c9.5587,16.7975,23.8834,28.5604,37.9292,40.911
		c2.6622,2.3409,8.1445,4.84,4.2242,9.7057c-0.7851,0.9744-1.6404,1.7457-2.5449,2.3192c0.3946,0.9956,0.6333,2.1223,0.6957,3.3721
		c0.3116,6.2407-5.5927,5.0401-9.1224,5.3691c-18.6228,1.736-37.1257,2.8325-54.7323,10.8035
		c-19.8363,8.9805-39.1902,18.5981-57.9696,29.6793c-12.6893,7.4875-24.6046,19.038-41.6898,14.611
		c-2.6235-0.6797-3.7479,0.4775-4.4638,2.7371c-0.8426,2.6591,0.7224,3.5241,2.7923,4.4492
		c9.1196,4.0759,18.5042,3.4285,27.6744,0.9126c4.5071-1.2365,8.4412-1.3823,10.8172,2.4528
		c2.8388,4.5822-1.723,7.3611-4.2255,10.2343c-9.386,10.7764-22.0854,16.7164-34.7424,22.2743
		c-13.2096,5.8005-26.8879,5.4736-39.2598-2.4255c-4.2555-2.717-7.3053-7.3632-12.7772-8.3775
		c0.4449,5.926,4.4819,10.2862,6.7863,15.3995c0.3659,0.8118,1.5761,1.2065,2.2875,1.9045
		c14.3164,14.0451,30.7353,14.011,48.2041,7.2993c2.2503-0.8646,4.7843-3.892,6.9005,0.0928
		c1.3364,2.5167,2.6613,4.4342,0.7793,8.1638c-0.6222,1.2332-1.2067,2.4813-1.7539,3.7428
		c0.5473,1.2615,1.1317,2.5096,1.7539,3.7427c1.8819,3.7296,0.5571,5.6472-0.7793,8.1638
		c-2.1161,3.9848-4.6501,0.9574-6.9005,0.0928c-17.4689-6.7118-33.8877-6.7458-48.2041,7.2992
		c-0.7115,0.698-1.9216,1.0927-2.2875,1.9045c-2.3045,5.1133-6.3414,9.4735-6.7863,15.3995
		c5.4719-1.0143,8.5217-5.6604,12.7772-8.3775c12.3718-7.899,26.0502-8.226,39.2598-2.4255
		c12.657,5.5579,25.3564,11.4979,34.7424,22.2743c2.5025,2.8732,7.0643,5.6521,4.2255,10.2343
		c-2.376,3.8351-6.3101,3.6894-10.8172,2.4529c-9.1702-2.5159-18.5548-3.1633-27.6744,0.9125
		c-2.0699,0.9251-3.6348,1.7902-2.7923,4.4492c0.7159,2.2595,1.8403,3.4168,4.4638,2.7371
		c17.0853-4.427,29.0005,7.1234,41.6898,14.611c18.7794,11.0812,38.1333,20.6988,57.9696,29.6793
		c17.6066,7.971,36.1095,9.0675,54.7323,10.8035c3.5297,0.329,9.4339-0.8716,9.1224,5.3691
		c-0.0624,1.2498-0.3011,2.3765-0.6957,3.3721c0.9044,0.5735,1.7598,1.3447,2.5449,2.3191
		c3.9203,4.8657-1.5621,7.3649-4.2242,9.7057c-14.0458,12.3506-28.3705,24.1135-37.9292,40.9111
		c-10.7693,18.9249-20.7739,38.0816-29.4534,58.0848c-5.8648,13.5161-8.7153,29.8643-25.1396,36.3252
		c-2.522,0.9922-2.7514,2.5892-2.0025,4.8381c0.8813,2.6465,2.6559,2.4264,4.8742,1.9583
		c9.7737-2.063,16.9854-8.1029,22.9254-15.5283c2.9195-3.6497,6.0166-6.08,10.1931-4.3739c4.99,2.0385,2.9329,6.968,2.5971,10.7634
		c-1.2592,14.2352-8.0418,26.5054-15.0147,38.4413c-7.2773,12.4572-18.5355,20.2325-33.1875,21.1141
		c-5.0399,0.3031-10.2381-1.6631-15.2612,0.7327c3.8432,4.5327,9.672,5.6874,14.5419,8.4696
		c0.7731,0.4417,1.9842,0.0497,2.9701,0.1962c19.8377,2.9478,33.1008-6.7306,43.2883-22.4285
		c1.3123-2.0222,1.5829-5.9609,5.6371-3.981c2.5605,1.2505,4.7594,2.0232,5.429,6.1466c0.2214,1.3633,0.4822,2.7166,0.781,4.0588
		c1.1842,0.699,2.3907,1.3651,3.6189,1.9971c3.7147,1.911,3.77,4.2411,4.168,7.0626c0.6302,4.4677-3.1993,3.5078-5.528,4.1311
		c-18.0777,4.838-31.3809,14.4612-34.7076,34.2389c-0.1653,0.9828-0.9124,2.0135-0.7312,2.8853
		c1.1411,5.4913,0.4381,11.3916,3.5613,16.4474c3.8307-4.0369,3.5671-9.5883,5.4128-14.2878
		c5.3661-13.6625,16.2399-21.9669,30.3362-25.0386c13.5066-2.9431,27.2721-5.6021,41.1997-2.4008
		c3.7133,0.8535,9.0374,0.4203,9.4341,5.796c0.332,4.4993-2.9365,6.6937-7.3096,8.3427
		c-8.8976,3.3546-16.8705,8.347-21.8527,17.0049c-1.1308,1.9651-1.8884,3.5847,0.3562,5.2407
		c1.9073,1.4071,3.4972,1.6825,5.2201-0.4094c11.2202-13.624,27.649-11.2831,42.3159-12.6842
		c21.7062-2.0734,43.017-5.6685,64.3435-10.0626c18.9293-3.9001,34.543-13.8888,50.6295-23.4305
		c3.049-1.8086,7.1199-6.2502,10.5361-1.0183c0.6841,1.0477,1.1533,2.0996,1.4192,3.137c1.0688-0.0676,2.2142,0.0536,3.4221,0.3804
		c6.0315,1.6322,3.0652,6.8765,2.2874,10.3351c-4.1038,18.2477-8.7787,36.1838-6.6385,55.392
		c2.4112,21.6405,5.5774,43.0193,10.3131,64.3037c3.1999,14.3821,10.5029,29.2834,1.013,44.1646
		c-1.4572,2.285-0.704,3.7119,1.2237,5.0911c2.2686,1.623,3.5749,0.402,5.0944-1.2808c6.6945-7.4137,8.9787-16.5391,9.4197-26.0378
		c0.2167-4.6686,1.2939-8.4552,5.6755-9.5298c5.2352-1.2839,6.4684,3.9133,8.4276,7.1812
		c7.3485,12.2567,9.0735,26.1702,10.4481,39.9252c1.4347,14.3555-3.1031,27.2633-14.4387,36.5887
		c-3.8991,3.2076-9.2603,4.6724-11.9158,9.5631c5.7734,1.408,11.1677-1.084,16.7429-1.6956c0.8851-0.097,1.6345-1.1261,2.5181-1.587
		c17.7817-9.2755,22.823-24.9014,21.8379-43.5892c-0.1269-2.4073-2.2231-5.7529,2.2206-6.5341
		c2.8064-0.4933,5.0396-1.1608,8.005,1.7815c0.9805,0.9729,1.9869,1.9144,3.0176,2.8247c1.3689-0.1306,2.7366-0.3008,4.1016-0.5115
		c4.1285-0.6373,5.5429,1.2152,7.5234,3.2639c3.1359,3.2439-0.5264,4.7184-2.0441,6.5914
		c-11.7814,14.5398-16.8876,30.1445-7.9539,48.1003c0.444,0.8923,0.4454,2.1653,1.1044,2.7642
		c4.1509,3.7717,7.0502,8.9585,12.5487,11.2129c0.7263-5.5176-2.7501-9.8538-4.0191-14.7407
		c-3.6894-14.2073,0.2265-27.3171,9.8251-38.0878c9.1971-10.3199,18.7708-20.5623,31.9201-26.1588
		c3.5059-1.4922,7.5585-4.972,11.0391-0.8561c2.9131,3.4447,1.5588,7.1414-1.0099,11.0457
		c-5.2265,7.944-8.7423,16.6692-7.684,26.6019c0.2402,2.2545,0.5793,4.0101,3.3687,4.0305
		c2.3702,0.0173,3.8182-0.6943,3.9825-3.3995c1.0693-17.6171,15.7365-25.3799,26.7787-35.1344
		c16.342-14.4359,31.4696-29.8706,46.1403-45.9609c13.0216-14.2816,19.7822-31.5402,27.1879-48.7151
		c1.4036-3.2552,2.0863-9.2415,7.9253-7.0167c1.1693,0.4456,2.1671,1.0208,2.9921,1.7037c0.8249-0.683,1.8228-1.2582,2.9921-1.7037
		c5.8389-2.2247,6.5216,3.7615,7.9252,7.0167c7.4058,17.1749,14.1663,34.4335,27.1879,48.7151
		c14.6708,16.0903,29.7983,31.525,46.1403,45.9609c11.0424,9.7545,25.7095,17.5173,26.7788,35.1344
		c0.1642,2.7052,1.6122,3.4169,3.9824,3.3995c2.7893-0.0204,3.1284-1.776,3.3687-4.0305c1.0583-9.9327-2.4575-18.658-7.684-26.6019
		c-2.5688-3.9043-3.9231-7.601-1.0099-11.0457c3.4807-4.116,7.5333-0.6361,11.0391,0.8561
		c13.1494,5.5966,22.723,15.8389,31.9201,26.1588c9.5986,10.7706,13.5145,23.8805,9.8251,38.0878
		c-1.269,4.887-4.7454,9.2231-4.019,14.7407c5.4984-2.2544,8.3978-7.4412,12.5486-11.2129c0.659-0.5989,0.6604-1.8718,1.1044-2.7642
		c8.9337-17.9558,3.8275-33.5605-7.9539-48.1003c-1.5177-1.873-5.18-3.3475-2.0441-6.5914
		c1.9805-2.0487,3.3948-3.9012,7.5234-3.2639c1.3651,0.2107,2.7327,0.3809,4.1016,0.5115c1.0307-0.9103,2.0371-1.8518,3.0176-2.8247
		c2.9655-2.9423,5.1986-2.2748,8.0051-1.7815c4.4437,0.7811,2.3475,4.1267,2.2206,6.5341
		c-0.985,18.6879,4.0562,34.3137,21.8379,43.5892c0.8837,0.4609,1.6331,1.49,2.5182,1.587
		c5.5751,0.6116,10.9694,3.1035,16.7428,1.6956c-2.6555-4.8907-8.0167-6.3555-11.9158-9.5631
		c-11.3356-9.3254-15.8734-22.2333-14.4387-36.5887c1.3746-13.755,3.0996-27.6685,10.4481-39.9252
		c1.9591-3.2678,3.1924-8.4651,8.4276-7.1812c4.3816,1.0746,5.4587,4.8612,5.6754,9.5298
		c0.441,9.4988,2.7252,18.6241,9.4198,26.0378c1.5194,1.6827,2.8258,2.9038,5.0944,1.2808c1.9276-1.3792,2.6809-2.806,1.2236-5.0911
		c-9.4899-14.8811-2.1869-29.7825,1.0131-44.1646c4.7356-21.2844,7.9019-42.6632,10.3131-64.3037
		c2.1401-19.2081-2.5347-37.1443-6.6385-55.392c-0.7778-3.4586-3.7441-8.7029,2.2874-10.3351
		c1.2079-0.3268,2.3533-0.448,3.4221-0.3804c0.2659-1.0374,0.7351-2.0892,1.4192-3.137c3.4161-5.2319,7.4871-0.7903,10.536,1.0183
		c16.0865,9.5417,31.7002,19.5304,50.6295,23.4305c21.3265,4.3942,42.6372,7.9893,64.3435,10.0626
		c14.6669,1.4011,31.0957-0.9398,42.3159,12.6842c1.7229,2.0919,3.3127,1.8165,5.2201,0.4094
		c2.2445-1.656,1.4869-3.2756,0.3562-5.2407c-4.9822-8.6578-12.9551-13.6503-21.8527-17.0049
		c-4.3732-1.6489-7.6416-3.8434-7.3096-8.3427c0.3966-5.3757,5.7206-4.9425,9.434-5.796
		c13.9276-3.2013,27.6931-0.5424,41.1997,2.4008c14.0963,3.0717,24.9701,11.3761,30.3362,25.0386
		c1.8457,4.6996,1.582,10.251,5.4128,14.2878c3.1232-5.0558,2.4202-10.9561,3.5613-16.4474
		c0.1812-0.8717-0.5659-1.9025-0.7312-2.8853c-3.3268-19.7777-16.6299-29.4009-34.7075-34.2389
		c-2.3289-0.6233-6.1583,0.3365-5.5281-4.1311c0.3981-2.8215,0.4534-5.1516,4.168-7.0626c1.2283-0.632,2.4347-1.2981,3.6189-1.9971
		c0.2988-1.3423,0.5596-2.6956,0.781-4.0588c0.6697-4.1234,2.8687-4.8961,5.4291-6.1466c4.0542-1.98,4.3247,1.9587,5.6371,3.981
		c10.1876,15.6979,23.4507,25.3762,43.2883,22.4285c0.9858-0.1465,2.1969,0.2455,2.9701-0.1962
		c4.8699-2.7822,10.6987-3.9369,14.5419-8.4696c-5.0231-2.3958-10.2213-0.4296-15.2612-0.7327
		c-14.652-0.8816-25.9102-8.657-33.1874-21.1141c-6.9729-11.9359-13.7555-24.2061-15.0148-38.4413
		c-0.3357-3.7954-2.3929-8.725,2.597-10.7634c4.1765-1.7061,7.2736,0.7242,10.1931,4.3739
		c5.9401,7.4254,13.1517,13.4653,22.9254,15.5283c2.2184,0.4681,3.9929,0.6882,4.8743-1.9583
		c0.7488-2.2489,0.5194-3.8459-2.0026-4.8381c-16.4244-6.4609-19.2749-22.8091-25.1396-36.3252
		c-8.6796-20.0032-18.6841-39.1599-29.4534-58.0848c-9.5587-16.7976-23.8834-28.5604-37.9292-40.9111
		c-2.6622-2.3408-8.1445-4.84-4.2242-9.7057c0.785-0.9744,1.6404-1.7456,2.5448-2.3191c-0.3945-0.9956-0.6333-2.1224-0.6957-3.3721
		c-0.3115-6.2407,5.5927-5.0401,9.1224-5.3691c18.6228-1.736,37.1256-2.8325,54.7323-10.8035
		c19.8363-8.9805,39.1902-18.5981,57.9696-29.6793c12.6893-7.4876,24.6046-19.038,41.6898-14.611
		c2.6235,0.6797,3.7478-0.4775,4.4639-2.7371c0.8425-2.6591-0.7224-3.5241-2.7924-4.4492
		c-9.1195-4.0759-18.5043-3.4284-27.6743-0.9125c-4.5071,1.2365-8.4413,1.3822-10.8173-2.4529
		c-2.8389-4.5822,1.723-7.3611,4.2255-10.2343c9.386-10.7764,22.0854-16.7164,34.7424-22.2743
		c13.2096-5.8005,26.8879-5.4736,39.2598,2.4255c4.2555,2.7171,7.3053,7.3632,12.7772,8.3775
		c-0.4449-5.926-4.4819-10.2862-6.7864-15.3995c-0.3658-0.8118-1.576-1.2065-2.2875-1.9045
		c-14.3164-14.045-30.7352-14.011-48.2041-7.2992c-2.2504,0.8646-4.7844,3.892-6.9005-0.0928
		c-1.3364-2.5166-2.6613-4.4342-0.7793-8.1638c0.6222-1.2331,1.2067-2.4813,1.7539-3.7427
		c-0.5472-1.2615-1.1317-2.5096-1.7539-3.7428c-1.882-3.7296-0.5571-5.6471,0.7793-8.1638
		c2.1161-3.9848,4.6501-0.9574,6.9005-0.0928c17.4689,6.7117,33.8877,6.7458,48.2041-7.2993
		c0.7114-0.698,1.9216-1.0927,2.2875-1.9045c2.3044-5.1133,6.3414-9.4735,6.7864-15.3995
		c-5.4719,1.0143-8.5217,5.6605-12.7772,8.3775c-12.3718,7.899-26.0502,8.226-39.2598,2.4255
		c-12.657-5.5579-25.3564-11.4979-34.7424-22.2743c-2.5024-2.8731-7.0643-5.652-4.2255-10.2343
		c2.376-3.8351,6.3102-3.6893,10.8173-2.4528c9.17,2.5159,18.5548,3.1633,27.6743-0.9126c2.0699-0.9251,3.6349-1.7902,2.7924-4.4492
		c-0.7161-2.2595-1.8403-3.4168-4.4639-2.7371c-17.0852,4.427-29.0005-7.1234-41.6898-14.611
		c-18.7794-11.0812-38.1333-20.6989-57.9696-29.6793c-17.6067-7.971-36.1095-9.0676-54.7323-10.8035
		c-3.5298-0.329-9.434,0.8716-9.1224-5.3691c0.0624-1.2498,0.3011-2.3765,0.6957-3.3721c-0.9044-0.5735-1.7598-1.3448-2.5448-2.3192
		c-3.9203-4.8657,1.562-7.3648,4.2242-9.7057c14.0458-12.3506,28.3705-24.1135,37.9292-40.911
		c10.7693-18.9249,20.7738-38.0817,29.4534-58.0848c5.8647-13.5162,8.7152-29.8643,25.1396-36.3253
		c2.522-0.9921,2.7513-2.5892,2.0026-4.8381c-0.8813-2.6465-2.6559-2.4265-4.8743-1.9583
		c-9.7737,2.0629-16.9854,8.1028-22.9254,15.5283c-2.9196,3.6496-6.0166,6.0799-10.1931,4.3738
		c-4.99-2.0385-2.9327-6.968-2.597-10.7634c1.2593-14.2352,8.0419-26.5054,15.0148-38.4414
		c7.2772-12.4571,18.5354-20.2325,33.1874-21.114c5.0399-0.3032,10.2382,1.663,15.2612-0.7327
		c-3.8431-4.5327-9.672-5.6873-14.5419-8.4695c-0.7732-0.4417-1.9843-0.0497-2.9701-0.1962
		c-19.8376-2.9478-33.1007,6.7306-43.2883,22.4285c-1.3124,2.0222-1.5829,5.9609-5.6371,3.9809
		c-2.5604-1.2505-4.7594-2.0231-5.4291-6.1465c-0.2214-1.3634-0.4822-2.7167-0.781-4.0589
		c-1.1842-0.6989-2.3906-1.3652-3.6189-1.997c-3.7146-1.9111-3.7699-4.2411-4.168-7.0627
		c-0.6302-4.4676,3.1992-3.5078,5.5281-4.1311c18.0776-4.838,31.3807-14.4612,34.7075-34.2389
		c0.1653-0.9828,0.9124-2.0135,0.7312-2.8853c-1.1411-5.4913-0.4381-11.3916-3.5613-16.4473
		c-3.8308,4.0369-3.5671,9.5883-5.4128,14.2878c-5.3661,13.6625-16.2399,21.9669-30.3362,25.0386
		c-13.5066,2.9431-27.2721,5.6021-41.1997,2.4008c-3.7134-0.8535-9.0374-0.4203-9.434-5.7961
		c-0.332-4.4992,2.9364-6.6938,7.3096-8.3426c8.8976-3.3547,16.8705-8.347,21.8527-17.0049
		c1.1307-1.9651,1.8883-3.5847-0.3562-5.2408c-1.9073-1.4072-3.4972-1.6826-5.2201,0.4095
		c-11.2202,13.624-27.649,11.2831-42.3159,12.6841c-21.7063,2.0734-43.017,5.6685-64.3435,10.0626
		c-18.9293,3.9002-34.543,13.8889-50.6295,23.4306c-3.049,1.8085-7.1199,6.2502-10.536,1.0183
		C1087.1843,488.7386,1086.7151,487.6868,1086.4492,486.6494z M1005.3293,306.9015c14.5,10.5833,27.0851,23.6904,36.6129,40.4991
		c1.8165,3.2049,3.6599,6.0568,1.3851,9.2299c-2.6517,3.6988-6.4001,2.5915-10.1567,1.398
		c-3.7156-1.1805-6.9988-4.601-11.4844-2.4959c-1.922,0.902-5.1766-0.3358-5.298,3.343c-0.0778,2.355,1.4062,3.7419,3.2894,4.7646
		c11.4713,6.2293,20.7251,14.1595,28.2137,25.5324c15.1182,22.9596,20.1422,48.0046,20.5117,74.6612
		c0.0441,3.1782,1.7648,6.9271-3.8372,7.5487c-4.2751,0.4744-6.2604-0.5995-8.6521-4.6755
		c-5.609-9.5594-17.9099-14.2003-27.4667-11.8125c24.8937,23.8478,30.6761,43.0131,26.9443,74.5023
		c28.7948-13.2799,48.809-13.7028,79.1821,2.6031c-0.6823-9.8268-8.8972-20.0916-19.722-22.4721
		c-4.6156-1.015-6.2504-2.5713-7.1202-6.7837c-1.14-5.5199,2.9572-5.0418,5.9934-5.9821
		c25.4662-7.8859,50.8379-10.8471,77.3456-3.5638c13.1304,3.6077,23.532,9.9579,33.0012,18.9429
		c1.5546,1.475,3.3322,2.4578,5.5479,1.6561c3.4612-1.2524,1.2783-3.9651,1.5422-6.0718c0.6158-4.9166-3.6517-6.9821-5.9226-10.1511
		c-2.2959-3.2038-4.5074-6.4266-1.8091-10.0916c2.3149-3.144,5.5968-2.2722,9.2063-1.5349
		c18.9303,3.8672,35.2848,11.786,49.8309,22.3059c5.51,17.085,7.9874,35.0862,5.8156,54.2849
		c-0.4141,3.6606-0.5991,7.0513-4.3046,8.2813c-4.3195,1.4338-6.7012-1.6653-9.0387-4.8389
		c-2.3121-3.1391-2.9578-7.8361-7.8241-8.7696c-2.0851-0.4-3.9906-3.3144-6.2512-0.4096c-1.4471,1.8595-1.0618,3.8538-0.1393,5.7881
		c5.619,11.7823,8.4442,23.6371,7.8179,37.2397c-1.2645,27.4609-11.921,50.6758-27.2904,72.4587
		c-1.8325,2.5972-2.6439,6.6415-7.5414,3.8516c-3.7374-2.1291-4.7124-4.1648-4.2515-8.8682
		c1.0811-11.0306-6.1427-22.0155-15.2778-25.701c6.1221,33.9254-0.4648,52.8293-21.9929,76.1111
		c31.1012,6.1815,47.5415,17.6033,62.5297,48.648c5.2241-8.3511,4.6116-21.4841-2.7467-29.7726
		c-3.1375-3.5341-3.5453-5.7542-1.7731-9.6733c2.3223-5.1358,5.356-2.3408,8.365-1.3167
		c25.2378,8.5887,47.5045,21.1063,64.6686,42.5793c8.5022,10.6365,13.1847,21.8879,15.5642,34.7228
		c0.3906,2.1071,1.2511,3.947,3.5149,4.6008c3.5363,1.0212,3.3647-2.4565,4.8165-4.0057c3.3882-3.6155,1.1498-7.795,1.1752-11.6936
		c0.0258-3.9415,0.131-7.8487,4.4683-9.2275c3.7207-1.1829,5.8634,1.4514,8.3501,4.1695
		c13.0419,14.2556,21.6184,30.275,27.203,47.3358c-5.5846,17.0607-14.1611,33.0801-27.203,47.3358
		c-2.4867,2.7181-4.6294,5.3525-8.3501,4.1696c-4.3373-1.3789-4.4425-5.2861-4.4683-9.2275
		c-0.0254-3.8986,2.213-8.0781-1.1752-11.6937c-1.4518-1.5492-1.2803-5.027-4.8165-4.0057
		c-2.2638,0.6537-3.1243,2.4937-3.5149,4.6008c-2.3795,12.8348-7.062,24.0862-15.5642,34.7228
		c-17.1641,21.4731-39.4308,33.9906-64.6686,42.5794c-3.009,1.024-6.0427,3.819-8.365-1.3167
		c-1.7722-3.9193-1.3644-6.1393,1.7731-9.6734c7.3583-8.2885,7.9708-21.4216,2.7467-29.7726
		c-14.9882,31.0446-31.4285,42.4665-62.5297,48.6479c21.5281,23.2818,28.115,42.1857,21.9929,76.1111
		c9.1351-3.6854,16.3589-14.6704,15.2778-25.701c-0.4609-4.7033,0.514-6.7391,4.2515-8.8681
		c4.8975-2.7899,5.7089,1.2545,7.5414,3.8516c15.3694,21.7828,26.0259,44.9978,27.2904,72.4587
		c0.6263,13.6025-2.1989,25.4574-7.8179,37.2397c-0.9225,1.9342-1.3079,3.9286,0.1393,5.7881
		c2.2606,2.9048,4.1661-0.0096,6.2512-0.4097c4.8663-0.9335,5.512-5.6305,7.8241-8.7695c2.3375-3.1736,4.7192-6.2727,9.0387-4.8389
		c3.7054,1.23,3.8905,4.6207,4.3046,8.2813c2.1719,19.1989-0.3055,37.2-5.8156,54.2849
		c-14.5461,10.5199-30.9006,18.4387-49.8309,22.306c-3.6095,0.7373-6.8914,1.6091-9.2063-1.5349
		c-2.6984-3.6649-0.4868-6.8877,1.8091-10.0916c2.2709-3.1689,6.5385-5.2345,5.9226-10.1511
		c-0.2639-2.1067,1.9189-4.8195-1.5422-6.0718c-2.2157-0.8018-3.9933,0.181-5.5479,1.6561
		c-9.4692,8.985-19.8708,15.3352-33.0012,18.9429c-26.5077,7.2833-51.8794,4.3221-77.3456-3.5637
		c-3.0363-0.9403-7.1334-0.4622-5.9934-5.9821c0.8699-4.2124,2.5046-5.7688,7.1202-6.7838
		c10.8248-2.3804,19.0398-12.6453,19.722-22.472c-30.3732,16.3059-50.3873,15.8829-79.1821,2.603
		c3.7318,31.4893-2.0507,50.6544-26.9443,74.5023c9.5568,2.3878,21.8577-2.2532,27.4667-11.8125
		c2.3917-4.076,4.377-5.1499,8.6521-4.6755c5.6019,0.6216,3.8812,4.3705,3.8372,7.5487
		c-0.3695,26.6566-5.3936,51.7017-20.5117,74.6613c-7.4886,11.3729-16.7424,19.3031-28.2137,25.5323
		c-1.8832,1.0227-3.3672,2.4095-3.2894,4.7645c0.1215,3.6788,3.376,2.441,5.298,3.343c4.4857,2.1051,7.7689-1.3153,11.4844-2.4958
		c3.7566-1.1935,7.505-2.3008,10.1567,1.3981c2.2748,3.1731,0.4314,6.025-1.3851,9.2299
		c-9.5277,16.8087-22.1129,29.9158-36.6129,40.4991c-17.9515-0.0392-35.8372-3.2457-53.4252-11.244
		c-3.3534-1.525-6.521-2.7488-6.5458-6.653c-0.0289-4.5511,3.6546-5.8585,7.3952-7.101c3.6999-1.229,8.3666-0.3916,10.7581-4.7312
		c1.0248-1.8595,4.3853-2.7711,2.3213-5.8187c-1.3213-1.9509-3.3371-2.2007-5.4617-1.9211
		c-12.942,1.7031-25.0897,0.7267-37.8329-4.0725c-25.7261-9.6885-44.5118-26.9972-60.4791-48.3457
		c-1.9037-2.5453-5.4995-4.5668-1.3326-8.3624c3.1797-2.8966,5.4171-3.1948,9.7478-1.303
		c10.1567,4.4368,22.8362,0.9611,29.1642-6.588c-34.1568-4.6611-50.1-16.7673-65.5897-44.4362
		c-15.4897,27.6688-31.433,39.775-65.5897,44.4362c6.3279,7.5491,19.0076,11.0248,29.1642,6.588
		c4.3307-1.8918,6.5681-1.5936,9.7479,1.303c4.1667,3.7957,0.571,5.8171-1.3327,8.3624
		c-15.9673,21.3485-34.7529,38.6572-60.4791,48.3457c-12.7433,4.7992-24.8909,5.7756-37.8329,4.0725
		c-2.1247-0.2795-4.1404-0.0298-5.4618,1.9211c-2.064,3.0476,1.2965,3.9592,2.3213,5.8187
		c2.3916,4.3396,7.0582,3.5022,10.7582,4.7312c3.7405,1.2424,7.424,2.5498,7.3951,7.101c-0.0248,3.9042-3.1923,5.1279-6.5458,6.653
		c-17.5881,7.9983-35.4738,11.2048-53.4252,11.244c-14.5-10.5834-27.0851-23.6904-36.6128-40.4991
		c-1.8166-3.2048-3.6599-6.0568-1.3851-9.2299c2.6517-3.6989,6.4001-2.5916,10.1567-1.3981
		c3.7156,1.1805,6.9988,4.601,11.4844,2.4958c1.9221-0.902,5.1766,0.3358,5.2981-3.343c0.0778-2.355-1.4063-3.7418-3.2895-4.7645
		c-11.4713-6.2292-20.7251-14.1594-28.2137-25.5323c-15.1181-22.9596-20.1422-48.0046-20.5117-74.6613
		c-0.0441-3.1782-1.7649-6.9271,3.8372-7.5487c4.2751-0.4744,6.2604,0.5995,8.652,4.6755
		c5.6089,9.5593,17.91,14.2003,27.4667,11.8125c-24.8937-23.8479-30.6762-43.0131-26.9443-74.5023
		c-28.7948,13.2799-48.809,13.7029-79.1821-2.603c0.6822,9.8268,8.8972,20.0917,19.722,22.472
		c4.6155,1.015,6.2504,2.5714,7.1203,6.7838c1.14,5.5199-2.9572,5.0417-5.9935,5.9821
		c-25.4661,7.8859-50.8379,10.847-77.3455,3.5637c-13.1304-3.6077-23.532-9.9579-33.0013-18.9429
		c-1.5546-1.4751-3.3322-2.4579-5.5479-1.6561c-3.4612,1.2523-1.2783,3.9651-1.5422,6.0718
		c-0.6159,4.9166,3.6517,6.9822,5.9226,10.1511c2.2959,3.2039,4.5074,6.4266,1.809,10.0916
		c-2.3149,3.144-5.5968,2.2722-9.2062,1.5349c-18.9303-3.8673-35.2849-11.7861-49.831-22.306
		c-5.51-17.085-7.9874-35.0861-5.8156-54.2849c0.4141-3.6605,0.5991-7.0513,4.3046-8.2813
		c4.3194-1.4338,6.7011,1.6653,9.0386,4.8389c2.3121,3.139,2.9578,7.8361,7.8241,8.7695c2.0852,0.4,3.9906,3.3145,6.2512,0.4097
		c1.4472-1.8595,1.0618-3.8539,0.1393-5.7881c-5.619-11.7823-8.4442-23.6372-7.8178-37.2397
		c1.2645-27.4609,11.921-50.6759,27.2905-72.4587c1.8325-2.5971,2.6438-6.6415,7.5414-3.8516
		c3.7374,2.129,4.7124,4.1648,4.2514,8.8681c-1.0811,11.0306,6.1428,22.0156,15.2778,25.701
		c-6.122-33.9254,0.4649-52.8293,21.993-76.1111c-31.1012-6.1815-47.5416-17.6033-62.5296-48.6479
		c-5.2242,8.351-4.6116,21.4841,2.7466,29.7726c3.1375,3.5341,3.5453,5.7542,1.7731,9.6734
		c-2.3223,5.1357-5.3559,2.3407-8.365,1.3167c-25.2378-8.5888-47.5044-21.1063-64.6686-42.5794
		c-8.5021-10.6365-13.1846-21.8879-15.5642-34.7228c-0.3907-2.1071-1.2511-3.9471-3.5149-4.6008
		c-3.5363-1.0213-3.3648,2.4565-4.8166,4.0057c-3.3882,3.6155-1.1497,7.795-1.1752,11.6937
		c-0.0258,3.9414-0.131,7.8486-4.4682,9.2275c-3.7208,1.1829-5.8635-1.4515-8.3501-4.1696
		c-13.0418-14.2556-21.6184-30.275-27.203-47.3358c5.5846-17.0608,14.1612-33.0802,27.203-47.3358
		c2.4867-2.7181,4.6293-5.3524,8.3501-4.1695c4.3372,1.3788,4.4424,5.2861,4.4682,9.2275c0.0255,3.8986-2.213,8.0781,1.1752,11.6936
		c1.4518,1.5493,1.2803,5.027,4.8166,4.0057c2.2638-0.6537,3.1242-2.4937,3.5149-4.6008
		c2.3795-12.8349,7.062-24.0863,15.5642-34.7228c17.1642-21.4731,39.4308-33.9906,64.6686-42.5793
		c3.0091-1.024,6.0427-3.8191,8.365,1.3167c1.7722,3.9192,1.3644,6.1392-1.7731,9.6733
		c-7.3582,8.2885-7.9708,21.4216-2.7466,29.7726c14.988-31.0447,31.4284-42.4666,62.5296-48.648
		c-21.528-23.2817-28.1149-42.1857-21.993-76.1111c-9.1351,3.6855-16.3589,14.6704-15.2778,25.701
		c0.461,4.7034-0.514,6.7391-4.2514,8.8682c-4.8975,2.7899-5.7089-1.2545-7.5414-3.8516
		c-15.3694-21.7828-26.0259-44.9977-27.2905-72.4587c-0.6264-13.6026,2.1988-25.4575,7.8178-37.2397
		c0.9225-1.9343,1.3079-3.9286-0.1393-5.7881c-2.2606-2.9048-4.166,0.0096-6.2512,0.4096
		c-4.8662,0.9335-5.5119,5.6305-7.8241,8.7696c-2.3376,3.1735-4.7193,6.2727-9.0386,4.8389
		c-3.7055-1.23-3.8905-4.6207-4.3046-8.2813c-2.1718-19.1988,0.3056-37.2,5.8156-54.2849
		c14.5461-10.5199,30.9006-18.4387,49.831-22.3059c3.6094-0.7373,6.8913-1.6092,9.2062,1.5349
		c2.6984,3.6649,0.4869,6.8877-1.809,10.0916c-2.2709,3.169-6.5385,5.2346-5.9226,10.1511c0.2639,2.1067-1.919,4.8195,1.5422,6.0718
		c2.2157,0.8017,3.9933-0.1811,5.5479-1.6561c9.4692-8.985,19.8709-15.3352,33.0013-18.9429
		c26.5077-7.2833,51.8794-4.3221,77.3455,3.5638c3.0363,0.9402,7.1334,0.4621,5.9935,5.9821
		c-0.8699,4.2124-2.5048,5.7687-7.1203,6.7837c-10.8248,2.3805-19.0398,12.6453-19.722,22.4721
		c30.3732-16.3059,50.3873-15.883,79.1821-2.6031c-3.7319-31.4892,2.0506-50.6544,26.9443-74.5023
		c-9.5567-2.3879-21.8577,2.2531-27.4667,11.8125c-2.3917,4.076-4.377,5.1499-8.652,4.6755
		c-5.6021-0.6216-3.8812-4.3705-3.8372-7.5487c0.3694-26.6566,5.3936-51.7016,20.5117-74.6612
		c7.4886-11.3729,16.7424-19.3031,28.2137-25.5324c1.8832-1.0227,3.3672-2.4095,3.2895-4.7646
		c-0.1215-3.6788-3.376-2.441-5.2981-3.343c-4.4856-2.1051-7.7688,1.3154-11.4844,2.4959c-3.7565,1.1935-7.505,2.3008-10.1567-1.398
		c-2.2748-3.1732-0.4315-6.025,1.3851-9.2299c9.5277-16.8087,22.1128-29.9158,36.6128-40.4991
		c17.9515,0.0392,35.8372,3.2457,53.4252,11.244c3.3535,1.525,6.521,2.7488,6.5458,6.653c0.0289,4.551-3.6546,5.8585-7.3951,7.1009
		c-3.7,1.2289-8.3666,0.3916-10.7582,4.7312c-1.0248,1.8595-4.3853,2.7711-2.3213,5.8187c1.3214,1.951,3.3371,2.2007,5.4618,1.9211
		c12.942-1.7031,25.0897-0.7267,37.8329,4.0725c25.7261,9.6885,44.5118,26.9972,60.4791,48.3457
		c1.9037,2.5453,5.4995,4.5668,1.3327,8.3625c-3.1798,2.8966-5.4172,3.1948-9.7479,1.3029
		c-10.1566-4.4368-22.8362-0.9611-29.1642,6.588c34.1567,4.6612,50.1,16.7673,65.5897,44.4362
		c15.4897-27.6689,31.4329-39.775,65.5897-44.4362c-6.328-7.5491-19.0076-11.0248-29.1642-6.588
		c-4.3307,1.8918-6.5681,1.5937-9.7478-1.3029c-4.1668-3.7957-0.5711-5.8171,1.3326-8.3625
		c15.9673-21.3485,34.753-38.6572,60.4791-48.3457c12.7432-4.7992,24.8909-5.7756,37.8329-4.0725
		c2.1246,0.2796,4.1404,0.0298,5.4617-1.9211c2.064-3.0476-1.2965-3.9592-2.3213-5.8187
		c-2.3915-4.3396-7.0582-3.5023-10.7581-4.7312c-3.7406-1.2424-7.4241-2.5499-7.3952-7.1009
		c0.0248-3.9042,3.1924-5.128,6.5458-6.653C969.4921,310.1472,987.3778,306.9407,1005.3293,306.9015z"/>
</g>
</svg>
