<?xml version="1.0" encoding="UTF-8" standalone="no"?>
<svg id="svg4141" xmlns:rdf="http://www.w3.org/1999/02/22-rdf-syntax-ns#" xmlns="http://www.w3.org/2000/svg" height="910" viewBox="0 0 985 910" width="985" version="1.1" xmlns:cc="http://creativecommons.org/ns#" xmlns:dc="http://purl.org/dc/elements/1.1/">
<path id="path4151" d="m884.58 898.57c-5.16-9.22-10.97-17.55-24.08-34.52-33.34-43.13-46.32-78.88-51.83-142.72l-1.19-13.83-2.6896 11c-1.4793 6.05-3.8848 20-5.3457 31-3.99 30.044-11.107 53.113-21.083 68.336-6.3875 9.7478-17.428 12.452-50.362 12.337-44.212-0.1549-55.673-7.7848-36.373-24.215 7.7971-6.6378 24.136-24.245 31.511-33.958 2.2969-3.025 7.2988-12.025 11.115-20 12.331-25.767 21.343-36.722 52.997-64.427 8.1125-7.1004 14.75-13.535 14.75-14.3 0-1.5648-0.17977-1.476-7.7777 3.8409-27.292 19.099-76.939 23.906-97.962 9.4853-17.17-11.778-23.72-46.226-10.731-56.443 1.3215-1.0394 4.1986-4.162 6.3936-6.9389 7.0301-8.8938 22.888-14.717 43.293-15.898 5.8937-0.34113 10.503-0.9646 10.243-1.3855-0.93421-1.5116 1.5926-6.0736 5.9361-10.717 2.9068-3.1076 4.6686-6.0368 5.139-8.5439 1.4061-7.4952 7.9769-12.655 16.167-12.696l4.7997-0.0237-5.9102-2.4297c-16.74-6.882-27.029-33.25-17.635-45.193 1.7852-2.2695 1.8323-2.6855 0.45949-4.0583-0.84127-0.84128-1.2928-2.1466-1.0035-2.9006 0.33-0.84-0.16-1.37-1.25-1.37-4.31 0-14.81-5.1803-18.773-9.2618-2.27-2.33-6.45-5.82-9.3-7.74-11.77-7.96-19.82-20.72-18.2-28.82 0.61-3.03 1.11-5.83 1.11-6.22 0-0.38585-1.8343-0.94758-4.0762-1.2483-5.6884-0.76299-18.882-9.2769-21.303-13.747l-1.88-3.46-12.62-0.09c-10.74-0.08-13.74-0.47-20.12-2.64-4.125-1.401-9.459-2.8698-11.853-3.264-3.2082-0.52816-5.3476-1.7412-8.133-4.6113-2.08-2.14-4.56-3.89-5.53-3.89-18.331 0-18.874-18.11-0.74925-24.99l4.562-1.7317-3.4056-0.63889c-3.862-0.72452-11.249-4.4492-17.89-9.0204-2.475-1.7036-6.8209-4.0476-9.6575-5.2089-7.0426-2.8832-13.86-6.9794-18.315-11.004l-3.7238-3.3642-0.64706 11.229c-0.35589 6.1762-0.64911 17.831-0.65161 25.899l-0.005 14.67 5.0127 1.665c53.408 17.739 41.665 122.08-13.307 118.23-53.976-3.7804-58.55-109.3-5.1718-119.31l3.3132-0.62157 0.54636-7.153c0.30049-3.9342 0.80332-13.678 1.1174-21.653 0.31407-7.975 0.83085-16.603 1.1484-19.172l0.57736-4.6724-7.3685-2.1085c-12.44-3.5597-14.204-4.6192-13.506-8.1108 0.66481-3.324-1.4151-2.9088-5.9194 1.1816-3.0514 2.7711-10.13 3.4061-16.695 1.4975-3.83-1.1-9.53-1.61-18.22-1.61-12.643 0-12.655-0.002-15.346-2.8732-1.4815-1.5803-5.5182-4.1222-8.9706-5.6486-7.5033-3.3177-11.966-8.0172-12.847-13.53-0.56179-3.5132-0.89705-3.9168-2.7576-3.3195-4.6036 1.4778-9.2989 2.3245-13.015 2.3473l-3.8973 0.0239 0.68721 10.75c0.37797 5.9125 1.1758 17.725 1.7729 26.25 1.4392 20.546 1.4362 67.694-0.006 103-0.67628 16.55-0.88925 38.999-0.50792 53.54l0.65666 25.04 5.5997 1.6503c55.063 16.228 39.34 128.16-16.552 117.83-50.604-9.3547-54.891-101.1-5.4996-117.71l6.6438-2.2346 0.6825-41.806c0.37537-22.993 1.1864-47.431 1.8023-54.306 2.3236-25.937 2.5464-122 0.28306-122-1.0835 0-4.1118-1.1388-6.7295-2.5307-5.535-2.943-6.2256-2.6432-10.254 4.451-9.7265 17.127-27.351 22.709-36.196 11.464-1.9238-2.4458-2.4647-2.5974-6.8383-1.918-13.207 2.0517-27.148-4.7159-27.296-13.251-0.0443-2.5471-0.41563-2.3142-6 3.7634-6.9816 7.5983-7.1974 8.2299-2.2028 6.4475 2.0625-0.73604 5.6625-1.358 8-1.3822l4.24-0.04v4.4134c0 5.1725-10.044 20.066-14.228 21.097-8.9158 2.1973-14.609-0.59542-15.064-7.3893-0.14789-2.2084-0.59275-4.3392-0.98858-4.735-4.7842-4.7842 13.108-24.867 24.76-27.792 1.3864-0.34796 2.5208-1.3284 2.5208-2.1788 0-16.168 46.9-27.099 57.718-13.452 1.8395 2.3205 1.5204 3.5559-0.4682 1.8123-12.866-11.281-50.25 1.6909-50.25 17.436 0 4.7326 10.066 8.6994 16.458 6.4862l3.6974-1.2801 0.1722-6.459c0.30134-11.303 5.9246-16.387 18.172-16.431 10.029-0.0359 25.121 6.1841 22.169 9.1364-0.75241 0.75241 1.1475 3.3359 2.4532 3.3359 4.404 0-1.4924-8.392-10.167-14.471-4.7111-3.3012-9.4287-7.5935-11.277-10.261-1.7479-2.522-4.8618-6.2752-6.9198-8.3406-19.823-19.894 16.681-31.552 49.719-15.878 14.645 6.9475 19.071 14.434 16.378 27.703-2.2259 10.968 2.3769 19.526 7.5178 13.979 8.9145-9.6189 50.785-4.3837 58.405 7.3025 2.388 3.6621 4.0932 5.1899 6.2806 5.6274 1.6514 0.33028 3.7834 1.5931 4.7377 2.8063 1.1165 1.4194 3.2832 2.4134 6.0773 2.7882 2.6564 0.35631 5.766 1.7266 8.0095 3.5295l3.6673 2.9471-0.3794-6.7145c-0.47228-8.3582 1.1064-11.746 7.2949-15.656 2.4918-1.5743 4.5358-3.5373 4.542-4.3623 0.006-0.825 0.64818-7.35 1.4264-14.5 4.9142-45.147 4.9518-44.766-4.5841-46.403-11.68-2-11.86-2.05-11.86-3.61 0-1.9495-0.21735-1.9112-6.1125 1.0761-5.315 2.6933-14.879 5.8599-21.072 6.9766-4.7367 0.85414-9.5179-0.72446-18.378-6.0679-8.9097-5.3732-14.365-7.2197-26.37-8.9262-24.425-3.472-25.095-18.573-1.3886-31.294 3.7002-1.9855 5.2698-3.3028 4.3176-3.6235-0.82286-0.27717-5.605-1.4703-10.627-2.6515-11.056-2.6004-15.634-5.0866-15.185-8.2462 0.71392-5.0224 25.044 0.74194 32.815 7.7746 0.97005 0.87789 3.5729 1.501 6.2701 1.501 3.9727 0 5.4855 0.66823 10.921 4.824 9.2062 7.0385 10.259 7.6425 23.884 13.7 10.29 4.5747 11.953 5.0835 9.676 2.9598-3.0757-2.8681-3.2775-3.556-1.55-5.2835 2.409-2.409 10.936 0.42765 20.567 6.8418l3.2666 2.1756-1.0579-2.7824c-4.75-12.493 19.886-24.132 36.275-17.138 4.8754 2.0808 4.8628 1.8554-0.75-13.407-5.8159-15.814-6.0024-20.588-1-25.591 3.5492-3.5492 5.3468-10.078 2.013-7.3108-2.73 2.27-14.52-3.84-14.52-7.52 0-2.9455 12.738-2.3138 14.616 0.72487 1.6698 2.7018 1.9522-0.92439 0.34727-4.4598-2.4713-5.4439-2.4611-12.086 0.037-24.227 2.8381-13.793 1.75-32.386-1.8153-31.017-12.415 4.7642-22.374-15.124-15.184-30.322 1.65-3.486 3-6.946 3-7.688 0-12.307 15.425-26.474 25.032-22.991 2.4576 0.89104 6.7184 2.3229 9.4684 3.182 7.2263 2.2574 10.216 4.7697 12.147 10.208l1.6927 4.766 4.9304-3.3179c2.7117-1.8249 5.6727-3.3295 6.5799-3.3437 1.51-0.023 5.15-6.156 5.15-8.667 0-0.57064 0.88393-2.1613 1.9643-3.5347l1.9643-2.4972-4.1417-1.6269c-2.2779-0.8948-4.1839-1.5192-4.2354-1.3877-4.0078 10.234-12.211 16.539-14.036 10.789-1.1182-3.5231 3.175-9.2134 10.321-13.679 0.18511-0.11569-1.4928-2.5247-3.7287-5.3533-12.48-15.792-2.17-30.422 21.4-30.356 47.511 0.13175 57.219 4.8759 39.222 19.166l-3.7782 2.9999 3.614 1.1927c4.03 1.328 10.44 6.508 10.44 8.432 0 0.68449 1.8972 2.1 4.2159 3.1456 15.951 7.1927 13.997 19.213-3.8148 23.469-2.6956 0.64412-11.713 4.6879-20.04 8.9862-16.806 8.6759-20.036 9.6449-26.452 7.9357-4.66-1.242-13.91-9.544-13.91-12.486 0-2.589-1.7673-1.6626-5.619 2.9453-3.7291 4.4612-8.1691 7.122-10.556 6.3263-0.7829-0.26096-1.9113 1.3446-2.9165 4.1497-2.0347 5.6783-9.8749 20.083-9.8941 18.179-0.008-0.76812 1.3947-5.7181 3.1165-11 7.2981-22.388 5.164-26.399-16.916-31.792-5.3485-1.3064-9.998 7.715-5.2434 10.174 7.1129 3.6782 14.89 34.128 9.1758 35.926-0.90605 0.28507 0.69904 0.2958 3.5669 0.0239 6.7707-0.64202 11.327 3.188 17.064 14.345 12.624 24.55 12.343 27.645-3.6636 40.355l-7.38 5.86h8.2191c10.467 0 10.309 1.5092-0.5181 4.9244-4.3612 1.3757-8.1141 2.6276-8.3397 2.782-0.22562 0.15441 0.14653 2.139 0.827 4.4102 0.88377 2.9498 0.92954 4.4371 0.16021 5.2064-1.7696 1.7696-1.2683 2.4621 2.673 3.6932 9.8379 3.0729 18.959 8.1463 20.359 11.324 0.76514 1.7368 2.2912 3.319 3.3912 3.5162 3.2038 0.57412 4.3597 2.0222 6.1517 7.7071l1.6855 5.3472 3.3662-2.9556c9.4416-8.2899 34.651 3.482 32.865 15.347-1.6366 10.873-1.7227 12.807-0.62884 14.125 4.8 5.7837 0.90649 18.132-9.148 29.012-0.9853 1.0662-1.7915 2.4806-1.7915 3.143 0 1.5607-2.2605 2.3939-6.8318 2.5181-2.0175 0.0548-4.6759 0.39232-5.9075 0.75l-2.2393 0.65032 2.0402 3c9.8427 14.473 8.8416 22.762-2.5429 21.055-6.0454-0.90657-18.093-7.0608-20.685-10.566-1.7791-2.4063-2.4695-2.6979-4.5314-1.914-1.34 0.52-4.9 0.94-7.92 0.94h-5.4914l1.8065 3.1418c3.1707 5.5143 24.093 17.479 42.684 24.409 3.0421 1.134 7.1357 4.0006 10.879 7.6182 3.3008 3.19 7.6611 6.5322 9.6895 7.4272 2.0284 0.89493 4.5579 2.9466 5.6211 4.5593s3.0581 3.4785 4.4331 4.1462c2.0497 0.99536 2.5542 2.0502 2.8007 5.8557 0.2978 4.5971 0.33409 4.6407 3.7802 4.543 3.8253-0.10843 20.861 15.328 22.044 19.974 0.48116 1.8898 1.1864 2.152 5.3808 2l4.8271-0.17492-2.044-3.3242c-1.1242-1.8283-2.5974-5.2033-3.2737-7.5-0.97728-3.3188-2.3364-4.9371-6.6226-7.8852-12.82-8.8182-20.127-19.701-20.295-30.227l-0.0983-6.1786-7.1393-6.1439c-11.485-9.884-12.495-11.777-16.354-30.648-2.9369-14.363-1.9742-14.001 5.0671 1.907 3.7664 8.5089 5.525 11.118 11.794 17.5 4.0523 4.125 8.0211 8.4812 8.8195 9.6805 1.451 2.1795 1.4534 2.1787 5.4678-1.8357 13.092-13.092 27.514-11.137 38.376 5.2017 2.7383 4.119 5.3834 6.9661 6.8027 7.3224 8.3426 2.0939 11.409 26.8 5.1664 41.631-1.375 3.2668-2.5069 7.1908-2.5153 8.7199-0.021 3.8171-1.107 5.2141-5.1279 6.5964-5.243 1.8024-4.861 2.863 2.475 6.873 3.7121 2.0291 7.5185 4.6242 8.4588 5.7668l1.7095 2.0776 8-3.9445c24.947-12.301 40.023-2.3222 44.437 29.413 1.9834 14.26-12.329 34.462-28.151 39.736-0.56121 0.18707 0.69612 5.6229 2.8934 12.509 3.2966 10.332 4.0601 11.899 5.0344 10.339 7.992-12.797 42.178-5.1901 42.305 9.4135 0.0143 1.65 0.90596 4.125 1.9815 5.5 3.8038 4.8629 2.0711 9.9996-4.7492 14.08-5.6116 3.357-8.0803 5.8679-8.7451 8.8944-0.77326 3.5206-5.3776 7.893-13.506 12.825-5.224 3.1701-6.4366 4.3738-6.177 6.132 0.40929 2.7724-1.4627 5.0684-4.1325 5.0684-1.9507 0-1.9199 0.15174 0.55883 2.75 3.0359 3.1823 4.7507 7.2065 4.7507 11.148 0 4.769-1.4251 4.4487-2.4875-0.5592-0.91377-4.3072-1.6814-5.291-7.5151-9.6313-3.5736-2.6587-7.8688-6.1557-9.545-7.771-2.22-2.13-4.02-2.93-6.65-2.93-2.0669 0-6.0303-1.278-9.3039-3-12.721-6.6918-22.111-2.7447-21.269 8.9405 0.8891 12.334 12.407 28.616 14.135 19.98 3.5384-17.692 15.3-18.635 31.935-2.5603 4.5225 4.3703 8.3719 7.3192 9.1596 7.0169 0.78508-0.30126 1.6324 0.34057 2.0068 1.5201 0.60119 1.8942 0.87225 1.786 3.7562-1.4987 1.7096-1.9471 6.1018-5.0476 9.7604-6.8901 5.8885-2.9654 6.7898-3.8097 7.8521-7.3553 3.2319-10.787 14.628-11.901 26.798-2.6186 5.1498 3.9279 10.169 20.011 8.0495 25.79-0.84231 2.2964-2.0694 7.5503-2.7269 11.675-1.9136 12.006-3.9315 14.959-10.238 14.985-2.4572 0.01-3.9865 0.54986-4.3672 1.5418-0.32217 0.83958-2.6706 2.7305-5.2186 4.202-2.5481 1.4715-4.9068 3.0709-5.2417 3.5542-0.33488 0.48328-4.0117 1.3562-8.1707 1.9398l-7.5618 1.0611 3.0679 6.2214 3.0679 6.2214 7.6028-7.6223c23.031-23.09 69.204-35.763 85.711-23.524 1.7093 1.2674 6.8843 3.2585 11.5 4.4248 33.35 8.4266 47.63 32.046 35.454 58.642-10.116 22.096-43.23 31.501-84.561 24.016-13.154-2.3821-32.076-6.4776-40.839-8.8394-8.0386-2.1665-7.8296-2.1836-8.2801 0.67656-0.2228 1.4148 2.6015 4.935 9.6522 12.031 5.482 5.5168 14.211 14.967 19.399 21 5.1874 6.0332 15.762 18.093 23.5 26.801 15.931 17.928 20.754 24.561 34.25 47.112 14.234 23.784 19.269 29.94 28.228 34.51 6.6158 3.3752 6.3816 8.7714-0.50571 11.65-10.403 4.3486-62.869 4.5213-73.137 0.24074-3.4281-1.4292-5.9298-2.0915-5.5593-1.4717 0.37048 0.61978 5.9069 8.1019 12.303 16.627 38.44 51.233 38.923 60.433 3.392 64.636l-5.097 0.603-3.7272-6.6649zm21.223-5.0913c9.8217-2.9483 6.3884-11.06-20.027-47.316-35.094-48.167-42.228-64.066-47.212-105.21-1.8498-15.27-3.9701-55.119-3.1584-59.358 0.42604-2.2251 0.31621-2.6736-0.39062-1.5953-0.54081 0.825-0.99019 1.1855-0.99861 0.80103-0.008-0.38444-1.6411-0.0197-3.6281 0.81055-2.4044 1.0046-6.3346 1.4404-11.75 1.3028-7.4656-0.18968-8.1181-0.0502-7.9058 1.6894 12.488 102.35 21.47 128.3 64.354 185.92 7.3778 9.913 14.314 19.741 15.414 21.841 2.2575 4.3084 4.2036 4.4507 15.302 1.119zm-144.47-72.55c7.323-1.3768 9.9423-3.866 15.45-14.683 9.7103-19.071 12.445-27.994 17.695-57.747 3.6085-20.448 4.2812-23.353 9.0314-39 3.8627-12.724 4.9264-26.252 2.2918-29.147l-1.9537-2.1469-11.74 12.147c-35.186 36.404-40.443 43.154-48.515 62.294-8.7355 20.713-13.288 27.036-36.061 50.088l-15.051 15.235 2.8299 0.9865c2.8577 0.9962 14.985 2.7123 24.193 3.4236 7.5327 0.58186 36.33-0.41742 41.831-1.4515zm183.87-2.3772c1.4166-0.60652 0.74841-1.7068-4.0053-6.595-3.138-3.2269-9.5282-11.99-14.2-19.472-4.6721-7.483-11.87-19.005-15.995-25.605s-11.509-16.585-16.41-22.19c-17.488-20.001-52.108-62.219-54.445-66.394-2.0776-3.7124-2.431 0.17246-1.322 14.531 5.7146 73.988 21.714 116.02 47.879 125.79 4.0631 1.5174 54.932 1.4573 58.498-0.0692zm-187.7-133.08c19.068-3.8101 43.066-14.02 42.929-18.264-0.0393-1.213-0.15178-6.2744-0.25-11.248l-0.18-9.04-4.3299 2.5375c-32.315 18.938-96.955 14.51-106.44-7.2908-2.0781-4.7773-2.6101-2.5963-2.0358 8.3455 0.96788 18.441 12.767 32.203 30.338 35.388 3.2817 0.59472 7.0917 1.2815 8.4667 1.5263 4.6313 0.8243 23.436-0.34144 31.5-1.9527zm73.883-9.8558c5.3878-2.2511 10.231-11.512 6.6838-12.78-0.51-0.18-1.66-4.61-2.56-9.83-2.5019-14.575-5.0677-16.995-15.98-15.073-10.516 1.8524-14.574 16.085-9.8985 34.715 1.0176 4.0545 14.695 5.922 21.758 2.9708zm-13.37-7.36c0.007-1.5125 0.9071-5.6026 2-9.0891s1.9871-8.3278 1.9871-10.758c0-4.1568 0.11783-4.3458 1.9836-3.1806 4.5728 2.8557 6.2532 12.647 3.3962 19.787-2.5338 6.3327-9.3925 8.7059-9.3668 3.2411zm124.12 3.3098c41.146-8.7213 41.407-53.656 0.41288-71.079-8.1058-3.445-8.152-3.396-4.2373 4.5022 14.621 29.499-30.526 48.148-87.307 36.065-5.225-1.1119-9.7897-2.0276-10.144-2.0348-0.35404-0.007-0.22426 1.8537 0.28839 4.1353s0.84628 5.9942 0.7414 8.25c-0.10489 2.2558 0.13765 5.986 0.53898 8.2893l0.72968 4.1877 5.6726 0.58182c3.12 0.31999 16.473 2.1359 29.673 4.0354s25.35 3.6233 27 3.8306c7.9553 0.99989 30.532 0.52932 36.631-0.76352zm-172.25-18.63c18.449-1.8445 30.228-6.1077 31.897-11.545 1.191-3.8807 1.2802-3.7976-5.2429-4.8893-2.8646-0.47943-5.2185-1.9148-8.4662-5.1625-3.6292-3.6292-6.0507-4.987-12.532-7.0272-4.4186-1.3908-10.909-3.8278-14.422-5.4154-17.034-7.697-59.165 0.17196-64.049 11.962-7.7501 18.71 20.578 27.299 72.816 22.077zm133.12-16.48c29.856-5.2057 38.33-16.833 24.365-33.429-12.13-14.416-57.916-2.3345-84.85 22.389-9.7454 8.9455-8.3306 10.308 13.485 12.984 7.4071 0.90853 37.869-0.35056 47-1.9427zm-76.51-9.95c-0.33271-1.1-0.86661-4.8157-1.1865-8.257-0.55252-5.9446-0.7332-6.2963-3.6191-7.0441-4.789-1.241-6.9165-4.852-5.6147-9.5302 0.73387-2.6373 0.74795-4.7441 0.0452-6.76-0.56152-1.6108-1.316-5.5363-1.6766-8.7235l-0.65561-5.7948-4.755 0.97405c-3.8731 0.79341-4.6671 1.3103-4.2809 2.787 0.33151 1.2677-0.30692 2.1099-2.1229 2.8003l-2.597 0.98736 2.3349 2.3349c1.6299 1.6299 2.6942 4.4319 3.5249 9.2804 0.65453 3.8201 1.6484 9.5519 2.2087 12.737 0.56025 3.1855 2.1173 7.4108 3.4601 9.3896 1.3428 1.9787 2.4414 4.4334 2.4414 5.4549 0 1.6457 0.74593 1.8291 6.549 1.6105 6.0325-0.2273 6.5013-0.4045 5.9441-2.2468zm-49.49-15.78c0-9.2484 10.847-11.011 21.986-3.5729 6.9418 4.6356 7.7072 4.5292 5.9922-0.83263-3.0766-9.6188-5.1696-13.317-7.5365-13.317-4.1254 0-7.5587-1.9335-12.457-7.0152-7.68-7.97-20.98-6.45-20.98 2.41 0 3.9874-1.8646 7.8486-5.6936 11.79-4.5569 4.6907-3.9339 6.2183 3.3776 8.2813 3.1988 0.90258 7.616 2.2576 9.816 3.0112 5.4196 1.8564 5.5 1.8455 5.5-0.74946zm68.236-7.7225c2.2767-1.1 5.4377-3.575 7.0245-5.5 2.2404-2.718 3.6269-3.5 6.2052-3.5 3.9676 0 4.1531-0.38606 5.5374-11.526 0.58098-4.6753 1.4952-9.655 2.0316-11.066 2.9069-7.6457-6.3532-21.612-15.291-23.063-3.7994-0.61656-3.8501-0.55548-5.2258 6.3005-0.77471 3.8608-2.344 5.2913-10.018 9.1321-6.4406 3.2234-8.8631 5.408-9.9491 8.9716-0.77781 2.5524-0.32323 2.7337 2.7413 1.0936 14.266-7.6347 33.385 8.9898 20.62 17.93-1.0679 0.74802-2.6317 3.0113-3.4749 5.0295-0.84326 2.0182-2.4902 4.6881-3.6598 5.9331-2.6169 2.7855-1.8781 2.8419 3.4581 0.26367zm-49.24-17.83c0-2.3946-0.57158-3.0076-3.6992-3.9675-4.8992-1.5036-5.0214-1.1067-0.97911 3.1794 4.1139 4.362 4.6783 4.457 4.6783 0.78811zm-4.8368-62.586c-1.4782-4.1106-1.6826-4.2849-2.9328-2.5-2.2343 3.1899-5.2846 2.2849-10.298-3.0552-4.5678-4.8653-4.7079-4.9316-6.4219-3.0376-0.96371 1.0649-3.3853 2.4575-5.3813 3.0946-6.6928 2.1364-7.1094 4.1338-0.62908 3.0159 5.7047-0.98408 11.527 0.32809 17.079 3.8489 2.6469 1.6786 6.0187 3.052 7.4928 3.052h2.6803l-1.5889-4.4186zm35.814-11.804c1.4093-3.8151 6.1532-8.5121 11.774-11.658 1.4007-0.78386 1.4707-1.336 0.45271-3.5703-0.66-1.45-1.2-4.39-1.2-6.52 0-4.8944-2.7637-7.2544-11.743-10.028-11.228-3.4679-15.249-2.2761-24.345 7.2144-5.2061 5.4318-5.9346 5.9081-5.3505 3.4978 0.46219-1.9071 0.17811-3.3407-0.8975-4.5292-2.2014-2.4325-4.3216-11.233-5.1753-21.483l-0.73-8.7h-3.2338c-19.853 0-20.629-38.694-0.79872-39.815 15.034-0.84949 23.645 21.579 11.038 28.748-1.5158 0.86187-2.7588 2.2045-2.7622 2.9837-0.003 0.77916 0.20086 1.2292 0.45408 1 0.25-0.23 5.02-4.92 10.6-10.42l10.135-10-0.46483-10c-1.0718-23.058-10.739-33.896-25.866-28.999-16.981 5.4969-19.454 7.8538-17.414 16.596 1.706 7.3129 1.0694 12.903-1.4695 12.903-2.356 0-3.4901 2.9602-1.1948 3.1185 0.94524 0.0652 2.3112 0.0385 3.0355-0.0592 2.4515-0.33075-0.55714 3.5905-3.7786 4.9249-3.5876 1.486-3.5498 1.2158-1.1466 8.2008 1.0404 3.024 1.6734 6.6395 1.4068 8.0345-0.34412 1.8002 0.11673 2.9578 1.5876 3.9881 3.3542 2.3494 15.032 30.539 13.97 33.724-0.20148 0.60445-3.729-5.365-7.839-13.265l-7.4726-14.364-9.117-6.1411c-19.901-13.405-23.932-11.498-24.351 11.523-0.14994 8.2378 10.636 14.336 13.449 7.6036 6.1131-14.631 29.242-6.8097 29.453 9.9594 0.0121 0.96031 0.97304 4.4942 2.1355 7.8532 1.6531 4.7769 1.8806 6.6183 1.0444 8.4536-0.90196 1.9796-0.32634 3.9198 3.6814 12.408l4.7505 10.062 1.2045-3.3309c7.35-20.34 32.2-18.06 32.2 2.95 0 4.6334 1.6446 3.4483 3.977-2.8658zm-57.74-5.28c1.9726-2.685 0.80788-6.5-1.9847-6.5006-2.6826-0.00061-2.7414 0.12301-2.4008 5.0401 0.35228 5.085 1.4533 5.4516 4.3855 1.4605zm-37.541-15.449c2.2104-5.2318 6.8642-9.0399 11.056-9.0469 1.2375-0.002 2.25-0.42342 2.25-0.93635 0-0.51294-1.0125-1.2395-2.25-1.6145-8.2393-2.4971-16.917-12.733-16.917-19.956 0-2.4734-0.3-4.4781-0.66666-4.4548-0.36667 0.0233-3.1417 0.61864-6.1667 1.323l-5.5 1.2806-0.69446 10.405c-0.7998 11.984-0.47832 12.711 10.034 22.699 6.7122 6.3774 6.2937 6.3632 8.855 0.30063zm-23.407-32.18c0.5431-3.5983 0.5133-3.634-3.4812-4.1698-2.2159-0.29722-6.2587-1.9265-8.984-3.6206-7.3256-4.5538-7.0159-3.8904 2.2612 4.845 8.969 8.4453 9.357 8.5573 10.204 2.9454zm18.72-5.43c0-20.55 8.6722-27.302 24.5-19.075 3.3 1.7153 6.3375 3.272 6.75 3.4592 0.4125 0.18728 0.75-1.6755 0.75-4.1395v-4.48l-9.3459-3.6212c-10.72-4.1537-15.098-7.1557-20.125-13.801-1.9621-2.5934-5.5228-6.0606-7.9128-7.7049-9.5569-6.5753-9.8007-18.698-0.53283-26.496l2.9275-2.4633-4.9561-6.5479c-2.7259-3.6014-6.1694-8.6182-7.6522-11.149-2.131-3.6363-3.137-4.5009-4.7993-4.125-13.037 2.9481-17.838 3.7143-26.731 4.2658-9.1538 0.56771-10.929 0.40095-15.11-1.4196-2.6056-1.1346-8.2352-2.7264-12.51-3.5374-11.643-2.2086-12.988-2.9103-14.199-7.4075-0.73041-2.7125-2.5596-5.1907-6.0504-8.1969-6.659-5.7346-7.5538-14.754-1.766-17.799 2.9639-1.5596 13.315-11.12 12.579-11.618-0.174-0.11767-2.3407-0.85648-4.815-1.6418-8.712-2.7652-18.298-10.61-22.899-18.741-0.4037-0.71328-3.4043-1.9703-6.668-2.7933-11.735-2.9592-16.098-5.2955-22.329-11.956-8.7616-9.3662-8.7109-9.507-9.426 26.162l-0.58373 29.115 5.6564 0.58378c6.5494 0.67596 16.844 5.4806 25.518 11.91 3.1732 2.352 7.2064 5.1764 8.9627 6.2764 5.9927 3.7534 7.4199 7.1722 8.0077 19.183 0.35825 7.3198 1.2133 12.746 2.6448 16.782 2.4424 6.8874 2.4356 6.8506 1.1154 6.0347-1.8568-1.1476-1.0167 1.8533 1.1706 4.1816 2.74 2.9166 2.1192 3.5517-2.2368 2.2881-1.8886-0.54783-5.357-0.71242-7.7077-0.36576l-4.2739 0.63028 5.7739 4.3275c3.1757 2.3801 6.5036 4.9696 7.3955 5.7544 1.0565 0.92966 4.8197 1.5798 10.799 1.8657l9.1779 0.4388 5.7005 5.7968c5.6354 5.7306 4.446 6.109-2.5465 0.81025-7.96-6.04-36.24 0.36-36.24 8.21 0 1.647 5.0982 3.5589 9.4901 3.5589 2.3768 0 4.2334 1.0212 7.2722 4 5.3632 5.2572 11.238 5.8341 11.238 1.1036 0-5.3834 12.287-12.516 16.778-9.7406 0.50618 0.31284 0.17045-2.1706-0.74607-5.5188-1.4323-5.2323-2.1488-6.3235-5.0993-7.7662-11.38-5.57-23.93-14.54-23.93-17.12 0-6.2578 7.6581-4.3382 18 4.5118 11.766 10.069 10.998 9.6308 11.004 6.275 0.0148-8.9143 9.1351-14.689 20.158-12.762 21.513 3.7593 28.218 9.9101 29.836 27.37 1.6228 17.515 2.0116 32.365 0.78156 29.851-0.75577-1.5443-1.636-2.0728-2.7001-1.621-1.3961 0.59273-3.2805 0.98233-6.5788 1.3601-1.5882 0.18191 6.6413 4.9242 9.7176 5.5999 1.5303 0.33611 2.7824 1.0254 2.7824 1.5317 0 0.50629 3.15 0.92054 7 0.92054s7-0.2513 7-0.55845zm-44.465-31.552c1.9443-6.1259 11.716-13.489 16.603-12.512 5.9592 1.1918 1.1412-6.0596-6.1385-9.2389-16.574-7.2384-26-4.3331-26 8.0134 0 10.581 12.913 22 15.535 13.737zm51.361-25.279c5.0682-5.3948 19.648-6.0828 28.136-1.3277l4.5329 2.5394 1.6737-2.9163c2.0208-3.5211 0.82715-4.6141-8.5701-7.8472-3.148-1.0831-8.3078-3.5643-11.466-5.5138-8.495-5.2434-17.982-3.9638-22.9 3.089-5.5696 7.9868 2.1864 18.797 8.5934 11.977zm-141.47-17.36c-5.9808-16.759 11.414-28.154 24.324-15.934l3.25 3.0762v-3.0469c0-5.3527-1.8784-8.8719-6.0937-11.417-2.2124-1.3357-6.8089-4.1861-10.214-6.3343-9.1174-5.7512-17.523-9.4137-23.313-10.159l-5.1215-0.65898-0.5994 6.3618c-0.33 3.5-0.88 10.18-1.22 14.86l-0.61746 8.5 5.585 6.1535c4.32 4.76 13.63 12.35 15.14 12.35 0.11589 0-0.39151-1.6875-1.1276-3.75zm-27.43-9.7c0-1.8332-2.6169-5.5478-3.9105-5.5508-0.87421-0.002-2.9395-0.82204-4.5895-1.8222s-5.1441-3.0701-7.7646-4.5999l-4.7646-2.7814 0.98659 2.5949c0.54262 1.4272 0.72606 3.2738 0.40765 4.1036-0.41602 1.0841 0.0899 1.5087 1.7979 1.5087 1.3073 0 5.5179 1.5414 9.357 3.4253 6.9688 3.4198 8.4801 3.9761 8.4801 3.1217zm-22.036-10.003c0.97005-1.1688 0.66489-2.4554-1.5459-6.5172-4.4193-8.1197-7.4729-9.665-4.9167-2.4882 0.77608 2.179 1.4308 5.4242 1.455 7.2117 0.0484 3.582 2.7271 4.5415 5.0076 1.7937zm-40.72-4.8c-3.9477-11.1 9.407-19.676 22.162-14.231 1.7011 0.72619 1.6616 0.48661-0.37323-2.2656-5.9757-8.0825-49.769-10.016-47.701-2.1063 0.30707 1.1743-0.0603 2.1969-0.90576 2.5214-5.1506 1.9765 0.2806 10.594 8.357 13.259 2.2841 0.75381 5.6306 2.6353 7.4367 4.181 2.5477 2.1804 4.321 2.8196 7.91 2.8511l4.6261 0.0406-1.5114-4.25zm161.57-10.213c-5.3086-7.5313-3.9026-16.304 3.2667-20.382 4.2382-2.4111 3.8635-2.7583-6.5914-6.1073-12.439-3.9846-12.616-3.962-19.01 2.4313-6.7212 6.7212-6.7214 6.5376 0.0217 13.607 3.025 3.1714 5.5 6.4227 5.5 7.2252 0 1.0176 1.6554 1.6658 5.4722 2.1427 3.0097 0.37604 7.3972 1.7445 9.75 3.0409 2.3528 1.2965 4.381 2.3906 4.5072 2.4315 0.12617 0.0409-1.1863-1.9342-2.9167-4.389zm73.541-9.3925c4.2552-4.6617 15.789-2.9344 22.022 3.298l3.3907 3.3907 0.48263-5.6664c0.66093-7.7598-0.30662-9.8356-5.1982-11.153-2.9183-0.78583-4.4783-1.94-5.6287-4.1647-6.5914-12.746-16.983-17.591-25.5-11.889-12.538 8.3935-12.131 19.087 1.2007 31.557l5.2905 4.9486 1.0437-4.1456c0.57403-2.2801 1.8779-5.0594 2.8974-6.1764zm-322.76 0.11885c-0.64078-0.64078-12.93 1.6708-13.868 2.6085-4.1034 4.1034 0.666 5.0563 7.3197 1.4625 3.7922-2.0483 6.7389-3.8802 6.5481-4.071zm40.32 2.3819c-2.55-2.18-9.91-3.36-9.91-1.59 0 1.6688 0.72057 1.9393 5.1667 1.9393 2.8417 0 4.9792-0.15982 4.75-0.35515zm-11.91-3.15c0-1.375-0.38529-2.5-0.8562-2.5s-2.9238-1.5787-5.4509-3.5083l-4.5947-3.5083 1.0398 2.9828c2.06 5.92 9.86 11.09 9.86 6.54zm-19.49-22.47c-3.95-11.2 1.32-20.88 11.49-21.1l3.5-0.0742-4-1.4958c-9.5378-3.5667-27.349-2.7356-32.606 1.5214l-2.2952 1.8586 8.2202 8.8672c13.572 14.64 18.285 17.77 15.692 10.42zm241.49-22.69c0-0.36064-2.643-5.8731-5.8733-12.25s-6.3968-13.226-7.0367-15.221c-1.1057-3.4462-1.4224-3.6518-6.3767-4.1405-6.652-0.65604-6.4221-1.4942-2.8679 10.46 1.6855 5.6689 3.1973 11.419 3.3596 12.777 0.36 3.01 18.8 11.22 18.8 8.38zm-58.998-18.079c-8.8363-16.487 10.13-29.587 24.404-16.856 3.4757 3.1 3.5945 3.1224 3.5945 0.67795 0-1.0875-1.7943-3.233-4.1567-4.9703-2.2862-1.6813-7.9738-6.5577-12.639-10.837-11.661-10.695-18.153-13.266-29.984-11.876-8 0.94-17.22 6.64-17.22 10.65 0 5.4775 24.612 32.809 31.649 35.146 6.675 2.2172 6.5958 2.2524 4.3527-1.9327zm-31.03-11.01c-0.0819-1.9305-3.3131-4.6847-8.0956-6.9005l-5.2461-2.4306-2.5632 2.6432c-2.3561 2.4296-2.3927 2.5926-0.45225 2.0172 1.3373-0.39655 4.4527 0.4818 8.5 2.3965 6.6798 3.16 7.9099 3.516 7.8572 2.2741zm-68.698-11.546c-0.60607-5.377 2.9683-10.283 8.2082-11.266l3.3578-0.62992-8.8296-5.966c-10.927-7.3834-18.028-6.702-29.397 2.821-10.726 8.9845-9.8016 11.506 5.0353 13.73 6.5203 0.97759 13.88 2.5924 16.355 3.5884 2.475 0.99601 4.7822 1.8576 5.1272 1.9146 0.34494 0.057 0.40926-1.8295 0.14294-4.1924zm143.73 3.92c0-2.0607-3.2924-7.5594-4.193-7.0029-0.62285 0.38494-2.4739 0.97426-4.1135 1.3096l-2.9811 0.6097 3.8938 2.6706c3.3501 2.2977 7.3938 3.6174 7.3938 2.413zm11.345-13.258c2.9337-3.8483 9.4508-6.6129 16.839-7.1432l6.684-0.47981 0.65974-3.9049c0.77591-4.5926-0.10444-5.9534-6.4735-10.007-11.24-7.1527-19.03-1.2385-19.06 14.47-0.003 1.7604-0.67839 4.4897-1.5 6.0651-1.9044 3.6515-2.0642 8.2089-0.18503 5.2774 0.65515-1.0221 2.0212-2.9471 3.0357-4.2779zm-12-3.11c0.76275-1.5125 1.6784-5.3385 2.0347-8.5023 0.35633-3.1637 1.3491-7.5049 2.2062-9.647 2.1001-5.2487-1.2211-13.05-6.0764-14.273-1.65-0.41564-4.35-2.2958-6-4.1782-5.3114-6.0594-30.563-12.827-36.334-9.7383-2.98 1.5949-2.7587 4.7216 0.96144 13.584l3.1271 7.4498 2.4198-1.9034c8.6785-6.8265 21.96 0.0136 25.822 13.298 1.1667 4.0134 2.5056 6.1868 4.9683 8.0652 1.938 1.4782 3.6524 3.8516 4.0326 5.583 0.81311 3.7021 1.0902 3.7276 2.838 0.26167zm-35.322-56.5c0.008-1.2375 0.285-3.2625 0.61664-4.5 0.53402-1.9927 0.23436-2.25-2.6206-2.25-2.6886 0-3.0994 0.29047-2.4752 1.75 0.41163 0.9625 0.96085 2.9875 1.2205 4.5 0.56587 3.2964 3.2393 3.7066 3.2587 0.5zm11.658-49.445c7.0346 0.51548 6.9871 0.69714 2.0399-7.8049-6.3162-10.855-12.738-14.364-18.425-10.068-0.11724 0.0886 0.43992 2.6151 1.2381 5.6145 0.79822 2.9994 1.4566 7.7675 1.4632 10.596l0.0119 5.1422 3.75-1.9659c2.9328-1.5375 5.0951-1.8673 9.922-1.5136zm45.32-70.8c0-1.6104-3.5993-1.9811-7.9464-0.81834-2.2658 0.60603-2.3027 0.7106-0.5 1.4161 3.54 1.382 8.45 1.035 8.45-0.598zm28.8-0.87839c1.4852-0.75811 4.967-1.8578 7.7373-2.4438 2.7703-0.58595 6.3233-1.5544 7.8956-2.1522l2.8586-1.0868-2.2005-2.3423c-1.2102-1.2883-3.9286-3.1216-6.0409-4.0741-2.6729-1.2053-4.3587-2.8811-5.5452-5.5122-3.6508-8.096-16.589-8.2439-31.604-0.3613l-5.4 2.835 3.5 0.319c11.221 1.0207 21.956 6.6691 24.137 12.7 1.4594 4.0359 1.1679 3.9034 4.6627 2.1195zm-10.8-31.936c13.83-9.135 14.83-12.686 3.58-12.686-10.406 0-11.759 0.44572-10.965 3.6108 0.94348 3.7591-0.45407 9.0419-3.2807 12.401l-2.584 3.0709 4.3737-1.7127c2.41-0.942 6.4-3.05 8.88-4.684zm-36.708-3.7196c0.66428-0.56876 2.1078-1.6794 3.2078-2.4682 1.8407-1.3198 1.5906-1.4366-3.1392-1.4659-3.809-0.02357-5.7503 0.5056-7.5 2.0444-1.2984 1.1419-1.8018 1.7925-1.1187 1.4459 0.68314-0.34667 2.0331-0.16964 3 0.3934 2.2729 1.3236 4.0443 1.3397 5.5501 0.05042zm-533.96 590.15c-44.909-16.67-44.952-99.35-0.06-115.65l6.232-2.2618-0.0626-6.3558c-0.0344-3.4957-0.44217-26.897-0.90612-52.003l-0.84354-45.647-9.5939 0.5c-10.997 0.57312-14.587-0.40353-16.316-4.438l-1.181-2.76-0.368 3.5c-0.20216 1.925-0.80754 3.9496-1.3453 4.499-0.64733 0.66143 1.1256 1.3373 5.2465 2 10.844 1.7439 9.1241 3.7256-4.8528 5.5914-36.676 4.8958-69.576-12.294-68.093-35.578 1.6473-25.87 34.436-24.712 66.614 2.353l5.2939 4.4526 24.539-0.65021c21.729-0.57573 24.845-0.86487 27.206-2.5242 1.4667-1.0307 6.6129-3.9126 11.436-6.4041 8.7113-4.5 8.75-4.5369 5.8275-5.5557-7.1611-2.4964-5.8519-8.4946 3.8052-17.434l6.2118-5.75 6.693 0.0105c3.6812 0.006 12.018 1.0965 18.525 2.4238 6.5078 1.3273 13.309 2.1737 15.113 1.8809 3.2206-0.52263 7.5548 0.95678 7.5548 2.5787 0 0.95969-11.825 5.7429-26.33 10.65-5.5933 1.8923-10.056 3.899-9.916 4.4592 0.13952 0.56025-2.1105 2.0698-5 3.3544-14.577 6.4812-42.105 25.863-41.201 29.009 2.9481 10.264 14.065 14.07 28.387 9.72 8.1302-2.4695 7.9999-2.2532 4.0606-6.7398-8.36-9.52 3.99-33.34 17.29-33.34 4.421 0 5.0734 0.80614 3.0954 3.8249-1.518 2.3168-1.5127 2.4404 0.0783 1.8298 0.93843-0.36011 2.4972-0.65474 3.4639-0.65474 0.96674 0 2.2551-1.0917 2.863-2.4259 1.899-4.1677 17.165-14.425 25.629-17.221l2.9138-0.96238-3.4833-2.0552c-12.508-7.38-7.8469-22.683 9.385-30.811l4.7293-2.2308-8.2901-0.58504c-11.784-0.83162-17.322-2.4393-20.49-5.9488-6.7574-7.4842-8.4966-8.7022-15.987-11.197-12.65-4.2-19.18-10.62-19.18-18.84 0-2.8395-0.98702-3.2659-16.126-6.9656-5.192-1.2689-5.7119-1.2365-6.747 0.42093-4.7905 7.6708-27.001 10.645-36.711 4.9155-2.1212-1.2515-7.695-3.3747-12.386-4.7182-23.976-6.86-32.03-12.15-32.03-21.04 0-9.9672 26.593-15.929 44.39-9.9513 4.4621 1.4987 10.073 2.6322 13.029 2.6322 5.4231 0 10.109 2.4547 13.252 6.9413 1.8175 2.5948 2.9503 2.6132 3.6183 0.0587 0.69453-2.6559 3.1956-2.5374 5.2766 0.25 1.4256 1.9095 1.5779 1.9531 1.0068 0.28815-5.4953-16.02-2.5318-35.858 5.6675-37.939 11.021-2.7968 41.42 23.378 43.785 37.701 0.38148 2.3098 1.0177 5.3862 1.4138 6.8363 0.55317 2.0252 0.2109 3.111-1.476 4.6826l-2.1962 2.046 8.3662-0.061c15.399-0.11234 26.771 4.2932 31.353 12.147 2.9061 4.9808 16.087 18.048 18.211 18.054 0.99139 0.003 7.3115 2.6777 14.045 5.9448l12.242 5.9401-1.8884-3.7016c-9.8509-19.309-8.507-42.013 2.2426-37.888 1.9414 0.74499 3.2422-57.47 1.415-63.325-1.1719-3.755-1.4619-3.9765-5.247-4.0097-2.2036-0.0193-6.9315-0.70594-10.507-1.5258-21.591-4.9516-55.315-2.435-65.201 4.8654-6.7402 4.9772-23.179 2.113-28.786-5.0155-1.7661-2.2452-3.4884-2.988-9.1349-3.9394-10.893-1.8354-16.3-6.9044-15.639-14.659 0.28902-3.3868 0.10333-3.7517-1.6729-3.2872-3.8428 1.0049-15.319-2.3696-18.654-5.4852l-3.1406-2.9337-15.139 0.25789c-15.045 0.27-15.173 0.25-21.168-2.73l-6.0315-3-7.8327 4.6624c-22.718 13.53-40.394 12.28-55.866-3.94-19.47-20.4-20.2-21.62-15.482-25.92 12.985-11.83 56.533-15.7 64.781-5.76 1.511 1.82 1.226 1.81-4.031-0.04-10.156-3.58-32.281-0.42-47.218 6.75l-6.7734 3.2512 9.1367 9.8102c5.1418 5.5208 11.371 11.092 14.246 12.741 5.3298 3.057 10.168 4.1738 5.4819 1.2654-17.295-10.734 0.33217-25.095 25.995-21.178 1.7421 0.26592 2.5985-0.25013 3.2417-1.9534 0.7634-2.0214 0.62179-2.2347-1.1176-1.6826-5.8274 1.8495 3.0863-6.9089 10.65-10.464 25.125-11.81 66.333-0.4058 76.665 21.217 1.3179 2.7582 2.796 3.6984 9.872 6.2796 6.0592 2.2103 8.2868 3.4867 8.1924 4.6941-0.11369 1.4551 1.2344 1.6535 11 1.6182 7.2032-0.026 13.057 0.51069 16.592 1.5214 3.1432 0.8986 5.702 1.1738 6.0269 0.64807 0.31052-0.50243 4.9399 1.329 10.288 4.0698 7.9165 4.0574 10.089 4.7875 11.692 3.9293 1.2869-0.68871 3.8861-0.75339 7.5002-0.18665 6.4893 1.0176 6.3642 1.2417 2.4687-4.4202-11.904-17.302-11.835-30.34 0.1944-36.477l4.1301-2.107 7.1395 3.5285c16.484 8.1466 20.415 15.167 18.461 32.964-0.73565 6.7-1.3432 12.569-1.3501 13.043-0.007 0.47348 3.7508 1.9474 8.3505 3.2753 4.5996 1.3279 9.2297 2.8783 10.289 3.4452 1.533 0.82046 2.5437 0.51101 4.9535-1.5167 10.81-9.0956 44.545-6.4652 60.258 4.6984 2.65 1.8828 3.0596 1.9192 5.5 0.48865 2.6186-1.5351 7.1164-0.7374 15.387 2.7288 1.4768 0.61894 1.75 0.1762 1.75-2.836 0-9.3729 7.0904-20.471 14.361-22.479 4.9964-1.3796 20.816 1.3151 29.639 5.0487 8.0482 3.4057 28.387 21.958 32.965 30.069 1.6875 2.99 3.9608 6.2442 5.0518 7.2316 2.6569 2.4044 2.4988 4.6527-0.52703 7.4953-1.8728 1.7594-2.1904 2.5659-1.25 3.1743 1.7024 1.1014-0.82187 2.7754-4.2393 2.8113-1.375 0.0145-4.2483 0.31512-6.3852 0.6681l-3.8852 0.64177 9.3852 3.3492c13.57 4.84 21.91 8.44 21.91 9.46 0 3.983-41.166-4.5685-48.167-10.006-1.2831-0.99652-4.6542-2.1132-7.4911-2.4815-6.7268-0.87325-15.888-4.0589-20.556-7.148-2.8441-1.8822-3.568-2.0725-3.0839-0.81094 0.56156 1.4634-0.032 1.5683-5.2848 0.93381-3.2546-0.39309-9.0858-1.0787-12.958-1.5236-3.8725-0.44486-8.4712-1.5484-10.219-2.4524-3.1778-1.6433-3.1786-1.6431-4.7721 1.4385-4.875 9.4273-27.07 13.262-39.64 6.8495-2.3409-1.1942-7.7079-3.6487-11.927-5.4544-4.2187-1.8057-10.199-4.521-13.289-6.034-7.0329-3.4437-6.5251-4.778-5.5476 14.576 0.45833 9.075 0.85627 22.632 0.88429 30.128 0.0606 16.196-0.36273 15.584 11.693 16.918 12.115 1.3405 13.005 1.8641 19.99 11.764 7.1215 10.094 10.845 17.147 13.773 26.089 2.0107 6.1406 2.2712 6.4506 6.4521 7.676 2.3962 0.70236 5.3212 2.1704 6.5 3.2624 1.5832 1.4666 4.756 2.3065 12.143 3.2146 17.89 2.1993 14.503 4.8883-6.2992 5.0001l-9.7008 0.0521 5.5 2.0917c11.378 4.3271 10.866 5.0779-3 4.3978-6.875-0.33722-16.325-0.15451-21 0.40601-20.902 2.5062-26.22 2.8671-28.647 1.9444-3.9271-1.4931-2.5359-4.1541 3.4112-6.5249 8.2244-3.2786 7.5448-4.6057-2.9629-5.785l-5.6988-0.63961 0.31642 15.753c0.17404 8.664 0.66899 41.178 1.0999 72.253 0.82589 59.56 0.67109 57.956 5.5968 57.985 51.138 0.29938 50.102 110.77-1.1156 118.94-56.302 8.9765-72.005-97.389-17.372-117.67 3.875-1.4388 4.8577-2.2632 4.8009-4.0278-0.0393-1.2203-0.15178-14.903-0.25-30.406l-0.16-28.18-2.75 2.5649c-3.4672 3.2338-5.9235 4.4945-14.154 7.2646-7.2738 2.448-7.0772 2.2048-12.166 15.045-4.6097 11.631-6.5778 15.166-11.251 20.209-2.2984 2.4806-5.979 7.4774-8.179 11.104-8.4219 13.883-24.769 16.147-44.537 6.1685-21.685-10.947-13.88-28.437 17.537-39.296 20.326-7.0252 22.723-9.3241 10-9.5919-14.508-0.30541-29.537-10.809-25.118-17.555 5.4604-8.3336 38.958-20.43 46.301-16.719 2.2005 1.1118 7.2042 2.2275 11.817 2.6348 13.918 1.229 23.386 5.2233 27.668 11.671 4.1424 6.2388 4.8323 2.6624 4.8323-25.049v-25.985l-5.25 2.4442c-6.015 2.8004-12.793 3.1842-18.48 1.0466-15.499-5.8259-27.975-2.4508-46.737 12.644-3.2818 2.6403-7.4314 5.3301-9.2212 5.9773-2.8571 1.0332-3.1663 1.4892-2.5331 3.7363 2.9686 10.535-2.5205 21.404-13.194 26.125-2.6634 1.1782-6.8731 3.4298-9.3549 5.0037-15.276 9.6876-33.837 9.6416-42.643-0.1056-6.7484-7.4697-8.2839-14.793-4.1353-19.723l2.451-2.9129-9.201 1.2729c-5.0606 0.7001-13.156 1.5858-17.99 1.9682-12.253 0.96926-10.751 2.6114 3.8692 4.2324 17.468 1.9368 19.545 2.8458 13.151 5.7565-1.227 0.55851-2.1608 1.449-2.0751 1.9789 1.7543 10.852 4.3793 43.817 6.4591 81.112l1.2351 22.149 6.413 1.7359c45.33 12.27 49.944 93.871 6.51 115.12-7.5279 3.6831-20.189 4.349-27.944 1.4697zm107.7-156.37c4.645-3.1472 4.6055-4.0925-0.24139-5.7777-7.4782-2.6-9.1025-11.361-3.9296-21.195l2.8541-5.4257-10.604 4.5017c-25.264 10.725-30.079 18.316-16.079 25.351 10.463 5.2574 22.396 6.3422 28 2.5455zm11.341-23.773c2.6661-3.1684 5.2724-10.683 4.1023-11.828-1.5462-1.5131-10.379 11.708-10.446 15.636-0.0321 1.8791 3.1817-0.0501 6.3439-3.8081zm-1.4309-31.068c-3.196-4.4883-3.6845-10.973-1.1502-15.268l2.0349-3.4488-2.6598 0.80093c-7.444 2.2415-27.395 11.961-28.619 13.942-1.9128 3.095 11.206 6.4155 27.277 6.9042l5.3181 0.16169-2.2012-3.0913zm-182.5-20.81c-3.3574-12.943 4.0772-20.929 18.486-19.858l6.5776 0.4892-6.2599-2.9592c-29.338-13.869-51.575 1.3329-30.2 20.645 8.9501 8.0859 13.22 8.7164 11.396 1.6829zm136.81-37.36c14.53-4 14.67-4.74 0.87-4.74h-10.884l-3.6164 4.0029c-5.6197 6.2203-6.1927 6.1894 13.634 0.73494zm64.159-11.244c-3.3504-13.349 14.21-24.114 31.091-19.059 1.1 0.32937 0.2-0.28542-2-1.3662-16.004-7.8624-46.412-1.692-53.843 10.926-4.5771 7.7722 1.5901 11.324 20.612 11.869 4.6148 0.13239 4.7487 0.0557 4.1399-2.3698zm32.374-24.844c-0.17158-2.0731-1.5557-2.7957-11.739-6.1282-6.3494-2.0779-12.804-4.4182-14.343-5.2006-2.8902-1.4691-6.5738 0.95629-6.6682 4.3905-0.0183 0.6663-1.9458 1.6952-4.2833 2.2864-2.3375 0.59122-5.15 1.5225-6.25 2.0695-2 0.99453-2 0.99453 0 0.39403 11.7-3.5128 27.619-2.6733 36.5 1.9249 5.925 3.0677 7.0187 3.1102 6.7831 0.26353zm15.538-19.304c3.8684-7.4807 10.783-7.4523 20.694 0.0851 9.1965 6.994 8.8673 5.4348-1.7329-8.2069-8.2125-10.569-8.9171-10.98-19.532-11.388l-8.7502-0.33648 0.00015 11.816c0.00014 12.067 0.52484 14.288 4.3751 18.52l2.125 2.336 0.61503-4.8747c0.33827-2.6811 1.331-6.2591 2.206-7.9512zm-92.78-9.46c3.421-7.5865 12.824-11.952 21.531-9.9954 5.9602 1.3392 2.5623-2.2009-4.3003-4.4803-11.95-3.96-40.77 0.31-40.77 6.05 0 3.7793 10.945 10.212 21.098 12.401 0.32896 0.0709 1.4299-1.7156 2.4465-3.9701zm-98.993-27.136c0.95865-4.3647 3-7.2844 6.7554-9.6622l3.134-1.9843-2.5962-0.98707c-7.4905-2.8479-10.431-3.0943-19.921-1.6697-20.596 3.0917-20.919 6.9438-1.1502 13.71 13.25 4.535 12.916 4.5206 13.778 0.5933zm64.45-2.08c0-6.0963 6.4178-18.081 10.871-20.301 4.2434-2.1156-19.865-18.744-24.563-16.942-3.4575 1.3268-0.0292 28.483 4.4609 35.336 2.8915 4.413 9.2304 5.7226 9.2304 1.907zm243.41-48.101c-5.9365-12.967-3.4786-24.223 5.9471-27.234l2.8538-0.91187-4.9831-2.7122c-7.1409-3.8866-25.162-7.3323-28.949-5.5353-16.439 7.7994-1.854 33.766 22.725 40.457 2.475 0.67377 4.5876 1.2554 4.6947 1.2925 0.10707 0.0371-0.92252-2.3728-2.288-5.3553zm-27.831 0.78946c-1.6082-1.4136-4.6186-4.6208-6.6898-7.1272-2.1722-2.6287-4.7433-4.6624-6.0759-4.8061-1.2706-0.13698-5.1694-0.76879-8.664-1.404-7.5557-1.3734-7.4778-1.4239-6.6207 4.292 0.66618 4.4424 0.7149 4.4909 3.5266 3.5107 4.7356-1.6508 23.191 3.5155 25.415 7.1147 0.35802 0.5793 0.9619 1.039 1.3419 1.0217 0.38004-0.0174-0.62485-1.1882-2.2331-2.6018zm-79.58-7.65c0-10.387 24.127-13.821 40.046-5.699 5.4199 2.765 5.954 2.5509 5.954-2.3876 0-5.7434-10.203-9.8874-28.126-11.423-27.696-2.3735-45.877 10.38-26.56 18.632 8.706 3.7191 8.6863 3.7171 8.6863 0.87831zm-23.31-11.72c1.1299-2.9934 1.1243-3-2.5308-3.0002-2.0147-0.0001-7.2631-0.69692-11.663-1.5485-4.4-0.85158-13.175-2.4437-19.5-3.5381s-12.25-2.216-13.167-2.4926c-1.2449-0.37548-1.5413-0.0216-1.1702 1.3972 0.43151 1.6501 1.7691 1.973 10.167 2.454 7.8893 0.45195 12.064 1.3696 22.67 4.9825 7.15 2.4357 13.239 4.4999 13.531 4.587 0.29192 0.0872 1.0403-1.1915 1.6631-2.8415zm-110.69-7.89c0-5.9032 13.964-11.369 29.151-11.41l10.895-0.0296-2.9163-2.8512c-3.1994-3.128-12.137-5.4194-16.985-4.3546-1.4922 0.32776-9.1447 1.2053-17.005 1.9502-13.266 1.257-14.495 1.5485-17.117 4.0602-5.1683 4.9515-3.6918 11.829 2.7497 12.807 5.251 0.79778 11.228 0.70632 11.228-0.17182zm87.958-12.724c-1.2-3.16-3.79-6.39-5.11-6.39-1.5103 0-0.90262 1.6204 2.2286 5.943 3.3991 4.6923 4.5675 4.8736 2.8847 0.44754zm-108.83-3.0526c0.75484-0.91413 2.7224-2.4874 4.3724-3.4963 2.8155-1.7214 2.8576-1.8344 0.68426-1.8379-1.2737-0.002-3.1641-0.45779-4.2011-1.0127-1.4742-0.78896-2.8947-0.36886-6.5139 1.9263l-4.6286 2.9353 2.8296 1.5336c3.6989 2.0048 5.7729 1.9913 7.4572-0.0484zm-32.93-11.34h2.8973l-2.6245-3.4409c-2.99-3.93-6.47-12.47-6.47-15.89 0-2.1498-0.61176-2.3906-8.8633-3.4893-16.361-2.1783-22.474-0.96199-26.233 5.2195l-1.8607 3.0596 3.6957 3.7848c9.2191 9.4412 15.494 12 27.665 11.282 4.897-0.28903 10.207-0.52551 11.801-0.52551zm135.7-10.287c-3.5233-3.2182-8.0715-7.1903-10.107-8.827l-3.701-2.9759-1.6604 3.2108c-3.6964 7.148-0.81802 15.914 4.3748 13.323 3.2529-1.6228 10.737-0.38326 15.187 2.5153 4.3205 2.814 1.5483-2.0929-4.094-7.2464zm327.01 47.218c-4.5285-2.028-8.055-2.8824-11.979-2.9021-10.269-0.0517-20.439-3.5042-30.938-10.503-5.3976-3.598-9.9318-5.9858-10.5-5.5293-17.1 13.739-56.868 5.2941-63.945-13.58-1.0138-2.7037-3.3535-7.0012-5.1992-9.5498-5.6004-7.7333-3.8986-13.047 5.1885-16.201l3.9556-1.3729-5.5517-0.003c-5.7239-0.003-24.158-4.9159-31.251-8.3284-3.7828-1.82-3.8202-1.8171-7.3256 0.56172-1.9379 1.3151-4.5019 2.6943-5.6978 3.0649-1.1959 0.37061-4.0098 2.3534-6.2532 4.4062-6.2255 5.6967-12.686 7.437-24.341 6.5574-5.2691-0.39763-14.004-1.0217-19.412-1.3868-11.236-0.75866-11.719-1.0974-14.325-10.057-2.0344-6.995-1.2622-12.35 2.5636-17.778l3.07-4.32h-2.874c-4.2535 0-15.414-3.6842-18.49-6.1039l-2.6808-2.1087-4.2071 2.7795c-9.7422 6.4364-11.384 7.4142-14.925 8.8868-4.6648 1.9401-14.556 1.9971-19.512 0.1125-2.07-0.792-7.15-1.972-11.27-2.624-27.04-4.28-35.86-20.434-17.78-32.584 6.23-4.185 5.77-4.362-11.24-4.362-17.69 0-19.17-0.454-25.72-7.886-17.79-20.21-15.7-29.566 7.93-35.561 19.486-4.9429 24.929-4.4175 33.573 3.2408 2.6648 2.3608 6.2599 5.1528 7.9891 6.2043 6.43 3.906 18.25 21.66 18.25 27.401 0 2.692 4.15 6.601 7.01 6.601 0.95668 0 3.631 0.66737 5.9428 1.483 2.3119 0.81568 4.033 1.1532 3.8247 0.75-5.5898-10.819-5.537-14.733 0.26471-19.614 9.8985-8.329 34.398-6.9754 35.964 1.987 0.47841 2.7378 0.82979 2.923 6.5 3.4253 8.1638 0.72322 11.403 2.734 17.204 10.681 7.5709 10.371 9.1541 13.449 9.4853 18.443l0.30488 4.5967 8.4098 1.2514c4.6254 0.68829 10.841 1.8165 13.812 2.5072 4.8971 1.1384 5.34 1.1031 4.7355-0.37736-9.25-22.647 7.12-38.182 31.54-29.93 4.125 1.3942 9.42 3.0641 11.767 3.711 10.978 3.0259 19.052 19.541 19.199 39.271 0.0681 9.1386 6.3905 15.43 24.279 24.159 6.2681 3.0588 8.438 4.5734 7.6629 5.3485-0.71182 0.71182-0.7382 1.2934-0.0772 1.702 0.55848 0.34516 1.7217-1.5396 2.6208-4.2464 5.0402-15.175 13.189-18.045 37.549-13.229 16.065 3.1765 18.291 4.0505 19.397 7.6175 0.5055 1.6294 1.9676 5.726 3.2491 9.1036 1.2815 3.3775 3.6786 11.703 5.3268 18.5 1.6482 6.7975 3.7301 14.009 4.6264 16.026 1.4636 3.2936 1.4748 3.8885 0.11004 5.8369-1.4554 2.0778-1.5453 2.0886-2.1273 0.25492-0.5236-1.6497-4.0891-3.5074-15.249-7.9452-0.64153-0.25511 0.55489 1.3456 2.6587 3.5572s4.127 5.3953 4.4959 7.0749c0.72661 3.3082 1.9211 3.6572 7.2684 2.1237 1.7839-0.51161 3.2434-0.55384 3.2434-0.0938 0 0.45999 2.2055 1.1397 4.9011 1.5104 8.039 1.1056 11.459 6.6618 5.7117 9.2803-1.8254 0.8317-3.5506 0.46731-8.695-1.8366zm-97.814-35.494c5.5779-3.4473 20.566-5.1757 24.999-2.8829l3.0035 1.5532-1.7149-3.3032c-0.94319-1.8168-2.2318-5.3282-2.8637-7.8032-1.5195-5.9524-5.1212-7.3112-19.528-7.3674-17.613-0.0687-26.819 3.8136-21.707 9.1536 1.429 1.4926 3.7167 5.2444 5.0839 8.3373s3.7323 6.604 5.2558 7.8024l2.77 2.1789 1.7892-3.4876c0.98407-1.9182 2.2942-3.7996 2.9114-4.1811zm47.705-0.55994c0.9439-15.702 14.999-15.251 34.808 1.1181 6.052 5.0011 6.066 4.9697 2.4399-5.4953-5.776-16.67-8.7486-21.343-14.017-22.039-2.4963-0.32933-8.1738-1.2426-12.617-2.0296-16.858-2.986-21.491-1.1401-24.883 9.9134-1.9257 6.2745-0.8063 9.0924 6.9327 17.451 6.9378 7.4936 6.951 7.4956 7.3367 1.0805zm-52.04-25.363c0.14747-0.11879-1.4275-1.3981-3.5-2.8428-2.0725-1.4448-4.6681-3.9853-5.7681-5.6457-2.4542-3.7044-7.7772-4.1676-11.773-1.0246-1.3984 1.1-3.0341 2-3.6349 2-2.9717 0-0.37225 1.9719 5.96 4.521 3.8787 1.5615 7.2871 3.2191 7.5742 3.6836 0.42339 0.68506 10.185 0.0792 11.142-0.69153zm-103.76-4.73c0.825-1.7394 2.4-3.6422 3.5-4.2284 1.1-0.58615 2.4181-1.7407 2.9291-2.5657 2.1626-3.4915 6.9291-7 9.51-7 3.3826 0 4.3827-0.90734 2.9298-2.658-1.3706-1.6515 5.5877-1.8874 11.131-0.37751 1.925 0.52434 7.021 1.3824 11.324 1.9068 4.5515 0.55461 8.5582 1.6175 9.5787 2.5411 0.96488 0.87321 2.9271 1.5876 4.3605 1.5876s3.873 0.45084 5.4213 1.0019c3.4017 1.2106-4.9336-7.0129-12.12-11.957l-4.2955-2.9554-18.885-0.41073c-18.78-0.405-24.38-1.331-24.38-4.032 0-1.7205-6.7134-2.0271-12.25-0.55956-5.0028 1.3261-11.324-0.4152-14.725-4.0565-2.2953-2.4571-2.8393-2.6353-4.4497-1.4578-2.9031 2.1228 19.618 11.417 27.735 11.446 4.6575 0.01643 16.023 2.4704 18.557 4.0067 1.1184 0.6781-0.7388 0.79372-5.8919 0.36682-19.748-1.636-29.898 6.2868-24.526 19.144 2.1462 5.1366 12.154 5.3168 14.551 0.26197zm85.5-16.32c-3.257-2.6697-4.5-3.0592-4.5-1.41 0 0.58246-0.4949 0.75315-1.0998 0.37932-0.77295-0.47771-0.76249-0.0495 0.0352 1.441 0.85068 1.5895 2.0654 2.1117 4.8498 2.0847l3.7148-0.036-3-2.4591zm-23.21-13.593c4.7849-9.4754 15.167-11.325 24.784-4.4164 5.3953 3.8762 5.7878 3.4362 3.3407-3.7455-2.65-7.78-7.77-12.474-15.42-14.147-3.575-0.78164-9.2-2.1739-12.5-3.094-14.928-4.1619-21.818 2.5327-17.852 17.344 0.53928 2.0138 14.279 13.588 15.126 12.741 0.1728-0.1728 1.3069-2.2801 2.5202-4.6828zm-150.29-1.627c0.0137-10.084 13.492-15.157 32.965-12.408 8.9617 1.2654 9.0851 1.1988 4.4009-2.374-5.6967-4.3451-10.82-5.6731-24.009-6.2232-32.002-1.3348-47.64 16.835-19.86 23.074 5.2298 1.1745 6.4999 0.77047 6.5037-2.0688zm43.84-3.25c3.247-1.65 6.5229-3.0069 7.2799-3.0153 0.76-0.009 2.06-0.452 2.88-0.985 1.0587-0.6842-0.30437-0.97388-4.6334-0.98469-5.2468-0.0131-6.2071 0.26651-6.6432 1.9345-0.28043 1.0724-2.0204 2.8707-3.8666 3.9963-5.0785 3.0962-1.71 2.4572 4.987-0.94604zm43.496-3.8549c-2.6619-2.1202-5.697-4.8202-6.7448-6-2.36-2.656-3.6-2.734-3.6-0.226 0 5.5488 5.2689 9.6433 12.84 9.9777 1.9751 0.08724 1.5855-0.49748-2.5-3.7516zm-32.34-13.21c0-1.6855 0.94381-5.2586 2.0973-7.94 4.7078-10.944-2.1906-15.091-18.189-10.936-8.5774 2.2277-8.2662 7.1067 0.94538 14.819 9.42 7.887 15.15 9.421 15.15 4.057zm-84.54-15.685c-4.2088-9.7512-1.6629-18.881 6.3996-22.949l4.3582-2.1989-3.3582-2.0474c-4.4958-2.7409-8.3633-2.5884-21.11 0.83241-19.864 5.3307-20.818 8.0133-7.7783 21.863l5.8847 6.25h8.1798c7.4114 0 8.1089-0.1644 7.4245-1.75z"/>
</svg>
