<?xml version="1.0" ?><svg viewBox="0 0 128 128" xmlns="http://www.w3.org/2000/svg"><title/><g data-name="Lampion" id="950a211f-cd39-4165-9c9a-04261c487b6d"><rect fill="none" height="10.91" rx="5" ry="5" stroke="#a81e49" stroke-miterlimit="10" stroke-width="2" width="10" x="86.17" y="40.23"/><path d="M117,73.42c0,.58,0,1.14-.07,1.7a24.29,24.29,0,0,1-1.25,6.3A25,25,0,0,1,73,89.68a25.07,25.07,0,0,1-6-16.27c0-.67,0-1.33.08-2a24.33,24.33,0,0,1,2.09-8.18v0A25,25,0,0,1,113,59.92a25,25,0,0,1,4,13.5Z" fill="#d94545"/><path d="M112.42,69.25a24.67,24.67,0,0,1-.93,6.75c-.12.42-.25.83-.38,1.24s-.29.82-.45,1.22-.3.73-.46,1.09a2,2,0,0,1-.1.21c-.11.25-.23.5-.36.74l-.22.44c-.12.23-.25.45-.38.67s-.16.29-.24.43c-.19.32-.39.64-.6,1s-.44.66-.67,1l0,.06A24.92,24.92,0,0,1,73,89.68a24.82,24.82,0,0,1-3.63-5.57l0-.09c-.24-.51-.47-1-.67-1.56L68.51,82l-.06-.16-.12-.35,0-.1-.06-.17c0-.15-.1-.3-.14-.45s-.18-.58-.25-.87-.16-.59-.23-.89l-.18-.9c-.06-.3-.11-.6-.15-.91l0,0A24.84,24.84,0,0,1,67,73.42c0-.67,0-1.33.09-2a1.67,1.67,0,0,1,0-.31c0-.22,0-.44.07-.66,0,0,0,0,0-.08,0-.21,0-.41.08-.62s0-.3.07-.45a4.37,4.37,0,0,1,.09-.5l0-.08c.07-.37.14-.73.23-1.09.11-.51.25-1,.4-1.51,0,0,0,0,0,0,.06-.21.13-.43.21-.64a2.85,2.85,0,0,1,.13-.38l.16-.45.18-.44c.12-.33.26-.64.4-1v0a11.29,11.29,0,0,1,.53-1.11A25,25,0,0,1,106.38,53a24.73,24.73,0,0,1,5,9l.23.77c.07.27.14.53.2.8s.12.54.17.81a22.61,22.61,0,0,1,.43,3.33c0,.27,0,.54,0,.81S112.42,69,112.42,69.25Z" fill="#e34848"/><rect fill="#e3b132" height="6.67" width="26.67" x="78.67" y="45.5"/><rect fill="#fecf59" height="6.67" width="23.33" x="78.67" y="45.5"/><path d="M116.93,75.12a24.29,24.29,0,0,1-1.25,6.3l-1.47-1.77-5.14,6.18L107.58,84l-3.64-4.37-5.14,6.17-5.13-6.17-5.14,6.17-5.14-6.17-5.13,6.17-5.13-6.17L69.4,84.11a.44.44,0,0,1,0-.09c-.24-.51-.47-1-.67-1.56-.08-.21-.17-.43-.24-.63s-.08-.23-.12-.35a.54.54,0,0,1,0-.11c-.08-.21-.14-.41-.2-.62s-.18-.58-.25-.87-.16-.58-.23-.88-.13-.6-.18-.9-.11-.6-.15-.91L68,78l5.13-6.17L78.24,78l5.13-6.17L88.52,78l5.14-6.17L98.79,78l5.14-6.17L109.07,78l2.73-3.28,2.41-2.88Z" fill="#e3b132"/><path d="M116.65,69.24l-2.44-2.93-1.81,2.17-3.33,4-5.13-6.17-5.14,6.17-5.13-6.17-5.14,6.17-5.14-6.17-5.13,6.17-5.13-6.17L68,72.49l-.89-1.07v0c0-.34.07-.67.11-1a7.92,7.92,0,0,1,.13-.89,7.58,7.58,0,0,1,.13-.76,20.4,20.4,0,0,1,.63-2.6c.07-.23.14-.44.22-.66a2.94,2.94,0,0,1,.13-.38c.11-.3.22-.6.34-.89s.27-.64.41-1v0l3.93-4.72,5.13,6.17,5.13-6.17,5.14,6.17,5.14-6.17,5.13,6.17,5.14-6.17,5.13,6.17L111.33,62,113,59.92A24.67,24.67,0,0,1,116.65,69.24Z" fill="#e3b132"/><path d="M111.8,74.73c-.09.43-.2.85-.31,1.27s-.25.83-.38,1.24-.29.82-.45,1.22-.3.73-.46,1.09a2,2,0,0,1-.1.21c-.11.25-.23.5-.36.74l-.22.44c-.12.23-.25.45-.38.67s-.16.29-.24.43c-.19.32-.39.64-.6,1s-.44.66-.67,1l0,.06-3.65-4.37-5.14,6.17-5.13-6.17-5.14,6.17-5.14-6.17-5.14,6.17-.44-.53-4.69-5.64L69.4,84.11l0-.09c-.24-.51-.47-1-.67-1.56L68.51,82l-.06-.16-.12-.35,0-.1-.06-.17c0-.15-.1-.3-.14-.45s-.18-.58-.25-.87-.16-.59-.23-.89l-.18-.9c-.06-.3-.11-.6-.15-.91L68,78l5.14-6.17,4.48,5.38.65.79,5.14-6.17L88.52,78l5.14-6.17L98.79,78l5.14-6.17L109.07,78Z" fill="#fecf59"/><path d="M112.4,68.49l-3.33,4-5.14-6.17-5.14,6.17-5.13-6.17-5.14,6.17-5.14-6.17-5.14,6.17-4.74-5.7-.39-.47L68,72.49l-.88-1.06h0v0l0-.27c0-.22,0-.44.07-.66,0,0,0,0,0-.08,0-.21,0-.41.08-.62s0-.18,0-.27,0-.12,0-.18a4.37,4.37,0,0,1,.09-.5l0-.08c.07-.37.14-.73.23-1.09.11-.51.25-1,.4-1.51,0,0,0,0,0,0,.06-.21.13-.43.21-.64a2.85,2.85,0,0,1,.13-.38l.16-.45.18-.44c.12-.33.26-.64.4-1v0l.74-.89,3.19-3.82,5.13,6.17,5.14-6.17,5.14,6.17,5.14-6.17,5.13,6.17,5.14-6.17,5.14,6.17L111.33,62l.23.77c.07.27.14.53.2.8s.12.54.17.81a22.61,22.61,0,0,1,.43,3.33C112.38,68,112.39,68.22,112.4,68.49Z" fill="#fecf59"/><line fill="none" stroke="#a81e49" stroke-linecap="round" stroke-linejoin="round" stroke-width="2" x1="91.17" x2="91.17" y1="8" y2="39.67"/><rect fill="none" height="13.09" rx="5.5" ry="5.5" stroke="#a81e49" stroke-miterlimit="10" stroke-width="2" width="12" x="38" y="44.68"/><path d="M78,82a27.59,27.59,0,0,1-.2,3.3,27.91,27.91,0,0,1-1.5,6.34,25,25,0,0,1-3.27-2,24.82,24.82,0,0,1-3.63-5.57l0-.09c-.24-.51-.47-1-.67-1.56L68.51,82l-.06-.16-.12-.35,0-.1-.06-.17c0-.15-.1-.3-.14-.45s-.18-.58-.25-.87-.16-.59-.23-.89l-.18-.9c-.06-.3-.11-.6-.15-.91l0,0A24.84,24.84,0,0,1,67,73.42c0-.67,0-1.33.09-2h0v0l0-.27c0-.22,0-.44.07-.66,0,0,0,0,0-.08,0-.21,0-.41.08-.62s0-.3.07-.45a4.37,4.37,0,0,1,.09-.5l0-.08c.07-.37.14-.73.23-1.09.11-.51.25-1,.4-1.51,0,0,0,0,0,0,.06-.21.13-.43.21-.64a2.85,2.85,0,0,1,.13-.38l.16-.45.18-.44c.12-.33.26-.64.4-1v0a11.29,11.29,0,0,1,.53-1.11l.21.22a26.93,26.93,0,0,1,3.58,4.46A27.91,27.91,0,0,1,78,82Z" fill="#a81e49" opacity="0.5"/><path d="M75,84.5c0,.69,0,1.37-.08,2a29.14,29.14,0,0,1-1.5,7.56A30,30,0,0,1,22.24,104,30.08,30.08,0,0,1,15,84.5c0-.8,0-1.6.1-2.39a29.19,29.19,0,0,1,2.51-9.82v0a30,30,0,0,1,52.63-4A30,30,0,0,1,75,84.5Z" fill="#d94545"/><path d="M69.5,79.5A30,30,0,0,1,22.24,104a30,30,0,0,1,40-44A29.79,29.79,0,0,1,69.5,79.5Z" fill="#e34848"/><rect fill="#e3b132" height="8" width="32" x="29" y="51"/><rect fill="#fecf59" height="8" width="28" x="29" y="51"/><path d="M74.92,86.54a29.14,29.14,0,0,1-1.5,7.56L71.65,92l-6.17,7.41-1.79-2.15L59.32,92l-6.17,7.4L47,92l-6.17,7.4L34.65,92l-6.16,7.4L22.33,92l-4.45,5.34a.53.53,0,0,1,0-.11c-.29-.61-.56-1.24-.8-1.87-.1-.25-.2-.51-.29-.76s-.1-.28-.14-.42a.65.65,0,0,1,0-.13c-.09-.25-.17-.49-.24-.74s-.21-.69-.3-1-.19-.7-.27-1.06-.15-.72-.22-1.08-.13-.72-.18-1.09l.82,1,6.16-7.4L28.49,90l6.16-7.4L40.82,90,47,82.61,53.15,90l6.17-7.4L65.48,90l3.28-3.93,2.89-3.46Z" fill="#e3b132"/><path d="M74.58,79.49,71.65,76l-2.17,2.61-4,4.8L59.32,76l-6.17,7.4L47,76l-6.17,7.4L34.65,76l-6.16,7.4L22.33,76l-6.16,7.4L15.1,82.11v0c0-.41.08-.81.13-1.21a9.51,9.51,0,0,1,.15-1.07,9.09,9.09,0,0,1,.16-.91,24.49,24.49,0,0,1,.76-3.12c.08-.27.17-.53.26-.79a3.53,3.53,0,0,1,.15-.46c.13-.36.27-.72.41-1.07s.32-.77.49-1.15v0l4.71-5.66L28.49,74l6.16-7.4L40.82,74,47,66.61,53.15,74l6.17-7.4L65.48,74l2.72-3.25,2-2.46A29.6,29.6,0,0,1,74.58,79.49Z" fill="#e3b132"/><path d="M68.76,86.08a29.54,29.54,0,0,1-5.07,11.16L59.32,92l-6.17,7.4L47,92l-6.17,7.4L34.65,92l-6.16,7.4L22.33,92l-4.45,5.34a.53.53,0,0,1,0-.11c-.29-.61-.56-1.24-.8-1.87-.1-.25-.2-.51-.29-.76s-.1-.28-.14-.42a.65.65,0,0,1,0-.13c-.09-.25-.17-.49-.24-.74s-.21-.69-.3-1-.19-.7-.27-1.06-.15-.72-.22-1.08-.13-.72-.18-1.09l.82,1,6.16-7.4L28.49,90l6.16-7.4L40.82,90,47,82.61,53.15,90l6.17-7.4L65.48,90Z" fill="#fecf59"/><path d="M16.17,83.39,15.1,82.11v0c0-.41.08-.81.13-1.21a9.51,9.51,0,0,1,.15-1.07,9.09,9.09,0,0,1,.16-.91,24.49,24.49,0,0,1,.76-3.12c.08-.27.17-.53.26-.79a3.53,3.53,0,0,1,.15-.46c.13-.36.27-.72.41-1.07s.32-.77.49-1.15v0l4.71-5.66L28.49,74l6.16-7.4L40.82,74,47,66.61,53.15,74l6.17-7.4L65.48,74l2.72-3.25a29.42,29.42,0,0,1,1.28,7.83l-4,4.8L59.32,76l-6.17,7.4L47,76l-6.17,7.4L34.65,76l-6.16,7.4L22.33,76Z" fill="#fecf59"/><line fill="none" stroke="#a81e49" stroke-linecap="round" stroke-linejoin="round" stroke-width="2" x1="44" x2="44" y1="6" y2="44"/></g></svg>