<?xml version="1.0" ?><svg viewBox="0 0 128 128" xmlns="http://www.w3.org/2000/svg"><title/><g data-name="Fireworks" id="74c314d2-c175-476a-ae74-3ce467c10293"><polygon fill="#5161c2" points="64 15.71 65.78 19.32 69.76 19.9 66.88 22.71 67.56 26.67 64 24.8 60.44 26.67 61.12 22.71 58.24 19.9 62.22 19.32 64 15.71"/><polygon fill="#fe9f59" points="38 92.71 39.78 96.32 43.76 96.9 40.88 99.71 41.56 103.67 38 101.8 34.44 103.67 35.12 99.71 32.24 96.9 36.22 96.32 38 92.71"/><polygon fill="#fe5959" points="29.67 31.88 29.5 35.97 32.78 38.43 28.84 39.53 27.51 43.41 25.24 40 21.15 39.94 23.69 36.73 22.48 32.81 26.32 34.24 29.67 31.88"/><path d="M30,30s18-3,27,17C57,47,45,32,30,30Z" fill="#fe5959"/><path d="M83.56,66.67s4.11-17.78,26-18.44C109.59,48.23,91.14,53.58,83.56,66.67Z" fill="#fe9f59"/><path d="M111.91,76.13s3.82,13.21-10.36,21.7C101.55,97.83,111.72,87.53,111.91,76.13Z" fill="#fe9f59"/><path d="M71.14,34.81S79,23.53,94.52,29.21C94.52,29.21,80.12,27.78,71.14,34.81Z" fill="#fe9f59"/><path d="M63,119.37s-16-8.71-10.82-30C52.14,89.35,52.37,108.56,63,119.37Z" fill="#fe9f59"/><polygon fill="#fe5959" points="64 71 60.5 28 63.92 26 67.5 28 64 71"/><polygon fill="#5161c2" points="64 110 62.22 106.39 58.24 105.81 61.12 103 60.44 99.04 64 100.91 67.56 99.04 66.88 103 69.76 105.81 65.78 106.39 64 110"/><polygon fill="#fe5959" points="64 72 67.5 97.71 64.08 99.71 60.5 97.71 64 72"/><polygon fill="#fe5959" points="61.91 73.59 44.16 96.28 40.81 94.81 39.22 91.33 61.91 73.59"/><polygon fill="#fe5959" points="87.15 99.7 90.76 97.92 91.34 93.94 94.15 96.82 98.11 96.14 96.24 99.7 98.11 103.27 94.15 102.59 91.34 105.47 90.76 101.48 87.15 99.7"/><polygon fill="#fe9f59" points="68.03 75.8 90.73 93.54 89.25 96.9 85.78 98.49 68.03 75.8"/><polygon fill="#fe9f59" points="99.02 75.03 100.31 71.22 97.89 68 101.91 68.04 104.22 64.75 105.43 68.58 109.28 69.77 106 72.1 106.06 76.13 102.83 73.73 99.02 75.03"/><polygon fill="#fe5959" points="65.59 71.71 94.18 68.12 95.52 71.54 94.2 75.12 65.59 71.71"/><polygon fill="#fe9f59" points="91.88 48.49 90.09 44.89 86.1 44.32 88.98 41.5 88.28 37.54 91.85 39.4 95.41 37.52 94.74 41.49 97.63 44.29 93.65 44.88 91.88 48.49"/><polygon fill="#5161c2" points="65.89 69.78 83.57 47.03 86.93 48.5 88.53 51.97 65.89 69.78"/><polygon fill="#fe9f59" points="62 71 34.96 40.39 31.6 41.85 29.99 45.32 62 71"/><polygon fill="#fe5959" points="24.98 75.03 23.7 71.22 26.11 68 22.09 68.04 19.77 64.75 18.57 68.58 14.72 69.77 18 72.1 17.94 76.13 21.17 73.73 24.98 75.03"/><polygon fill="#5161c2" points="62 71.71 27.97 68.08 26 71.49 27.95 75.08 62 71.71"/><circle cx="102" cy="43" fill="none" r="2.5" stroke="#fe5959" stroke-miterlimit="10"/><circle cx="28" cy="59" fill="none" r="2.5" stroke="#fe5959" stroke-miterlimit="10"/><circle cx="21" cy="96" fill="none" r="2.5" stroke="#7688f1" stroke-miterlimit="10"/><circle cx="73" cy="49" fill="none" r="2.5" stroke="#7688f1" stroke-miterlimit="10"/><circle cx="73" cy="93" fill="#fe5959" r="1.5"/><circle cx="69.5" cy="57.5" fill="#fe5959" r="1.5"/><circle cx="55.5" cy="50.5" fill="#323a4a" r="1.5"/><circle cx="39.5" cy="82.5" fill="#323a4a" r="1.5"/><circle cx="75.5" cy="66.5" fill="#323a4a" r="1.5"/><circle cx="39.5" cy="39.5" fill="#fe9f59" r="1.5"/><circle cx="41.5" cy="60.5" fill="#fe9f59" r="1.5"/><circle cx="51.5" cy="30.5" fill="#fe9f59" r="1.5"/><circle cx="29.5" cy="81.5" fill="#fe9f59" r="1.5"/><circle cx="82.5" cy="78.5" fill="#fe9f59" r="1.5"/><circle cx="29.5" cy="92.5" fill="none" r="2.5" stroke="#fe9f59" stroke-miterlimit="10" stroke-width="2"/><circle cx="96.5" cy="83.5" fill="none" r="2.5" stroke="#fe5959" stroke-miterlimit="10" stroke-width="2"/></g></svg>