<?xml version="1.0" ?><svg viewBox="0 0 128 128" xmlns="http://www.w3.org/2000/svg"><title/><g data-name="Ball Bell" id="df9ad597-7a56-4e7b-b86b-94d59ee361ce"><path d="M40,60a5,5,0,1,1,5-5A5,5,0,0,1,40,60Zm0-8a3,3,0,1,0,3,3A3,3,0,0,0,40,52Z" fill="#fec126"/><path d="M76,38a5,5,0,1,1,5-5A5,5,0,0,1,76,38Zm0-8a3,3,0,1,0,3,3A3,3,0,0,0,76,30Z" fill="#fec126"/><path d="M68,82a27.43,27.43,0,0,1-.45,5A27.94,27.94,0,0,1,61.7,99.7a29.08,29.08,0,0,1-4,4,27.93,27.93,0,0,1-15.2,6.19c-.82.07-1.66.11-2.5.11s-1.68,0-2.5-.11c-.5-.05-1-.1-1.5-.17a28,28,0,0,1-13.7-6,29.08,29.08,0,0,1-4-4A27.94,27.94,0,0,1,12.45,87,27.43,27.43,0,0,1,12,82c0-.34,0-.67,0-1A28,28,0,0,1,36,54.29,27.69,27.69,0,0,1,40,54,28,28,0,0,1,68,81C68,81.33,68,81.66,68,82Z" fill="#fec942"/><path d="M60,82a27.94,27.94,0,0,1-6.3,17.7,29.08,29.08,0,0,1-4,4,28,28,0,0,1-13.7,6,28,28,0,0,1-13.7-6,29.08,29.08,0,0,1-4-4A28,28,0,0,1,36,54.29,28,28,0,0,1,60,82Z" fill="#fecf59"/><path d="M68,82a27.43,27.43,0,0,1-.45,5H12.45A27.43,27.43,0,0,1,12,82c0-.34,0-.67,0-1H68C68,81.33,68,81.66,68,82Z" fill="#fec126"/><rect fill="#fe762e" height="6" rx="2" ry="2" width="62" x="9" y="79"/><rect fill="#fe9259" height="6" rx="2" ry="2" width="52" x="9" y="79"/><circle cx="40" cy="99" fill="#d9ac3b" r="5"/><path d="M24,101a3,3,0,0,1-1.7,2.7,29.08,29.08,0,0,1-4-4A3,3,0,0,1,24,101Z" fill="#d9ac3b"/><path d="M61.7,99.7a29.08,29.08,0,0,1-4,4,3,3,0,1,1,4-4Z" fill="#d9ac3b"/><path d="M42.5,103v6.89c-.82.07-1.66.11-2.5.11s-1.68,0-2.5-.11V103Z" fill="#d9ac3b"/><ellipse cx="26" cy="62.5" fill="#fedc87" rx="3.5" ry="3" transform="translate(-36.58 36.69) rotate(-45)"/><ellipse cx="21.88" cy="67.5" fill="#fedc87" rx="1.77" ry="1.52" transform="translate(-41.32 35.24) rotate(-45)"/><path d="M118.08,44.29a24.49,24.49,0,0,1,.81,4.41,25,25,0,0,1-2,12.33,26,26,0,0,1-2.48,4.4,24.94,24.94,0,0,1-11.59,9c-.69.26-1.4.49-2.12.69s-1.45.37-2.18.5c-.44.08-.88.15-1.33.21A25,25,0,0,1,84,73.91a26,26,0,0,1-4.4-2.48A25,25,0,0,1,71.5,61.9a24.49,24.49,0,0,1-1.59-4.19c-.08-.29-.15-.58-.22-.86A25,25,0,0,1,83.92,28.13a24.73,24.73,0,0,1,3.37-1.21,25,25,0,0,1,30.53,16.52C117.91,43.71,118,44,118.08,44.29Z" fill="#fec942"/><path d="M111.2,46.21A25,25,0,0,1,110,62.94a26,26,0,0,1-2.48,4.4A25,25,0,0,1,97.2,75.8,25,25,0,0,1,84,73.91a26,26,0,0,1-4.4-2.48,25,25,0,0,1,4.34-43.3A25,25,0,0,1,111.2,46.21Z" fill="#fecf59"/><path d="M118.08,44.29a24.49,24.49,0,0,1,.81,4.41L71.5,61.9a24.49,24.49,0,0,1-1.59-4.19c-.08-.29-.15-.58-.22-.86l48.12-13.41C117.91,43.71,118,44,118.08,44.29Z" fill="#fec126"/><rect fill="#fe762e" height="5.36" rx="2" ry="2" transform="translate(-10.24 27.11) rotate(-15.57)" width="55.36" x="66.32" y="48.32"/><rect fill="#fe9259" height="5.36" rx="2" ry="2" transform="translate(-10.72 26) rotate(-15.57)" width="46.43" x="66.49" y="49.52"/><circle cx="98.08" cy="65.62" fill="#d9ac3b" r="4.46" transform="translate(-14.02 28.74) rotate(-15.57)"/><path d="M84.79,71.18A2.66,2.66,0,0,1,84,73.91a26,26,0,0,1-4.4-2.48,2.68,2.68,0,0,1,5.21-.25Z" fill="#d9ac3b"/><path d="M116.91,61a26,26,0,0,1-2.48,4.4,2.68,2.68,0,1,1,2.48-4.4Z" fill="#d9ac3b"/><path d="M101.18,68.46l1.65,5.93c-.69.26-1.4.49-2.12.69s-1.45.37-2.18.5l-1.65-5.93Z" fill="#d9ac3b"/><ellipse cx="77.28" cy="37.58" fill="#fedc87" rx="3.12" ry="2.68" transform="translate(6.58 86.43) rotate(-60.57)"/><ellipse cx="74.94" cy="42.87" fill="#fedc87" rx="1.58" ry="1.35" transform="translate(0.78 87.08) rotate(-60.57)"/><path d="M42.76,53.82h0c-.93.09-1.84.14-2.73.17h-.79C25.66,54,12.89,44,4.11,26.45a1,1,0,1,1,1.78-.9C14.48,42.73,26.89,52.37,40,52c.51,0,1,0,1.6-.09l0,0C42.13,52.11,42.76,53.82,42.76,53.82Z" fill="#a81e49"/><path d="M73.33,37.22c-7.57,10.08-18.86,15-28.55,16.36a6.71,6.71,0,0,0-1-1.89h0c8.4-1.14,20.3-5.47,28.1-15.9A5,5,0,0,0,73.33,37.22Z" fill="#a81e49"/><path d="M77.91,29.41a41.71,41.71,0,0,1-3.53,6.11A3,3,0,0,1,73.16,34l.05-.08a37.57,37.57,0,0,0,2.88-5.29c7.56-17,.45-21.7.38-21.74a1,1,0,0,1,1.06-1.7C77.89,5.38,86.17,10.83,77.91,29.41Z" fill="#a81e49"/></g></svg>