<?xml version="1.0" ?><!DOCTYPE svg  PUBLIC '-//W3C//DTD SVG 1.1//EN'  'http://www.w3.org/Graphics/SVG/1.1/DTD/svg11.dtd'><svg enable-background="new 0 0 38.747 38.055" height="38.055px" id="Layer_1" version="1.1" viewBox="0 0 38.747 38.055" width="38.747px" xml:space="preserve" xmlns="http://www.w3.org/2000/svg" xmlns:xlink="http://www.w3.org/1999/xlink"><g><g><g><path d="M10.447,38.055c-0.256,0.001-0.513-0.043-0.753-0.143c-2.31-0.949-3.017-2.686-2.101-5.161     c0.057-0.153,0.033-0.438,0.009-0.714c-0.016-0.189-0.031-0.379-0.031-0.562c0-0.414,0.336-0.75,0.75-0.75s0.75,0.336,0.75,0.75     c0,0.142,0.013,0.288,0.026,0.434c0.036,0.42,0.076,0.896-0.097,1.363c-0.64,1.729-0.297,2.61,1.266,3.253     c0.192,0.077,0.645-0.013,0.878-0.229l0.132-0.122c0.696-0.643,1.415-1.307,1.95-2.07c0.514-0.733,0.881-1.626,1.236-2.489     l0.096-0.233c0.358-0.864,1.355-1.3,2.266-0.988c3.777,1.294,7.091,0.639,10.132-2.004c3.822-3.317,5.428-7.447,4.772-12.275     c-0.564-4.149,0.686-9.691,5.885-12.795c0.354-0.213,0.815-0.097,1.028,0.26c0.212,0.355,0.096,0.816-0.26,1.028     c-4.572,2.73-5.667,7.63-5.167,11.306c0.728,5.36-1.046,9.939-5.275,13.609c-3.431,2.981-7.334,3.75-11.6,2.291     c-0.158-0.057-0.34,0.01-0.395,0.141l-0.095,0.231c-0.386,0.938-0.785,1.909-1.395,2.78c-0.627,0.896-1.442,1.647-2.161,2.311     l-0.131,0.122C11.762,37.768,11.104,38.055,10.447,38.055z"/></g></g><g><g><path d="M22.329,12.951c-0.252,0-0.516-0.079-0.771-0.238c-3.712-2.3-5.382-5.798-6.997-9.18     c-0.228-0.477-0.455-0.953-0.687-1.424c-0.183-0.372-0.03-0.821,0.341-1.004c0.37-0.183,0.821-0.031,1.004,0.341     c0.235,0.477,0.465,0.958,0.695,1.44c1.527,3.2,2.973,6.229,6.038,8.296l-0.515-6.407c-0.062-0.753,0.276-1.744,0.784-2.303     l1.383-1.524c0.497-0.548,1.425-0.942,2.215-0.942c0.07-0.001,0.145,0.001,0.217,0.001c0.168,0,0.335-0.001,0.501-0.003     c1.352-0.013,2.627-0.024,3.501,0.713c1.866,1.573,4.018,1.889,6.295,2.222c0.599,0.088,1.2,0.176,1.797,0.287     c0.407,0.076,0.676,0.467,0.601,0.874C38.658,4.507,38.267,4.777,37.86,4.7c-0.579-0.107-1.16-0.192-1.741-0.277     c-2.386-0.35-4.853-0.711-7.044-2.56c-0.449-0.378-1.5-0.367-2.521-0.36c-0.241,0.002-0.485,0.004-0.727,0.002     c-0.002,0-0.004,0-0.006,0c-0.358,0-0.892,0.217-1.103,0.449l-1.384,1.526c-0.234,0.257-0.428,0.827-0.399,1.173l0.555,6.859     c0.045,0.553-0.167,1.028-0.566,1.272C22.741,12.896,22.539,12.951,22.329,12.951z"/></g></g><g><g><path d="M14.364,22.401c-0.132,0-0.265-0.034-0.386-0.107C6.452,17.763,3.42,10.171,6.066,2.482     c0.135-0.391,0.563-0.598,0.953-0.465c0.392,0.135,0.6,0.562,0.465,0.953c-2.402,6.981,0.383,13.893,7.267,18.038     c0.355,0.214,0.469,0.675,0.256,1.029C14.866,22.272,14.618,22.401,14.364,22.401z"/></g></g><g><g><path d="M5.229,26.352c-0.113,0-0.228-0.025-0.335-0.079l-3.868-1.934c-0.44-0.221-0.781-0.618-0.936-1.092     c-0.145-0.441-0.113-0.9,0.089-1.294c1.146-2.238,3.353-2.93,5.904-1.854c3.123,1.318,6.188,1.01,9.435,0.688     c1.071-0.106,2.179-0.217,3.282-0.263c0.416-0.035,0.763,0.304,0.781,0.718c0.017,0.414-0.304,0.764-0.718,0.78     c-1.06,0.045-2.146,0.153-3.196,0.258c-3.29,0.326-6.692,0.667-10.167-0.798c-1.272-0.538-2.998-0.772-3.986,1.155     c-0.024,0.047-0.009,0.109,0.001,0.143c0.03,0.092,0.102,0.177,0.182,0.217l3.868,1.934c0.371,0.186,0.521,0.636,0.335,1.007     C5.769,26.2,5.503,26.352,5.229,26.352z"/></g></g><g><g><path d="M5.568,33.099c-0.405,0-0.804-0.105-1.125-0.322c-1.362-0.916-2.072-1.843-2.17-2.833     c-0.088-0.891,0.31-1.767,1.216-2.679c0.218-0.22,0.435-0.448,0.653-0.679c0.675-0.713,1.373-1.45,2.204-2.03     c0.34-0.237,0.807-0.155,1.044,0.185c0.237,0.339,0.155,0.807-0.185,1.044c-0.706,0.494-1.35,1.175-1.974,1.833     c-0.227,0.239-0.452,0.477-0.678,0.704c-0.563,0.567-0.829,1.063-0.788,1.475c0.05,0.51,0.56,1.094,1.515,1.736     c0.171,0.116,0.547,0.081,0.73-0.069l3.688-3.039c0.32-0.264,0.792-0.219,1.056,0.101c0.264,0.32,0.218,0.793-0.102,1.056     l-3.69,3.042C6.578,32.937,6.068,33.099,5.568,33.099z"/></g></g><g><g><path d="M21.165,12.872c-3.318,0-8.193-1.955-11.588-4.727C8.051,6.9,6.197,4.959,6.027,2.785     C5.995,2.372,6.304,2.011,6.716,1.979C7.136,1.938,7.49,2.255,7.522,2.668c0.101,1.284,1.167,2.816,3.003,4.315     c3.375,2.755,8.46,4.71,11.336,4.349c0.41-0.054,0.786,0.241,0.836,0.651c0.051,0.411-0.241,0.786-0.652,0.837     C21.768,12.855,21.472,12.872,21.165,12.872z"/></g></g><g><g><path d="M10.737,8.839c-0.307,0-0.594-0.189-0.705-0.494C9.275,6.264,9.817,4.67,10.405,3.7c0.865-1.427,2.414-2.448,4.043-2.666     c0.406-0.056,0.787,0.234,0.842,0.645s-0.233,0.788-0.644,0.843c-1.172,0.156-2.333,0.924-2.958,1.956     c-0.418,0.69-0.8,1.832-0.246,3.356c0.141,0.39-0.06,0.82-0.449,0.961C10.908,8.825,10.822,8.839,10.737,8.839z"/></g></g></g></svg>