<?xml version="1.0"?>
<svg xmlns:rdf="http://www.w3.org/1999/02/22-rdf-syntax-ns#" xmlns="http://www.w3.org/2000/svg" xmlns:cc="http://creativecommons.org/ns#" xmlns:xlink="http://www.w3.org/1999/xlink" xmlns:dc="http://purl.org/dc/elements/1.1/" xmlns:svg="http://www.w3.org/2000/svg" id="svg2" viewBox="0 0 552.17 540" version="1.1">
  <defs id="defs4">
    <linearGradient id="linearGradient4534">
      <stop id="stop4536" stop-color="#f3f341" offset="0"/>
      <stop id="stop4538" stop-color="#f3f341" stop-opacity="0" offset="1"/>
    </linearGradient>
    <filter id="filter3976" color-interpolation-filters="sRGB">
      <feGaussianBlur id="feGaussianBlur3978" stdDeviation="14.053995"/>
    </filter>
    <clipPath id="clipPath3980" clipPathUnits="userSpaceOnUse">
      <path id="path3982" opacity=".43805" d="m1709.2 1387.7a654.58 638.42 0 1 1 -1309.2 0 654.58 638.42 0 1 1 1309.2 0z" transform="translate(-6.1319 12.219)" filter="url(#filter3976)" stroke="#ede50f" stroke-width="30.31" fill="#dcf846"/>
    </clipPath>
    <filter id="filter4554" width="1.5286" y="-.26789" x="-.26431" height="1.5358" color-interpolation-filters="sRGB">
      <feGaussianBlur id="feGaussianBlur4556" stdDeviation="8.3389784"/>
    </filter>
    <filter id="filter4592" color-interpolation-filters="sRGB">
      <feGaussianBlur id="feGaussianBlur4594" stdDeviation="13.59721"/>
    </filter>
    <radialGradient id="radialGradient5052" xlink:href="#linearGradient4534" gradientUnits="userSpaceOnUse" cy="605.75" cx="-342.9" gradientTransform="matrix(1 0 0 .98666 -4.2857 8.0812)" r="37.86"/>
    <filter id="filter5113" width="1.1771" y="-.1126" x="-.088539" height="1.2252" color-interpolation-filters="sRGB">
      <feGaussianBlur id="feGaussianBlur5115" stdDeviation="2.1354158"/>
    </filter>
    <radialGradient id="radialGradient5220" xlink:href="#linearGradient4534" gradientUnits="userSpaceOnUse" cy="605.75" cx="-342.9" gradientTransform="matrix(.44868 0 0 .44270 431.01 356.98)" r="37.86"/>
    <radialGradient id="radialGradient5222" gradientUnits="userSpaceOnUse" cy="1063.7" cx="1056.3" gradientTransform="matrix(.44914 .050803 -.040888 .34249 616.66 655.49)" r="651.51">
      <stop id="stop4079" stop-color="#fbfbfb" offset="0"/>
      <stop id="stop4081" stop-color="#fbfbfb" stop-opacity="0" offset="1"/>
    </radialGradient>
  </defs>
  <g id="layer1" transform="translate(-99.668 -304.06)">
    <path id="path4030" filter="url(#filter5113)" fill="#f4f8f8" d="m262.47 400.64c-6.5578 4.2203-11.426-17.79-34.545-34.578-15.656-11.369-25.275-4.885-18.717-9.1052 6.5578-4.2203 23.797 2.1374 38.505 14.2s21.315 25.263 14.757 29.483z"/>
    <g id="g5194" transform="matrix(1.4454 0 0 1.4454 -33.696 -381.98)">
      <path id="path3984" fill="#4f85b6" d="m279.71 488.65c-76.734-0.44537-150.5 52.432-172.39 125.96-18.522 59.264-2.8188 127.82 40.594 172.42 45.671 48.504 119.26 68.914 183.73 50.089 63.501-17.717 116.05-71.628 128.17-136.71 11.658-57.981-8.0574-121.24-51.593-161.39-34.09-32.386-81.214-51.189-128.51-50.376z"/>
      <path id="path5134" fill="#9af405" d="m271.45 653.94c10.005 0.86921 15.077 10.783 19.506 18.521 13.772 23.211 16.606 53.078 5.4604 77.906-5.3222 14.472-9.5939 29.837-7.8438 45.394-0.041 9.1085-0.45476 18.278 0.91396 27.32-0.67406 5.768-11.478 14.301-10.619 3.4774-0.89576-16.557-1.2369-33.332 1.4853-49.731 4.6343-18.821 15.269-36.968 12.614-56.953-1.6771-18.907-8.9926-37.843-22.773-51.225-8.6155 0.0172-5.2436-11.645 0.4698-13.664 0.26227-0.34854 0.52448-0.69716 0.78675-1.0457z"/>
      <path id="path5146" fill="#9af405" d="m288.9 830.13c-21.836-37.698-40.288-103.81-60.609-140.41 14.666 43.049 10.151 127.88 60.609 151.52"/>
      <path id="path5136" transform="translate(121.22 445.88)" fill="#9af405" d="m165.67 360c21.836-37.698 40.288-103.81 60.609-140.41-14.666 43.049-10.151 127.88-60.609 151.52"/>
      <path id="path3985" d="m303.76 626.1c0 12.265-10.045 22.209-22.435 22.209-12.391 0-22.435-9.9432-22.435-22.209 0-12.265 10.045-22.209 22.435-22.209 12.391 0 22.435 9.9431 22.435 22.209z" fill="#d9d906"/>
      <path id="path4496" stroke="#f3f311" stroke-width=".44868" fill="#fcfcfc" d="m290.17 579.87c0 21.527-3.957 38.978-8.8381 38.978-4.8812 0-8.8381-17.451-8.8381-38.978s3.957-38.978 8.8381-38.978c4.8812 0 8.8381 17.451 8.8381 38.978z"/>
      <path id="path4500" stroke="#f3f311" stroke-width=".44868" fill="#fcfcfc" d="m272.6 672.35c-0.0495-21.527 3.8673-38.987 8.7485-38.999 4.8812-0.0112 8.8782 17.431 8.9277 38.958s-3.8673 38.987-8.7485 38.999c-4.8812 0.0112-8.8782-17.431-8.9277-38.958z"/>
      <path id="path4502" stroke="#f3f311" stroke-width=".44868" fill="#fcfcfc" d="m234.99 617.83c21.526-0.26459 39.024 3.4776 39.084 8.3584s-17.341 9.052-38.867 9.3165c-21.526 0.26459-39.024-3.4776-39.084-8.3584s17.341-9.052 38.867-9.3165z"/>
      <path id="path4504" stroke="#f3f311" stroke-width=".44868" fill="#fcfcfc" d="m253.39 588.22c15.803 14.618 25.928 29.372 22.613 32.956-3.3144 3.5833-18.812-5.3617-34.616-19.979-15.803-14.618-25.928-29.372-22.613-32.956 3.3144-3.5833 18.812 5.3617 34.616 19.979z"/>
      <path id="path4506" stroke="#f3f311" stroke-width=".44868" fill="#fcfcfc" d="m320.39 599.85c-15.296 15.148-30.48 24.616-33.914 21.148-3.4347-3.4682 6.1804-18.56 21.476-33.708s30.48-24.616 33.914-21.148c3.4347 3.4682-6.1804 18.56-21.476 33.708z"/>
      <path id="path4508" stroke="#f3f311" stroke-width=".44868" fill="#fcfcfc" d="m307.46 665.25c-15.1-15.343-24.52-30.557-21.041-33.981 3.479-3.4238 18.54 6.2388 33.64 21.582s24.52 30.557 21.041 33.981c-3.479 3.4238-18.54-6.2388-33.64-21.582z"/>
      <path id="path4510" stroke="#f3f311" stroke-width=".44868" fill="#fcfcfc" d="m242.47 652.66c15.175-15.269 30.283-24.857 33.746-21.416 3.4621 3.4409-6.0331 18.608-21.208 33.877s-30.283 24.857-33.746 21.416c-3.4621-3.4408 6.0331-18.608 21.208-33.877z"/>
      <path id="path4512" stroke="#f3f311" stroke-width=".44868" fill="#fcfcfc" d="m235.21 635.5c19.911-8.1847 37.556-11.16 39.412-6.6453 1.8558 4.5146-12.78 14.809-32.691 22.994-19.911 8.1847-37.556 11.16-39.412 6.6453-1.8558-4.5146 12.78-14.809 32.691-22.994z"/>
      <path id="path4514" stroke="#f3f311" stroke-width=".44868" fill="#fcfcfc" d="m242.04 600.18c19.875 8.2701 34.467 18.628 32.592 23.134-1.8752 4.5066-19.507 1.4556-39.383-6.8145-19.875-8.2701-34.467-18.628-32.592-23.134 1.8752-4.5066 19.507-1.4556 39.383 6.8145z"/>
      <path id="path4516" stroke="#f3f311" stroke-width=".44868" fill="#fcfcfc" d="m269.14 580.64c9.3784 19.377 13.419 36.809 9.0258 38.935-4.3936 2.1265-15.558-11.858-24.936-31.235-9.3784-19.377-13.419-36.809-9.0258-38.935 4.3936-2.1265 15.558 11.858 24.936 31.235z"/>
      <path id="path4518" stroke="#f3f311" stroke-width=".44868" fill="#fcfcfc" d="m307.82 587.2c-8.5606 19.752-19.131 34.19-23.61 32.249-4.4786-1.9411-1.1695-19.527 7.3912-39.278 8.5606-19.752 19.131-34.19 23.61-32.249 4.4786 1.9411 1.1695 19.527-7.3911 39.278z"/>
      <path id="path4520" stroke="#f3f311" stroke-width=".44868" fill="#fcfcfc" d="m327.36 616.28c-19.835 8.3654-37.453 11.501-39.349 7.0034-1.8968-4.4975 12.645-14.925 32.481-23.29 19.835-8.3654 37.453-11.501 39.349-7.0034 1.8968 4.4975-12.645 14.925-32.481 23.29z"/>
      <path id="path5192" fill="#9af405" d="m107.32 614.61c-18.522 59.264-2.8188 127.82 40.594 172.42 45.671 48.504 119.26 68.914 183.73 50.089 63.501-17.717 116.05-71.628 128.17-136.71-122.87 204.37-334.44 120.2-352.49-85.804z"/>
      <path id="path4522" stroke="#f3f311" stroke-width=".44868" fill="#fcfcfc" d="m296.92 821.16c-19.888-8.2399-30.455-27.667-28.586-32.176 1.8683-4.5094 16.98 8.6162 36.868 16.856 19.888 8.2399 37.021 8.4737 35.152 12.983-1.8683 4.5094-23.546 10.577-43.434 2.3368z"/>
      <path id="path4524" stroke="#f3f311" stroke-width=".44868" fill="#fcfcfc" d="m291.29 672.1c-8.425-19.81-11.613-37.418-7.1216-39.328 4.4918-1.9103 14.963 12.6 23.388 32.41s11.613 37.418 7.1216 39.328c-4.4918 1.9103-14.963-12.6-23.388-32.41z"/>
      <path id="path4498" stroke="#f3f311" stroke-width=".44868" fill="#fcfcfc" d="m358.52 759.23c-20.189 7.4728-41.362 4.6003-43.056 0.0227-1.6944-4.5776 16.923-7.0533 37.111-14.526 20.189-7.4728 34.304-17.113 35.998-12.535 1.6944 4.5776-9.8646 19.566-30.053 27.039z"/>
      <path id="path4526" stroke="#f3f311" stroke-width=".44868" fill="#fcfcfc" d="m254.53 664.8c8.7147-19.684 19.398-34.04 23.861-32.064 4.4633 1.976 1.0169 19.535-7.6979 39.22-8.7147 19.684-19.398 34.04-23.861 32.064-4.4633-1.976-1.0169-19.535 7.6978-39.22z"/>
      <path id="path4530" d="m-305.04 605.75c0 20.63-16.95 37.355-37.86 37.355-20.909 0-37.86-16.724-37.86-37.355 0-20.63 16.95-37.355 37.86-37.355 20.909 0 37.86 16.724 37.86 37.355z" transform="matrix(.44868 0 0 .44868 432.94 353.35)" filter="url(#filter4554)" stroke="#f3b011" stroke-width="5.6" fill="#f3f307"/>
      <path id="path4532" d="m294.15 625.14c0 9.2565-7.6053 16.76-16.987 16.76-9.3816 0-16.987-7.5039-16.987-16.76 0-9.2565 7.6053-16.76 16.987-16.76 9.3816 0 16.987 7.5039 16.987 16.76z" fill="url(#radialGradient5220)"/>
    </g>
    <flowRoot id="flowRoot4625" style="word-spacing:0px;letter-spacing:0px" xml:space="preserve" transform="translate(121.22 445.88)" line-height="125%" font-size="56px" font-family="Sans" fill="#000000">
      <flowRegion id="flowRegion4627">
        <rect id="rect4629" ry="0" height="40" width="275.71" y="-18.571" x="-340"/>
      </flowRegion>
      <flowPara id="flowPara4631"/>
    </flowRoot>
    <g id="g5000" transform="translate(813.32 -122.53)">
      <path id="path5002" d="m277.76 531.5c-54.837-0.31828-107.56 37.469-123.2 90.015-13.236 42.352-2.0144 91.345 29.01 123.22 32.638 34.663 85.227 49.248 131.3 35.796 45.38-12.661 82.932-51.188 91.594-97.698 8.3315-41.435-5.7581-86.642-36.87-115.33-24.362-23.144-58.039-36.582-91.84-36z" fill="#4f85b6"/>
      <path id="path5004" filter="url(#filter4592)" transform="matrix(.16080 0 0 .15161 310.47 484.32)" fill="#5ca6ea" d="m573.77 1139.2c0 438.5-344.62 793.98-769.74 793.98-425.11 0-769.74-355.48-769.74-793.98s344.62-793.98 769.74-793.98c425.11 0 769.74 355.48 769.74 793.98z"/>
      <path id="path5006" fill="#f4f8f8" d="m358.19 604.92c-6.5578 4.2203-11.426-17.79-34.545-34.578-15.656-11.369-25.275-4.885-18.717-9.1052 6.5578-4.2203 23.797 2.1374 38.505 14.2s21.315 25.263 14.757 29.483z"/>
      <g id="g5008" transform="matrix(.44868 0 0 .44868 428.89 386.68)">
        <path id="path5010" transform="translate(121.22 445.88)" fill="#d9d906" d="m-409.11 162.01c0 27.337-22.387 49.497-50.003 49.497s-50.003-22.161-50.003-49.497c0-27.337 22.387-49.497 50.003-49.497s50.003 22.161 50.003 49.497z"/>
        <path id="path5012" stroke="#f3f311" transform="translate(116.17 446.9)" fill="#fcfcfc" d="m-434.37 57.964c0 47.979-8.8191 86.873-19.698 86.873s-19.698-38.894-19.698-86.873 8.8191-86.873 19.698-86.873 19.698 38.894 19.698 86.873z"/>
        <path id="path5014" stroke="#f3f311" transform="matrix(.017638 .99984 -.99984 .017638 -168.91 1059)" fill="#fcfcfc" d="m-434.37 57.964c0 47.979-8.8191 86.873-19.698 86.873s-19.698-38.894-19.698-86.873 8.8191-86.873 19.698-86.873 19.698 38.894 19.698 86.873z"/>
        <path id="path5016" stroke="#f3f311" transform="matrix(-1 .0022994 -.0022994 -1 -791.59 769.94)" fill="#fcfcfc" d="m-434.37 57.964c0 47.979-8.8191 86.873-19.698 86.873s-19.698-38.894-19.698-86.873 8.8191-86.873 19.698-86.873 19.698 38.894 19.698 86.873z"/>
        <path id="path5018" stroke="#f3f311" transform="matrix(-.012291 -.99992 .99992 -.012291 -504.46 155.84)" fill="#fcfcfc" d="m-434.37 57.964c0 47.979-8.8191 86.873-19.698 86.873s-19.698-38.894-19.698-86.873 8.8191-86.873 19.698-86.873 19.698 38.894 19.698 86.873z"/>
        <path id="path5020" stroke="#f3f311" transform="matrix(.67903 -.73411 .73411 .67903 -147.77 165.24)" fill="#fcfcfc" d="m-434.37 57.964c0 47.979-8.8191 86.873-19.698 86.873s-19.698-38.894-19.698-86.873 8.8191-86.873 19.698-86.873 19.698 38.894 19.698 86.873z"/>
        <path id="path5022" stroke="#f3f311" transform="matrix(.70367 .71053 -.71053 .70367 96.01 817.23)" fill="#fcfcfc" d="m-434.37 57.964c0 47.979-8.8191 86.873-19.698 86.873s-19.698-38.894-19.698-86.873 8.8191-86.873 19.698-86.873 19.698 38.894 19.698 86.873z"/>
        <path id="path5024" stroke="#f3f311" transform="matrix(-.71274 .70143 -.70143 -.71274 -548.59 1041.1)" fill="#fcfcfc" d="m-434.37 57.964c0 47.979-8.8191 86.873-19.698 86.873s-19.698-38.894-19.698-86.873 8.8191-86.873 19.698-86.873 19.698 38.894 19.698 86.873z"/>
        <path id="path5026" stroke="#f3f311" transform="matrix(-.70928 -.70493 .70493 -.70928 -773.45 402.01)" fill="#fcfcfc" d="m-434.37 57.964c0 47.979-8.8191 86.873-19.698 86.873s-19.698-38.894-19.698-86.873 8.8191-86.873 19.698-86.873 19.698 38.894 19.698 86.873z"/>
        <path id="path5028" stroke="#f3f311" transform="matrix(-.38020 -.92490 .92490 -.38020 -659.44 249.14)" fill="#fcfcfc" d="m-434.37 57.964c0 47.979-8.8191 86.873-19.698 86.873s-19.698-38.894-19.698-86.873 8.8191-86.873 19.698-86.873 19.698 38.894 19.698 86.873z"/>
        <path id="path5030" stroke="#f3f311" transform="matrix(.38417 -.92326 .92326 .38417 -312.1 126.82)" fill="#fcfcfc" d="m-434.37 57.964c0 47.979-8.8191 86.873-19.698 86.873s-19.698-38.894-19.698-86.873 8.8191-86.873 19.698-86.873 19.698 38.894 19.698 86.873z"/>
        <path id="path5032" stroke="#f3f311" transform="matrix(.90011 -.43565 .43565 .90011 .67290 265.16)" fill="#fcfcfc" d="m-434.37 57.964c0 47.979-8.8191 86.873-19.698 86.873s-19.698-38.894-19.698-86.873 8.8191-86.873 19.698-86.873 19.698 38.894 19.698 86.873z"/>
        <path id="path5034" stroke="#f3f311" transform="matrix(.91753 .39767 -.39767 .91753 142.75 640.74)" fill="#fcfcfc" d="m-434.37 57.964c0 47.979-8.8191 86.873-19.698 86.873s-19.698-38.894-19.698-86.873 8.8191-86.873 19.698-86.873 19.698 38.894 19.698 86.873z"/>
        <path id="path5036" stroke="#f3f311" transform="matrix(.38860 .92141 -.92141 .38860 -13.102 963.71)" fill="#fcfcfc" d="m-434.37 57.964c0 47.979-8.8191 86.873-19.698 86.873s-19.698-38.894-19.698-86.873 8.8191-86.873 19.698-86.873 19.698 38.894 19.698 86.873z"/>
        <path id="path5038" stroke="#f3f311" transform="matrix(-.38277 .92385 -.92385 -.38277 -362.96 1089)" fill="#fcfcfc" d="m-434.37 57.964c0 47.979-8.8191 86.873-19.698 86.873s-19.698-38.894-19.698-86.873 8.8191-86.873 19.698-86.873 19.698 38.894 19.698 86.873z"/>
        <path id="path5040" stroke="#f3f311" transform="matrix(-.92024 .39136 -.39136 -.92024 -692.73 933.76)" fill="#fcfcfc" d="m-434.37 57.964c0 47.979-8.8191 86.873-19.698 86.873s-19.698-38.894-19.698-86.873 8.8191-86.873 19.698-86.873 19.698 38.894 19.698 86.873z"/>
        <path id="path5042" stroke="#f3f311" transform="matrix(-.91439 -.40482 .40482 -.91439 -818.27 571.3)" fill="#fcfcfc" d="m-434.37 57.964c0 47.979-8.8191 86.873-19.698 86.873s-19.698-38.894-19.698-86.873 8.8191-86.873 19.698-86.873 19.698 38.894 19.698 86.873z"/>
        <path id="path5044" d="m-305.04 605.75c0 20.63-16.95 37.355-37.86 37.355-20.909 0-37.86-16.724-37.86-37.355 0-20.63 16.95-37.355 37.86-37.355 20.909 0 37.86 16.724 37.86 37.355z" filter="url(#filter4554)" stroke="#f3b011" stroke-width="5.6" fill="#f3f307"/>
        <path id="path5046" d="m-309.32 605.75c0 20.63-16.95 37.355-37.86 37.355-20.909 0-37.86-16.724-37.86-37.355 0-20.63 16.95-37.355 37.86-37.355 20.909 0 37.86 16.724 37.86 37.355z" fill="url(#radialGradient5052)"/>
      </g>
      <path id="path5048" opacity=".084071" fill="#0d1822" d="m402.27 659.3c0 62.882-55.414 118.12-123.77 118.12-68.357 0-103.44-31.139-123.77-118.12-0.97327-4.1649 22.723 83.86 133.92 78.08 117.79-6.1229 113.62-91.911 113.62-78.08z"/>
      <path id="path5050" opacity=".75664" d="m1709.2 1387.7c0 352.59-293.06 638.42-654.58 638.42-361.51 0-654.58-285.83-654.58-638.42s293.06-638.42 654.58-638.42c361.51 0 654.58 285.83 654.58 638.42z" clip-path="url(#clipPath3980)" transform="matrix(.18022 0 0 .18505 85.977 392.42)" fill="url(#radialGradient5222)"/>
    </g>
  </g>
  <metadata>
    <rdf:RDF>
      <cc:Work>
        <dc:format>image/svg+xml</dc:format>
        <dc:type rdf:resource="http://purl.org/dc/dcmitype/StillImage"/>
        <cc:license rdf:resource="http://creativecommons.org/licenses/publicdomain/"/>
        <dc:publisher>
          <cc:Agent rdf:about="http://openclipart.org/">
            <dc:title>Openclipart</dc:title>
          </cc:Agent>
        </dc:publisher>
        <dc:title>He Loves Me, He Loves Me Not</dc:title>
        <dc:date>2011-05-08T02:39:21</dc:date>
        <dc:description>Daisy with two fallen petals</dc:description>
        <dc:source>http://openclipart.org/detail/137161/he-loves-me-he-loves-me-not-by-laurianne</dc:source>
        <dc:creator>
          <cc:Agent>
            <dc:title>laurianne</dc:title>
          </cc:Agent>
        </dc:creator>
        <dc:subject>
          <rdf:Bag>
            <rdf:li>Flower</rdf:li>
            <rdf:li>Inkscape</rdf:li>
            <rdf:li>PNG</rdf:li>
            <rdf:li>SVG</rdf:li>
            <rdf:li>blue</rdf:li>
            <rdf:li>cartoon</rdf:li>
            <rdf:li>clip art</rdf:li>
            <rdf:li>clipart</rdf:li>
            <rdf:li>daisy</rdf:li>
            <rdf:li>green</rdf:li>
            <rdf:li>illustration</rdf:li>
            <rdf:li>love</rdf:li>
            <rdf:li>public domain</rdf:li>
            <rdf:li>round</rdf:li>
            <rdf:li>stem</rdf:li>
            <rdf:li>white</rdf:li>
            <rdf:li>yellow</rdf:li>
          </rdf:Bag>
        </dc:subject>
      </cc:Work>
      <cc:License rdf:about="http://creativecommons.org/licenses/publicdomain/">
        <cc:permits rdf:resource="http://creativecommons.org/ns#Reproduction"/>
        <cc:permits rdf:resource="http://creativecommons.org/ns#Distribution"/>
        <cc:permits rdf:resource="http://creativecommons.org/ns#DerivativeWorks"/>
      </cc:License>
    </rdf:RDF>
  </metadata>
</svg>
